<svg width="60" height="60" viewBox="0 0 60 60" fill="none" xmlns="http://www.w3.org/2000/svg">
<rect width="60" height="60" rx="6" fill="white" fill-opacity="0.05"/>
<path d="M42.896 22.8058C42.7642 22.4882 42.5118 22.2358 42.1942 22.104C42.038 22.0374 41.8702 22.0021 41.7004 22H35.2023C34.8576 22 34.527 22.1369 34.2833 22.3807C34.0396 22.6244 33.9026 22.9549 33.9026 23.2996C33.9026 23.6443 34.0396 23.9749 34.2833 24.2186C34.527 24.4623 34.8576 24.5992 35.2023 24.5992H38.5683L31.3034 31.8641L27.0276 27.5754C26.9068 27.4536 26.7631 27.3569 26.6047 27.2909C26.4463 27.2249 26.2765 27.191 26.1049 27.191C25.9333 27.191 25.7635 27.2249 25.6051 27.2909C25.4467 27.3569 25.303 27.4536 25.1822 27.5754L17.3844 35.3731C17.2626 35.4939 17.1659 35.6377 17.1 35.7961C17.034 35.9544 17 36.1243 17 36.2959C17 36.4674 17.034 36.6373 17.1 36.7957C17.1659 36.954 17.2626 37.0978 17.3844 37.2186C17.5052 37.3404 17.649 37.4371 17.8074 37.5031C17.9657 37.569 18.1356 37.603 18.3072 37.603C18.4787 37.603 18.6486 37.569 18.807 37.5031C18.9653 37.4371 19.1091 37.3404 19.2299 37.2186L26.1049 30.3306L30.3807 34.6193C30.5015 34.7412 30.6452 34.8378 30.8036 34.9038C30.962 34.9698 31.1318 35.0038 31.3034 35.0038C31.475 35.0038 31.6448 34.9698 31.8032 34.9038C31.9616 34.8378 32.1053 34.7412 32.2261 34.6193L40.4008 26.4317V29.7977C40.4008 30.1424 40.5377 30.473 40.7814 30.7167C41.0251 30.9604 41.3557 31.0974 41.7004 31.0974C42.0451 31.0974 42.3756 30.9604 42.6194 30.7167C42.8631 30.473 43 30.1424 43 29.7977V23.2996C42.9979 23.1298 42.9626 22.962 42.896 22.8058Z" fill="white"/>
</svg>
