<svg width="60" height="60" viewBox="0 0 60 60" fill="none" xmlns="http://www.w3.org/2000/svg">
<rect width="60" height="60" rx="6" fill="white" fill-opacity="0.05"/>
<path d="M30 18C23.3832 18 18 23.3832 18 30V34.9716C18 36.2004 19.0764 37.2 20.4 37.2H21.6C21.9183 37.2 22.2235 37.0736 22.4485 36.8485C22.6736 36.6235 22.8 36.3183 22.8 36V29.8284C22.8 29.5101 22.6736 29.2049 22.4485 28.9799C22.2235 28.7548 21.9183 28.6284 21.6 28.6284H20.5104C21.1776 23.9844 25.1736 20.4 30 20.4C34.8264 20.4 38.8224 23.9844 39.4896 28.6284H38.4C38.0817 28.6284 37.7765 28.7548 37.5515 28.9799C37.3264 29.2049 37.2 29.5101 37.2 29.8284V37.2C37.2 38.5236 36.1236 39.6 34.8 39.6H32.4V38.4H27.6V42H34.8C37.4472 42 39.6 39.8472 39.6 37.2C40.9236 37.2 42 36.2004 42 34.9716V30C42 23.3832 36.6168 18 30 18Z" fill="white"/>
</svg>
