<svg width="179" height="16" viewBox="0 0 179 16" fill="none" xmlns="http://www.w3.org/2000/svg">
  <path d="M3.90249 7.85118C5.32371 7.85118 6.74494 7.75982 8.15949 7.70998L9.88764 7.61031L17.5142 7.13689C20.5301 6.94309 23.5683 6.74375 26.6287 6.53888L39.6533 5.63355L42.6358 5.45913L50.2224 4.98571L57.8089 4.57042C58.8031 4.51228 59.8106 4.43753 60.7848 4.396L72.8886 3.92258L80.335 3.63188C81.3025 3.63188 82.2766 3.54051 83.2508 3.5239L94.9476 3.32456L106.498 3.10862C107.518 3.10862 108.499 3.10862 109.547 3.10862L117.087 3.06709L128.797 2.97572H132.633H140.64H141.307C135.285 3.07539 129.262 3.1806 123.239 3.29134L115.719 3.49068C114.638 3.49068 113.55 3.49068 112.463 3.54882L101.547 3.91427L88.929 4.33786C88.2218 4.33786 87.5145 4.41261 86.8139 4.45414L80.0881 4.84451L66.4564 5.62525C65.7891 5.62525 65.1219 5.71661 64.4546 5.77475L57.7822 6.34785L45.8653 7.37775C44.771 7.46912 43.6767 7.60201 42.5825 7.71829L34.9492 8.54886L25.2409 9.53724L11.7426 11.0074L8.49978 11.3562C6.56478 11.5638 4.63646 11.8711 2.70813 12.1369C2.65441 12.128 2.59979 12.1335 2.54791 12.153C2.49603 12.1725 2.4481 12.2056 2.40733 12.25C2.36656 12.2944 2.33389 12.3492 2.3115 12.4106C2.28912 12.4721 2.27754 12.5387 2.27754 12.6062C2.27754 12.6737 2.28912 12.7403 2.3115 12.8018C2.33389 12.8632 2.36656 12.918 2.40733 12.9624C2.4481 13.0068 2.49603 13.0399 2.54791 13.0594C2.59979 13.0789 2.65441 13.0844 2.70813 13.0755L4.82328 13.1918C4.73234 13.4189 4.68441 13.6689 4.68316 13.9227C4.68492 14.3802 4.8317 14.8183 5.0916 15.1418C5.35149 15.4654 5.70348 15.6481 6.07102 15.6502C11.5891 15.2184 17.1072 14.7532 22.632 14.4293L37.0177 13.5987L52.918 12.6602L57.929 12.3612C58.4094 12.3612 58.8898 12.2947 59.3703 12.2781L84.9923 11.4476L98.6841 10.999C100.339 10.9492 101.987 10.8994 103.635 10.8662L129.838 10.3595L141.067 10.1353C144.263 10.0688 147.459 10.0439 150.656 9.89439L158.576 9.52063C159.91 9.46249 161.245 9.42096 162.526 9.32129L171.5 8.56547C171.333 8.92781 171.287 9.3576 171.373 9.7615C171.46 10.153 171.666 10.4869 171.947 10.6917C172.09 10.7987 172.249 10.868 172.414 10.8951C172.58 10.9223 172.748 10.9068 172.908 10.8495C173.575 10.5256 174.243 10.1934 174.863 9.85286H174.823L174.963 9.77811L175.13 9.68674H175.07L176.104 9.14687L177.192 8.57378C177.579 8.35783 177.959 8.10035 178.333 7.85118C178.539 7.6955 178.708 7.47579 178.825 7.21366C178.942 6.95152 179.002 6.656 179 6.35615C178.999 5.9795 178.9 5.61335 178.717 5.31347C178.534 5.01359 178.277 4.79641 177.986 4.69501C177.645 4.62026 177.318 4.56212 176.978 4.51228H176.751C176.524 4.51228 176.291 4.51228 176.084 4.57042C175.577 4.57042 175.07 4.71162 174.563 4.75315L173.315 4.86943L169.979 5.16843L169.111 5.24319C169.216 5.09411 169.294 4.91837 169.338 4.72823C169.391 4.57851 169.42 4.41796 169.425 4.2548L169.465 3.89766C169.464 3.74722 169.441 3.59825 169.398 3.45746L169.485 3.40762C169.693 3.25552 169.867 3.04145 169.992 2.78469C170.103 2.52358 170.163 2.23309 170.166 1.93751C170.162 1.62834 170.096 1.32533 169.972 1.0571L169.752 0.708264C169.58 0.493634 169.366 0.338961 169.131 0.259755C168.703 0.0717258 168.251 -0.0155833 167.797 0.00227772C167.43 0.00227772 167.05 0.00227772 166.683 0.0438063H165.068C164.307 0.0438063 163.553 0.0438063 162.793 0.0438063H156.787C154.899 0.0438063 153.011 0.0438063 151.123 0.0438063H145.971C139.126 0.0438063 132.286 0.0936406 125.44 0.176698L110.041 0.475704C107.745 0.475704 105.457 0.542149 103.161 0.608595L87.7347 1.01558L83.3376 1.13186C82.4835 1.13186 81.6361 1.20661 80.782 1.24814L65.5356 1.96243L60.8649 2.18668C59.9975 2.22821 59.1234 2.29466 58.256 2.3528L43.1363 3.36609C40.5274 3.54051 37.9251 3.73985 35.3162 3.93919L21.938 4.98571C18.0747 5.28471 14.2114 5.5505 10.348 5.81628L8.51313 5.94917L5.5439 6.14851C4.66315 6.19834 3.78239 6.22326 2.87494 6.19834C2.83323 6.05327 2.75614 5.92805 2.65445 5.84019C2.55276 5.75233 2.43156 5.70622 2.30778 5.70831C1.74063 5.76645 1.17347 5.8412 0.606319 5.91595C0.474525 5.92716 0.348372 5.98682 0.243842 6.08737C0.139312 6.18791 0.061111 6.32482 0.0191462 6.48074C-0.0213568 6.67898 0.00296367 6.88912 0.0867724 7.06507C0.170581 7.24102 0.307034 7.36841 0.466198 7.41928L1.20684 7.63523C1.45308 7.69848 1.70297 7.73736 1.95415 7.75151C2.60137 7.82626 3.25527 7.84287 3.90249 7.85118ZM160.037 5.18504H162.526C162.598 5.41644 162.712 5.62394 162.859 5.79136C162.539 5.82459 162.219 5.8495 161.899 5.86611L160.084 5.94917L152.15 6.30632C150.942 6.36446 149.735 6.44751 148.527 6.47243L142.862 6.58041L129.918 6.83788L104.789 7.33623C98.7842 7.45251 92.779 7.68507 86.7739 7.8844L59.7105 8.77312C57.9023 8.83956 56.0874 8.98076 54.2792 9.08873L38.8926 10.0107L23.793 10.9077L22.3917 10.9907L26.4619 10.5921L40.6808 9.23824L45.6451 8.76481L48.2073 8.56547L62.9934 7.47742C63.9542 7.40267 64.915 7.31131 65.8825 7.26147L70.0795 7.03722L85.3259 6.29801L88.6622 6.1402C88.9557 6.1402 89.2493 6.1402 89.5496 6.1402L91.9049 6.08206L107.178 5.69169C109.52 5.63355 111.849 5.56711 114.211 5.54219C121.784 5.46744 129.351 5.36777 136.897 5.32624C144.617 5.2598 152.33 5.19335 160.044 5.18504H160.037Z" fill="url(#paint0_linear_2217_4482)"/>
  <defs>
  <linearGradient id="paint0_linear_2217_4482" x1="0" y1="15.6502" x2="179" y2="15.6502" gradientUnits="userSpaceOnUse">
  <stop stop-color="#01977E"/>
  <stop offset="1" stop-color="#10EBC6"/>
  </linearGradient>
  </defs>
</svg>