<svg width="60" height="60" viewBox="0 0 60 60" fill="none" xmlns="http://www.w3.org/2000/svg">
<rect width="60" height="60" rx="6" fill="white" fill-opacity="0.05"/>
<path d="M20.7323 19.4545C20.8764 19.5984 20.9907 19.7693 21.0687 19.9574C21.1466 20.1455 21.1868 20.3472 21.1868 20.5508C21.1868 20.7545 21.1466 20.9561 21.0687 21.1442C20.9907 21.3324 20.8764 21.5033 20.7323 21.6472C18.407 23.9729 17.1007 27.1269 17.1007 30.4157C17.1007 33.7044 18.407 36.8585 20.7323 39.1841C20.8762 39.3281 20.9903 39.499 21.0681 39.6871C21.1459 39.8752 21.1859 40.0767 21.1859 40.2803C21.1858 40.4838 21.1456 40.6853 21.0677 40.8734C20.9897 41.0614 20.8755 41.2322 20.7315 41.3761C20.5875 41.5199 20.4166 41.6341 20.2286 41.7119C20.0405 41.7897 19.8389 41.8297 19.6354 41.8297C19.4319 41.8296 19.2303 41.7894 19.0423 41.7115C18.8543 41.6335 18.6835 41.5193 18.5396 41.3753C12.4868 35.3225 12.4868 25.5073 18.5396 19.4545C18.6835 19.3104 18.8544 19.1961 19.0425 19.1181C19.2307 19.0401 19.4323 19 19.6359 19C19.8396 19 20.0412 19.0401 20.2294 19.1181C20.4175 19.1961 20.5884 19.3104 20.7323 19.4545ZM40.4604 19.4545C46.5132 25.5088 46.5132 35.3225 40.4604 41.3753C40.1681 41.6576 39.7767 41.8138 39.3704 41.8102C38.9641 41.8067 38.5754 41.6437 38.2881 41.3564C38.0008 41.0691 37.8379 40.6805 37.8343 40.2741C37.8308 39.8678 37.987 39.4764 38.2693 39.1841C40.5945 36.8585 41.9009 33.7044 41.9009 30.4157C41.9009 27.1269 40.5945 23.9729 38.2693 21.6472C37.9785 21.3566 37.8151 20.9624 37.8149 20.5514C37.8148 20.1403 37.9779 19.746 38.2685 19.4553C38.559 19.1645 38.9532 19.0011 39.3643 19.0009C39.7754 19.0008 40.1696 19.1639 40.4604 19.4545ZM25.33 23.9081C25.6205 24.1987 25.7837 24.5927 25.7837 25.0036C25.7837 25.4145 25.6205 25.8086 25.33 26.0992C24.7659 26.6633 24.3184 27.333 24.0131 28.07C23.7077 28.807 23.5506 29.597 23.5506 30.3947C23.5506 31.1925 23.7077 31.9825 24.0131 32.7195C24.3184 33.4565 24.7659 34.1262 25.33 34.6903C25.478 34.8332 25.5961 35.0042 25.6773 35.1933C25.7585 35.3823 25.8012 35.5857 25.803 35.7914C25.8048 35.9972 25.7656 36.2012 25.6877 36.3917C25.6098 36.5821 25.4947 36.7551 25.3492 36.9006C25.2037 37.0461 25.0307 37.1612 24.8402 37.2391C24.6498 37.317 24.4458 37.3562 24.24 37.3544C24.0342 37.3527 23.8309 37.3099 23.6418 37.2287C23.4528 37.1475 23.2818 37.0294 23.1388 36.8814C21.4185 35.161 20.452 32.8277 20.452 30.3947C20.452 27.9618 21.4185 25.6285 23.1388 23.9081C23.4294 23.6176 23.8235 23.4544 24.2344 23.4544C24.6453 23.4544 25.0394 23.6176 25.33 23.9081ZM36.1137 23.9081C37.8341 25.6285 38.8006 27.9618 38.8006 30.3947C38.8006 32.8277 37.8341 35.161 36.1137 36.8814C35.9699 37.0254 35.7991 37.1396 35.611 37.2176C35.423 37.2955 35.2215 37.3357 35.0179 37.3358C34.8144 37.3358 34.6128 37.2958 34.4248 37.218C34.2367 37.1402 34.0658 37.0261 33.9218 36.8822C33.7778 36.7383 33.6636 36.5675 33.5857 36.3795C33.5077 36.1915 33.4675 35.9899 33.4675 35.7864C33.4674 35.5829 33.5074 35.3813 33.5852 35.1932C33.6631 35.0051 33.7772 34.8342 33.921 34.6903C34.4852 34.1262 34.9327 33.4565 35.238 32.7195C35.5433 31.9825 35.7004 31.1925 35.7004 30.3947C35.7004 29.597 35.5433 28.807 35.238 28.07C34.9327 27.333 34.4852 26.6633 33.921 26.0992C33.6305 25.8084 33.4673 25.4142 33.4675 25.0031C33.4676 24.592 33.6311 24.1979 33.9218 23.9073C34.2126 23.6167 34.6069 23.4536 35.0179 23.4537C35.429 23.4539 35.8232 23.6173 36.1137 23.9081ZM29.6255 28.2005C29.9308 28.2005 30.233 28.2606 30.515 28.3774C30.797 28.4942 31.0533 28.6655 31.2691 28.8813C31.485 29.0971 31.6562 29.3534 31.773 29.6354C31.8898 29.9174 31.9499 30.2197 31.9499 30.5249C31.9499 30.8302 31.8898 31.1324 31.773 31.4144C31.6562 31.6964 31.485 31.9527 31.2691 32.1685C31.0533 32.3844 30.797 32.5556 30.515 32.6724C30.233 32.7892 29.9308 32.8493 29.6255 32.8493C29.009 32.8493 28.4178 32.6044 27.9819 32.1685C27.546 31.7326 27.3011 31.1414 27.3011 30.5249C27.3011 29.9084 27.546 29.3172 27.9819 28.8813C28.4178 28.4454 29.009 28.2005 29.6255 28.2005Z" fill="white"/>
</svg>
