<svg width="1243" height="833" fill="none" xmlns="http://www.w3.org/2000/svg"><path d="M567.014 140.905h-65.681v-33.9h39.329c.272.005.535-.098.732-.286a.965.965 0 0 0 .234-1.108.969.969 0 0 0-.234-.325 1.037 1.037 0 0 0-.732-.286H428.051a1.042 1.042 0 0 0-.734.286.961.961 0 0 0-.234 1.109.951.951 0 0 0 .234.324c.198.188.461.291.734.286h71.177v33.9h-44.821a1.025 1.025 0 0 0-.715.294.994.994 0 0 0-.295.709.994.994 0 0 0 .295.709c.191.187.448.291.715.291h71.178v34.461a1.044 1.044 0 0 0 1.051 1.041 1.056 1.056 0 0 0 .97-.643c.052-.126.08-.262.08-.398v-34.461h39.328a.994.994 0 0 0 1.01-1 .99.99 0 0 0-.295-.709 1.02 1.02 0 0 0-.715-.294Z" fill="#292F3D" fill-opacity=".5"/><path d="M1242.27 106.996h-43.53V81.865h28.42a.76.76 0 0 0 .28-.056c.09-.037.17-.09.23-.159a.722.722 0 0 0 .22-.515.722.722 0 0 0-.22-.516.617.617 0 0 0-.23-.158.76.76 0 0 0-.28-.056h-55.48V53.354h28.42c.75 0 1.09-.253 1.09-.64V27.604h28.42a.71.71 0 0 0 .51-.213.723.723 0 0 0 .22-.517c0-.193-.08-.379-.22-.516a.71.71 0 0 0-.51-.214h-47.46V1.46h28.41c.2.004.39-.07.54-.207a.759.759 0 0 0 .22-.523.758.758 0 0 0-.22-.523.774.774 0 0 0-.54-.207h-81.38a.767.767 0 0 0-.53.206.752.752 0 0 0-.22.524.752.752 0 0 0 .22.523.767.767 0 0 0 .53.207h51.45v24.685h-32.39c-.2 0-.38.077-.52.214a.714.714 0 0 0-.21.516c0 .194.07.38.21.517.14.136.32.213.52.213h51.43v24.289h-80.94a.75.75 0 0 0-.52.214.757.757 0 0 0-.21.516c0 .194.08.38.21.516a.75.75 0 0 0 .52.214h51.43v27.051h-24.37c-.09 0-.19.018-.28.055a.614.614 0 0 0-.23.158.616.616 0 0 0-.16.237.68.68 0 0 0 0 .56c.03.089.09.17.16.237.06.068.14.122.23.158.09.037.19.055.28.055h51.44v25.131h-36.34a.71.71 0 0 0-.51.214.722.722 0 0 0-.22.515c0 .194.08.379.22.516a.71.71 0 0 0 .51.214h51.44v25.092c.02.194.1.375.24.508a.772.772 0 0 0 1.05 0 .807.807 0 0 0 .24-.508v-25.093h28.41a.75.75 0 0 0 .52-.213.756.756 0 0 0 .21-.516.753.753 0 0 0-.21-.515.75.75 0 0 0-.52-.214ZM124.271 804.996H80.744v-25.131h28.414a.729.729 0 0 0 .73-.73.734.734 0 0 0-.45-.674.729.729 0 0 0-.28-.056H53.684v-27.051h28.415c.749 0 1.091-.253 1.091-.641v-25.108h28.419a.73.73 0 0 0 0-1.46h-47.46V699.46h28.413a.751.751 0 0 0 .7-.446.683.683 0 0 0 0-.568.792.792 0 0 0-.166-.239.756.756 0 0 0-.534-.207h-81.38a.733.733 0 0 0-.75.73.728.728 0 0 0 .75.73h51.445v24.685h-32.39a.73.73 0 0 0 0 1.46H81.67v24.289H.73a.73.73 0 0 0 0 1.46h51.432v27.051H27.793a.729.729 0 0 0-.518 1.247.718.718 0 0 0 .518.213h51.433v25.131H42.892a.728.728 0 0 0 0 1.459h51.442v25.092a.763.763 0 0 0 1.522 0v-25.093h28.415a.726.726 0 0 0 .729-.729.727.727 0 0 0-.729-.729Z" fill="#292F3D"/></svg>