<svg width="1195" height="331" viewBox="0 0 1195 331" fill="none" xmlns="http://www.w3.org/2000/svg">
    <rect x="223" y="270" width="219" height="61" fill="#1C1E25"/>
    <rect x="442" y="208" width="251" height="123" fill="#1C1E25"/>
    <rect x="693" y="145" width="251" height="186" fill="#1C1E25"/>
    <rect x="944" y="82" width="251" height="249" fill="#1C1E25"/>
    <path d="M222 270V330" stroke="#F2F2F2" stroke-dasharray="6 6"/>
    <path d="M442 207L442 330" stroke="#F2F2F2" stroke-dasharray="6 6"/>
    <path d="M693 145L693 330" stroke="#F2F2F2" stroke-dasharray="6 6"/>
    <path d="M944 79L944 330" stroke="#F2F2F2" stroke-dasharray="6 6"/>
    <rect width="221" height="3" rx="1" transform="matrix(1 -8.74228e-08 -8.74228e-08 -1 221 271)" fill="url(#paint0_linear_1415_3170)"/>
    <rect width="221" height="3" rx="1" transform="matrix(1 -8.74228e-08 -8.74228e-08 -1 0 331)" fill="url(#paint1_linear_1415_3170)"/>
    <rect width="251" height="2.99998" rx="1" transform="matrix(1 -8.74228e-08 -8.74228e-08 -1 442 208)" fill="url(#paint2_linear_1415_3170)"/>
    <rect width="251" height="2.99998" rx="1" transform="matrix(1 -8.74228e-08 -8.74228e-08 -1 693 145)" fill="url(#paint3_linear_1415_3170)"/>
    <rect width="251" height="2.99998" rx="1" transform="matrix(1 -8.74228e-08 -8.74228e-08 -1 944 82)" fill="url(#paint4_linear_1415_3170)"/>
    <path d="M58.1191 290L64.4991 275.9H66.6591L73.1191 290H70.4991L68.7791 286.04L69.8191 286.74H61.3591L62.4391 286.04L60.7191 290H58.1191ZM65.5591 278.66L62.7391 285.34L62.2191 284.72H68.9391L68.5191 285.34L65.6391 278.66H65.5591ZM74.4791 294.32V282.42C74.4791 282.007 74.4658 281.587 74.4391 281.16C74.4125 280.733 74.3725 280.313 74.3191 279.9H76.7391L76.9591 282.02H76.7391C76.9391 281.313 77.3591 280.753 77.9991 280.34C78.6525 279.913 79.4058 279.7 80.2591 279.7C81.1525 279.7 81.9325 279.913 82.5991 280.34C83.2658 280.753 83.7858 281.353 84.1591 282.14C84.5325 282.913 84.7191 283.847 84.7191 284.94C84.7191 286.033 84.5325 286.973 84.1591 287.76C83.7858 288.547 83.2658 289.153 82.5991 289.58C81.9325 289.993 81.1525 290.2 80.2591 290.2C79.4191 290.2 78.6791 289.993 78.0391 289.58C77.3991 289.167 76.9725 288.613 76.7591 287.92H76.9791V294.32H74.4791ZM79.5591 288.28C80.3591 288.28 80.9991 288.007 81.4791 287.46C81.9591 286.9 82.1991 286.06 82.1991 284.94C82.1991 283.82 81.9591 282.987 81.4791 282.44C80.9991 281.893 80.3591 281.62 79.5591 281.62C78.7725 281.62 78.1391 281.893 77.6591 282.44C77.1791 282.987 76.9391 283.82 76.9391 284.94C76.9391 286.06 77.1791 286.9 77.6591 287.46C78.1391 288.007 78.7725 288.28 79.5591 288.28ZM86.8815 294.32V282.42C86.8815 282.007 86.8682 281.587 86.8415 281.16C86.8148 280.733 86.7748 280.313 86.7215 279.9H89.1415L89.3615 282.02H89.1415C89.3415 281.313 89.7615 280.753 90.4015 280.34C91.0548 279.913 91.8082 279.7 92.6615 279.7C93.5548 279.7 94.3348 279.913 95.0015 280.34C95.6682 280.753 96.1882 281.353 96.5615 282.14C96.9348 282.913 97.1215 283.847 97.1215 284.94C97.1215 286.033 96.9348 286.973 96.5615 287.76C96.1882 288.547 95.6682 289.153 95.0015 289.58C94.3348 289.993 93.5548 290.2 92.6615 290.2C91.8215 290.2 91.0815 289.993 90.4415 289.58C89.8015 289.167 89.3748 288.613 89.1615 287.92H89.3815V294.32H86.8815ZM91.9615 288.28C92.7615 288.28 93.4015 288.007 93.8815 287.46C94.3615 286.9 94.6015 286.06 94.6015 284.94C94.6015 283.82 94.3615 282.987 93.8815 282.44C93.4015 281.893 92.7615 281.62 91.9615 281.62C91.1748 281.62 90.5415 281.893 90.0615 282.44C89.5815 282.987 89.3415 283.82 89.3415 284.94C89.3415 286.06 89.5815 286.9 90.0615 287.46C90.5415 288.007 91.1748 288.28 91.9615 288.28ZM99.2838 290V275.28H101.784V290H99.2838ZM104.299 294.54L103.719 292.56C104.345 292.427 104.872 292.273 105.299 292.1C105.725 291.927 106.079 291.7 106.359 291.42C106.639 291.14 106.872 290.78 107.059 290.34L107.559 289.16L107.499 290.14L103.099 279.9H105.759L108.919 287.78H108.339L111.519 279.9H114.039L109.439 290.56C109.132 291.28 108.799 291.873 108.439 292.34C108.079 292.82 107.692 293.2 107.279 293.48C106.865 293.773 106.412 294 105.919 294.16C105.425 294.32 104.885 294.447 104.299 294.54ZM121.046 290V275.9H122.986L131.166 286.48H130.646V275.9H133.046V290H131.106L122.946 279.42H123.446V290H121.046ZM140.504 290.2C139.464 290.2 138.564 289.987 137.804 289.56C137.044 289.133 136.451 288.527 136.024 287.74C135.611 286.953 135.404 286.02 135.404 284.94C135.404 283.86 135.611 282.933 136.024 282.16C136.451 281.373 137.044 280.767 137.804 280.34C138.564 279.913 139.464 279.7 140.504 279.7C141.544 279.7 142.444 279.913 143.204 280.34C143.977 280.767 144.571 281.373 144.984 282.16C145.411 282.933 145.624 283.86 145.624 284.94C145.624 286.02 145.411 286.953 144.984 287.74C144.571 288.527 143.977 289.133 143.204 289.56C142.444 289.987 141.544 290.2 140.504 290.2ZM140.504 288.28C141.291 288.28 141.917 288.007 142.384 287.46C142.851 286.9 143.084 286.06 143.084 284.94C143.084 283.82 142.851 282.987 142.384 282.44C141.917 281.893 141.291 281.62 140.504 281.62C139.717 281.62 139.091 281.893 138.624 282.44C138.157 282.987 137.924 283.82 137.924 284.94C137.924 286.06 138.157 286.9 138.624 287.46C139.091 288.007 139.717 288.28 140.504 288.28ZM150.385 290L146.445 279.9H149.025L151.865 287.76H151.345L154.225 279.9H156.005L158.865 287.76H158.405L161.225 279.9H163.665L159.725 290H157.525L154.505 281.96H155.565L152.605 290H150.385Z" fill="white"/>
    <path d="M271.104 227L277.484 212.9H279.644L286.104 227H283.484L281.764 223.04L282.804 223.74H274.344L275.424 223.04L273.704 227H271.104ZM278.544 215.66L275.724 222.34L275.204 221.72H281.924L281.504 222.34L278.624 215.66H278.544ZM291.491 227.2C290.291 227.2 289.384 226.887 288.771 226.26C288.157 225.633 287.851 224.693 287.851 223.44V218.78H285.911V216.9H287.851V214.32L290.351 213.68V216.9H293.051V218.78H290.351V223.28C290.351 223.973 290.484 224.46 290.751 224.74C291.017 225.02 291.384 225.16 291.851 225.16C292.104 225.16 292.317 225.14 292.491 225.1C292.677 225.06 292.857 225.007 293.031 224.94V226.92C292.804 227.013 292.551 227.08 292.271 227.12C292.004 227.173 291.744 227.2 291.491 227.2ZM298.502 227.2C297.302 227.2 296.396 226.887 295.782 226.26C295.169 225.633 294.862 224.693 294.862 223.44V218.78H292.922V216.9H294.862V214.32L297.362 213.68V216.9H300.062V218.78H297.362V223.28C297.362 223.973 297.496 224.46 297.762 224.74C298.029 225.02 298.396 225.16 298.862 225.16C299.116 225.16 299.329 225.14 299.502 225.1C299.689 225.06 299.869 225.007 300.042 224.94V226.92C299.816 227.013 299.562 227.08 299.282 227.12C299.016 227.173 298.756 227.2 298.502 227.2ZM306.543 227.2C305.409 227.2 304.436 226.993 303.623 226.58C302.823 226.153 302.203 225.547 301.763 224.76C301.336 223.973 301.123 223.04 301.123 221.96C301.123 220.907 301.329 219.987 301.743 219.2C302.156 218.413 302.729 217.8 303.463 217.36C304.209 216.92 305.076 216.7 306.063 216.7C307.036 216.7 307.849 216.907 308.503 217.32C309.156 217.733 309.649 218.313 309.983 219.06C310.329 219.807 310.503 220.68 310.503 221.68V222.34H303.143V221.02H308.723L308.383 221.3C308.383 220.367 308.183 219.653 307.783 219.16C307.396 218.667 306.829 218.42 306.083 218.42C305.523 218.42 305.049 218.553 304.663 218.82C304.289 219.087 304.003 219.467 303.803 219.96C303.603 220.453 303.503 221.053 303.503 221.76V222.02C303.503 223.113 303.769 223.933 304.303 224.48C304.849 225.013 305.616 225.28 306.603 225.28C307.176 225.28 307.709 225.207 308.203 225.06C308.709 224.9 309.189 224.647 309.643 224.3L310.383 225.98C309.903 226.367 309.329 226.667 308.663 226.88C307.996 227.093 307.289 227.2 306.543 227.2ZM312.62 227V219.42C312.62 219.007 312.606 218.587 312.58 218.16C312.553 217.733 312.513 217.313 312.46 216.9H314.88L315.08 218.9H314.84C315.12 218.207 315.546 217.667 316.12 217.28C316.706 216.893 317.4 216.7 318.2 216.7C319 216.7 319.66 216.893 320.18 217.28C320.713 217.653 321.086 218.24 321.3 219.04H320.98C321.26 218.32 321.72 217.753 322.36 217.34C323 216.913 323.733 216.7 324.56 216.7C325.693 216.7 326.54 217.033 327.1 217.7C327.66 218.367 327.94 219.407 327.94 220.82V227H325.44V220.92C325.44 220.12 325.306 219.547 325.04 219.2C324.773 218.84 324.346 218.66 323.76 218.66C323.066 218.66 322.52 218.907 322.12 219.4C321.72 219.88 321.52 220.533 321.52 221.36V227H319.02V220.92C319.02 220.12 318.886 219.547 318.62 219.2C318.353 218.84 317.926 218.66 317.34 218.66C316.646 218.66 316.1 218.907 315.7 219.4C315.313 219.88 315.12 220.533 315.12 221.36V227H312.62ZM330.608 231.32V219.42C330.608 219.007 330.595 218.587 330.568 218.16C330.541 217.733 330.501 217.313 330.448 216.9H332.868L333.088 219.02H332.868C333.068 218.313 333.488 217.753 334.128 217.34C334.781 216.913 335.535 216.7 336.388 216.7C337.281 216.7 338.061 216.913 338.728 217.34C339.395 217.753 339.915 218.353 340.288 219.14C340.661 219.913 340.848 220.847 340.848 221.94C340.848 223.033 340.661 223.973 340.288 224.76C339.915 225.547 339.395 226.153 338.728 226.58C338.061 226.993 337.281 227.2 336.388 227.2C335.548 227.2 334.808 226.993 334.168 226.58C333.528 226.167 333.101 225.613 332.888 224.92H333.108V231.32H330.608ZM335.688 225.28C336.488 225.28 337.128 225.007 337.608 224.46C338.088 223.9 338.328 223.06 338.328 221.94C338.328 220.82 338.088 219.987 337.608 219.44C337.128 218.893 336.488 218.62 335.688 218.62C334.901 218.62 334.268 218.893 333.788 219.44C333.308 219.987 333.068 220.82 333.068 221.94C333.068 223.06 333.308 223.9 333.788 224.46C334.268 225.007 334.901 225.28 335.688 225.28ZM347.233 227.2C346.033 227.2 345.126 226.887 344.513 226.26C343.899 225.633 343.593 224.693 343.593 223.44V218.78H341.653V216.9H343.593V214.32L346.093 213.68V216.9H348.793V218.78H346.093V223.28C346.093 223.973 346.226 224.46 346.493 224.74C346.759 225.02 347.126 225.16 347.593 225.16C347.846 225.16 348.059 225.14 348.233 225.1C348.419 225.06 348.599 225.007 348.773 224.94V226.92C348.546 227.013 348.293 227.08 348.013 227.12C347.746 227.173 347.486 227.2 347.233 227.2ZM359.499 227V215.02H354.839V212.9H366.739V215.02H362.079V227H359.499ZM371.679 227.2C370.546 227.2 369.573 226.993 368.759 226.58C367.959 226.153 367.339 225.547 366.899 224.76C366.473 223.973 366.259 223.04 366.259 221.96C366.259 220.907 366.466 219.987 366.879 219.2C367.293 218.413 367.866 217.8 368.599 217.36C369.346 216.92 370.213 216.7 371.199 216.7C372.173 216.7 372.986 216.907 373.639 217.32C374.293 217.733 374.786 218.313 375.119 219.06C375.466 219.807 375.639 220.68 375.639 221.68V222.34H368.279V221.02H373.859L373.519 221.3C373.519 220.367 373.319 219.653 372.919 219.16C372.533 218.667 371.966 218.42 371.219 218.42C370.659 218.42 370.186 218.553 369.799 218.82C369.426 219.087 369.139 219.467 368.939 219.96C368.739 220.453 368.639 221.053 368.639 221.76V222.02C368.639 223.113 368.906 223.933 369.439 224.48C369.986 225.013 370.753 225.28 371.739 225.28C372.313 225.28 372.846 225.207 373.339 225.06C373.846 224.9 374.326 224.647 374.779 224.3L375.519 225.98C375.039 226.367 374.466 226.667 373.799 226.88C373.133 227.093 372.426 227.2 371.679 227.2ZM381.356 227.2C380.49 227.2 379.69 227.1 378.956 226.9C378.236 226.687 377.63 226.393 377.136 226.02L377.836 224.34C378.343 224.687 378.903 224.953 379.516 225.14C380.13 225.327 380.75 225.42 381.376 225.42C382.043 225.42 382.536 225.307 382.856 225.08C383.19 224.853 383.356 224.547 383.356 224.16C383.356 223.853 383.25 223.613 383.036 223.44C382.836 223.253 382.51 223.113 382.056 223.02L380.056 222.64C379.203 222.453 378.55 222.133 378.096 221.68C377.656 221.227 377.436 220.633 377.436 219.9C377.436 219.273 377.603 218.72 377.936 218.24C378.283 217.76 378.77 217.387 379.396 217.12C380.036 216.84 380.783 216.7 381.636 216.7C382.383 216.7 383.083 216.8 383.736 217C384.403 217.2 384.963 217.5 385.416 217.9L384.696 219.52C384.283 219.187 383.81 218.927 383.276 218.74C382.743 218.553 382.223 218.46 381.716 218.46C381.023 218.46 380.516 218.587 380.196 218.84C379.876 219.08 379.716 219.393 379.716 219.78C379.716 220.073 379.81 220.32 379.996 220.52C380.196 220.707 380.503 220.847 380.916 220.94L382.916 221.32C383.81 221.493 384.483 221.8 384.936 222.24C385.403 222.667 385.636 223.253 385.636 224C385.636 224.667 385.456 225.24 385.096 225.72C384.736 226.2 384.236 226.567 383.596 226.82C382.956 227.073 382.21 227.2 381.356 227.2ZM391.998 227.2C390.798 227.2 389.892 226.887 389.278 226.26C388.665 225.633 388.358 224.693 388.358 223.44V218.78H386.418V216.9H388.358V214.32L390.858 213.68V216.9H393.558V218.78H390.858V223.28C390.858 223.973 390.992 224.46 391.258 224.74C391.525 225.02 391.892 225.16 392.358 225.16C392.612 225.16 392.825 225.14 392.998 225.1C393.185 225.06 393.365 225.007 393.538 224.94V226.92C393.312 227.013 393.058 227.08 392.778 227.12C392.512 227.173 392.252 227.2 391.998 227.2Z" fill="white"/>
    <path d="M528.179 176.2C526.712 176.2 525.452 175.907 524.399 175.32C523.359 174.72 522.559 173.88 521.999 172.8C521.439 171.707 521.159 170.42 521.159 168.94C521.159 167.46 521.439 166.18 521.999 165.1C522.559 164.02 523.359 163.187 524.399 162.6C525.452 162 526.712 161.7 528.179 161.7C529.165 161.7 530.052 161.84 530.839 162.12C531.639 162.4 532.325 162.813 532.899 163.36L532.059 165.4C531.432 164.893 530.825 164.533 530.239 164.32C529.665 164.093 529.005 163.98 528.259 163.98C526.832 163.98 525.739 164.413 524.979 165.28C524.232 166.133 523.859 167.353 523.859 168.94C523.859 169.993 524.025 170.893 524.359 171.64C524.692 172.387 525.185 172.953 525.839 173.34C526.505 173.727 527.312 173.92 528.259 173.92C529.005 173.92 529.665 173.813 530.239 173.6C530.825 173.373 531.432 173 532.059 172.48L532.899 174.52C532.325 175.053 531.639 175.467 530.839 175.76C530.052 176.053 529.165 176.2 528.179 176.2ZM535.11 176V161.28H537.61V176H535.11ZM545.205 176.2C544.072 176.2 543.098 175.993 542.285 175.58C541.485 175.153 540.865 174.547 540.425 173.76C539.998 172.973 539.785 172.04 539.785 170.96C539.785 169.907 539.992 168.987 540.405 168.2C540.818 167.413 541.392 166.8 542.125 166.36C542.872 165.92 543.738 165.7 544.725 165.7C545.698 165.7 546.512 165.907 547.165 166.32C547.818 166.733 548.312 167.313 548.645 168.06C548.992 168.807 549.165 169.68 549.165 170.68V171.34H541.805V170.02H547.385L547.045 170.3C547.045 169.367 546.845 168.653 546.445 168.16C546.058 167.667 545.492 167.42 544.745 167.42C544.185 167.42 543.712 167.553 543.325 167.82C542.952 168.087 542.665 168.467 542.465 168.96C542.265 169.453 542.165 170.053 542.165 170.76V171.02C542.165 172.113 542.432 172.933 542.965 173.48C543.512 174.013 544.278 174.28 545.265 174.28C545.838 174.28 546.372 174.207 546.865 174.06C547.372 173.9 547.852 173.647 548.305 173.3L549.045 174.98C548.565 175.367 547.992 175.667 547.325 175.88C546.658 176.093 545.952 176.2 545.205 176.2ZM555.182 176.2C554.302 176.2 553.529 175.993 552.862 175.58C552.195 175.153 551.675 174.547 551.302 173.76C550.929 172.973 550.742 172.033 550.742 170.94C550.742 169.847 550.929 168.913 551.302 168.14C551.675 167.353 552.195 166.753 552.862 166.34C553.529 165.913 554.302 165.7 555.182 165.7C556.035 165.7 556.782 165.913 557.422 166.34C558.075 166.753 558.509 167.313 558.722 168.02H558.502L558.722 165.9H561.122C561.082 166.313 561.042 166.733 561.002 167.16C560.975 167.587 560.962 168.007 560.962 168.42V176H558.482L558.462 173.92H558.702C558.489 174.613 558.055 175.167 557.402 175.58C556.749 175.993 556.009 176.2 555.182 176.2ZM555.882 174.28C556.669 174.28 557.302 174.007 557.782 173.46C558.262 172.9 558.502 172.06 558.502 170.94C558.502 169.82 558.262 168.987 557.782 168.44C557.302 167.893 556.669 167.62 555.882 167.62C555.095 167.62 554.462 167.893 553.982 168.44C553.502 168.987 553.262 169.82 553.262 170.94C553.262 172.06 553.495 172.9 553.962 173.46C554.442 174.007 555.082 174.28 555.882 174.28ZM563.664 176V168.48C563.664 168.053 563.651 167.62 563.624 167.18C563.611 166.74 563.578 166.313 563.524 165.9H565.944L566.224 168.66H565.824C565.958 167.993 566.178 167.44 566.484 167C566.804 166.56 567.191 166.233 567.644 166.02C568.098 165.807 568.591 165.7 569.124 165.7C569.364 165.7 569.558 165.713 569.704 165.74C569.851 165.753 569.998 165.787 570.144 165.84L570.124 168.04C569.871 167.933 569.651 167.867 569.464 167.84C569.291 167.813 569.071 167.8 568.804 167.8C568.231 167.8 567.744 167.92 567.344 168.16C566.958 168.4 566.664 168.733 566.464 169.16C566.278 169.587 566.184 170.073 566.184 170.62V176H563.664ZM580.544 176V164.02H575.884V161.9H587.784V164.02H583.124V176H580.544ZM592.724 176.2C591.591 176.2 590.618 175.993 589.804 175.58C589.004 175.153 588.384 174.547 587.944 173.76C587.518 172.973 587.304 172.04 587.304 170.96C587.304 169.907 587.511 168.987 587.924 168.2C588.338 167.413 588.911 166.8 589.644 166.36C590.391 165.92 591.258 165.7 592.244 165.7C593.218 165.7 594.031 165.907 594.684 166.32C595.338 166.733 595.831 167.313 596.164 168.06C596.511 168.807 596.684 169.68 596.684 170.68V171.34H589.324V170.02H594.904L594.564 170.3C594.564 169.367 594.364 168.653 593.964 168.16C593.578 167.667 593.011 167.42 592.264 167.42C591.704 167.42 591.231 167.553 590.844 167.82C590.471 168.087 590.184 168.467 589.984 168.96C589.784 169.453 589.684 170.053 589.684 170.76V171.02C589.684 172.113 589.951 172.933 590.484 173.48C591.031 174.013 591.798 174.28 592.784 174.28C593.358 174.28 593.891 174.207 594.384 174.06C594.891 173.9 595.371 173.647 595.824 173.3L596.564 174.98C596.084 175.367 595.511 175.667 594.844 175.88C594.178 176.093 593.471 176.2 592.724 176.2ZM602.401 176.2C601.535 176.2 600.735 176.1 600.001 175.9C599.281 175.687 598.675 175.393 598.181 175.02L598.881 173.34C599.388 173.687 599.948 173.953 600.561 174.14C601.175 174.327 601.795 174.42 602.421 174.42C603.088 174.42 603.581 174.307 603.901 174.08C604.235 173.853 604.401 173.547 604.401 173.16C604.401 172.853 604.295 172.613 604.081 172.44C603.881 172.253 603.555 172.113 603.101 172.02L601.101 171.64C600.248 171.453 599.595 171.133 599.141 170.68C598.701 170.227 598.481 169.633 598.481 168.9C598.481 168.273 598.648 167.72 598.981 167.24C599.328 166.76 599.815 166.387 600.441 166.12C601.081 165.84 601.828 165.7 602.681 165.7C603.428 165.7 604.128 165.8 604.781 166C605.448 166.2 606.008 166.5 606.461 166.9L605.741 168.52C605.328 168.187 604.855 167.927 604.321 167.74C603.788 167.553 603.268 167.46 602.761 167.46C602.068 167.46 601.561 167.587 601.241 167.84C600.921 168.08 600.761 168.393 600.761 168.78C600.761 169.073 600.855 169.32 601.041 169.52C601.241 169.707 601.548 169.847 601.961 169.94L603.961 170.32C604.855 170.493 605.528 170.8 605.981 171.24C606.448 171.667 606.681 172.253 606.681 173C606.681 173.667 606.501 174.24 606.141 174.72C605.781 175.2 605.281 175.567 604.641 175.82C604.001 176.073 603.255 176.2 602.401 176.2ZM613.043 176.2C611.843 176.2 610.937 175.887 610.323 175.26C609.71 174.633 609.403 173.693 609.403 172.44V167.78H607.463V165.9H609.403V163.32L611.903 162.68V165.9H614.603V167.78H611.903V172.28C611.903 172.973 612.037 173.46 612.303 173.74C612.57 174.02 612.937 174.16 613.403 174.16C613.657 174.16 613.87 174.14 614.043 174.1C614.23 174.06 614.41 174.007 614.583 173.94V175.92C614.357 176.013 614.103 176.08 613.823 176.12C613.557 176.173 613.297 176.2 613.043 176.2Z" fill="white"/>
    <path d="M741.73 122V107.9H744.31V122H741.73ZM747.214 122V114.42C747.214 114.007 747.2 113.587 747.174 113.16C747.147 112.733 747.107 112.313 747.054 111.9H749.474L749.674 113.9H749.434C749.754 113.193 750.227 112.653 750.854 112.28C751.48 111.893 752.207 111.7 753.034 111.7C754.22 111.7 755.114 112.033 755.714 112.7C756.314 113.367 756.614 114.407 756.614 115.82V122H754.114V115.94C754.114 115.127 753.954 114.547 753.634 114.2C753.327 113.84 752.86 113.66 752.234 113.66C751.46 113.66 750.847 113.9 750.394 114.38C749.94 114.86 749.714 115.5 749.714 116.3V122H747.214ZM763.584 122.2C762.384 122.2 761.478 121.887 760.864 121.26C760.251 120.633 759.944 119.693 759.944 118.44V113.78H758.004V111.9H759.944V109.32L762.444 108.68V111.9H765.144V113.78H762.444V118.28C762.444 118.973 762.578 119.46 762.844 119.74C763.111 120.02 763.478 120.16 763.944 120.16C764.198 120.16 764.411 120.14 764.584 120.1C764.771 120.06 764.951 120.007 765.124 119.94V121.92C764.898 122.013 764.644 122.08 764.364 122.12C764.098 122.173 763.838 122.2 763.584 122.2ZM771.625 122.2C770.491 122.2 769.518 121.993 768.705 121.58C767.905 121.153 767.285 120.547 766.845 119.76C766.418 118.973 766.205 118.04 766.205 116.96C766.205 115.907 766.411 114.987 766.825 114.2C767.238 113.413 767.811 112.8 768.545 112.36C769.291 111.92 770.158 111.7 771.145 111.7C772.118 111.7 772.931 111.907 773.585 112.32C774.238 112.733 774.731 113.313 775.065 114.06C775.411 114.807 775.585 115.68 775.585 116.68V117.34H768.225V116.02H773.805L773.465 116.3C773.465 115.367 773.265 114.653 772.865 114.16C772.478 113.667 771.911 113.42 771.165 113.42C770.605 113.42 770.131 113.553 769.745 113.82C769.371 114.087 769.085 114.467 768.885 114.96C768.685 115.453 768.585 116.053 768.585 116.76V117.02C768.585 118.113 768.851 118.933 769.385 119.48C769.931 120.013 770.698 120.28 771.685 120.28C772.258 120.28 772.791 120.207 773.285 120.06C773.791 119.9 774.271 119.647 774.725 119.3L775.465 120.98C774.985 121.367 774.411 121.667 773.745 121.88C773.078 122.093 772.371 122.2 771.625 122.2ZM777.682 122V114.48C777.682 114.053 777.668 113.62 777.642 113.18C777.628 112.74 777.595 112.313 777.542 111.9H779.962L780.242 114.66H779.842C779.975 113.993 780.195 113.44 780.502 113C780.822 112.56 781.208 112.233 781.662 112.02C782.115 111.807 782.608 111.7 783.142 111.7C783.382 111.7 783.575 111.713 783.722 111.74C783.868 111.753 784.015 111.787 784.162 111.84L784.142 114.04C783.888 113.933 783.668 113.867 783.482 113.84C783.308 113.813 783.088 113.8 782.822 113.8C782.248 113.8 781.762 113.92 781.362 114.16C780.975 114.4 780.682 114.733 780.482 115.16C780.295 115.587 780.202 116.073 780.202 116.62V122H777.682ZM789.119 122L784.759 111.9H787.419L790.579 119.8H789.959L793.199 111.9H795.699L791.319 122H789.119ZM797.038 122V111.9H799.538V122H797.038ZM796.898 110V107.56H799.678V110H796.898ZM807.133 122.2C805.999 122.2 805.026 121.993 804.213 121.58C803.413 121.153 802.793 120.547 802.353 119.76C801.926 118.973 801.713 118.04 801.713 116.96C801.713 115.907 801.919 114.987 802.333 114.2C802.746 113.413 803.319 112.8 804.053 112.36C804.799 111.92 805.666 111.7 806.653 111.7C807.626 111.7 808.439 111.907 809.093 112.32C809.746 112.733 810.239 113.313 810.573 114.06C810.919 114.807 811.093 115.68 811.093 116.68V117.34H803.733V116.02H809.313L808.973 116.3C808.973 115.367 808.773 114.653 808.373 114.16C807.986 113.667 807.419 113.42 806.673 113.42C806.113 113.42 805.639 113.553 805.253 113.82C804.879 114.087 804.593 114.467 804.393 114.96C804.193 115.453 804.093 116.053 804.093 116.76V117.02C804.093 118.113 804.359 118.933 804.893 119.48C805.439 120.013 806.206 120.28 807.193 120.28C807.766 120.28 808.299 120.207 808.793 120.06C809.299 119.9 809.779 119.647 810.233 119.3L810.973 120.98C810.493 121.367 809.919 121.667 809.253 121.88C808.586 122.093 807.879 122.2 807.133 122.2ZM815.853 122L811.913 111.9H814.493L817.333 119.76H816.813L819.693 111.9H821.473L824.333 119.76H823.873L826.693 111.9H829.133L825.193 122H822.993L819.973 113.96H821.033L818.073 122H815.853ZM836.398 122V107.9H842.558C844.105 107.9 845.298 108.267 846.138 109C846.991 109.733 847.418 110.753 847.418 112.06C847.418 112.927 847.225 113.667 846.838 114.28C846.465 114.893 845.925 115.367 845.218 115.7C844.511 116.02 843.678 116.18 842.718 116.18L842.998 115.8H843.678C844.238 115.8 844.738 115.947 845.178 116.24C845.618 116.533 845.978 116.98 846.258 117.58L848.318 122H845.478L843.398 117.42C843.211 116.953 842.925 116.647 842.538 116.5C842.165 116.353 841.711 116.28 841.178 116.28H838.978V122H836.398ZM838.978 114.38H842.138C843.045 114.38 843.731 114.193 844.198 113.82C844.678 113.433 844.918 112.873 844.918 112.14C844.918 111.407 844.678 110.853 844.198 110.48C843.731 110.107 843.045 109.92 842.138 109.92H838.978V114.38ZM854.547 122.2C853.507 122.2 852.607 121.987 851.847 121.56C851.087 121.133 850.494 120.527 850.067 119.74C849.654 118.953 849.447 118.02 849.447 116.94C849.447 115.86 849.654 114.933 850.067 114.16C850.494 113.373 851.087 112.767 851.847 112.34C852.607 111.913 853.507 111.7 854.547 111.7C855.587 111.7 856.487 111.913 857.247 112.34C858.02 112.767 858.614 113.373 859.027 114.16C859.454 114.933 859.667 115.86 859.667 116.94C859.667 118.02 859.454 118.953 859.027 119.74C858.614 120.527 858.02 121.133 857.247 121.56C856.487 121.987 855.587 122.2 854.547 122.2ZM854.547 120.28C855.334 120.28 855.96 120.007 856.427 119.46C856.894 118.9 857.127 118.06 857.127 116.94C857.127 115.82 856.894 114.987 856.427 114.44C855.96 113.893 855.334 113.62 854.547 113.62C853.76 113.62 853.134 113.893 852.667 114.44C852.2 114.987 851.967 115.82 851.967 116.94C851.967 118.06 852.2 118.9 852.667 119.46C853.134 120.007 853.76 120.28 854.547 120.28ZM865.463 122.2C864.223 122.2 863.296 121.86 862.683 121.18C862.07 120.5 861.763 119.46 861.763 118.06V111.9H864.263V118.04C864.263 118.787 864.416 119.34 864.723 119.7C865.03 120.047 865.496 120.22 866.123 120.22C866.83 120.22 867.403 119.98 867.843 119.5C868.296 119.02 868.523 118.387 868.523 117.6V111.9H871.023V122H868.583V119.94H868.863C868.57 120.66 868.123 121.22 867.523 121.62C866.936 122.007 866.25 122.2 865.463 122.2ZM873.737 122V114.42C873.737 114.007 873.724 113.587 873.697 113.16C873.67 112.733 873.63 112.313 873.577 111.9H875.997L876.197 113.9H875.957C876.277 113.193 876.75 112.653 877.377 112.28C878.004 111.893 878.73 111.7 879.557 111.7C880.744 111.7 881.637 112.033 882.237 112.7C882.837 113.367 883.137 114.407 883.137 115.82V122H880.637V115.94C880.637 115.127 880.477 114.547 880.157 114.2C879.85 113.84 879.384 113.66 878.757 113.66C877.984 113.66 877.37 113.9 876.917 114.38C876.464 114.86 876.237 115.5 876.237 116.3V122H873.737ZM889.708 122.2C888.828 122.2 888.048 121.993 887.368 121.58C886.701 121.153 886.181 120.547 885.808 119.76C885.434 118.973 885.248 118.033 885.248 116.94C885.248 115.847 885.434 114.913 885.808 114.14C886.181 113.353 886.701 112.753 887.368 112.34C888.048 111.913 888.828 111.7 889.708 111.7C890.548 111.7 891.288 111.907 891.928 112.32C892.581 112.72 893.014 113.267 893.228 113.96H892.968V107.28H895.468V122H893.008V119.86H893.248C893.034 120.58 892.601 121.153 891.948 121.58C891.308 121.993 890.561 122.2 889.708 122.2ZM890.408 120.28C891.194 120.28 891.828 120.007 892.308 119.46C892.788 118.9 893.028 118.06 893.028 116.94C893.028 115.82 892.788 114.987 892.308 114.44C891.828 113.893 891.194 113.62 890.408 113.62C889.621 113.62 888.981 113.893 888.488 114.44C888.008 114.987 887.768 115.82 887.768 116.94C887.768 118.06 888.008 118.9 888.488 119.46C888.981 120.007 889.621 120.28 890.408 120.28Z" fill="white"/>
    <path d="M979.613 51.2C978.479 51.2 977.433 51.06 976.473 50.78C975.526 50.4867 974.713 50.0867 974.033 49.58L974.833 47.56C975.286 47.88 975.759 48.1533 976.253 48.38C976.746 48.5933 977.273 48.76 977.833 48.88C978.393 48.9867 978.986 49.04 979.613 49.04C980.666 49.04 981.426 48.8667 981.893 48.52C982.359 48.1733 982.593 47.72 982.593 47.16C982.593 46.6667 982.433 46.2933 982.113 46.04C981.793 45.7733 981.219 45.5533 980.393 45.38L978.133 44.92C976.839 44.6533 975.873 44.2067 975.233 43.58C974.593 42.9533 974.273 42.1133 974.273 41.06C974.273 40.18 974.506 39.4133 974.973 38.76C975.439 38.1067 976.093 37.6 976.933 37.24C977.773 36.88 978.753 36.7 979.873 36.7C980.873 36.7 981.799 36.8467 982.653 37.14C983.506 37.42 984.219 37.8267 984.793 38.36L983.993 40.28C983.419 39.8 982.793 39.4467 982.113 39.22C981.433 38.98 980.673 38.86 979.833 38.86C978.886 38.86 978.146 39.0467 977.613 39.42C977.093 39.78 976.833 40.28 976.833 40.92C976.833 41.4133 976.993 41.8067 977.313 42.1C977.646 42.3933 978.206 42.62 978.993 42.78L981.233 43.22C982.566 43.4867 983.553 43.9267 984.193 44.54C984.833 45.14 985.153 45.9533 985.153 46.98C985.153 47.82 984.926 48.56 984.473 49.2C984.019 49.8267 983.379 50.32 982.553 50.68C981.726 51.0267 980.746 51.2 979.613 51.2ZM991.023 51.2C989.783 51.2 988.857 50.86 988.243 50.18C987.63 49.5 987.323 48.46 987.323 47.06V40.9H989.823V47.04C989.823 47.7867 989.977 48.34 990.283 48.7C990.59 49.0467 991.057 49.22 991.683 49.22C992.39 49.22 992.963 48.98 993.403 48.5C993.857 48.02 994.083 47.3867 994.083 46.6V40.9H996.583V51H994.143V48.94H994.423C994.13 49.66 993.683 50.22 993.083 50.62C992.497 51.0067 991.81 51.2 991.023 51.2ZM1003.94 51.2C1002.9 51.2 1001.98 50.9867 1001.2 50.56C1000.42 50.1333 999.824 49.5267 999.398 48.74C998.971 47.94 998.758 46.9933 998.758 45.9C998.758 44.8067 998.971 43.8733 999.398 43.1C999.838 42.3267 1000.44 41.7333 1001.22 41.32C1001.99 40.9067 1002.9 40.7 1003.94 40.7C1004.6 40.7 1005.25 40.8067 1005.88 41.02C1006.52 41.22 1007.04 41.5133 1007.44 41.9L1006.68 43.64C1006.32 43.3067 1005.91 43.06 1005.46 42.9C1005.02 42.7267 1004.58 42.64 1004.16 42.64C1003.26 42.64 1002.56 42.92 1002.06 43.48C1001.56 44.04 1001.32 44.8533 1001.32 45.92C1001.32 46.9867 1001.56 47.8067 1002.06 48.38C1002.56 48.9533 1003.26 49.24 1004.16 49.24C1004.57 49.24 1005 49.16 1005.44 49C1005.89 48.84 1006.3 48.5933 1006.68 48.26L1007.44 49.98C1007.02 50.3667 1006.5 50.6667 1005.86 50.88C1005.23 51.0933 1004.59 51.2 1003.94 51.2ZM1013.82 51.2C1012.78 51.2 1011.87 50.9867 1011.08 50.56C1010.31 50.1333 1009.71 49.5267 1009.28 48.74C1008.85 47.94 1008.64 46.9933 1008.64 45.9C1008.64 44.8067 1008.85 43.8733 1009.28 43.1C1009.72 42.3267 1010.33 41.7333 1011.1 41.32C1011.87 40.9067 1012.78 40.7 1013.82 40.7C1014.49 40.7 1015.13 40.8067 1015.76 41.02C1016.4 41.22 1016.92 41.5133 1017.32 41.9L1016.56 43.64C1016.2 43.3067 1015.79 43.06 1015.34 42.9C1014.9 42.7267 1014.47 42.64 1014.04 42.64C1013.15 42.64 1012.45 42.92 1011.94 43.48C1011.45 44.04 1011.2 44.8533 1011.2 45.92C1011.2 46.9867 1011.45 47.8067 1011.94 48.38C1012.45 48.9533 1013.15 49.24 1014.04 49.24C1014.45 49.24 1014.88 49.16 1015.32 49C1015.77 48.84 1016.19 48.5933 1016.56 48.26L1017.32 49.98C1016.91 50.3667 1016.38 50.6667 1015.74 50.88C1015.11 51.0933 1014.47 51.2 1013.82 51.2ZM1023.94 51.2C1022.81 51.2 1021.84 50.9933 1021.02 50.58C1020.22 50.1533 1019.6 49.5467 1019.16 48.76C1018.74 47.9733 1018.52 47.04 1018.52 45.96C1018.52 44.9067 1018.73 43.9867 1019.14 43.2C1019.56 42.4133 1020.13 41.8 1020.86 41.36C1021.61 40.92 1022.48 40.7 1023.46 40.7C1024.44 40.7 1025.25 40.9067 1025.9 41.32C1026.56 41.7333 1027.05 42.3133 1027.38 43.06C1027.73 43.8067 1027.9 44.68 1027.9 45.68V46.34H1020.54V45.02H1026.12L1025.78 45.3C1025.78 44.3667 1025.58 43.6533 1025.18 43.16C1024.8 42.6667 1024.23 42.42 1023.48 42.42C1022.92 42.42 1022.45 42.5533 1022.06 42.82C1021.69 43.0867 1021.4 43.4667 1021.2 43.96C1021 44.4533 1020.9 45.0533 1020.9 45.76V46.02C1020.9 47.1133 1021.17 47.9333 1021.7 48.48C1022.25 49.0133 1023.02 49.28 1024 49.28C1024.58 49.28 1025.11 49.2067 1025.6 49.06C1026.11 48.9 1026.59 48.6467 1027.04 48.3L1027.78 49.98C1027.3 50.3667 1026.73 50.6667 1026.06 50.88C1025.4 51.0933 1024.69 51.2 1023.94 51.2ZM1033.62 51.2C1032.75 51.2 1031.95 51.1 1031.22 50.9C1030.5 50.6867 1029.89 50.3933 1029.4 50.02L1030.1 48.34C1030.61 48.6867 1031.17 48.9533 1031.78 49.14C1032.39 49.3267 1033.01 49.42 1033.64 49.42C1034.31 49.42 1034.8 49.3067 1035.12 49.08C1035.45 48.8533 1035.62 48.5467 1035.62 48.16C1035.62 47.8533 1035.51 47.6133 1035.3 47.44C1035.1 47.2533 1034.77 47.1133 1034.32 47.02L1032.32 46.64C1031.47 46.4533 1030.81 46.1333 1030.36 45.68C1029.92 45.2267 1029.7 44.6333 1029.7 43.9C1029.7 43.2733 1029.87 42.72 1030.2 42.24C1030.55 41.76 1031.03 41.3867 1031.66 41.12C1032.3 40.84 1033.05 40.7 1033.9 40.7C1034.65 40.7 1035.35 40.8 1036 41C1036.67 41.2 1037.23 41.5 1037.68 41.9L1036.96 43.52C1036.55 43.1867 1036.07 42.9267 1035.54 42.74C1035.01 42.5533 1034.49 42.46 1033.98 42.46C1033.29 42.46 1032.78 42.5867 1032.46 42.84C1032.14 43.08 1031.98 43.3933 1031.98 43.78C1031.98 44.0733 1032.07 44.32 1032.26 44.52C1032.46 44.7067 1032.77 44.8467 1033.18 44.94L1035.18 45.32C1036.07 45.4933 1036.75 45.8 1037.2 46.24C1037.67 46.6667 1037.9 47.2533 1037.9 48C1037.9 48.6667 1037.72 49.24 1037.36 49.72C1037 50.2 1036.5 50.5667 1035.86 50.82C1035.22 51.0733 1034.47 51.2 1033.62 51.2ZM1043.64 51.2C1042.77 51.2 1041.97 51.1 1041.24 50.9C1040.52 50.6867 1039.91 50.3933 1039.42 50.02L1040.12 48.34C1040.63 48.6867 1041.19 48.9533 1041.8 49.14C1042.41 49.3267 1043.03 49.42 1043.66 49.42C1044.33 49.42 1044.82 49.3067 1045.14 49.08C1045.47 48.8533 1045.64 48.5467 1045.64 48.16C1045.64 47.8533 1045.53 47.6133 1045.32 47.44C1045.12 47.2533 1044.79 47.1133 1044.34 47.02L1042.34 46.64C1041.49 46.4533 1040.83 46.1333 1040.38 45.68C1039.94 45.2267 1039.72 44.6333 1039.72 43.9C1039.72 43.2733 1039.89 42.72 1040.22 42.24C1040.57 41.76 1041.05 41.3867 1041.68 41.12C1042.32 40.84 1043.07 40.7 1043.92 40.7C1044.67 40.7 1045.37 40.8 1046.02 41C1046.69 41.2 1047.25 41.5 1047.7 41.9L1046.98 43.52C1046.57 43.1867 1046.09 42.9267 1045.56 42.74C1045.03 42.5533 1044.51 42.46 1044 42.46C1043.31 42.46 1042.8 42.5867 1042.48 42.84C1042.16 43.08 1042 43.3933 1042 43.78C1042 44.0733 1042.09 44.32 1042.28 44.52C1042.48 44.7067 1042.79 44.8467 1043.2 44.94L1045.2 45.32C1046.09 45.4933 1046.77 45.8 1047.22 46.24C1047.69 46.6667 1047.92 47.2533 1047.92 48C1047.92 48.6667 1047.74 49.24 1047.38 49.72C1047.02 50.2 1046.52 50.5667 1045.88 50.82C1045.24 51.0733 1044.49 51.2 1043.64 51.2ZM1050.74 51V42.78H1048.8V40.9H1051.44L1050.74 41.54V40C1050.74 38.7467 1051.06 37.8 1051.7 37.16C1052.35 36.52 1053.31 36.2 1054.56 36.2C1054.85 36.2 1055.16 36.22 1055.48 36.26C1055.81 36.3 1056.1 36.3733 1056.34 36.48V38.44C1056.17 38.3733 1055.96 38.32 1055.72 38.28C1055.48 38.24 1055.25 38.22 1055.02 38.22C1054.67 38.22 1054.36 38.2867 1054.08 38.42C1053.81 38.5533 1053.6 38.76 1053.44 39.04C1053.29 39.3067 1053.22 39.6667 1053.22 40.12V41.34L1052.86 40.9H1055.88V42.78H1053.24V51H1050.74ZM1061.06 51.2C1059.82 51.2 1058.9 50.86 1058.28 50.18C1057.67 49.5 1057.36 48.46 1057.36 47.06V40.9H1059.86V47.04C1059.86 47.7867 1060.02 48.34 1060.32 48.7C1060.63 49.0467 1061.1 49.22 1061.72 49.22C1062.43 49.22 1063 48.98 1063.44 48.5C1063.9 48.02 1064.12 47.3867 1064.12 46.6V40.9H1066.62V51H1064.18V48.94H1064.46C1064.17 49.66 1063.72 50.22 1063.12 50.62C1062.54 51.0067 1061.85 51.2 1061.06 51.2ZM1069.34 51V36.28H1071.84V51H1069.34ZM1074.55 51V36.28H1077.05V51H1074.55ZM1079.57 55.54L1078.99 53.56C1079.61 53.4267 1080.14 53.2733 1080.57 53.1C1080.99 52.9267 1081.35 52.7 1081.63 52.42C1081.91 52.14 1082.14 51.78 1082.33 51.34L1082.83 50.16L1082.77 51.14L1078.37 40.9H1081.03L1084.19 48.78H1083.61L1086.79 40.9H1089.31L1084.71 51.56C1084.4 52.28 1084.07 52.8733 1083.71 53.34C1083.35 53.82 1082.96 54.2 1082.55 54.48C1082.13 54.7733 1081.68 55 1081.19 55.16C1080.69 55.32 1080.15 55.4467 1079.57 55.54ZM1100.99 51.2C1099.86 51.2 1098.89 50.9933 1098.07 50.58C1097.27 50.1533 1096.65 49.5467 1096.21 48.76C1095.79 47.9733 1095.57 47.04 1095.57 45.96C1095.57 44.9067 1095.78 43.9867 1096.19 43.2C1096.61 42.4133 1097.18 41.8 1097.91 41.36C1098.66 40.92 1099.53 40.7 1100.51 40.7C1101.49 40.7 1102.3 40.9067 1102.95 41.32C1103.61 41.7333 1104.1 42.3133 1104.43 43.06C1104.78 43.8067 1104.95 44.68 1104.95 45.68V46.34H1097.59V45.02H1103.17L1102.83 45.3C1102.83 44.3667 1102.63 43.6533 1102.23 43.16C1101.85 42.6667 1101.28 42.42 1100.53 42.42C1099.97 42.42 1099.5 42.5533 1099.11 42.82C1098.74 43.0867 1098.45 43.4667 1098.25 43.96C1098.05 44.4533 1097.95 45.0533 1097.95 45.76V46.02C1097.95 47.1133 1098.22 47.9333 1098.75 48.48C1099.3 49.0133 1100.07 49.28 1101.05 49.28C1101.63 49.28 1102.16 49.2067 1102.65 49.06C1103.16 48.9 1103.64 48.6467 1104.09 48.3L1104.83 49.98C1104.35 50.3667 1103.78 50.6667 1103.11 50.88C1102.45 51.0933 1101.74 51.2 1100.99 51.2ZM1107.07 51V43.42C1107.07 43.0067 1107.06 42.5867 1107.03 42.16C1107 41.7333 1106.96 41.3133 1106.91 40.9H1109.33L1109.53 42.9H1109.29C1109.61 42.1933 1110.08 41.6533 1110.71 41.28C1111.34 40.8933 1112.06 40.7 1112.89 40.7C1114.08 40.7 1114.97 41.0333 1115.57 41.7C1116.17 42.3667 1116.47 43.4067 1116.47 44.82V51H1113.97V44.94C1113.97 44.1267 1113.81 43.5467 1113.49 43.2C1113.18 42.84 1112.72 42.66 1112.09 42.66C1111.32 42.66 1110.7 42.9 1110.25 43.38C1109.8 43.86 1109.57 44.5 1109.57 45.3V51H1107.07ZM1119.1 51V43.48C1119.1 43.0533 1119.09 42.62 1119.06 42.18C1119.05 41.74 1119.02 41.3133 1118.96 40.9H1121.38L1121.66 43.66H1121.26C1121.4 42.9933 1121.62 42.44 1121.92 42C1122.24 41.56 1122.63 41.2333 1123.08 41.02C1123.54 40.8067 1124.03 40.7 1124.56 40.7C1124.8 40.7 1125 40.7133 1125.14 40.74C1125.29 40.7533 1125.44 40.7867 1125.58 40.84L1125.56 43.04C1125.31 42.9333 1125.09 42.8667 1124.9 42.84C1124.73 42.8133 1124.51 42.8 1124.24 42.8C1123.67 42.8 1123.18 42.92 1122.78 43.16C1122.4 43.4 1122.1 43.7333 1121.9 44.16C1121.72 44.5867 1121.62 45.0733 1121.62 45.62V51H1119.1ZM1131.38 51.2C1130.34 51.2 1129.44 50.9867 1128.68 50.56C1127.92 50.1333 1127.32 49.5267 1126.9 48.74C1126.48 47.9533 1126.28 47.02 1126.28 45.94C1126.28 44.86 1126.48 43.9333 1126.9 43.16C1127.32 42.3733 1127.92 41.7667 1128.68 41.34C1129.44 40.9133 1130.34 40.7 1131.38 40.7C1132.42 40.7 1133.32 40.9133 1134.08 41.34C1134.85 41.7667 1135.44 42.3733 1135.86 43.16C1136.28 43.9333 1136.5 44.86 1136.5 45.94C1136.5 47.02 1136.28 47.9533 1135.86 48.74C1135.44 49.5267 1134.85 50.1333 1134.08 50.56C1133.32 50.9867 1132.42 51.2 1131.38 51.2ZM1131.38 49.28C1132.16 49.28 1132.79 49.0067 1133.26 48.46C1133.72 47.9 1133.96 47.06 1133.96 45.94C1133.96 44.82 1133.72 43.9867 1133.26 43.44C1132.79 42.8933 1132.16 42.62 1131.38 42.62C1130.59 42.62 1129.96 42.8933 1129.5 43.44C1129.03 43.9867 1128.8 44.82 1128.8 45.94C1128.8 47.06 1129.03 47.9 1129.5 48.46C1129.96 49.0067 1130.59 49.28 1131.38 49.28ZM1138.65 51V36.28H1141.15V51H1138.65ZM1148.75 51.2C1147.61 51.2 1146.64 50.9933 1145.83 50.58C1145.03 50.1533 1144.41 49.5467 1143.97 48.76C1143.54 47.9733 1143.33 47.04 1143.33 45.96C1143.33 44.9067 1143.53 43.9867 1143.95 43.2C1144.36 42.4133 1144.93 41.8 1145.67 41.36C1146.41 40.92 1147.28 40.7 1148.27 40.7C1149.24 40.7 1150.05 40.9067 1150.71 41.32C1151.36 41.7333 1151.85 42.3133 1152.19 43.06C1152.53 43.8067 1152.71 44.68 1152.71 45.68V46.34H1145.35V45.02H1150.93L1150.59 45.3C1150.59 44.3667 1150.39 43.6533 1149.99 43.16C1149.6 42.6667 1149.03 42.42 1148.29 42.42C1147.73 42.42 1147.25 42.5533 1146.87 42.82C1146.49 43.0867 1146.21 43.4667 1146.01 43.96C1145.81 44.4533 1145.71 45.0533 1145.71 45.76V46.02C1145.71 47.1133 1145.97 47.9333 1146.51 48.48C1147.05 49.0133 1147.82 49.28 1148.81 49.28C1149.38 49.28 1149.91 49.2067 1150.41 49.06C1150.91 48.9 1151.39 48.6467 1151.85 48.3L1152.59 49.98C1152.11 50.3667 1151.53 50.6667 1150.87 50.88C1150.2 51.0933 1149.49 51.2 1148.75 51.2ZM1158.74 51.2C1157.86 51.2 1157.08 50.9933 1156.4 50.58C1155.74 50.1533 1155.22 49.5467 1154.84 48.76C1154.47 47.9733 1154.28 47.0333 1154.28 45.94C1154.28 44.8467 1154.47 43.9133 1154.84 43.14C1155.22 42.3533 1155.74 41.7533 1156.4 41.34C1157.08 40.9133 1157.86 40.7 1158.74 40.7C1159.58 40.7 1160.32 40.9067 1160.96 41.32C1161.62 41.72 1162.05 42.2667 1162.26 42.96H1162V36.28H1164.5V51H1162.04V48.86H1162.28C1162.07 49.58 1161.64 50.1533 1160.98 50.58C1160.34 50.9933 1159.6 51.2 1158.74 51.2ZM1159.44 49.28C1160.23 49.28 1160.86 49.0067 1161.34 48.46C1161.82 47.9 1162.06 47.06 1162.06 45.94C1162.06 44.82 1161.82 43.9867 1161.34 43.44C1160.86 42.8933 1160.23 42.62 1159.44 42.62C1158.66 42.62 1158.02 42.8933 1157.52 43.44C1157.04 43.9867 1156.8 44.82 1156.8 45.94C1156.8 47.06 1157.04 47.9 1157.52 48.46C1158.02 49.0067 1158.66 49.28 1159.44 49.28Z" fill="white"/>
    <path d="M110.315 224H97.7397C97.3312 224 97 224.331 97 224.74V250.26C97 250.669 97.3312 251 97.7397 251H123.26C123.669 251 124 250.669 124 250.26V237.685" stroke="white" stroke-width="1.5"/>
    <path d="M120.16 224.141L105.936 238.366C105.898 238.404 105.877 238.454 105.877 238.507V241.923C105.877 242.034 105.966 242.123 106.077 242.123H109.493C109.546 242.123 109.597 242.102 109.634 242.065L123.859 227.84C123.937 227.762 123.937 227.635 123.859 227.557L120.443 224.141C120.365 224.063 120.238 224.063 120.16 224.141Z" stroke="url(#paint5_linear_1415_3170)" stroke-width="1.5"/>
    <path d="M333 176L317 160V191H347.5L345.5 189" stroke="white" stroke-width="1.5"/>
    <path d="M323.5 176.5V184H330.5" stroke="white" stroke-width="1.5"/>
    <path fill-rule="evenodd" clip-rule="evenodd" d="M338.46 165.412C338.955 164.67 340.045 164.67 340.54 165.412L341.54 166.912C341.677 167.118 341.75 167.359 341.75 167.606V180.25H337.25V167.606C337.25 167.359 337.323 167.118 337.46 166.912L338.46 165.412ZM337.25 181.75V184.5C337.25 185.19 337.81 185.75 338.5 185.75H340.5C341.19 185.75 341.75 185.19 341.75 184.5V181.75H337.25ZM341.788 164.58C340.7 162.947 338.3 162.947 337.212 164.58L336.212 166.08C335.911 166.532 335.75 167.063 335.75 167.606V184.5C335.75 186.019 336.981 187.25 338.5 187.25H340.5C342.019 187.25 343.25 186.019 343.25 184.5V167.606C343.25 167.063 343.089 166.532 342.788 166.08L341.788 164.58Z" fill="url(#paint6_linear_1415_3170)"/>
    <path d="M569 106C568.296 106 560.312 106 554.999 106C553.894 106 553 106.895 553 108V126.5C553 127.605 553.895 128.5 555 128.5H577.5C578.605 128.5 579.5 127.605 579.5 126.5V114.5" stroke="white" stroke-width="1.5"/>
    <path d="M556 119L559 122L564.5 114L569.5 122L576 114" stroke="url(#paint7_linear_1415_3170)" stroke-width="1.5"/>
    <path d="M569.691 111.059L569.706 111.037L569.72 111.013L574.972 101.961C574.972 101.96 574.972 101.96 574.972 101.96C575.01 101.896 575.063 101.843 575.127 101.806C575.192 101.769 575.265 101.75 575.339 101.75C575.413 101.75 575.486 101.769 575.551 101.806C575.615 101.843 575.668 101.896 575.706 101.96C575.706 101.96 575.706 101.96 575.706 101.961L580.958 111.013L580.971 111.037L580.987 111.059C581.031 111.124 581.056 111.2 581.06 111.279C581.064 111.357 581.046 111.435 581.008 111.504C580.97 111.573 580.914 111.63 580.846 111.669C580.777 111.707 580.7 111.727 580.621 111.724L580.609 111.724H580.596H570.081H570.069L570.057 111.724C569.978 111.727 569.9 111.707 569.832 111.669C569.764 111.63 569.708 111.573 569.67 111.504C569.632 111.435 569.614 111.357 569.618 111.279C569.621 111.2 569.647 111.124 569.691 111.059Z" stroke="white" stroke-width="1.5"/>
    <mask id="path-27-inside-1_1415_3170" fill="white">
    <rect x="803" y="57" width="32" height="23.7931" rx="1.46923"/>
    </mask>
    <rect x="803" y="57" width="32" height="23.7931" rx="1.46923" stroke="white" stroke-width="3" mask="url(#path-27-inside-1_1415_3170)"/>
    <path d="M818.484 79.7587V87" stroke="white" stroke-width="1.5"/>
    <path d="M813.324 87H825.195" stroke="white" stroke-width="1.5" stroke-linecap="round"/>
    <path d="M822.399 69.7601L817.313 72.6962C817.06 72.8425 816.743 72.6596 816.743 72.367L816.743 66.4949C816.743 66.2023 817.06 66.0194 817.313 66.1657L822.399 69.1018C822.652 69.2481 822.652 69.6138 822.399 69.7601Z" stroke="url(#paint8_linear_1415_3170)" stroke-width="1.5"/>
    <path d="M1066.91 13.7302L1059 10.9618L1053.98 9.20787C1051.34 8.28561 1051.34 6.77716 1053.98 5.8549L1066.91 1.33261C1068.18 0.889129 1070.26 0.889129 1071.52 1.33261L1084.46 5.8549C1087.1 6.77716 1087.1 8.28561 1084.46 9.20634L1071.52 13.7286C1070.26 14.1736 1068.18 14.1736 1066.91 13.7302Z" stroke="white" stroke-width="1.5"/>
    <path d="M1059.12 11.6876V18.0115C1059.12 18.6316 1059.53 19.1827 1060.13 19.3878L1068.7 22.2906C1069.04 22.4034 1069.4 22.4034 1069.73 22.2906L1078.3 19.3878C1078.91 19.1827 1079.31 18.6316 1079.31 18.0115V11.6876" stroke="white" stroke-width="1.5"/>
    <path d="M1068.62 8.12512L1076.93 12.1988V22.1012" stroke="url(#paint9_linear_1415_3170)" stroke-width="1.2871" stroke-linecap="round"/>
    <path d="M1078.12 25.9376H1075.75V23.6862C1075.75 22.9627 1076.28 22.3751 1076.94 22.3751C1077.59 22.3751 1078.13 22.9613 1078.13 23.6862V25.9376H1078.12Z" stroke="url(#paint10_linear_1415_3170)" stroke-width="1.2871" stroke-linecap="round"/>
    <path d="M1075.33 23.5243C1075.33 22.6357 1076.05 21.9154 1076.94 21.9154V21.9154C1077.83 21.9154 1078.55 22.6357 1078.55 23.5243V25.9376H1075.33V23.5243Z" fill="url(#paint11_linear_1415_3170)"/>
    <path d="M1060.78 277.464L1058.47 277.026L1048.42 330.048L1050.74 330.486L1060.78 277.464Z" fill="#184655"/>
    <path d="M1127.51 330.743H1130.29L1119.91 277.024L1117.6 277.468L1127.51 330.743Z" fill="#184655"/>
    <path d="M1076.54 330.743H1079.33L1068.95 277.024L1066.64 277.468L1076.54 330.743Z" fill="#184655"/>
    <path d="M1102.14 330.743L1099.88 330.773L1109.83 277.271L1112.14 277.706L1102.14 330.743Z" fill="#184655"/>
    <path d="M1092.05 204.683C1101.21 205.661 1113.07 206.699 1124.97 226.902C1137.98 248.983 1131.13 281.966 1120.86 291.128C1110.59 300.291 1077.05 311.608 1048.86 294.667C1048.86 294.667 1031.84 284.397 1040.57 267.357C1054.02 241.135 1052.12 235.669 1058.13 225.39C1064.14 215.11 1072.6 202.597 1092.05 204.683Z" fill="#103C5A"/>
    <path d="M1124.97 226.902C1116.85 213.114 1108.74 208.251 1101.51 206.245C1104.31 209.141 1107.15 212.867 1109.99 217.69C1123 239.771 1116.15 272.754 1105.88 281.916C1096.78 290.041 1069.37 299.866 1043.61 290.16C1046.26 293.085 1048.86 294.657 1048.86 294.657C1077.06 311.598 1110.59 300.281 1120.86 291.118C1131.13 281.966 1137.98 248.983 1124.97 226.902Z" fill="#07345A"/>
    <path d="M1008.22 234.681L1034.4 234.483C1034.99 234.483 1035.48 233.989 1035.48 233.396L1035.35 215.891C1035.35 215.298 1034.85 214.814 1034.26 214.814L1008.08 215.012C1007.48 215.012 1007 215.506 1007 216.099L1007.13 233.603C1007.13 234.206 1007.62 234.681 1008.22 234.681Z" fill="#F47458"/>
    <path d="M1034.55 224.55L1043 233.169L1032.57 231.221L1034.55 224.55Z" fill="#F47458"/>
    <path d="M1026.92 223.334L1024.38 223.285C1024.38 223.285 1021.17 220.893 1021.07 220.043C1020.98 219.193 1021.5 217.404 1021.01 217.176C1020.51 216.949 1019.45 216.771 1018.79 217.898C1018.31 218.708 1018.71 221.683 1018.42 221.881C1018.23 222.01 1016.76 222.019 1015.7 222.01C1015 222.01 1014.35 222.395 1014.02 223.018C1013.79 223.433 1013.9 223.957 1014.26 224.263L1014.83 224.738L1014.38 225.331C1014.05 225.775 1014.14 226.398 1014.58 226.734L1015.03 227.08L1014.72 227.426C1014.32 227.881 1014.4 228.573 1014.9 228.909L1015.29 229.185L1015.23 229.294C1014.99 229.749 1015.12 230.322 1015.56 230.609L1015.95 230.875L1022.73 230.994C1023.37 231.004 1024 230.885 1024.58 230.648L1026.97 230.292C1027.23 230.253 1027.42 230.035 1027.42 229.778L1027.44 223.848C1027.43 223.571 1027.2 223.344 1026.92 223.334Z" fill="white"/>
    <path d="M1062.63 238.249L1060.27 245.316L1067.45 242.489L1062.63 238.249Z" fill="#F79C8D"/>
    <path d="M1070.03 217.216C1069.56 217.236 1068.24 217.67 1066.33 221.288C1063.87 225.904 1060.3 239.83 1060.3 239.83L1070.98 243.794L1072.36 240.888L1074.62 218.501C1074.61 218.501 1070.16 217.216 1070.03 217.216Z" fill="#F26A3E"/>
    <path d="M1084.15 215.209C1081.09 215.209 1073.53 216.099 1070.02 217.216C1070.02 217.216 1067.44 239.287 1072.34 256.07C1073.44 259.825 1071.44 271.637 1071.44 271.637L1103.09 271.222C1103.09 271.222 1099.35 242.667 1100.76 238.061C1102.17 233.445 1102.2 217.374 1102.2 217.374C1102.2 217.374 1101.99 217.344 1095.09 216.148C1091.88 215.595 1087.41 215.209 1084.15 215.209Z" fill="#FB8133"/>
    <path d="M1087.84 312.606C1087.84 312.606 1087.14 320.661 1085.86 322.895C1084.57 325.129 1085.93 328.915 1085.99 329.438C1086.06 329.962 1088.7 330.704 1092.9 330.259C1097.1 329.814 1097.03 328.845 1096.7 327.284C1096.36 325.722 1094.12 323.716 1093.99 322.223C1093.85 320.74 1095.28 315.383 1095.28 315.383L1087.84 312.606Z" fill="#F7A491"/>
    <path d="M1075.01 264.985C1075.01 264.985 1053.16 263.779 1048.29 266.725C1043.4 269.67 1049.17 275.719 1049.17 275.719C1049.17 275.719 1066.96 283.428 1096.74 285.138C1103.8 285.544 1104.4 266.814 1103.08 265.262C1101.76 263.71 1075.01 264.985 1075.01 264.985Z" fill="#327F6B"/>
    <path d="M1093.43 330.881C1097.75 330.427 1097.22 328.302 1096.87 326.7C1096.65 325.692 1095.4 324.506 1094.66 323.379C1094.28 323.686 1093.64 324.229 1091.76 324.783C1089.82 325.356 1087.14 324.22 1085.44 323.508C1084.84 325.761 1084.81 328.638 1084.86 329.073C1084.94 329.606 1089.1 331.336 1093.43 330.881Z" fill="#355389"/>
    <path d="M1091.03 280.562C1090.16 287.145 1085.83 319.92 1085.83 319.92L1095.86 321.156C1095.86 321.156 1108.2 278.378 1107.57 271.835C1106.93 265.291 1102.32 264.738 1102.32 264.738C1102.32 264.738 1093.34 263.137 1091.03 280.562Z" fill="#3C8F7C"/>
    <path d="M1081.43 187.356C1081.43 187.356 1084.76 183.847 1087.43 188.117C1087.43 188.117 1089.5 186.961 1090.94 189.027C1090.94 189.027 1094.67 187.9 1095.58 193.484C1095.58 193.484 1097.5 193.119 1097.75 195.402C1098.01 197.685 1096.84 199.207 1096.84 199.207C1096.84 199.207 1097.92 200.018 1097.44 202.113C1097.02 203.892 1095.55 204.169 1095.55 204.169C1095.55 204.169 1095.15 207.174 1093.85 208.083C1092.54 208.992 1090.78 208.557 1090.78 208.557C1090.78 208.557 1090.3 210.188 1088.78 210.04C1087.26 209.892 1085.38 208.449 1083.67 209.101C1081.97 209.753 1077.55 209.061 1077.55 209.061C1077.55 209.061 1072.59 206.847 1074.07 201.777C1074.07 201.777 1071.46 199.425 1073.75 196.598C1073.75 196.598 1072.07 192.18 1075.38 189.57C1078.67 186.961 1081.43 187.356 1081.43 187.356Z" fill="#07345A"/>
    <path d="M1081.99 211.216L1081.38 215.694C1081.38 215.694 1080.03 222.138 1081.77 223.383C1083.51 224.629 1089.16 215.506 1089.16 215.506L1088.57 204.169L1081.99 211.216Z" fill="#F7A491"/>
    <path d="M1088.76 207.836C1087.33 211.7 1083.91 214.082 1081.48 215.002L1081.99 211.206L1088.57 204.159L1088.76 207.836Z" fill="#F47458"/>
    <path d="M1084.55 192.249C1081.02 191.033 1077.26 193.376 1076.72 197.013C1076.48 198.594 1076.28 200.581 1076.24 202.755C1076.14 207.984 1078.85 213.064 1081.22 213.064C1083.59 213.064 1090.15 209.684 1090.39 202.261C1090.54 197.685 1088.26 193.524 1084.55 192.249Z" fill="#F7A491"/>
    <path d="M1088.64 202.854C1088.64 204.011 1089.4 204.94 1090.35 204.94C1091.29 204.94 1092.06 204.001 1092.06 202.854C1092.06 201.698 1091.3 200.769 1090.35 200.769C1089.41 200.769 1088.64 201.698 1088.64 202.854Z" fill="#F7A491"/>
    <path d="M1074.27 189.649C1071.82 191.587 1070.96 194.542 1072.35 196.242C1073.74 197.942 1076.86 197.744 1079.31 195.797C1081.76 193.86 1082.62 190.905 1081.23 189.205C1079.83 187.514 1076.72 187.712 1074.27 189.649Z" fill="#07345A"/>
    <path d="M1102.55 219.825C1099.59 218.718 1098.14 245.296 1097.74 256.238C1092.5 256.742 1083.36 256.238 1081.09 256.07C1080.02 255.991 1077.55 255.091 1076.49 254.953C1075.4 254.814 1074.42 254.735 1073.87 254.834C1073.67 254.864 1068.21 257.098 1067.74 257.582C1067.16 258.185 1065.6 259.717 1065.87 260.379C1066.13 261.041 1068.88 258.541 1068.88 258.541L1070.23 257.789C1068.55 259.42 1065.36 261.565 1065.83 262.346C1066.27 263.107 1069.15 260.932 1071.2 259.45C1069.44 261.031 1067.26 263.868 1067.76 264.313C1068.22 264.708 1070.7 261.427 1073.36 260.488C1074.35 260.142 1075.33 261.11 1076.1 261.229C1076.67 261.318 1077.54 261.496 1078.1 261.338L1080.98 260.527C1081.96 260.616 1081.99 261.189 1082.98 261.407C1084.12 261.654 1086.01 261.911 1087.47 262.267C1095.89 264.323 1098.71 265.272 1101.29 265.272C1109.09 265.222 1109.54 222.434 1102.55 219.825Z" fill="#F7A491"/>
    <path d="M1108.16 244.772C1108.72 233.564 1108.64 219.756 1102.33 217.404C1099.84 216.475 1095.46 222.069 1096.25 245C1099.62 245.277 1104.56 245.504 1108.16 244.772Z" fill="#FB8133"/>
    <path d="M1072.9 239.959H1073.54L1083.2 263.611L1082.54 263.512L1072.9 239.959Z" fill="#F79C8D"/>
    <path d="M1058.5 319.495C1058.5 319.495 1059.38 322.292 1057.81 324.141C1056.24 325.989 1049.74 327.808 1048.88 328.806C1048.03 329.804 1048.09 330.664 1048.09 330.664L1066.36 330.16L1066.16 324.655L1065.32 320.701L1058.5 319.495Z" fill="#F7A491"/>
    <path d="M1056.68 325.07C1056.68 325.07 1061.37 326.967 1063.65 325.841C1065.91 324.724 1065.85 324.407 1066.5 324.823C1067.15 325.238 1067.39 330.397 1067.39 330.397L1046.84 331C1045.41 330.97 1044.69 329.913 1045.85 329.023C1046.66 328.411 1047.57 327.995 1048.1 327.699C1049.7 326.77 1056.68 325.07 1056.68 325.07Z" fill="#355389"/>
    <path d="M1059.21 270.144C1057.8 267.179 1054.58 263.325 1048.93 265.647C1043.54 267.861 1042.09 273.307 1043.79 278.882C1045.49 284.456 1056.69 317.232 1057.07 321.739L1066.02 321.798C1066.02 321.798 1064.4 295.843 1063.99 289.566C1063.62 283.547 1061.65 275.274 1059.21 270.144Z" fill="#3C8F7C"/>
    <path d="M1044.69 239.959H1074.58C1075.37 239.959 1076.08 240.433 1076.38 241.165L1085.58 263.611H1102.05C1102.52 263.611 1102.88 263.987 1102.88 264.441C1102.88 264.906 1102.51 265.272 1102.05 265.272H1055.16C1053.88 265.272 1052.7 264.511 1052.18 263.334L1042.92 242.697C1042.33 241.412 1043.27 239.959 1044.69 239.959Z" fill="#CFCCCB"/>
    <path d="M1060.78 253.025C1060.98 254.034 1061.86 254.706 1062.75 254.528C1063.63 254.35 1064.18 253.391 1063.98 252.383C1063.78 251.375 1062.9 250.703 1062.01 250.881C1061.12 251.059 1060.58 252.017 1060.78 253.025Z" fill="white"/>
    <path d="M1079.07 207.272L1083.67 207.193C1083.67 207.193 1083.59 208.943 1081.57 209.032C1079.1 209.15 1079.07 207.272 1079.07 207.272Z" fill="white"/>
    <defs>
    <linearGradient id="paint0_linear_1415_3170" x1="198.111" y1="3" x2="10.2607" y2="2.99973" gradientUnits="userSpaceOnUse">
    <stop stop-color="#F24F60"/>
    <stop offset="1" stop-color="#A5066C"/>
    </linearGradient>
    <linearGradient id="paint1_linear_1415_3170" x1="198.111" y1="3" x2="10.2607" y2="2.99973" gradientUnits="userSpaceOnUse">
    <stop stop-color="#F24F60"/>
    <stop offset="1" stop-color="#A5066C"/>
    </linearGradient>
    <linearGradient id="paint2_linear_1415_3170" x1="225.004" y1="2.99998" x2="11.6536" y2="2.99962" gradientUnits="userSpaceOnUse">
    <stop stop-color="#F24F60"/>
    <stop offset="1" stop-color="#A5066C"/>
    </linearGradient>
    <linearGradient id="paint3_linear_1415_3170" x1="225.004" y1="2.99998" x2="11.6536" y2="2.99962" gradientUnits="userSpaceOnUse">
    <stop stop-color="#F24F60"/>
    <stop offset="1" stop-color="#A5066C"/>
    </linearGradient>
    <linearGradient id="paint4_linear_1415_3170" x1="225.004" y1="2.99998" x2="11.6536" y2="2.99962" gradientUnits="userSpaceOnUse">
    <stop stop-color="#F24F60"/>
    <stop offset="1" stop-color="#A5066C"/>
    </linearGradient>
    <linearGradient id="paint5_linear_1415_3170" x1="105.877" y1="233.062" x2="124" y2="233.062" gradientUnits="userSpaceOnUse">
    <stop stop-color="#FB8530"/>
    <stop offset="1" stop-color="#FEB50B"/>
    </linearGradient>
    <linearGradient id="paint6_linear_1415_3170" x1="335.75" y1="175.303" x2="343.25" y2="175.303" gradientUnits="userSpaceOnUse">
    <stop stop-color="#FB8530"/>
    <stop offset="1" stop-color="#FEB50B"/>
    </linearGradient>
    <linearGradient id="paint7_linear_1415_3170" x1="556" y1="118" x2="576" y2="118" gradientUnits="userSpaceOnUse">
    <stop stop-color="#FB8530"/>
    <stop offset="1" stop-color="#FEB50B"/>
    </linearGradient>
    <linearGradient id="paint8_linear_1415_3170" x1="818.818" y1="63.7805" x2="818.818" y2="75.0814" gradientUnits="userSpaceOnUse">
    <stop stop-color="#FB8530"/>
    <stop offset="1" stop-color="#FEB50B"/>
    </linearGradient>
    <linearGradient id="paint9_linear_1415_3170" x1="1068.63" y1="15.1131" x2="1076.93" y2="15.1131" gradientUnits="userSpaceOnUse">
    <stop stop-color="#FB8530"/>
    <stop offset="1" stop-color="#FEB50B"/>
    </linearGradient>
    <linearGradient id="paint10_linear_1415_3170" x1="1075.75" y1="24.1564" x2="1078.13" y2="24.1564" gradientUnits="userSpaceOnUse">
    <stop stop-color="#FB8530"/>
    <stop offset="1" stop-color="#FEB50B"/>
    </linearGradient>
    <linearGradient id="paint11_linear_1415_3170" x1="1075.33" y1="23.9265" x2="1078.55" y2="23.9265" gradientUnits="userSpaceOnUse">
    <stop stop-color="#FB8530"/>
    <stop offset="1" stop-color="#FEB50B"/>
    </linearGradient>
    </defs>
    </svg>
    