<svg width="45" height="39" fill="none" xmlns="http://www.w3.org/2000/svg"><rect x=".547" y=".859" width="43.856" height="37.331" rx="5.635" fill="url(#a)"/><path d="M17.038 15.609s-.87 1.566-.87 3.915c0 2.35.87 3.916.87 3.916M13.992 12.128s-2.176 2.959-2.176 7.396c0 4.438 2.176 7.396 2.176 7.396M30.958 12.128s2.175 2.959 2.175 7.396c0 4.438-2.175 7.396-2.175 7.396M28.347 15.609s.87 1.566.87 3.915c0 2.35-.87 3.916-.87 3.916" stroke="#F2F2F2" stroke-width="1.549" stroke-linecap="round"/><circle cx="22.693" cy="19.524" r="1.74" fill="#F2F2F2" stroke="#F2F2F2" stroke-width=".87"/><defs><linearGradient id="a" x1="39.861" y1="38.19" x2="2.583" y2="38.19" gradientUnits="userSpaceOnUse"><stop stop-color="#F24F60"/><stop offset="1" stop-color="#A5066C"/></linearGradient></defs></svg>