<svg width="54" height="23" fill="none" xmlns="http://www.w3.org/2000/svg"><rect x=".738" y=".561" width="52.648" height="22.336" rx="1.595" fill="url(#a)"/><path d="M26.263 15.347V8.149h1.317v6.085h3.39v1.113h-4.707Zm5.612 0v-5.156h1.276v5.156h-1.276Zm-.072-6.126V7.975h1.42v1.246h-1.42Zm4.245 6.126-2.226-5.156h1.358l1.614 4.033h-.317l1.654-4.033h1.276l-2.236 5.156h-1.123Zm6.435.102c-.579 0-1.076-.105-1.491-.316a2.312 2.312 0 0 1-.95-.93c-.218-.401-.326-.878-.326-1.429 0-.538.105-1.007.316-1.41.211-.4.504-.714.878-.938.381-.225.824-.337 1.328-.337.496 0 .912.105 1.245.316.334.211.586.507.756.889.177.38.265.826.265 1.337v.337h-3.757v-.674h2.849l-.174.143c0-.476-.102-.84-.306-1.092-.198-.252-.487-.378-.868-.378-.286 0-.528.068-.725.204-.19.136-.337.33-.44.582-.101.252-.152.558-.152.919v.133c0 .558.136.976.408 1.255.28.273.67.409 1.174.409.293 0 .565-.037.817-.112.259-.082.504-.211.735-.388l.378.857c-.245.198-.538.35-.878.46a3.53 3.53 0 0 1-1.082.163ZM9.876 7.127a.58.58 0 0 0-.408-.185.55.55 0 0 0-.412.176 6.997 6.997 0 0 0-1.433 2.266 7.323 7.323 0 0 0-.502 2.676 7.322 7.322 0 0 0 .54 2.773c.358.875.88 1.663 1.537 2.315a.56.56 0 0 0 .407.163.563.563 0 0 0 .399-.184c.252-.267.221-.693-.022-.939a5.71 5.71 0 0 1-1.232-1.882 5.989 5.989 0 0 1-.432-2.246c0-1.561.59-2.977 1.55-4.007.23-.25.255-.664.008-.926Z" fill="#fff"/><path d="M11.28 8.617a.555.555 0 0 0-.4-.183.553.553 0 0 0-.404.17c-.432.451-.774.99-1.008 1.583a5.104 5.104 0 0 0-.353 1.873 4.98 4.98 0 0 0 1.51 3.607.55.55 0 0 0 .784-.031c.262-.278.213-.714-.032-.96a3.593 3.593 0 0 1-.789-1.19 3.77 3.77 0 0 1-.276-1.426 3.7 3.7 0 0 1 .957-2.503c.228-.249.266-.67.011-.94ZM15.726 8.617a.555.555 0 0 1 .4-.183.553.553 0 0 1 .404.17c.432.451.775.99 1.008 1.583.234.593.354 1.23.353 1.873a4.98 4.98 0 0 1-1.51 3.607.55.55 0 0 1-.398.15.555.555 0 0 1-.386-.181c-.262-.278-.213-.714.033-.96.336-.335.605-.74.788-1.19.183-.45.277-.936.277-1.426a3.7 3.7 0 0 0-.958-2.503c-.228-.249-.265-.671-.01-.94Z" fill="#fff"/><path d="M17.13 7.127a.551.551 0 0 1 .82-.008 6.999 6.999 0 0 1 1.433 2.265c.332.848.502 1.758.501 2.676a7.322 7.322 0 0 1-.54 2.773 6.974 6.974 0 0 1-1.537 2.315.56.56 0 0 1-.407.163.563.563 0 0 1-.399-.184c-.252-.267-.22-.693.023-.939a5.71 5.71 0 0 0 1.232-1.883 5.99 5.99 0 0 0 .432-2.245 5.867 5.867 0 0 0-1.55-4.007c-.232-.25-.256-.664-.008-.926ZM13.503 10.792c-.317 0-.621.133-.846.371-.224.238-.35.56-.35.897 0 .337.126.66.35.897.225.238.529.372.846.372.317 0 .622-.134.846-.372.225-.237.35-.56.35-.897 0-.336-.125-.659-.35-.897a1.163 1.163 0 0 0-.846-.371Z" fill="#fff"/><defs><linearGradient id="a" x1=".738" y1="11.729" x2="53.386" y2="11.729" gradientUnits="userSpaceOnUse"><stop stop-color="#FF6E3F"/><stop offset="1" stop-color="#FF5634"/></linearGradient></defs></svg>