<svg width="11" height="8" fill="none" xmlns="http://www.w3.org/2000/svg"><path d="M5.774.178a1.56 1.56 0 0 0-1.402 0L.304 2.222a.427.427 0 0 0-.18.173.464.464 0 0 0-.059.25v2.678c0 .117.044.23.122.313.079.083.185.13.295.13.111 0 .217-.047.295-.13A.456.456 0 0 0 .9 5.323V3.335l.834.44v2.433a.466.466 0 0 0 .123.313l.02.022.051.048c.262.248.544.468.845.66.557.356 1.363.727 2.3.727.937 0 1.743-.371 2.301-.727.3-.192.583-.412.845-.66l.05-.048.02-.022a.445.445 0 0 0 .123-.314V3.773l1.437-.755a.428.428 0 0 0 .17-.165.463.463 0 0 0-.004-.47.426.426 0 0 0-.173-.162L5.774.178Zm.027 4.97 1.776-.935v1.799a4.81 4.81 0 0 1-.632.48c-.484.308-1.14.601-1.872.601-.732 0-1.387-.292-1.872-.6a4.81 4.81 0 0 1-.632-.481V4.213l1.776.935c.46.24.997.24 1.456 0ZM5.417.978l3.29 1.653L5.43 4.355a.766.766 0 0 1-.712 0L1.439 2.63 4.729.978a.765.765 0 0 1 .688 0ZM1.859 6.523h-.001Z" fill="#fff"/></svg>