<svg width="9" height="11" fill="none" xmlns="http://www.w3.org/2000/svg"><path d="M8.167 7.227V3.888a.835.835 0 0 0-.418-.722l-2.921-1.67a.835.835 0 0 0-.835 0l-2.921 1.67a.835.835 0 0 0-.418.722v3.339a.835.835 0 0 0 .418.722l2.921 1.67a.835.835 0 0 0 .835 0l2.921-1.67a.835.835 0 0 0 .418-.722Z" stroke="#fff" stroke-width=".798" stroke-linecap="round" stroke-linejoin="round"/><path d="M.768 3.454 4.41 5.562l3.644-2.108M4.41 9.764V5.558" stroke="#fff" stroke-width=".798" stroke-linecap="round" stroke-linejoin="round"/></svg>