<svg width="31" height="29" viewBox="0 0 31 29" fill="none" xmlns="http://www.w3.org/2000/svg">
<path d="M11.8344 25.3754C5.49737 25.3754 0.427734 20.5419 0.427734 14.5C0.427734 8.45805 5.49737 3.62451 11.8344 3.62451C14.8762 3.62451 17.7912 4.71206 19.9458 6.76631C20.9597 7.73302 21.7202 8.82057 22.3539 10.029C22.4806 10.3915 22.3539 10.6331 22.1004 10.8748C21.7202 10.9957 21.4667 10.8748 21.2132 10.6331C20.7063 9.5456 19.9458 8.57889 19.1854 7.73302C17.0308 5.7996 14.496 4.8329 11.8344 4.8329C6.25781 4.8329 1.69514 9.18308 1.69514 14.5C1.69514 19.8169 6.25781 24.1671 11.8344 24.1671C12.2146 24.1671 12.4681 24.4087 12.4681 24.7712C12.4681 25.1338 12.2146 25.3754 11.8344 25.3754Z" fill="white"/>
<path d="M11.1945 21.1461C7.51898 20.7836 4.85742 18.0043 4.85742 14.5C4.85742 10.8748 8.02594 7.85388 11.8282 7.85388C13.7293 7.85388 15.3769 8.57891 16.7711 9.7873C17.1513 10.1498 17.5315 10.6332 17.9117 11.2374C18.0385 11.479 18.0385 11.8416 17.6582 12.0832C17.4048 12.2041 17.0245 12.2041 16.7711 11.8416C16.5176 11.3582 16.2641 10.9957 15.8839 10.6332C14.7432 9.66646 13.3491 9.06227 11.8282 9.06227C8.65965 9.06227 6.12483 11.479 6.12483 14.5C6.12483 17.2793 8.27942 19.696 11.3212 19.9377C11.5747 19.9377 11.8282 20.1794 11.8282 20.5419C11.8282 20.9044 11.5747 21.1461 11.1945 21.1461Z" fill="white"/>
<path d="M11.8299 15.1045C11.7031 15.1045 11.4497 15.1045 11.3229 14.9837C11.0694 14.742 11.0694 14.3795 11.3229 14.1378L19.5611 6.28331C19.8146 6.04163 20.1948 6.04163 20.4483 6.28331C20.7017 6.52499 20.7017 6.8875 20.4483 7.12918L12.2101 14.9837C12.2101 15.1045 11.9566 15.1045 11.8299 15.1045Z" fill="white"/>
<path d="M23.2417 7.2503H20.0732C19.6929 7.2503 19.4395 7.00863 19.4395 6.64611V3.62515C19.4395 3.50431 19.5662 3.26264 19.5662 3.1418L22.7347 0.120838C22.9882 0 23.2417 0 23.4952 0C23.7486 0.120838 23.8754 0.362515 23.8754 0.604192V3.02096H26.4102C26.6637 3.02096 26.9172 3.1418 27.0439 3.38348C27.0439 3.62515 27.0439 3.86683 26.9172 4.10851L23.7486 7.12947C23.6219 7.12947 23.3684 7.2503 23.2417 7.2503ZM20.7069 6.04192H22.9882L24.8893 4.22934H23.2417C22.8615 4.22934 22.608 3.98767 22.608 3.62515V2.05425L20.7069 3.86683V6.04192Z" fill="white"/>
<path d="M22.6073 29.0001C18.0446 29.0001 14.3691 25.4958 14.3691 21.1456C14.3691 16.7955 18.0446 13.2911 22.6073 13.2911C27.17 13.2911 30.8454 16.7955 30.8454 21.1456C30.8454 25.4958 27.17 29.0001 22.6073 29.0001ZM22.6073 14.4995C18.8051 14.4995 15.6365 17.5205 15.6365 21.1456C15.6365 24.7708 18.8051 27.7917 22.6073 27.7917C26.4095 27.7917 29.578 24.7708 29.578 21.1456C29.578 17.5205 26.4095 14.4995 22.6073 14.4995Z" fill="url(#paint0_linear_1404_3716)"/>
<path d="M21.163 24.1673C21.0363 24.1673 20.9848 24.1295 20.8343 24.0465L18.2995 21.6297C18.046 21.388 18.046 21.0255 18.2995 20.7838C18.553 20.5421 18.9332 20.5421 19.1867 20.7838L21.2145 22.7172L25.1435 18.367C25.397 18.1254 25.7772 18.1254 26.0307 18.367C26.2842 18.6087 26.2842 18.9712 26.0307 19.2129L21.5947 24.0465C21.5492 24.1012 21.4165 24.1673 21.163 24.1673Z" fill="url(#paint1_linear_1404_3716)"/>
<defs>
<linearGradient id="paint0_linear_1404_3716" x1="14.3691" y1="29.0001" x2="30.8454" y2="29.0001" gradientUnits="userSpaceOnUse">
<stop stop-color="#FB8133"/>
<stop offset="1" stop-color="#FFBA08"/>
</linearGradient>
<linearGradient id="paint1_linear_1404_3716" x1="18.1094" y1="24.1673" x2="26.2208" y2="24.1673" gradientUnits="userSpaceOnUse">
<stop stop-color="#FB8133"/>
<stop offset="1" stop-color="#FFBA08"/>
</linearGradient>
</defs>
</svg>
