<svg width="36" height="36" viewBox="0 0 36 36" fill="none" xmlns="http://www.w3.org/2000/svg">
    <path d="M32.4567 18L29.8399 14.066C29.6877 13.8202 29.5238 13.6211 29.3482 13.4689C29.1843 13.3167 28.9969 13.2113 28.7862 13.1528C28.5872 13.0825 28.3471 13.0474 28.0661 13.0474H25.5723V11.5019H29.0145C29.8458 11.5019 30.4722 11.3322 30.8937 10.9926C31.3152 10.6414 31.5669 10.1438 31.6489 9.49983L31.9474 9.67545H25.5723V8.37584H31.9474L31.6137 8.60415C31.5201 8.05386 31.2683 7.63822 30.8586 7.35722C30.4488 7.06452 29.8634 6.91817 29.1023 6.91817H25.5723V5.61855H35.3896V6.91817H32.246L32.527 6.67229C32.9016 6.88304 33.1943 7.16404 33.4051 7.51529C33.6158 7.85482 33.7446 8.2529 33.7915 8.70952L33.3875 8.37584H35.3896V9.67545H33.4402L33.8266 9.27152C33.8383 10.0208 33.6744 10.6707 33.3348 11.2209C32.9953 11.7712 32.5094 12.1986 31.8772 12.503C31.2566 12.7957 30.5073 12.942 29.6292 12.942V12.7664H30.1209C30.6478 12.7664 31.0986 12.8718 31.4732 13.0825C31.8596 13.2816 32.2226 13.6387 32.5621 14.1538L35.1613 18H32.4567Z" fill="url(#paint0_linear_1486_2957)"/>
    <path d="M12.7341 22.7349C9.01774 22.7349 6.17578 20.0272 6.17578 16.4863C6.17578 12.9454 9.01774 10.2377 12.7341 10.2377C16.4505 10.2377 19.2925 12.9454 19.2925 16.4863C19.2925 20.0272 16.4505 22.7349 12.7341 22.7349ZM12.7341 12.3205C10.3294 12.3205 8.3619 14.1951 8.3619 16.4863C8.3619 18.7774 10.3294 20.652 12.7341 20.652C15.1389 20.652 17.1064 18.7774 17.1064 16.4863C17.1064 14.1951 15.1389 12.3205 12.7341 12.3205Z" fill="white"/>
    <path d="M23.6653 35.2307C23.0095 35.2307 22.5722 34.8142 22.5722 34.1893V30.0236C22.5722 28.3574 21.042 26.8994 19.293 26.8994H6.17626C4.42736 26.8994 2.89707 28.3574 2.89707 30.0236V34.1893C2.89707 34.8142 2.45984 35.2307 1.804 35.2307C1.14816 35.2307 0.710938 34.8142 0.710938 34.1893V30.0236C0.710938 27.1077 3.11568 24.8165 6.17626 24.8165H19.293C22.3536 24.8165 24.7584 27.1077 24.7584 30.0236V34.1893C24.7584 34.8142 24.3211 35.2307 23.6653 35.2307Z" fill="white"/>
    <defs>
    <linearGradient id="paint0_linear_1486_2957" x1="24.9688" y1="11" x2="35.9688" y2="11" gradientUnits="userSpaceOnUse">
    <stop stop-color="#FB8530"/>
    <stop offset="1" stop-color="#FEB50B"/>
    </linearGradient>
    </defs>
    </svg>
    