<svg width="34" height="32" viewBox="0 0 34 32" fill="none" xmlns="http://www.w3.org/2000/svg">
<path d="M12.3741 27.5276C5.49958 27.5276 0 22.2841 0 15.7298C0 9.17547 5.49958 3.93201 12.3741 3.93201C15.6738 3.93201 18.8361 5.11179 21.1734 7.34026C22.2733 8.38895 23.0982 9.56873 23.7857 10.8796C23.9232 11.2729 23.7857 11.535 23.5107 11.7972C23.0982 11.9283 22.8233 11.7972 22.5483 11.535C21.9983 10.3552 21.1734 9.30656 20.3484 8.38895C18.0111 6.29157 15.2613 5.24287 12.3741 5.24287C6.32452 5.24287 1.37489 9.96199 1.37489 15.7298C1.37489 21.4976 6.32452 26.2167 12.3741 26.2167C12.7865 26.2167 13.0615 26.4789 13.0615 26.8722C13.0615 27.2654 12.7865 27.5276 12.3741 27.5276Z" fill="white"/>
<path d="M11.6831 22.9393C7.69587 22.546 4.80859 19.531 4.80859 15.7295C4.80859 11.7969 8.24583 8.51978 12.3705 8.51978C14.4329 8.51978 16.2202 9.3063 17.7326 10.6172C18.1451 11.0104 18.5575 11.5348 18.97 12.1902C19.1075 12.4524 19.1075 12.8456 18.695 13.1078C18.4201 13.2389 18.0076 13.2389 17.7326 12.8456C17.4576 12.3213 17.1826 11.928 16.7702 11.5348C15.5328 10.4861 14.0204 9.83064 12.3705 9.83064C8.93328 9.83064 6.18349 12.4524 6.18349 15.7295C6.18349 18.7445 8.52081 21.3663 11.8206 21.6284C12.0955 21.6284 12.3705 21.8906 12.3705 22.2839C12.3705 22.6771 12.0955 22.9393 11.6831 22.9393Z" fill="white"/>
<path d="M12.3734 16.3855C12.2359 16.3855 11.9609 16.3855 11.8234 16.2544C11.5484 15.9922 11.5484 15.5989 11.8234 15.3368L20.7602 6.81614C21.0352 6.55396 21.4477 6.55396 21.7227 6.81614C21.9976 7.07831 21.9976 7.47157 21.7227 7.73374L12.7858 16.2544C12.7858 16.3855 12.5109 16.3855 12.3734 16.3855Z" fill="white"/>
<path d="M24.7497 7.86519H21.3124C20.9 7.86519 20.625 7.60302 20.625 7.20976V3.9326C20.625 3.80151 20.7625 3.53934 20.7625 3.40825L24.1997 0.131087C24.4747 0 24.7497 0 25.0247 0C25.2996 0.131087 25.4371 0.393259 25.4371 0.655433V3.27716H28.1869C28.4619 3.27716 28.7369 3.40825 28.8744 3.67042C28.8744 3.9326 28.8744 4.19477 28.7369 4.45694L25.2996 7.7341C25.1622 7.7341 24.8872 7.86519 24.7497 7.86519ZM21.9999 6.55433H24.4747L26.537 4.58803H24.7497C24.3372 4.58803 24.0622 4.32585 24.0622 3.9326V2.22847L21.9999 4.19477V6.55433Z" fill="white"/>
<path d="M24.0657 31.4593C19.1161 31.4593 15.1289 27.6578 15.1289 22.9387C15.1289 18.2196 19.1161 14.4181 24.0657 14.4181C29.0153 14.4181 33.0025 18.2196 33.0025 22.9387C33.0025 27.6578 29.0153 31.4593 24.0657 31.4593ZM24.0657 15.729C19.941 15.729 16.5038 19.0061 16.5038 22.9387C16.5038 26.8713 19.941 30.1485 24.0657 30.1485C28.1904 30.1485 31.6276 26.8713 31.6276 22.9387C31.6276 19.0061 28.1904 15.729 24.0657 15.729Z" fill="url(#paint0_linear_1445_3873)"/>
<path d="M22.4923 26.2169C22.3548 26.2169 22.299 26.176 22.1357 26.0858L19.3859 23.4641C19.1109 23.2019 19.1109 22.8087 19.3859 22.5465C19.6609 22.2843 20.0734 22.2843 20.3483 22.5465L22.5482 24.6439L26.8104 19.9248C27.0853 19.6626 27.4978 19.6626 27.7728 19.9248C28.0478 20.187 28.0478 20.5802 27.7728 20.8424L22.9607 26.0858C22.9112 26.1452 22.7673 26.2169 22.4923 26.2169Z" fill="url(#paint1_linear_1445_3873)"/>
<defs>
<linearGradient id="paint0_linear_1445_3873" x1="15.1289" y1="31.4593" x2="33.0025" y2="31.4593" gradientUnits="userSpaceOnUse">
<stop stop-color="#FB8133"/>
<stop offset="1" stop-color="#FFBA08"/>
</linearGradient>
<linearGradient id="paint1_linear_1445_3873" x1="19.1797" y1="26.2169" x2="27.979" y2="26.2169" gradientUnits="userSpaceOnUse">
<stop stop-color="#FB8133"/>
<stop offset="1" stop-color="#FFBA08"/>
</linearGradient>
</defs>
</svg>
