<svg width="9" height="14" fill="none" xmlns="http://www.w3.org/2000/svg"><path d="m1.52.307.691-.24c.649-.226 1.342.139 1.62.851l.552 1.42c.24.618.107 1.345-.33 1.798L2.835 5.394c.075.753.307 1.495.697 2.224a5.95 5.95 0 0 0 1.46 1.817l1.463-.532c.554-.201 1.158.03 1.497.574l.793 1.267c.395.633.324 1.505-.166 2.042l-.526.574c-.523.572-1.27.78-1.962.545-1.633-.555-3.132-2.2-4.502-4.937C.22 6.226-.266 3.9.138 1.99.308 1.186.833.546 1.519.307Z" fill="url(#a)"/><defs><linearGradient id="a" x1="0" y1="9.859" x2="8.808" y2="9.873" gradientUnits="userSpaceOnUse"><stop stop-color="#F36B3D"/><stop offset="0" stop-color="#FFBA08"/><stop offset="1" stop-color="#FB8133"/></linearGradient></defs></svg>