<svg width="66" height="108" fill="none" xmlns="http://www.w3.org/2000/svg"><path d="M23.233 1.02a12.92 12.92 0 0 0-14 6.81c-5 9-2.32 21.29 4.86 26.399 7.18 5.11 7.08 8.18 16 4.9 8.92-3.28 6.57-10.84 8.76-17.05 2.189-6.21-2.35-24.598-15.62-21.058Z" fill="#001953"/><path d="M29.992 32.03a24 24 0 0 1-4.13 1.42 7.84 7.84 0 0 0-6.33 6.999c-.49 4.53 4.71 15.849 2.11 23.999-2.6 8.15-13.799 5-13.309 13.799.49 8.8 13.08 11.53 28.698 9.58 15.62-1.95 31.369-12.82 25.2-20.78-6.17-7.96-10.66-7.63-14.77-21.268-3.8-12.74-7.22-18.42-17.47-13.75Z" fill="#148ACC"/><path d="M51.57 93.156a41.45 41.45 0 0 0-3.089-2.88c-1.64-1.37-.86.75-4.66-1.09-3.8-1.84-35.778-31.308-41.528-17.919-9.9 23.049 21.4 23.939 39.998 25.589 0 0 6.71 1.37 7.67 2.46.96 1.09 5.7-2.79 1.61-6.16Z" fill="#305681"/><path d="M51.95 98.416s-2.51-3.61-10.579-4.12c-8.07-.51-34.698-5.54-40.268-12" stroke="#001953" stroke-width=".951" stroke-linecap="round" stroke-linejoin="round"/><path d="M55.25 92.776c-2.709-1-2.379-1.78-3.999-2.57a11.434 11.434 0 0 0-2.28-.76c-4.41-1.05-4 8-4 8 7.13 3.86 5.25 6.94 8 9.459a3.135 3.135 0 0 0 3 .61c2.34-.55 4.85-2.729 5.72-3.639.314-.339.608-.696.88-1.07 5.19-7.53-3.83-8.76-7.32-10.03Z" fill="#000D2E"/><path d="M65.36 96.656c-1.28-4.57-8.59-4-10.84-5.36-2.25-1.36-3.27-1.09-3.27-1.09 1.62.79 1.29 1.59 4 2.57 3.49 1.27 12.51 2.5 7.25 10-.271.374-.565.731-.88 1.069-.87.91-3.38 3.09-5.72 3.64 7.57 1.05 10.67-6.519 9.46-10.83Z" fill="#0066D1"/><path d="M52.41 102.116s4.06-3.82 3.9-7.39c0 0-11.129-6.09-12.589-4.14-1.46 1.95-2.76 5.76-1.7 7.14 1.06 1.38 3-1.31 10.39 4.39Z" fill="#373586"/><path d="M48.571 92.276s-1.94 3.12-1.72 5.51c0 0 2-3.17 4.31-4.2a19.81 19.81 0 0 0-1 5.31 15.057 15.057 0 0 1 3.06-3.93 43.512 43.512 0 0 0-.81 5.19s1.24-3.34 2.14-4.11c0 0-2.58 1.34-3.29 2.8 0 0 .71-3.42 1-4.49 0 0-2.91 1.82-3.51 3.51a5.401 5.401 0 0 1 .75-4.62s-2.94 1.84-3.68 3.57" stroke="#000D2E" stroke-width=".951" stroke-linecap="round" stroke-linejoin="round"/><path d="M35.482 21.74c-.21-3.84-2.12-5.51-2.12-5.51-3.44.67-8.92-10.28-9.4-10.89-.48-.61-1.83 4.81-2.68 8.28-.85 3.47-10 12-10 12 1.06 3 5.48 6.829 11.13 7.239 2.02.146 4.047-.151 5.94-.87a11.1 11.1 0 0 0 4-2.53 10.518 10.518 0 0 0 3.13-7.72Z" fill="#FF9F5A"/><path d="M16.043 92.506s1.24-1.68 2.69-3.25 1 .63 4.48-1.69c3.479-2.32 31.447-35.658 38.877-23.118 12.78 21.579-18.129 26.498-36.398 30.538 0 0-6.48 2.22-7.29 3.43-.81 1.21-5.95-2-2.36-5.91Z" fill="#3D71A5"/><path d="M16.933 97.816s2-3.92 9.9-5.54c7.899-1.62 33.597-10.31 38.217-17.48" stroke="#001953" stroke-width=".951" stroke-linecap="round" stroke-linejoin="round"/><path d="M12.373 92.606c2.57-1.33 2.14-2.08 3.64-3.07.68-.412 1.404-.748 2.16-1 4.24-1.62 5 7.41 5 7.41-6.58 4.74-4.32 7.55-6.68 10.4a3.124 3.124 0 0 1-2.9 1c-2.39-.25-5.16-2.09-6.14-2.88a8.227 8.227 0 0 1-1-.95c-6.16-6.82 2.62-9.2 5.92-10.91Z" fill="#000D2E"/><path d="M2.853 97.756c.68-4.7 8-5 10.06-6.71 2.06-1.71 3.1-1.51 3.1-1.51-1.5 1-1.07 1.74-3.64 3.07-3.3 1.71-12.08 4.09-5.89 10.87.306.344.641.661 1 .949 1 .79 3.75 2.63 6.14 2.88-7.37 1.98-11.41-5.119-10.77-9.55Z" fill="#0066D1"/><path d="M32.292 29.42c-.29 7.919-9.25 8.479-9.25 8.479.01.196.01.393 0 .59 0 0 10.24 1.26 10.94-5.63a8.868 8.868 0 0 1-1.69-3.44Z" fill="#FF9F5A"/><path d="M32.292 29.42a11.1 11.1 0 0 1-4 2.53 13.91 13.91 0 0 1-5.94.869c.446 1.656.671 3.364.67 5.08 0 0 8.98-.48 9.27-8.48Z" fill="#CB2909"/><path d="M31.032 76.747s-.77-9.74 11.69-5.08c5.849 2.19 7.999 3.33 9.389 3.29l3.31 2.15.49 2.85-22.08-.91-2.8-2.3Z" fill="#E3E2E0"/><path d="M31.032 76.747s3.52-6.11 9-6.11 8.41 4.6 12.219 3.69l4 2.42a21.998 21.998 0 0 1-9.2-1.39c-4.27-1.82-8.65-5.38-16.019 1.39Z" fill="#F4F4F4"/><path d="m31.032 76.747 2.8 2.3 23.089 1-1.5-2.89a22.29 22.29 0 0 1-7.91-1.55c-3.39-1.54-5.82-2.81-8.36-2.77-2.54.04-4.69.89-8.119 3.91Z" fill="#E5E5E5"/><path d="M29.642 72.417a7.87 7.87 0 0 1 1.44 4.34c1.42-1.27.49-2.99-1.44-4.34Z" fill="#F4F4F4"/><path d="M31.032 76.747c-2.5-4.15-6-5.26-9.09-4.92h-.72l-.32.07h-.12l-.24.06-.17.05-.19.05-.29.08h-.06l-.34.12-.3.11c-.817.309-1.595.711-2.32 1.2-.28.18-.57.35-.87.51-3.7 2-9.219 2.52-9.219 2.52l-1.25 3.21 22.71-.89 2.849-2.32-.06.15Z" fill="#E5E5E5"/><path d="M29.642 72.417a12.06 12.06 0 0 0-8.76-5.16 26.318 26.318 0 0 1-9-2.13l-4.12 4.59s5.35 2.13 10.17 1.37l1.1-.16c3.47-.49 9.15-.83 11.36 4.3.22.51.46 1.24.61 1.54h.05a7.87 7.87 0 0 0-1.41-4.35Z" fill="#E3E2E0"/><path d="M19.132 72.517c.097-.045.197-.082.3-.11 3.63-1.29 8.38-1 11.58 4.31-.15-.3-.39-1-.61-1.54-2.21-5.13-7.89-4.79-11.36-4.3a28.159 28.159 0 0 1-8.57 2.38l-2.699 2.81a22.21 22.21 0 0 0 8.17-1.84c.3-.16.59-.33.87-.51a11.259 11.259 0 0 1 2.32-1.2Z" fill="#F4F4F4"/><path d="M31.032 76.747s-1.68-5.75 5.58-9.56c6.58-3.45 9.5-7.38 9.5-7.38l6.59 6.66s-4 4.56-13.26 4.19c-6.46-.24-8.41 6.09-8.41 6.09Z" fill="#F0F3F8"/><path d="M31.032 76.747s.74-5.69-1.2-8.47c-2.1-3-8.91-8.25-9.39-9.62l-5.65 3.27a81.327 81.327 0 0 1 12.7 8.27 9.35 9.35 0 0 1 3.54 6.55Z" fill="#F0F3F8"/><path d="M30.952 80.897a5.75 5.75 0 0 1-3.43-1.21.27.27 0 0 1-.08-.19.21.21 0 0 1 .09-.18l3.35-2.76a.24.24 0 0 1 .31 0l3.06 2.75a.21.21 0 0 1 .08.19.21.21 0 0 1-.09.18 5.21 5.21 0 0 1-3.29 1.22Z" fill="#F0A64F"/><path d="m59.31 81.156-25.488-1h-5.6l-24.719.88a1.046 1.046 0 1 1-.08-2.09l24.76-.89h5.679l25.529 1.06a1.05 1.05 0 0 1 0 2.1l-.08-.06Z" fill="#000D2E"/><path d="M28.312 79.287a4.63 4.63 0 0 0 5.31.08l-2.6-2.26-2.71 2.18Z" fill="#000D2E"/><path d="M34.642 76.237a8.08 8.08 0 0 1 4.53-1.82 7.782 7.782 0 0 1 2.5.22c.791.215 1.564.496 2.31.84a25.007 25.007 0 0 0 4.289 1.81c1.515.338 3.07.466 4.62.38a.2.2 0 0 1 .2.18.2.2 0 0 1-.16.2c-1.6.29-3.24.29-4.84 0a19.998 19.998 0 0 1-4.5-1.7 10.33 10.33 0 0 0-4.37-1 9.49 9.49 0 0 0-4.35 1.19.189.189 0 0 1-.21-.014.19.19 0 0 1-.019-.286Z" fill="#C3C3C3"/><path d="M37.112 76.927a4.21 4.21 0 0 1 1.79-.75 6.5 6.5 0 0 1 1.92-.07c.63.068 1.249.22 1.84.45.3.11.58.25.87.37.29.12.54.32.79.5a.21.21 0 0 1 .06.29.21.21 0 0 1-.23.08l-1.73-.42c-.58-.11-1.14-.23-1.71-.28-.565-.06-1.133-.08-1.7-.06a8.73 8.73 0 0 0-1.69.25.21.21 0 0 1-.25-.15.2.2 0 0 1 .04-.21ZM28.192 76.217c-2.12-1.71-4.92-2.57-7.39-1.58-1.23.49-2.42 1.28-3.76 1.82a9.599 9.599 0 0 1-4.22.81.17.17 0 0 1-.15-.17.17.17 0 0 1 .14-.15 10.998 10.998 0 0 0 3.91-1.17c1.22-.62 2.36-1.45 3.73-2a6.5 6.5 0 0 1 4.43-.26 7 7 0 0 1 3.55 2.52.16.16 0 0 1 0 .22.15.15 0 0 1-.19 0l-.05-.04Z" fill="#C3C3C3"/><path d="M27.572 77.237a7.8 7.8 0 0 0-4.9-1.15c-.859.108-1.701.32-2.51.63-.857.327-1.74.581-2.64.76a.17.17 0 0 1-.19-.14.15.15 0 0 1 .09-.18c.81-.41 1.58-.84 2.42-1.24a8.288 8.288 0 0 1 2.71-.82 6.219 6.219 0 0 1 5.24 1.89.15.15 0 0 1 0 .23.16.16 0 0 1-.2 0l-.02.02Z" fill="#C3C3C3"/><path d="M26.812 77.937c-.29-.08-.62-.16-.93-.22-.303-.07-.61-.12-.92-.15a5.731 5.731 0 0 0-1.85.09.36.36 0 1 1-.24-.68 4.09 4.09 0 0 1 2.2-.4 4.39 4.39 0 0 1 2.09.71.36.36 0 0 1 .09.51.37.37 0 0 1-.39.15l-.05-.01Z" fill="#C3C3C3"/><path d="M16.393 101.495s-4.51-3.26-4.81-6.82c0 0 10.24-7.469 11.94-5.729 1.7 1.74 3.48 5.36 2.61 6.86-.87 1.5-3.14-.9-9.74 5.689Z" fill="#373586"/><path d="M18.953 91.236s2.33 2.85 2.42 5.25c0 0-2.37-2.89-4.82-3.61.8 1.623 1.368 3.35 1.69 5.13a14.898 14.898 0 0 0-3.54-3.5 42.994 42.994 0 0 1 1.48 5s-1.61-3.09-2.61-3.75c0 0 2.73 1 3.62 2.35 0 0-1.15-3.31-1.6-4.32 0 0 3.13 1.43 3.93 3a5.42 5.42 0 0 0-1.33-4.49s3.15 1.44 4.1 3.06" stroke="#000D2E" stroke-width=".951" stroke-linecap="round" stroke-linejoin="round"/><path d="M38.092 39.339s-5.18-3.49-.89-7.48 7.77.43 17.089 6.67c8 5.34 7.61 10.11 1.6 31.448a4.41 4.41 0 0 1-2.83 3c-2.55.87-6.57 1.55-8.33-1.92-2.67-5.28 5.37-16.76 2.9-20.999-2.47-4.24-7.44-7.96-9.54-10.72Z" fill="#28A5EB"/><path d="M50.471 80.657c.3-.311.574-.646.82-1 1-1.36 1.2-4.14 1.19-4.91a17.705 17.705 0 0 1-.35-3.78c.16-1.88-4-1.3-4.67.32-.48 1.23-.65 2.78-2.05 3.75-1.4.97-2 1.51-1.85 2.93.15 1.42 1.19-1.28 1.94-1.27.75.01.79 2.92-1.05 4s1.63 1.34 2.82-1.53a3.79 3.79 0 0 1-1.87 2c-1.41.67 1.7 1.8 2.91-1.32a5.47 5.47 0 0 1-.78 1.31c-.38.36 1.05.53 1.81-.51a2 2 0 0 1-1 .73c-.36.11.3 1.13 2.13-.72Z" fill="#FF9F5A"/><path d="M44.841 70.097s4-3.42 10-.07" stroke="#001953" stroke-width=".951" stroke-linecap="round" stroke-linejoin="round"/><path d="M45.401 81.197a5.37 5.37 0 0 0 2.34-2.93M47.571 81.186a4.918 4.918 0 0 0 1.21-2M48.291 81.416a3.18 3.18 0 0 0 1.54-1.64M21.472 20.88s0 6.35 2.73 4.67M28.442 24.8c0 .12-.24 4.62-4.65 3.4" stroke="#CB2909" stroke-width=".951" stroke-linecap="round" stroke-linejoin="round"/><path d="M22.662 17.23s2.05-3 5.42-2.17" stroke="#001953" stroke-width=".951" stroke-linecap="round" stroke-linejoin="round"/><path d="M24.572 20.01a1 1 0 0 1 1.87.14 1 1 0 0 1-.06.78 1 1 0 0 1-.35.4c-.077.043-.157.08-.24.11a.999.999 0 0 1-.77-.06.998.998 0 0 1-.51-.59.999.999 0 0 1 .06-.78Z" fill="#001953"/><path d="M14.253 18.81s2.32-2.59 5.31-1.21" stroke="#001953" stroke-width=".951" stroke-linecap="round" stroke-linejoin="round"/><path d="M15.943 22.12a1.001 1.001 0 0 1 .59-.51 1 1 0 0 1 1.23 1.42c-.084.162-.208.3-.36.4l-.23.11a1.06 1.06 0 0 1-.78-.06 1.001 1.001 0 0 1-.45-1.36Z" fill="#001953"/><path d="M35.452 15.88s2.15 3.08 2 5.44c-.15 2.36 4.19-1.38 2.34-5.44-1.85-4.06-5.22-1.46-4.34 0Z" fill="#FF9F5A"/><path d="M38.301 15.82s-1.11.51-.06 2.43c0 0-.25-1.18.78-1.36" stroke="#CB2909" stroke-width=".951" stroke-linecap="round" stroke-linejoin="round"/><path d="M17.423 30.32a4.65 4.65 0 0 1-1.42-3.17c-.6-.89-1.05-4.26-1.74-2.19s1.3 5.58 1.3 5.58c.55-.08 1.17-.15 1.89-.19l-.03-.03Z" fill="#D8864E"/><path d="M19.742 30.319s-1.63-1.06-1.91-2.11c-.28-1.05-1-2.88-1.22-2.88a2.34 2.34 0 0 0-.61 1.82 4.65 4.65 0 0 0 1.42 3.17h2.32ZM14.113 28.74c-.7-1.42-1.13-3.83-1.72-2.89a6.16 6.16 0 0 0 .2 3.86c.203.502.44.99.71 1.46a7.997 7.997 0 0 1 1.6-.5 11.392 11.392 0 0 0-.79-1.93Z" fill="#D8864E"/><path d="M23.013 33.42c-3.771.048-7.515.65-11.11 1.79a12.81 12.81 0 0 0 2.36 5.279c-.57 5.71-7.23 13.25-9.42 15.93a13.32 13.32 0 0 0-2.07 11.079c1.1 3.28 2.8 5.23 8.46 4.92 5.66-.31 12.48-16.37 14.55-23.55 1.41-4.87-1.04-11.599-2.77-15.449Z" fill="#28A5EB"/><path d="M21.573 30.42c-.63-.05-1.22-.08-1.78-.09-.56-.01-1.23 0-1.77 0h-.52c-.72 0-1.34.11-1.89.19l-.66.13c-.55.11-1.086.277-1.6.5-1.2.54-1.42 1.129-1.42 1.129a8.6 8.6 0 0 0 0 2.91 38.439 38.439 0 0 1 11.08-1.77c-.83-1.83-1.44-3-1.44-3Z" fill="#C4C5C6"/><path d="M14.263 40.489a7.57 7.57 0 0 1 4.77 1" stroke="#001953" stroke-width=".951" stroke-linecap="round" stroke-linejoin="round"/></svg>