<svg width="67" height="44" fill="none" xmlns="http://www.w3.org/2000/svg"><path d="M22.861 21.701c-5.861-.283-11.724.672-17.587 1.617-1.835.301-3.781 1.328-2.397 3.542.761 1.21 2.345 1.57 3.752 1.729 6.08.702 12.311-.071 18.431-.065" fill="url(#a)"/><path d="M66.174 13.478c.891 5.502-1.671 13.44-7.621 15.045-2.404.65-5.276.42-7.78.408l-9.058-.065-17.786-.13c-3.91-.03-8.067-.13-11.332-2.296-3.876-2.58-5.804-7.342-3.23-11.444 2.216-3.542 6.36-5.685 10.306-6.54 6.618-1.434 13.483.466 20.073-.726a19.096 19.096 0 0 0 3.166-.85c5.938-2.167 11.842-5.153 17.904-1.617a11.687 11.687 0 0 1 5.358 8.215Z" fill="url(#b)"/><path d="M17.04 1.644c-.99-1.056-1.594-1.263-2.197.242a14.59 14.59 0 0 0-1.132 5.49 16.206 16.206 0 0 0-6.783 3.263 14.18 14.18 0 0 0-5.153-2.19C.21 8.096.015 8.716.332 10.133a44.563 44.563 0 0 0 1.537 5.135c.357 1.063.686 2.13 1.049 3.187a7.7 7.7 0 0 0 1.401 2.952c1.758 2.165 5.177 3.428 7.85 3.783 3.025.401 5.862-.372 7.926-2.686a16.025 16.025 0 0 0 3.547-7.632 9.296 9.296 0 0 0-.393-4.722c-.586-1.676-1.806-2.898-2.849-4.303a46.748 46.748 0 0 0-3.36-4.202Z" fill="url(#c)"/><path d="M61.712 9.11c5.693 5.46 5.1 11.747 1.953 17.313-3.488 6.168-9.233 10.346-15.641 13.062-7.563 3.21-16.222 4.852-24.323 2.951-1.63-.384-3.413-1.18-3.888-2.804-1.424-4.78 5.98-4.692 8.619-4.917 5.422-.465 11.168-.525 16.415-2.301 5.791-1.948 9.907-6.104 12.803-11.421" fill="url(#d)"/><path d="M65.84 17.905a11.78 11.78 0 0 0-2.474-7.13c-4.027-5.1-11.866-5.26-17.265-2.49-6.197 3.168-7.176 11.569-4.749 17.482.112.272-2.169.195-2.344.207-1.636.118-5.025-.195-5.681 1.824a3.112 3.112 0 0 0 .235 2.15 3.08 3.08 0 0 0 1.576 1.468 5.493 5.493 0 0 0 1.759.183h12.728c3.318 0 5.827-.59 7.82-3.465 1.032-1.481 1.817-3.14 2.931-4.574" fill="url(#e)"/><path d="M16.424 19.789a1.426 1.426 0 0 1-.66 1.994 1.408 1.408 0 0 1-1.717-.466 1.425 1.425 0 0 1 .62-2.154 1.31 1.31 0 0 1 1.757.626Z" fill="url(#f)"/><path d="M22.399 8.35c.216.366.486.678.738 1.032.136.184.252.382.346.59.09.207.163.42.217.638.1.41.176.826.229 1.245a12.47 12.47 0 0 1-.586 6.493 12.086 12.086 0 0 1-2.85 4.38 10.428 10.428 0 0 1-2.069 1.582c-.384.215-.794.38-1.22.49a2.66 2.66 0 0 1-1.29 0 3.848 3.848 0 0 0 2.188-.992 13.742 13.742 0 0 0 1.723-1.73 14.614 14.614 0 0 0 2.427-4.167 14.99 14.99 0 0 0 .967-4.722v-1.216a10.92 10.92 0 0 0-.046-1.24 3.718 3.718 0 0 0-.088-.59 3.108 3.108 0 0 0-.2-.59A7.502 7.502 0 0 1 22.4 8.35Z" fill="url(#g)"/><defs><linearGradient id="a" x1="2.408" y1="25.267" x2="25.06" y2="25.267" gradientUnits="userSpaceOnUse"><stop stop-color="#FB8530"/><stop offset="1" stop-color="#FEB50B"/></linearGradient><linearGradient id="b" x1="8.195" y1="16.305" x2="66.346" y2="16.305" gradientUnits="userSpaceOnUse"><stop stop-color="#FB8530"/><stop offset="1" stop-color="#FEB50B"/></linearGradient><linearGradient id="c" x1=".204" y1="13.047" x2="23.783" y2="13.047" gradientUnits="userSpaceOnUse"><stop stop-color="#FB8530"/><stop offset="1" stop-color="#FEB50B"/></linearGradient><linearGradient id="d" x1="19.633" y1="26.177" x2="66.024" y2="26.177" gradientUnits="userSpaceOnUse"><stop stop-color="#FB8530"/><stop offset="1" stop-color="#FEB50B"/></linearGradient><linearGradient id="e" x1="33.233" y1="19.051" x2="65.841" y2="19.051" gradientUnits="userSpaceOnUse"><stop stop-color="#FB8530"/><stop offset="1" stop-color="#FEB50B"/></linearGradient><linearGradient id="f" x1="13.778" y1="20.468" x2="16.605" y2="20.468" gradientUnits="userSpaceOnUse"><stop stop-color="#FB8530"/><stop offset="1" stop-color="#FEB50B"/></linearGradient><linearGradient id="g" x1="15.914" y1="16.614" x2="24.118" y2="16.614" gradientUnits="userSpaceOnUse"><stop stop-color="#FB8530"/><stop offset="1" stop-color="#FEB50B"/></linearGradient></defs></svg>