<svg width="158" height="169" fill="none" xmlns="http://www.w3.org/2000/svg"><path d="m106.337 81.088-2.156-13.521s-40.609-14.47-47.53-8.357c-6.922 6.113-26.87 24.826-26.87 24.826l12.826 10.992 2.035-1.835-.409 2.852 2.852 2.443 18.113-16.286-1.017 4.078 1.426 1.017c8.348-3.67 40.704-6.209 40.704-6.209h.026Z" fill="#402F42"/><path d="m101.433 53.306-9.74-3.904c-7.26 5.565-14.782 11.182-15.764 11.495-2.035.609-8.383-7.139-10.305-6.356-1.921.782 4.496 4.582 3.479 5.26-1.018.679-9.47-3.252-9.47-3.252a9.078 9.078 0 0 0 4.087 5.061c1 .513 1.74.87 1.74.87a10.052 10.052 0 0 1-1.74-.87 14.233 14.233 0 0 1-4.044-2.774c-.513-.608-1.069 2.748 3.148 5.8l1.157.757a14.834 14.834 0 0 1-1.157-.757l-2.608-1.739s1.739 7.487 16.13 6.652c7.826-.452 16.878-4.434 24.617-8.756-.904-1.67-1.217-4.13.47-7.487Z" fill="#D8864E"/><path d="M127.685 16.515s-5.357.696-10.513-5.878l-.105-.13a10.32 10.32 0 0 1-.495-.67s-4.035 2.939-5.391 9.513c-.127.919-.188 1.846-.183 2.774 0 9.313 6.852 8.626 6.852 8.626 3.087.098 6.096-.98 8.417-3.018-.556-3-.408-6.521 1.418-11.217Z" fill="#FF9F5A"/><path d="M110.972 20.263S106.12 7.715 117.824 2.22c11.704-5.496 20.87 3.478 22.687 16.278 1.817 12.8 9.722 1.434 15.835 9.165l.061.078a6.304 6.304 0 0 1-.818 8.54 25.598 25.598 0 0 1-5.217 3.738c-4.583 2.322-14.183 5.505-20.931 3.105-5.634-2-2.034-9.166-3.165-15.426-.53-2.966-.382-6.53 1.444-11.183-5.722.304-9.078-4.113-10.513-5.878l-.105-.13-.495-.67s-2.887 2.478-3.913 5.122a44.071 44.071 0 0 0-1.661 5.339" fill="#F03400"/><path d="M120.05 39.263a19.487 19.487 0 0 1 9.357-4.226 21.18 21.18 0 0 1-.705-10.13c-3.478 5.904-10.878 5.808-10.878 5.808l1.417 4.574-.817 2.339 1.626 1.635Z" fill="#FF9F5A"/><path d="m117.824 30.715 1.417 4.574s6.835-.609 7-7.591c0 0-2.66 2.66-8.417 3.017Z" fill="#CB2909"/><path d="m118.424 37.628 1.626 1.635s8.861-7.94 18.93-2.444c10.07 5.496 6.722 32.67-5.8 49.46l-26.869-5.217-2.748-17.39s-5.8-3.053-2.13-10.375l-10.687-4.26s14.782-19.644 28.495-13.74l-.817 2.33Z" fill="#148ACC"/><path d="M106.337 63.993a12.68 12.68 0 0 0 6.296-.817c2.843-1.322 6.2.817 8.034 3.104" stroke="#001953" stroke-width=".87" stroke-linecap="round" stroke-linejoin="round"/><path d="M120.667 42.08c6.713 1.348 11.496-4.095 11.748-7.174-7.061-.39-12.365 4.348-12.365 4.348l-1.626-1.635.817-2.339a13.681 13.681 0 0 0-2.669-.87s-2.626 6.323 4.095 7.67Z" fill="#C4C5C6"/><path d="M106.311 81.089s-32.356 2.539-40.704 6.208c-8.348 3.67-12.417 6.513-11.6 18.922.818 12.409 2.035 32.382 1.426 36.843l17.296 1.226 1.226-3.261.409 3.261h4.678s-1.426-10.591-1.226-17.713c.2-7.121 1.017-9.974.409-12.008-.61-2.035-4.887-1.879-4.887-1.879s32.382-.565 44.486-2.608c12.105-2.044 18.618-15.652 15.357-23.809l-26.87-5.182Z" fill="#402F42"/><path d="M67.468 63.82a1.34 1.34 0 0 1-1.653-.922L60.303 43.14a1.339 1.339 0 0 1 .921-1.643 1.34 1.34 0 0 1 1.652.93l5.522 19.748a1.348 1.348 0 0 1-.93 1.643Z" fill="#C4C5C6"/><path d="M66.18 64.15a1 1 0 0 1-1.225-.687L59.25 43.045a1 1 0 0 1 .687-1.226 1 1 0 0 1 1.225.696l5.705 20.435a1 1 0 0 1-.687 1.2Z" fill="#818589"/><path d="m119.241 35.289-1.417-4.574s-6.852.687-6.852-8.626c0-.626 0-1.226.069-1.791h-.069s-6.435 6.634-4.635 11.826a64.5 64.5 0 0 1 1.113 3.4c3.757-1.505 7.817-1.94 11.791-.235Z" fill="#F03400"/><path d="M128.754 18.88s2.827-1.904 3.966.87a2.904 2.904 0 0 1-3.966 3.878s1.2-2.765 0-4.748Z" fill="#FF9F5A"/><path d="M132.415 24.245a1.835 1.835 0 1 1-1.125-1.695 1.834 1.834 0 0 1 .989.994c.091.222.137.46.136.701ZM124.241 39.967a.929.929 0 0 1-1.843.17.932.932 0 0 1 1.775-.528c.046.113.07.235.068.358Z" fill="#FFEE3A"/><path d="M33.033 86.828s-6 6.878-9.252 8.695C20.53 97.341 12.59 98.88 9.225 99.08c-3.366.2-8.444 3.669-8.244 7.53.2 3.861 14.861 0 19.748.409 4.887.409 7.322.304 9.67-2.748 2.347-3.052 10.904-7.443 10.895-10.435l-8.26-7.008Z" fill="#D8864E"/><path d="M25.816 101.21s-.557 2.548-2.852 2.609" stroke="#CB2909" stroke-width=".87" stroke-linecap="round" stroke-linejoin="round"/><path d="m73.955 141.027-1.226 3.261-11.47-.808s-.148 10.878-4.27 13.626c-4.121 2.747-16.6 4.347-15.712 8.4.591 2.73 1.974 3.052 10.982 2.13 9.009-.922 14.044-2.896 18.626-1.678 4.583 1.217 1.983-8.852 2.748-14.044.487-3.313 1.904-5.26 2.47-7.626h-1.74l-.408-3.261Z" fill="#FF9F5A"/><path d="M1.033 105.715s3.765-1.183 5.044-.722M2.13 103.184s2.608-.783 3.92-.426M4.547 100.906s1.93-.583 2.608 0" stroke="#CB2909" stroke-width=".87" stroke-linecap="round" stroke-linejoin="round"/><path d="M127.181 85.115s3.556 18.156-12.931 18.669c-16.487.513-48.643 2.339-43.626 8.904 5.018 6.566 1.035 14.548 3.33 28.339" stroke="#fff" stroke-width=".5" stroke-miterlimit="10"/><path d="M117.824 83.306c-.487-.087-10.504 14.087 3.8 18.531M95.172 82.132s-22.8-4.583-27.139-4.035c-4.339.548-23.417 15.096-23.417 15.096" stroke="#fff" stroke-width=".87" stroke-miterlimit="10"/><path d="m93.337 47.576 9.009 4.2M101.433 53.306l5.721-6.721" stroke="#001953" stroke-width=".87" stroke-linecap="round" stroke-linejoin="round"/><path d="M116.781 19.602s-1.566 4.348.73 3.896M119.972 24.115c0 .078-.148 3.383-3.383 2.504M131.537 19.924s-1.435-.357-1.904 2.252c0 0 .652-1.305 1.739-.696" stroke="#CB2909" stroke-width=".87" stroke-linecap="round" stroke-linejoin="round"/><path d="M122.189 22.593s-.652-1.304-1.069-1.095c-.418.208.556 3.347.652 3.321.095-.026 2.669-1.652 2.122-2.217-.548-.565-1.705-.009-1.705-.009ZM113.189 22.245s.87-1.191 1.235-.913c.365.278-1.087 3.218-1.183 3.174-.095-.043-2.365-2.052-1.739-2.53.626-.479 1.687.27 1.687.27Z" fill="#F8593E"/><path d="M119.111 19.759a.712.712 0 0 1 .53-.2.738.738 0 0 1 .496 1.278.782.782 0 0 1-.339.191h-.191a.747.747 0 0 1-.678-.479.736.736 0 0 1 .182-.79ZM112.668 19.08a.737.737 0 0 1 1.051.026.752.752 0 0 1 .209.531.748.748 0 0 1-.234.522.682.682 0 0 1-.348.182h-.183a.754.754 0 0 1-.73-.765.746.746 0 0 1 .235-.495Z" fill="#001953"/><path d="M142.337 58.289c2.191-3.165 6.513-9.87-1.113-15.496-3.939-2.895-10.896 4-10.896 4l-13.043 12.07c1.4 1.956 5.217 6.321 13.913 11.234a71.347 71.347 0 0 0 11.139-11.808Z" fill="#28A5EB"/><path d="M119.059 58.115a30.055 30.055 0 0 0 12.174 9.373" stroke="#F97B43" stroke-width=".87" stroke-linecap="round" stroke-linejoin="round"/><path d="m117.285 58.863-6.087 5.634s-35.652 2.853-37.652 2.244-3.052-10.591-5.087-10.991c-2.035-.4 1.217 6.304 0 6.304s-6.087-7.94-6.087-7.94a9.104 9.104 0 0 0 .609 6.488c.556.965 1.017 1.66 1.017 1.66-.38-.523-.715-1.079-1-1.66a14.66 14.66 0 0 1-1.835-4.548c-.095-.809-2.426 1.74-.556 6.635l.522 1.2a14.495 14.495 0 0 1-.522-1.2l-1.278-2.974s-2.61 7.226 9.774 14.452c12.382 7.226 34.704 6.817 43.251 6.617 4.948-.121 12.435-5.052 18.896-10.687-8.757-4.913-12.6-9.278-13.965-11.234Z" fill="#FF9F5A"/></svg>