<svg width="99" height="192" fill="none" xmlns="http://www.w3.org/2000/svg"><path d="M46.911 32.4a9.62 9.62 0 0 1-.938-.558c0 1.575-.313 3.39-1.346 4.468-1.179 1.245 2.122 4.094 5.764 3.558 3.642-.537 5.423-2.335 5.423-2.335s-2.016-1.575-2.105-5.485l-.352.212a6.797 6.797 0 0 1-6.446.14Z" fill="#E29B8D"/><path d="M62.12 20.341c-.358-1.223-1.676-.603-1.676-.603.385-4.189-.24-16.035-11.847-15.197-11.606.837-9.65 15.242-9.65 15.242-1.487-.732-2.358.883-1.302 3.569.96 2.446 3.088 2.016 3.088 2.016a15.237 15.237 0 0 0 5.262 6.474c.302.203.615.39.938.558a6.797 6.797 0 0 0 6.446-.123l.351-.212c3.77-2.374 5.379-6.78 5.379-6.78 2.648.686 3.362-3.72 3.01-4.944Z" fill="#EAB2A5"/><path d="M61.511 20.498c.073.078-.274-.419-.642-.162a1.407 1.407 0 0 0-.319 1.48c.224.302.498.983 0 1.29-.497.307-.335.458-.335.458.146-.18.34-.316.559-.39.352-.118.352-.732 0-1.207-.352-.475.14-2.15.737-1.47ZM37.919 20.565c-.056.083.229-.442.625-.23a1.39 1.39 0 0 1 .475 1.436c-.19.33-.386 1.033.123 1.285.508.251.385.419.385.419a1.313 1.313 0 0 0-.592-.33c-.357-.078-.424-.687-.128-1.195s-.369-2.128-.888-1.385Z" fill="#BC6262"/><path d="M48.162 27.887a2.413 2.413 0 0 0 3.804-.061c.223-.335-.313-.643-.559-.313-.653.983-2.167.787-2.832-.061-.245-.319-.681.122-.441.435h.028Z" fill="#1D2937"/><path d="M43.99 25.122a1.19 1.19 0 1 0 0-2.38 1.19 1.19 0 0 0 0 2.38Z" fill="#CE7A7A"/><path d="M44.532 22.247c.574-.024 1.01-.719.975-1.55-.035-.833-.528-1.488-1.101-1.464-.574.024-1.01.719-.975 1.55.035.833.528 1.488 1.101 1.464ZM43.682 18.476c-.095.123 0 0 .073-.034.16-.074.329-.127.503-.156.21-.039.428-.023.63.045.057 0 .219.122.168.078.336.285.827-.201.486-.492a1.905 1.905 0 0 0-2.457.207c-.268.358.33.698.597.352Z" fill="#332535"/><path d="M55.378 25.122a1.19 1.19 0 1 0 0-2.38 1.19 1.19 0 0 0 0 2.38Z" fill="#CE7A7A"/><path d="M55.957 20.798c.035-.832-.402-1.526-.975-1.55-.573-.025-1.066.63-1.101 1.462-.035.833.401 1.527.974 1.55.574.025 1.067-.63 1.102-1.462ZM55.685 18.476c.095.123 0 0-.072-.034a1.951 1.951 0 0 0-.503-.156 1.273 1.273 0 0 0-.631.045c-.056 0-.218.123-.168.078-.34.285-.832-.201-.491-.491a1.916 1.916 0 0 1 2.463.206c.268.358-.33.698-.598.352Z" fill="#332535"/><path d="M48.983 19.71a2.028 2.028 0 0 1 .475 1.827c-.24.854-1.05 1.586-.961 2.295.09.71 1.927.771 1.927.771s-1.832-.38-1.676-.966c.129-.693 1.989-2.927.235-3.927Z" fill="#CE7A7A"/><path d="M63.89 10.913c-3.48-4.094 1.413-5.445-3.021-9.076-3.843-3.144-9.104.067-10.445.983 0 0-6.451-4.055-10.886-.424-4.434 3.63-.664 5.473-4.138 9.567-3.474 4.094-7.904 1.553-6.507 7.747 1.396 6.194 5.954 4.418 4.837 7.63-1.117 3.211.804 4.401 3.429 5.808 1.514.816 5.172 1.603 8.16 2.123a8.719 8.719 0 0 0 .654-3.43 15.237 15.237 0 0 1-5.262-6.473s-2.128.43-3.088-2.016c-1.056-2.687-.185-4.3 1.3-3.57.375.207 1.263.978 1.866 3.737 0 0-.765-5.11.632-7.132 1.396-2.022 5.026-2.027 7.26-4.262a7.616 7.616 0 0 0 1.117-1.496c.3.507.66.976 1.073 1.396 2.234 2.234 5.864 2.234 7.26 4.261 1.397 2.028.626 7.133.626 7.133.71-3.206 1.71-3.709 1.966-3.787a1.039 1.039 0 0 1 1.386.71c.351 1.223-.37 5.63-3.033 4.942 0 0-1.609 4.407-5.379 6.78a9.344 9.344 0 0 0 .642 3.296c3.14-.52 7.261-1.351 8.848-2.234 2.625-1.407 4.54-2.591 3.423-5.809-1.117-3.217 3.446-1.44 4.843-7.63 1.396-6.188-4.111-4.68-7.563-8.774ZM65.94 91.9c-.558-2.954-5.635-14.829-5.635-14.829s-3.77.682-11.17.682a47.143 47.143 0 0 1-13.02-1.788L29.412 91.9s13.869 9.869 14.148 9.68c.28-.19 23.782-4.76 23.782-4.76a29.035 29.035 0 0 1-1.402-4.92Z" fill="#332535"/><path d="M58.545 91.085s4.697-.095 7.58 3.256c2.882 3.351 1.49 13.5-.743 19.644-2.235 6.144-1.212 8.004-3.257 8.936-2.044.933-9.684 1.771-11.17-1.396-1.486-3.167-1.117-19.174-1.77-20.945-.654-1.77 2.708-8.775 9.36-9.495Z" fill="#3B2A3D"/><path d="M43.063 166.721s.419.285-1.263.91c-1.68.626-3.485 1.62-3.083 4.346.403 2.725-.061 4.356-1 6.01-.938 1.653-1.865 3.189-1.675 5.753.19 2.563 1.38 5.97 2.44 6.506 1.062.537 4.274 1.676 5.19.771.916-.905 1.798-9.098 1.781-9.863-.017-.766.285-6.396 1.179-8.216.893-1.821 2.373-4.011 2.3-4.508-.072-.497-5.88-1.709-5.88-1.709" fill="#F97B43"/><path d="M50.452 116.951s-1.486 13.477-3.29 18.621c-1.804 5.144-4.468 28.636-5.027 31.462-.558 2.826 4.642 4.267 5.67 3.91 1.027-.358 4.903-14.399 8.148-21.526 3.245-7.127 3.91-11.461 5.206-18.23 1.296-6.77 2.469-8.261 2.927-12.981.324-3.295-12.45-8.623-13.634-1.256Z" fill="#402F42"/><path d="M.246 101.775s-.771-4.29 12.45-8.294c13.22-4.005 19.269-4.094 21.737-3.44 2.469.653 8.378 4.54 7.703 7.528-.676 2.989-37.584 9.797-41.89 4.206Z" fill="#3B2A3D"/><path d="M69.291 97.39c-2.234.28-4.284-1.764-5.864-1.206-1.58.559-6.423 2.419-6.423 2.419l-.078.039a8.731 8.731 0 0 0 1.435 6.144c3.128-.079 7.077 1.552 9.908 2.764 3.256 1.397 3.91.933 4.558-1.212.648-2.144-1.302-9.226-3.536-8.947Z" fill="#F97B43"/><path d="M58.36 104.775a8.732 8.732 0 0 1-1.435-6.144c0-.079 0-.145.034-.224.033-.078-11.55-.335-19.644-1.351-7.361-.927-19.755-2.162-24.642-1.603-4.887.558-9.707 1.267-11.662 4.434-1.955 3.167-1.385 7.63 11.45 8.758 15.08 1.329 27.412-1.955 34.115-2.469 5.585-.424 10.986-.882 11.824-.882.229.011.162-.173-.04-.519Z" fill="#402F42"/><path d="M94.61 42.275a29.85 29.85 0 0 0 2.384-5.368c.61-2.234 1.676-7.746.838-8.495-.838-.748-1.162.307-1.312.866-.313 1.195-.699 3.837-.95 4.865-.251 1.027-.067-1.117.062-2.156.14-1.195.698-4.737.63-5.256-.066-.52-.508-1.017-.949-.816-1.01.464-1.44 6.882-1.62 7.06-.178.18.129-5.423.196-6.26.067-.839-.29-2.196-.983-1.972-1.285.407-1.117 6.144-1.246 7.26-.134 1.497-.396-.519-.385-1.178.011-.659-.313-5.345-.989-5.502-.916-.206-1.323.503-1.228 1.9.095 1.396.53 6.797.223 7.087-.307.29-1.005-.625-1.447-1.418-.44-.794-2.39-2.58-3.239-1.81-.849.77.179.793.921 2.128a17.626 17.626 0 0 1 1.676 3.686c.363 1.251 1.732 4.468 2.865 5.468 1.134 1 3.452.883 4.552-.09Z" fill="#FEAC97"/><path d="M80.864 58.556a8.115 8.115 0 0 0-1.955 4.714c-.1 2.72.77 6.211 2.726 6.736 1.954.525 6.423-9.255 6.423-9.255l-7.194-2.195Z" fill="#FB8E55"/><path d="m82.422 59.332-6.959-7.987c-3.87-4.887-8.456-10.35-9.802-11.316-1.346-.966-5.357-2.005-5.357-2.005s.61 8.658 0 9.959c-.608 1.301 2.793 3.536 6.613 7.847 5.658 6.35 13.696 14.383 14.718 14.198.888-.162.687-6.657 0-9.668.396-.553.787-1.028.787-1.028Z" fill="#F97B43"/><path d="m79.462 60.846 1.402-2.29c.559-.212 9.154-16.314 9.154-16.314s3.91.424 4.787-.079c0 0-2.234 9.898-6.261 17.65-4.027 7.752-4.954 9.98-6.909 10.193-1.955.212-2.173-9.16-2.173-9.16Z" fill="#FB8E55"/><path d="M63.432 47.637c.42-6.842-1.117-9.004-1.882-9.283-.765-.28-5.557-1.514-7.16-2.91 0 0 0 3.083-4.284 3.351-5.1.307-4.977-3.128-4.977-3.128s-4.317 1.927-6.83 2.346c-2.514.42-3.212 4.469-2.933 7.82.201 2.401 1.005 7.26 1.782 11.818.307 1.799.609 3.547.871 5.077.559 3.156-.748 8.741-1.927 13.249a47.15 47.15 0 0 0 13.02 1.787c7.428 0 11.17-.681 11.17-.681a40.004 40.004 0 0 1-.927-8.21c.168-5.458 3.653-14.394 4.077-21.236Z" fill="#F97B43"/><path d="M43.834 61.276a9.785 9.785 0 0 1 5.77-1.117c2.082.236 4.094.9 5.908 1.95a31.509 31.509 0 0 0-11.678-.833ZM62.901 51.72s.626-4.413.598-5.993l-.195-2.106-1.346 12.466.944-4.367M36.349 44.52c.392 1.679.61 3.393.648 5.116.05 2.737-.386 5.49.039 7.44.424 1.95.475 1.592.475 1.592s-.743-3.128-.43-4.703c.312-1.575.625-7.652-.732-9.445Z" fill="#E56239"/><path d="M38.298 38.024s-4.563.743-6.702 3.447c-2.14 2.703-2.887 17.403-3.725 22.9-.838 5.495-1.955 11.226 2.05 11.617 2.882.279 5.808-11.618 7.227-18.326-.776-4.552-.598-10.053-.793-12.45-.29-3.373-.575-6.791 1.944-7.188Z" fill="#F97B43"/><path d="M26.904 72.352s3.016-6.367 6.647-10.836c3.63-4.468 5.758-6.663 5.758-6.663s1.866 3.072 2.888 3.396c.743.235-6.379 13.114-7.624 14.93-1.246 1.815-6.859 5.775-7.669-.827Z" fill="#FB8E55"/><path d="M54.49 44.738H43.833V58.69H54.49V44.738Z" fill="#F4E2DC"/><path d="M53.127 44.738h-8.25v12.5h8.25v-12.5Z" fill="#fff"/><path d="M55.317 55.339h-2.039v-1.676h2.04c.714 0 1.312-.81 1.312-1.765v-1.815c0-.955-.598-1.765-1.313-1.765h-1.58v-1.675h1.58c1.648 0 2.988 1.541 2.988 3.44v1.815c0 1.91-1.34 3.44-2.988 3.44ZM39.416 55.585c.106-.18 2.513-4.742 3.842-5.586a44.979 44.979 0 0 1 6.842-2.971c.838-.173 1.475.162 1.536.419.162.737-1.245 1.502-2.329 1.921a43.7 43.7 0 0 0-4.25 1.804c-.28.257 3.016-.932 4.206-1.245 1.19-.313 2.625-1.006 3.183-.52.559.486.698 1.184-.28 1.475-.976.29-5.026 1.385-6.372 1.977-1.346.592-.86.385-.558.246a29.868 29.868 0 0 1 4.747-1.011c1.324-.106 1.988-.28 2.301.033.313.313.805 1.084-.313 1.536-1.117.453-4.261.838-5.026 1.117-.495.19-.956.46-1.363.799a5.329 5.329 0 0 1 1.675-.592c1.224-.28 3.178-.804 3.854-.559.525.185.72.727 0 1.157-.72.43-2.826.737-3.63 1.19-.805.452-1.71 1.502-2.586 1.748-.877.245-1.614-.56-2.234-.9-.62-.34-3.804-1.167-3.245-2.038Z" fill="#F4E2DC"/><path d="M38.986 55.288c.106-.178 2.513-4.741 3.837-5.585a44.59 44.59 0 0 1 6.842-2.966c.837-.178 1.48.157 1.536.42.167.731-1.24 1.496-2.324 1.915a43.7 43.7 0 0 0-4.25 1.804c-.28.257 3.016-.927 4.2-1.245 1.184-.319 2.63-1.006 3.19-.52.558.486.697 1.19-.28 1.475-.977.285-5.027 1.385-6.373 1.977-1.346.592-.866.39-.558.246 1.553-.462 3.14-.8 4.747-1.011 1.33-.106 1.994-.28 2.307.033.313.313.804 1.084-.313 1.536-1.117.453-4.262.838-5.027 1.117-.495.19-.956.46-1.363.799a5.452 5.452 0 0 1 1.676-.559c1.223-.279 3.178-.81 3.854-.558.525.184.72.732 0 1.156-.72.424-2.832.737-3.63 1.19-.8.452-1.715 1.502-2.587 1.748-.87.246-2.58.346-3.211 0-.631-.346-2.82-2.083-2.273-2.971Z" fill="#FEAC97"/></svg>