<svg width="74" height="163" fill="none" xmlns="http://www.w3.org/2000/svg"><path d="M60.114 57.235a12.223 12.223 0 0 1-11.395-1.253c-3.202-2.293-6.167-3.997-10.255-4.12-2.542-.075-4.92.993-7.34 1.603-2.126.538-3.75 2.256-6.045 2.574-3.012.415-6.096-1.444-7.462-4.19-1.366-2.748-1.075-6.156.456-8.81 1.107-1.945 2.13-3.39.882-5.555a8.928 8.928 0 0 1-.796-1.42 3.93 3.93 0 0 1-.183-1.515c.11-2.802 2.22-4.9 3.621-7.22.36-.522.617-1.107.757-1.726.25-1.592-1.004-2.967-1.675-4.43-2.169-4.743 1.535-10.137 5.138-12.996C27.94 6.5 30.48 5.82 32.785 4.452c1.043-.621 1.993-1.394 3.05-1.997 1.844-1.047 3.852-1.083 5.896-.801 5.826.82 12.453 5.087 13.8 11.224.918 4.158-.58 8.996 3.51 11.913 1.235.877 2.794 1.4 3.633 2.66 1.793 2.686-.839 6.657.796 9.44a9.585 9.585 0 0 0 1.406 1.625 13.469 13.469 0 0 1 3.585 10.448 6.702 6.702 0 0 1-.734 2.66c-.62 1.112-1.675 1.895-2.708 2.636a24.905 24.905 0 0 1-4.866 2.931l-.039.044Z" fill="#181C25"/><path d="M65.4 41.697c-1.811-1.563-2.198-4.303-1.675-6.646.34-1.53 1.019-3.026.957-4.596a5.07 5.07 0 0 0-3.276-4.473c-.94-.335-1.976-.36-2.87-.812-1.358-.654-2.108-2.033-2.606-3.4-.541-1.488-.315-2.762-.323-4.333a59.347 59.347 0 0 0-.258-5.974c-.233-2.289-1.596-4.556-3.155-6.202a11.408 11.408 0 0 0-.7-.679C47.448.94 39.706-.653 34.905 2.308c-.954.588-1.55 1.404-2.31 2.166a14.703 14.703 0 0 1-2.7 2.025 65.735 65.735 0 0 1-5.898 3.119c-1.27.635-2.563 1.318-3.496 2.394a7.012 7.012 0 0 0-1.573 4.79 11.69 11.69 0 0 0 1.394 4.924c.556 1.083 1.227 2.116 1.578 3.282.574 1.895-.524 3.678-1.915 4.891-1.054.925-2.262 1.765-2.84 3.047a3.894 3.894 0 0 0 .112 3.38c.516.956 1.416 1.664 1.896 2.642A3.59 3.59 0 0 1 19.188 42c-.555 1.21-1.821 2.333-1.406 3.61" stroke="#292F3D" stroke-width="1.317" stroke-miterlimit="10"/><path d="M58.246 97.862a17.234 17.234 0 0 1-1.75 3.527 34.367 34.367 0 0 1-11.585 11.346c-3.628 2.101-7.433 2.008-11.144 1.192-2.535-.556-5.059-2.311-7.508-3.942a36.812 36.812 0 0 1-7.343-6.325c-1.847-2.087-3.503-4.694-3.787-9.621-.11-1.942.083-4.094.746-5.415.803-1.589 2.019-1.535 3.102-1.347 6.128 1.058 12.065 5.668 18.236 5.755 3.446.047 6.659-1.953 9.968-3.762 2.557-1.397 5.379-2.931 8.05-2.639 2.41.27 4.794 6.224 3.015 11.23Z" fill="url(#a)"/><path opacity=".2" d="M58.246 97.862a17.234 17.234 0 0 1-1.75 3.527 34.367 34.367 0 0 1-11.585 11.346c-3.628 2.101-7.433 2.008-11.144 1.192-2.535-.556-5.059-2.311-7.508-3.942a36.812 36.812 0 0 1-7.343-6.325c-1.847-2.087-3.503-4.694-3.787-9.621-.11-1.942.083-4.094.746-5.415.803-1.589 2.019-1.535 3.102-1.347 6.128 1.058 12.065 5.668 18.236 5.755 3.446.047 6.659-1.953 9.968-3.762 2.557-1.397 5.379-2.931 8.05-2.639 2.41.27 4.794 6.224 3.015 11.23Z" fill="url(#b)"/><path d="M19.737 86.3c-.151-.34-.301-.69-.46-1.047a51.868 51.868 0 0 1-3.61-11.69c-.265-1.444-.534-3.036-1.635-4.007-1.524-1.347-4.49-1.173-6.376-.92-.881.118-1.758.381-2.3 1.1-.32 1.11-.938 3.275-.862 5.343-.211 8.704 6.623 15.885 12.191 21.772 1.076 1.13 2.234 2.275 3.718 2.733 1.485.459 3.367 0 4.016-1.444.477-1.043.187-2.267-.19-3.35a21.984 21.984 0 0 0-2.735-5.184 19.073 19.073 0 0 1-1.757-3.307Z" fill="#FFC5AB"/><path d="M46.568 41.252c.043-.15.086-.303.125-.454.563-2.108.603-3.037-1.853-2.935l-17.212.722c.334 1.502.36 2.888.818 4.39 1.047 3.292 3.04 6.56 6.548 7.534 3.352.928 6.658-.452 8.705-3.16a18.654 18.654 0 0 0 2.869-6.096Z" fill="#F4F4F4"/><path d="M52.437 39.004a7.714 7.714 0 0 1-.605 4.462c-1.793 3.736-6.2 4.465-9.925 4.61a21.896 21.896 0 0 1-4.128-.22c-1.215-.18-2.301 0-3.528-.026a13.448 13.448 0 0 1-6.898-2.086 6.478 6.478 0 0 1-2.45-2.527c-.717-1.473-.498-3.217-.125-4.813a9.63 9.63 0 0 1 .954-2.653c.502-.877 1.223-1.62 1.639-2.527.785-1.726.14-3.744.838-5.44a9.98 9.98 0 0 1 3.066-3.654c1.556-1.13 3.56-1.487 5.472-1.354 1.91.134 3.761.723 5.583 1.31 1.434.474 2.667.182 3.718 1.373.835.945.545 2.487.81 3.635.897 3.845 4.977 5.863 5.58 9.91Z" fill="#181C25"/><path d="M26.062 56.111c-2.432 4.203-5.171 8.232-7.792 12.318-1.46 2.278-2.94 4.6-3.726 7.195-3.607-.086-6.527-.832-10.055-1.514.566-4.824 2.393-9.215 4.655-13.417 2.357-4.376 4.891-8.664 7.107-13.108 1.793-3.61 5.17-7.942 9.681-5.776 3.464 1.675 2.927 6.469 2.209 9.567a17.248 17.248 0 0 1-2.08 4.736Z" fill="#FFC5AB"/><path d="M17.252 62.364c-.233 2.149-.172 4.74 1.624 5.92 1.23.81 2.922.604 4.163-.19 1.24-.794 2.094-2.069 2.754-3.39a19.536 19.536 0 0 0 .893-14.823c-.423-1.25-2.095-6.116-3.88-5.34-.857.362-1.67 2.889-2.04 3.72a37.308 37.308 0 0 0-1.542 4.118 52.563 52.563 0 0 0-1.972 9.985Z" fill="#FCB08E"/><path d="M53.33 86.3c.151-.34.301-.69.46-1.047a52.03 52.03 0 0 0 3.61-11.69c.266-1.444.534-3.036 1.635-4.007 1.524-1.347 4.49-1.173 6.376-.92.881.118 1.715.367 2.257 1.086.279.979.955 3.198.905 5.357.211 8.704-6.623 15.885-12.191 21.772-1.076 1.13-2.234 2.275-3.718 2.733-1.485.459-3.371 0-4.02-1.444-.477-1.043-.183-2.267.194-3.35a21.984 21.984 0 0 1 2.736-5.184 19.35 19.35 0 0 0 1.756-3.307Z" fill="#FFC5AB"/><path d="M47.005 56.111c2.431 4.203 5.17 8.232 7.788 12.318 1.463 2.278 2.944 4.6 3.73 7.195 3.606-.086 6.51-.716 10.038-1.398-.57-4.823-2.376-9.33-4.639-13.533-2.356-4.376-4.89-8.664-7.106-13.108-1.793-3.61-5.171-7.942-9.682-5.776-3.463 1.675-2.926 6.469-2.208 9.567a17.248 17.248 0 0 0 2.08 4.736Z" fill="#FFC5AB"/><path d="M55.815 62.364c.233 2.149.172 4.74-1.624 5.92-1.23.81-2.922.604-4.163-.19-1.24-.794-2.094-2.069-2.757-3.39a19.535 19.535 0 0 1-.89-14.823c.423-1.25 2.094-6.116 3.88-5.34.857.362 1.67 2.889 2.04 3.72a38.072 38.072 0 0 1 1.542 4.118c.979 3.257 1.64 6.601 1.972 9.985Z" fill="#FCB08E"/><path d="M54.568 90.32c-1.004-2.685-2.51-4.88-3.385-7.656-1.177-3.765-1.976-9.137-.628-13.036 1.434-4.137 3.198-7.404 3.302-12.014.093-3.946-.695-7.838-1.484-11.682-.789-3.845-1.13-4.914-4.833-5.495-1.32-.206-2.625-.567-3.945-.801a38.643 38.643 0 0 0-6.766-.582h-.18c-2.267 0-4.532.199-6.765.596-1.32.235-2.621.596-3.945.802-3.703.58-4.055 1.685-4.837 5.494-.781 3.808-1.573 7.736-1.484 11.682.108 4.61 1.868 7.877 3.302 12.014 1.352 3.899.553 9.271-.627 13.036-.868 2.776-2.377 4.971-3.381 7.657a1.095 1.095 0 0 0-.094.657 1.055 1.055 0 0 0 .6.578c4.919 2.592 10.437 3.368 15.834 3.769l1.387.097h.194l1.388-.098c5.396-.4 10.91-1.176 15.833-3.768a1.048 1.048 0 0 0 .6-.578 1.092 1.092 0 0 0-.087-.671Z" fill="#FB8133"/><g style="mix-blend-mode:soft-light"><path opacity=".5" d="M49.798 47.662a40.785 40.785 0 0 1-5.063.064c-6.06-.3-8.487-1.779-13.17-1.859a24.38 24.38 0 0 0-8.1 1.282v-2.564a22.205 22.205 0 0 1 8.1-1.282c4.834.168 7.276 1.948 13.005 2.051a28.736 28.736 0 0 0 5.228-.384v2.692ZM49.798 52.25c-1.427-.015-3.328.05-5.43-.046-5.947-.267-8.398-1.423-13.262-1.512a22.78 22.78 0 0 0-7.64 1.093v-2.884a20.657 20.657 0 0 1 7.631-1.105c4.956.175 7.426 1.675 13.124 1.756 2.148.033 4.094-.174 5.577-.302v3ZM49.798 56.18c-1.758-.114-3.78-.082-5.798-.152-5.833-.194-8.309-.851-13.353-.935a25.594 25.594 0 0 0-7.182.739V53.05a22.949 22.949 0 0 1 7.164-.761c5.079.155 7.577 1.148 13.243 1.195 2.053.02 4.116-.13 5.926-.174v2.87ZM49.798 60.102c-2.088-.196-4.231-.194-6.165-.241-5.72-.128-8.22-.342-13.445-.421-2.077-.031-4.408-.041-6.723.421v-2.647c2.291-.504 4.61-.505 6.695-.45 5.203.135 7.73.674 13.363.69 1.959.01 4.138-.088 6.275-.06v2.708ZM49.798 65.144c-2.419-.308-4.683-.336-6.532-.367-5.607-.082-8.131.108-13.537.022-2.153-.034-4.331-.108-6.264.172V62.04c1.908-.323 4.073-.27 6.227-.215 5.325.137 7.88.313 13.482.301 1.864 0 4.16-.063 6.624.044v2.975ZM49.798 69.034a46.48 46.48 0 0 0-6.9-.494c-5.493-.029-8.042.607-13.629.517-2.228-.036-4.253-.179-5.804-.112V65.8c1.525-.108 3.535 0 5.759.056 5.448.135 8.03-.105 13.6-.146 1.77-.011 4.182-.032 6.974.157v3.166Z" fill="#F3F7F8"/><path d="M54.318 73.06a68.294 68.294 0 0 0-9.73-.664c-7.204.03-10.648 1.208-18.37 1.107a73.36 73.36 0 0 1-7.157-.443V69.52c1.529.132 4.013.312 7.083.369 7.459.139 10.955-.585 18.37-.664a121.79 121.79 0 0 1 9.804.295v3.541Z" fill="#F3F7F8" style="mix-blend-mode:soft-light"/></g><path d="M31.523 46.48c2.18 2.495 6.375 2.693 9.322 1.672 1.998-.694 3.41-2.282 3.453-4.459.047-2.437-2.076-4.17-2.614-6.44a15.46 15.46 0 0 1-.243-3.924c.039-1.531.05-3.062.121-4.589a15.996 15.996 0 0 0-4.303-.415c-1.323.054-2.642-.083-3.962 0a.463.463 0 0 0-.297.09.423.423 0 0 0-.097.285c-.176 2.065 0 4.156-.144 6.225-.125 1.902-.548 3.815-1.652 5.389a5.002 5.002 0 0 0 .416 6.166Z" fill="#FFC5AB"/><path d="M35.535 6.603A8.485 8.485 0 0 1 39.12 5.7c1.235-.04 2.47.086 3.67.376a13.19 13.19 0 0 1 6.455 3.567 11.745 11.745 0 0 1 3.356 6.61c.118 1.244.162 2.494.133 3.744a8.88 8.88 0 0 0 .631 3.573 7.244 7.244 0 0 0 2.384 2.686c.99.722 2.084 1.296 3.142 1.953.565.305 1.063.721 1.462 1.224.344.559.511 1.208.481 1.863a6.86 6.86 0 0 1-.24 1.888c-.184.6-.411 1.185-.681 1.751a3.536 3.536 0 0 0-.33 1.75c.07.605.242 1.194.509 1.741.523 1.116 1.168 2.184 1.7 3.31.559 1.123.91 2.337 1.036 3.585a8.86 8.86 0 0 1-.456 3.683 8.875 8.875 0 0 0 .359-3.675 10.157 10.157 0 0 0-1.08-3.513c-.544-1.112-1.197-2.166-1.746-3.293a5.63 5.63 0 0 1-.552-1.805c-.052-.643.06-1.289.327-1.877.256-.56.473-1.136.648-1.725.152-.59.226-1.197.22-1.805a2.978 2.978 0 0 0-.435-1.694 4.478 4.478 0 0 0-1.377-1.126c-1.043-.646-2.15-1.22-3.166-1.953a7.557 7.557 0 0 1-2.51-2.812 9.096 9.096 0 0 1-.645-3.715 32.517 32.517 0 0 0-.118-3.708 11.636 11.636 0 0 0-3.227-6.465 13.014 13.014 0 0 0-6.311-3.589 13.685 13.685 0 0 0-3.65-.465 8.472 8.472 0 0 0-3.575.819Z" fill="#292F3D"/><path d="M41.584 36.946a16.47 16.47 0 0 1-.183-3.635c.036-1.53.047-3.062.118-4.589a16.025 16.025 0 0 0-4.302-.415c-1.323.054-2.64-.083-3.963 0a.338.338 0 0 0-.286.082.337.337 0 0 0-.108.28c-.175 2.064 0 4.158-.14 6.226-.04.594-.114 1.185-.222 1.77.208.18.416.36.635.52a6.74 6.74 0 0 0 5.78 1.057 8.679 8.679 0 0 0 2.67-1.296Z" fill="#FCB08E"/><path d="M47.152 20.538a18.651 18.651 0 0 0-.89-5.527c-2.33-6.86-10.882-8.43-15.945-3.415-5.647 5.592-3.27 18.733 2.83 23.274a6.735 6.735 0 0 0 5.776 1.062c5.906-1.697 8.355-9.065 8.23-15.394Z" fill="#FFC5AB"/><path d="M39.6 23.33a.58.58 0 1 0 1.11.024c.004-.417-.23-.762-.538-.772-.31-.01-.562.331-.571.748ZM32.097 23.325c0 .417.234.762.538.766.305.005.562-.325.571-.742.01-.417-.233-.762-.537-.767-.305-.004-.562.326-.572.743Z" fill="#292F3D"/><path d="M47.142 14.596C45.301 7.592 36.89 5.4 31.479 10.047a11.315 11.315 0 0 0-2.076 2.563c-.523.802-1.25 1.408-1.71 2.285-.475.909-.77 1.9-.868 2.921-.093.99.226 1.856.251 2.809a3.489 3.489 0 0 1 1.14-2.65c.611-.467 1.27-.867 1.965-1.195a3.255 3.255 0 0 0 1.574-1.62c2.152 2.836 5.49 3.706 8.778 4.53 2.754.685 5.78 2.436 5.845 5.678 0 .365.071.725.211 1.062.174-.437.282-.897.323-1.365.057-.527.212-1.054.312-1.585.212-1.088.347-2.189.405-3.296a18.743 18.743 0 0 0-.487-5.588Z" fill="#FCB08E"/><path d="M48.708 26.614a3.744 3.744 0 0 0 1.198-1.678c.735-2.166.656-4.581.567-6.914a16.48 16.48 0 0 0-.456-3.855 9.85 9.85 0 0 0-1.979-3.581 11.635 11.635 0 0 0-9.796-4.17c-1.434.126-2.492.82-3.754 1.408s-2.682.888-3.977 1.318c-1.495.498-3.037 1.018-4.223 2.061a7.751 7.751 0 0 0-1.947 2.834 8.073 8.073 0 0 0-.442 4.061c.073 1.16.334 2.3.771 3.376.463.982 1.496 1.62 2.42 2.111-.139-.072 0-1.693-.024-1.942a13.206 13.206 0 0 1 .505-4.274c.427-1.34 1.28-2.166 2.388-2.975a8.389 8.389 0 0 0 1.259-1.083c.186-.206.993-1.155.86-1.444a9.716 9.716 0 0 0 2.844 3.744 32.297 32.297 0 0 0 7.587 4.003l.584.231a6.48 6.48 0 0 1 2.04 1.177c1.334 1.22 1.435 3.094 1.38 4.787-.017.185 0 .37.051.549.276.826 1.607.657 2.144.256Z" fill="#181C25"/><path d="m11.892 67.368-.428 1.014H62.04l-.51-1.137-49.638.123Z" fill="#B8D1CE"/><path d="M58.547 100.555H14.936l-3.123-32.689a.997.997 0 0 1 .576-.995.984.984 0 0 1 .395-.088H60.72a.988.988 0 0 1 .972 1.083l-3.145 32.689Z" fill="#292F3D"/><path d="M58.892 101.479H14.594L11.422 68.79a.997.997 0 0 1 .986-1.083h48.671a.988.988 0 0 1 .852.49c.105.179.152.386.134.593l-3.173 32.689Z" fill="#555E78"/><path d="M58.866 101.48H14.595v1.982h44.271v-1.982Z" fill="#292F3D"/><path d="m43.803 22.187 2.09-.167M29.229 22.187l-2.085-.167M37.232 23.011a3.32 3.32 0 0 0 1.97 3.111 3.28 3.28 0 0 0 3.609-.643 3.333 3.333 0 0 0-.395-5.118 3.28 3.28 0 0 0-4.17.325 3.333 3.333 0 0 0-1.014 2.325ZM29.229 22.839a3.322 3.322 0 0 0 1.969 3.11 3.28 3.28 0 0 0 3.608-.641 3.33 3.33 0 0 0-.39-5.117 3.276 3.276 0 0 0-4.17.323 3.334 3.334 0 0 0-1.017 2.325Z" stroke="#292F3D" stroke-width=".362" stroke-miterlimit="10"/><path d="M37.608 21.263s-.776-.48-2.151-.044" stroke="#292F3D" stroke-width=".362" stroke-miterlimit="10"/><path d="M39.816 84.588a3.095 3.095 0 0 1-1.895 2.86 3.058 3.058 0 0 1-3.35-.668 3.105 3.105 0 0 1 .465-4.76 3.058 3.058 0 0 1 3.879.383c.577.58.9 1.366.901 2.185Z" fill="#292F3D"/><path d="M31.512 115.952c2.026-.361 4.044-.765 6.045-1.101 10.04-1.686 20.514-3.664 29.635-8.401 2.101-1.082 4.303-2.819 5.379-4.97 2.868-5.662-2.85-10.968-8.434-9.361-9.322 2.678-17.418 8.494-26.358 12.274-1.491.635-2.993 1.296-4.503 1.96-1.298.57-2.6 1.144-3.908 1.704" fill="url(#c)"/><path d="M29.375 108.053a136.604 136.604 0 0 1-4.5 1.845c-1.506.581-10.452 2.574-8.466 5.96.387.664 1.251.838 2.012.935 4.374.552 8.76-.065 13.101-.848" fill="#FFC5AB"/><path d="M21.637 117.017c-1.926.221-3.945.152-5.737.257-.807.05-1.614.097-2.42.09a36.217 36.217 0 0 1-3.837-.307l-2.78-.322a2.377 2.377 0 0 1-1.57-.501 2.412 2.412 0 0 1-.875-1.408 32.549 32.549 0 0 1-1.412-3.361c-.23-.762-.477-1.509.032-2.217.266-.336.588-.624.954-.848a6.753 6.753 0 0 1 1.434-.78c1.685-.621 3.253.044 4.826.654a37.798 37.798 0 0 0 5.07 1.747c1.892.369 3.811.582 5.738.639 1.53.098 3.908-.022 5.166 1.014.513.426 1.277 1.397 1.266 2.09 0 .878-1.076 1.665-1.742 2.048a10.546 10.546 0 0 1-4.113 1.205ZM30.637 148.89c1.022 1.657 2.327 3.209 3.353 4.693.465.668.928 1.336 1.434 1.968a36.159 36.159 0 0 0 2.617 2.841l1.973 1.997a2.374 2.374 0 0 0 3.008.747c2.183-.61 4.252-.661 4.302-3.459.033-1.772-.627-3.776-2.108-4.783-1.718-1.163-3.586-2.04-5.22-3.35a38.045 38.045 0 0 1-4.042-4.119c-1.025-1.149-2.406-3.105-3.998-3.452-.649-.144-1.875-.144-2.41.297-.673.552-.63 1.884-.516 2.646.265 1.418.811 2.77 1.607 3.974Z" fill="#FFC5AB"/><path d="M14.824 117.328c-1.631-.362-3.686-.946-4.661-2.304a4.974 4.974 0 0 1-.79-3.61c.152-1.245 1.235-2.122 2.407-2.556a9.583 9.583 0 0 0-8.161-1.476c-.305.08-.602.19-.886.328-3.782 1.859-1.968 6.563.754 8.466a8.6 8.6 0 0 0 4.202 1.509c1.212.097 2.03.054 3.245.05 1.47 0 2.23-.263 3.89-.407ZM34.48 154.32c1.288 1.083 3.023 2.325 4.69 2.267a4.92 4.92 0 0 0 3.296-1.614c.882-.895.889-2.292.502-3.487a9.646 9.646 0 0 1 6.21 5.534c.129.289.228.59.294.899.897 4.141-3.894 5.625-7.063 4.657a8.59 8.59 0 0 1-3.78-2.386c-.828-.896-1.305-1.567-2.05-2.527-.908-1.162-1.173-1.931-2.098-3.343Z" fill="#E6E6E6"/><path d="M31.863 133.212c.771 2.956 1.55 5.938 2.45 8.845a.58.58 0 0 0 .057.169c.423 1.206.936 2.372 1.34 3.582.265.769.485 1.552.66 2.346.081.374.142.753.183 1.133a1.8 1.8 0 0 1 .033.535.819.819 0 0 1-.452.43 1.677 1.677 0 0 1-.581.118 5.937 5.937 0 0 1-2.306-.447c-.459-.166-.914-.361-1.362-.541a8.184 8.184 0 0 1-1.263-.607 2.26 2.26 0 0 1-.433-.524 36.968 36.968 0 0 1-1.245-1.757 65.345 65.345 0 0 1-3.31-5.65c-1.028-1.928-2-3.845-3.043-5.747-4.913-8.975-9.868-18.473-11.833-28.614-.451-2.339-.462-5.137.538-7.332 2.632-5.776 10.312-4.549 12.524.856 3.69 9.025 4.181 19.028 6.77 28.436.438 1.571.854 3.166 1.273 4.769Z" fill="#FFC5AB"/><path d="M25.485 140.558c-.972-1.826-1.912-3.668-2.89-5.458-4.916-8.974-9.868-18.473-11.833-28.613-.448-2.343-.459-5.137.541-7.332 2.632-5.776 10.312-4.55 12.525.855 3.69 9.025 4.18 19.029 6.77 28.436.433 1.571.85 3.167 1.27 4.77.357 1.379.716 2.765 1.092 4.144" fill="url(#d)"/><defs><linearGradient id="a" x1="1482.1" y1="14350.8" x2="5901.05" y2="14350.8" gradientUnits="userSpaceOnUse"><stop stop-color="#258EE8"/><stop offset="1" stop-color="#2AB5ED"/></linearGradient><linearGradient id="b" x1="15.1" y1="114.465" x2="58.865" y2="114.465" gradientUnits="userSpaceOnUse"><stop stop-color="#258EE8"/><stop offset="1" stop-color="#2AB5ED"/></linearGradient><linearGradient id="c" x1="29.368" y1="115.952" x2="73.336" y2="115.952" gradientUnits="userSpaceOnUse"><stop stop-color="#258EE8"/><stop offset="1" stop-color="#2AB5ED"/></linearGradient><linearGradient id="d" x1="10.471" y1="140.558" x2="32.96" y2="140.558" gradientUnits="userSpaceOnUse"><stop stop-color="#258EE8"/><stop offset="1" stop-color="#2AB5ED"/></linearGradient></defs></svg>