<svg width="54" height="103" fill="none" xmlns="http://www.w3.org/2000/svg"><path d="M34.294 5.967c1.495 0 2.945-.204 3.965-1.676 2.014-2.897 5.072-5.493 8.51-2.552 1.982 1.7.491 5.193 2.196 6.872 1.51 1.486 3.428 1.238 4.198 3.704 1.136 3.627-2.442 6.808-3.59 9.944-.963 2.633 1.209 3.651 2.176 5.68.753 1.581.367 3.277-.451 4.786-1.443 2.666-4.642 4.811-3.9 8.264.62 2.88 1.208 5.448-1.33 7.63-1.733 1.498-4.945 2.861-4.698 5.632.088.981.76 1.818.946 2.783.29 1.53-.693 3.018-1.833 4.057-2.603 2.389-4.884 4.64-6.85 7.647-.83 1.286-4.163 4.182-2.82 5.939-2.418-3.193-4.977-6.284-7.177-9.639-1.81-2.758-4.537-6.795-2.68-10.195.577-1.054 1.652-1.842 1.947-3.014.532-2.11-1.532-4.057-2.297-5.866-1.209-2.84-.318-6.085 1.797-8.211 1.003-1.003 2.091-2.105 2.24-3.518.162-1.545-.806-2.985-1.237-4.41a22.319 22.319 0 0 1-.806-4.056 8.61 8.61 0 0 1 .081-2.893c.431-1.789 2.015-2.787 3.223-4.056 2.82-3.027 1.338-6.585 2.571-10.102 1.112-3.156 3.518-2.75 5.819-2.75Z" fill="url(#a)"/><path d="M32.949 73.55a159.556 159.556 0 0 1 1.262-30.418c1.255-9.543 2.902-19.13 5.399-28.182a106.998 106.998 0 0 1 2.801-8.77" stroke="#55C25C" stroke-width="1.207" stroke-miterlimit="10" stroke-linecap="round"/><path d="M33.266 52.954c3.145-3.886 6.918-6.593 10.978-7.876M36.43 28.617a60.52 60.52 0 0 0-2.744-15.593M34.64 39.383a41.34 41.34 0 0 0-6.701-12.787M33.059 53.325a19.067 19.067 0 0 0-1.139-4.284 27.827 27.827 0 0 0-2.255-4.26 135.38 135.38 0 0 0-1.814-2.856" stroke="#55C25C" stroke-width="1.207" stroke-miterlimit="10" stroke-linecap="round"/><path d="M13.502 26.555c-1.084.199-2.164.264-3.107-.666-1.858-1.82-4.432-3.277-6.523-.664-1.21 1.509.358 3.833-.65 5.273-.89 1.29-2.316 1.38-2.534 3.274-.326 2.787 2.704 4.597 3.97 6.71 1.059 1.777-.375 2.807-.807 4.43-.326 1.25.186 2.434.988 3.408 1.414 1.732 4.029 2.84 3.965 5.452-.053 2.175-.117 4.118 2.014 5.348 1.463.843 3.977 1.387 4.183 3.431.068.722-.303 1.42-.306 2.15 0 1.148.918 2.09 1.89 2.694a28.892 28.892 0 0 1 6.007 4.593c.782.811 3.594 2.454 2.869 3.915 1.318-2.654 2.748-5.255 3.884-7.993.931-2.255 2.354-5.562.54-7.768-.564-.686-1.45-1.108-1.825-1.915-.673-1.457.552-3.165.858-4.576a5.593 5.593 0 0 0-2.417-5.704c-.863-.589-1.805-1.217-2.104-2.244-.33-1.095.17-2.276.29-3.367.095-1.02.095-2.047 0-3.067a6.32 6.32 0 0 0-.443-2.065c-.56-1.241-1.857-1.74-2.893-2.495-2.462-1.805-1.878-4.592-3.256-6.97-1.24-2.142-2.921-1.488-4.593-1.184Z" fill="url(#b)"/><path d="M26.77 75.51a108.752 108.752 0 0 0-6.39-21.846c-2.668-6.62-5.643-13.138-9.181-19.06a69.198 69.198 0 0 0-3.723-5.6" stroke="#26A87C" stroke-width=".866" stroke-miterlimit="10"/><path d="M5.573 40.511a28.421 28.421 0 0 1 8.917 2.454 6.693 6.693 0 0 1 1.783.913M19.493 51.374a18.531 18.531 0 0 0-9.661-1.35M22.854 60.565a16.614 16.614 0 0 0-9.866-2.66M16.078 43.688a44.722 44.722 0 0 1-.662-12.155M19.375 51.056a34.826 34.826 0 0 1 2.897-11.198M23.078 60.783a14.755 14.755 0 0 1 .113-3.447c.224-1.272.552-2.524.983-3.742.285-.871.582-1.736.89-2.593" stroke="#26A87C" stroke-width=".866" stroke-miterlimit="10"/><path d="M38.904 75.278H11.777l4.76 27.33h17.607l4.76-27.33ZM42.224 67.606H8.454v7.672h33.77v-7.672Z" fill="#292F3D"/><path d="M12.406 78.904h25.865l.633-3.626H11.777l.63 3.626Z" fill="#3B4255"/><defs><linearGradient id="a" x1="-4592.36" y1="-37334.8" x2="-2312.72" y2="-37334.8" gradientUnits="userSpaceOnUse"><stop stop-color="#6CCE4B"/><stop offset="1" stop-color="#83DB3B"/></linearGradient><linearGradient id="b" x1="-5337.04" y1="-24884.7" x2="-3477.48" y2="-24884.7" gradientUnits="userSpaceOnUse"><stop stop-color="#26A87C"/><stop offset="1" stop-color="#55C25C"/></linearGradient></defs></svg>