<svg width="100" height="98" fill="none" xmlns="http://www.w3.org/2000/svg"><path d="M41.864 32.13v3.85c.673.464 1.32.962 1.94 1.493.31.442.51.952.58 1.488 0 0-3.001 5.034-5 5.034-1.998 0-4.889-.968-7.368-3.985-2.48-3.015-1.965-2.858-1.965-2.858l2.12-1.475.296-2.573s3.98 3.425 9.397-.974Z" fill="#FFC5AB"/><path d="m46.087 37.35-3.812-1.078-4.733 3.739-5.394-4.31-3.812.927 3.737 6.865 5.138 2.415 3.378-.099 2.984-2.742 2.016-3.5.498-2.216Z" fill="#F2F2F2"/><path d="M47.577 19.497c-.823-.583 2.415-3.826 2.53-5.698.186-3.016-1.366-4.976-1.076-4.953.098-.122-.059-3.785-2.822-4.228-2.497-.397-.718-3.016-5.04-3.383-4.323-.368-3.21-2.584-7.317 0-3.865 2.438-2.271 1.516-4.392 2.333-2.456.968-1.605-1.26-3.945.309a5.154 5.154 0 0 0-2.52 4.713c.142 1.82.447 3.623.91 5.39.52 2.274 1.91 1.872 1.68 3.989a2.691 2.691 0 0 0 1.442 2.636l2.897 1.406H42.97l4.607-2.514Z" fill="#292F3D"/><path d="M46.087 37.351s-2.636 8.336-7.531 8.336-10.197-9.059-10.197-9.059-6.002.361-7.322 2.917c-1.321 2.554-9.652 31.643-4.49 57.493h37.94s1.918-25.85 0-48.073c0-.018 0-12.582-8.4-11.614Z" fill="#FAFAFA"/><path d="m46.087 37.35-3.812-1.078-4.733 3.74 2.056 3.242 6.49-5.903ZM28.337 36.628l3.811-.927 5.394 4.31-2.294 3.243-6.911-6.626Z" fill="#E0E0E0"/><path d="M41.864 32.69c0 .817-2.525 2.404-4.56 2.497-2.032.094-4.379-.233-4.923-1.248l.11-.934 8.516-.694.678-.18h.179v.56Z" fill="#FCB08E"/><path d="M45.068 18.57V12.38a.939.939 0 0 0-1.24-.898 22.781 22.781 0 0 1-6.674 1.411 33.34 33.34 0 0 1-7.172-1.131.94.94 0 0 0-1.062.506.954.954 0 0 0-.097.41v9.157s-.475-1.57-1.738-1.57-1.975 1.57-1.975 1.57v3.144s.116 2.415 1.859 2.415c1.744 0 1.738-1.027 1.738-1.027s1.738 8.09 7.497 8.09 8.864-6.042 8.864-8.218c0 0 3.66.787 3.66-3.5v-2.718a1.97 1.97 0 0 0-.254-.817 1.734 1.734 0 0 0-1.605-.816c-1.801 0-1.801 1.33-1.801 1.33v-1.15Z" fill="#FFC5AB"/><path d="M44.019 11.43c0-.064-3.476 2.06-6.865 2.333-3.39.274-6.24-1.102-6.952-.706-.904.52-1.443 3.611-1.413 3.564v-3.983a.945.945 0 0 1 .738-.921.934.934 0 0 1 .42.005c5.046 1.096 9.02 1.266 14.072-.292Z" fill="#FCB08E"/><path d="M99.31 48.428c.395.775-.45 1.306-.613 1.505-.162.198-4.757 2.846-4.757 2.846s2.55 3.5 2.359 4.124c-.192.624-1.93 1.627-3.512 1.866a3.411 3.411 0 0 1-3.313-1.038c-.666-.782-1.39-2.916-.736-4.234.654-1.319 10.144-5.915 10.573-5.07Z" fill="#FFC5AB"/><path d="M95.11 52.01a.64.64 0 0 1 .65.582.869.869 0 0 1-.296.881s.98-.18 1.072.502a1.49 1.49 0 0 1-.32 1.137s.749.105.684.7c-.063.595-.388.94-1.355 1.452a2.08 2.08 0 0 1-2.352-.07c-.66-.443-.04-1.166-.04-1.166s-.852-.32-.812-.712c.041-.391.649-.863.649-.863a.771.771 0 0 1-.753-.385c-.625-.893 1.912-2.001 2.873-2.059Z" fill="#FFC5AB"/><path d="M88.686 54.78c0-.105-.504-2.182.973-3.442 1.477-1.26 2.028-.938 2.405-.682.654.45 2.16 3.003 1.546 3.412-.614.408-1.935-.986-2.27-1.75-.21.951.173 1.96-.58 2.864-.753.904-1.82.647-2.074-.403Z" fill="#FCB08E"/><path d="m91.559 59.941-3.84-5.797s-11.361 5.186-15.643 8.82a.935.935 0 0 1-1.39-.187c-2.897-4.334-15.063-22.807-20.022-24.265-.365.216 4.055.268 4.583 24.083 0 0 3.962 9.648 12.641 12.407.954.3 1.973.33 2.943.088 2.27-.548 6.749-1.942 10.184-4.882-.017 0 8.864-6.405 10.544-10.267Z" fill="url(#a)"/><path d="M41.864 5.347s-3.216 3.5-5.979 3.138c-2.764-.362-3.365-1.908-5.88-1.558-2.514.35-2.937 2.159-2.937 2.159M45.548 6.554s-3.059 4.258-5.637 4.45a13.884 13.884 0 0 1-5.04-.676s-1.65-.484-2.485.058" stroke="#3A4355" stroke-width=".862" stroke-miterlimit="10"/><path d="m15.719 84.69 18.736 1.663 6.807-27.38-22.612-3.032-2.931 28.75Z" fill="#FFFFFE"/><path d="M41.476 62.035 37.542 89.45a.94.94 0 0 1-.703.784.926.926 0 0 1-.369.015l-18.614-2.858a.946.946 0 0 1-.794-1.027l2.62-26.977a.941.941 0 0 1 1.048-.846l19.93 2.439a.939.939 0 0 1 .625.357.95.95 0 0 1 .19.698Z" fill="url(#b)"/><path d="M26.176 83.25s4.796 1.75 6.777 1.872c1.982.122 4.977-.42 5.794-3.745.817-3.325-1.738-3.861-1.738-3.861l-3.696-.426s-1.211-.18-.753-.787c0 0 3.134-.461 4.055-1.266.921-.805.544-1.248.544-1.248a1.731 1.731 0 0 0-1.859-.584c-1.158.344-3.679.887-5.48 2.258-1.802 1.37-2.781 2.193-3.639 2.077l-.005 5.71Z" fill="#FFC5AB"/><path d="m41.012 61.954.244-2.268a.954.954 0 0 0-.194-.685.936.936 0 0 0-.611-.354l-21.065-2.916a.938.938 0 0 0-1.067.845l-2.63 27.106a.946.946 0 0 0 .626.991l1.107.397" stroke="url(#c)" stroke-width="1.724" stroke-miterlimit="10"/><path d="m16.205 60.437-2.456 9.105c-.214.939-.58 1.832-.846 2.747-.104.327-.053.724.55 1.027L26.2 77.061v6.416s-19.315.245-23.874-6.416c0 0-2.897-3.144-.841-7 0 .147 14.118-29.554 20.086-31.228.324 0-3.934 9.594-5.342 21.58" fill="url(#d)"/><defs><linearGradient id="a" x1="50.642" y1="56.882" x2="91.559" y2="56.882" gradientUnits="userSpaceOnUse"><stop stop-color="#D93764"/><stop offset="1" stop-color="#F24F60"/></linearGradient><linearGradient id="b" x1="-2003780" y1="-22599.4" x2="-2039690" y2="-22599.4" gradientUnits="userSpaceOnUse"><stop stop-color="#FF7A01"/><stop offset="1" stop-color="#FEB800"/></linearGradient><linearGradient id="c" x1="-2199630" y1="-21040.4" x2="-2242390" y2="-21040.4" gradientUnits="userSpaceOnUse"><stop stop-color="#FF7A01"/><stop offset="1" stop-color="#FEB800"/></linearGradient><linearGradient id="d" x1="5107.37" y1="33274.9" x2="6032.4" y2="33274.9" gradientUnits="userSpaceOnUse"><stop stop-color="#D93764"/><stop offset="1" stop-color="#F24F60"/></linearGradient></defs></svg>