<svg width="388" height="270" fill="none" xmlns="http://www.w3.org/2000/svg"><rect width="388" height="270" rx="10.202" fill="#2C2E37"/><path d="M118.595 161.598c-1.504 0-2.747-.5-3.728-1.5-.98-.999-1.471-2.232-1.471-3.699 0-1.476.491-2.709 1.471-3.699.981-1 2.224-1.5 3.728-1.5.905 0 1.738.214 2.5.643.771.419 1.371.99 1.799 1.714l-1.699.985a2.594 2.594 0 0 0-1.057-1.042 3.095 3.095 0 0 0-1.543-.386c-.971 0-1.757.305-2.357.914-.59.61-.885 1.4-.885 2.371 0 .962.295 1.747.885 2.357.6.609 1.386.914 2.357.914.571 0 1.086-.124 1.543-.371a2.61 2.61 0 0 0 1.057-1.043l1.699.985a4.716 4.716 0 0 1-1.785 1.729 5.13 5.13 0 0 1-2.514.628Zm11.551-1.085c-.734.723-1.629 1.085-2.686 1.085-1.056 0-1.952-.362-2.685-1.085-.723-.734-1.085-1.629-1.085-2.686 0-1.056.362-1.947 1.085-2.67.733-.734 1.629-1.1 2.685-1.1 1.057 0 1.952.366 2.686 1.1.733.723 1.099 1.614 1.099 2.67 0 1.057-.366 1.952-1.099 2.686Zm-4.071-1.272c.371.372.833.557 1.385.557.553 0 1.015-.185 1.386-.557.371-.371.557-.842.557-1.414 0-.571-.186-1.042-.557-1.414-.371-.371-.833-.557-1.386-.557-.552 0-1.014.186-1.385.557-.362.372-.543.843-.543 1.414 0 .572.181 1.043.543 1.414Zm11.88-7.841h1.842v9.998h-1.842v-.843c-.543.696-1.314 1.043-2.314 1.043-.962 0-1.785-.362-2.471-1.085-.676-.734-1.014-1.629-1.014-2.686 0-1.056.338-1.947 1.014-2.67.686-.734 1.509-1.1 2.471-1.1 1 0 1.771.347 2.314 1.042V151.4Zm-3.4 7.884c.381.372.857.557 1.429.557.571 0 1.042-.185 1.414-.557.371-.381.557-.866.557-1.457 0-.59-.186-1.071-.557-1.442-.372-.381-.843-.571-1.414-.571-.572 0-1.048.19-1.429.571-.371.371-.557.852-.557 1.442 0 .591.186 1.076.557 1.457Zm7.841-5.884a1.123 1.123 0 0 1-1.128-1.129c0-.304.109-.571.328-.799.229-.229.496-.343.8-.343.315 0 .581.114.8.343.229.228.343.495.343.799 0 .305-.114.572-.343.8a1.088 1.088 0 0 1-.8.329Zm-.914 7.998v-7.141h1.843v7.141h-1.843Zm7.5-7.341c.78 0 1.423.262 1.928.785.514.524.771 1.248.771 2.171v4.385h-1.842v-4.156c0-.476-.129-.838-.386-1.086-.257-.257-.6-.385-1.028-.385-.476 0-.857.147-1.143.442-.286.296-.428.738-.428 1.329v3.856h-1.843v-7.141h1.843v.8c.447-.667 1.156-1 2.128-1Zm9.743.2h1.799v6.798c0 1.105-.366 1.948-1.099 2.528-.724.581-1.6.872-2.629.872-.771 0-1.452-.148-2.042-.443a3.11 3.11 0 0 1-1.343-1.3l1.572-.9c.361.667.985 1 1.871 1 .58 0 1.038-.152 1.371-.457.333-.305.5-.738.5-1.3v-.771c-.543.724-1.305 1.086-2.286 1.086-1.009 0-1.856-.353-2.542-1.057-.676-.714-1.014-1.581-1.014-2.6 0-1.009.343-1.871 1.028-2.585.686-.714 1.529-1.071 2.528-1.071.981 0 1.743.362 2.286 1.085v-.885Zm-3.442 4.87c.38.362.861.543 1.442.543s1.057-.181 1.428-.543c.381-.371.572-.843.572-1.414 0-.562-.191-1.023-.572-1.385-.371-.372-.847-.557-1.428-.557s-1.062.185-1.442.557c-.372.362-.558.823-.558 1.385 0 .571.186 1.043.558 1.414Zm16.61-2.914c.876.505 1.314 1.267 1.314 2.286 0 .847-.3 1.542-.9 2.085-.6.543-1.338.814-2.214.814h-4.242V151.4h3.942c.857 0 1.576.267 2.157.8.591.524.886 1.195.886 2.014 0 .828-.315 1.495-.943 1.999Zm-2.1-2.97h-1.971v2.199h1.971c.305 0 .558-.105.757-.314.21-.209.315-.471.315-.786 0-.314-.1-.576-.3-.785-.2-.21-.457-.314-.772-.314Zm.3 6.313c.334 0 .61-.11.829-.329.219-.228.328-.514.328-.857 0-.333-.109-.609-.328-.828a1.097 1.097 0 0 0-.829-.343h-2.271v2.357h2.271Zm4.321 1.842v-10.426h1.842v10.426h-1.842Zm9.613-.885c-.733.723-1.628 1.085-2.685 1.085-1.057 0-1.952-.362-2.685-1.085-.724-.734-1.086-1.629-1.086-2.686 0-1.056.362-1.947 1.086-2.67.733-.734 1.628-1.1 2.685-1.1 1.057 0 1.952.366 2.685 1.1.733.723 1.1 1.614 1.1 2.67 0 1.057-.367 1.952-1.1 2.686Zm-4.071-1.272c.372.372.833.557 1.386.557.552 0 1.014-.185 1.385-.557.371-.371.557-.842.557-1.414 0-.571-.186-1.042-.557-1.414-.371-.371-.833-.557-1.385-.557-.553 0-1.014.186-1.386.557-.362.372-.543.843-.543 1.414 0 .572.181 1.043.543 1.414Zm9.866 2.357c-1.076 0-1.976-.362-2.699-1.085-.715-.724-1.072-1.619-1.072-2.686 0-1.066.357-1.961 1.072-2.685.723-.723 1.623-1.085 2.699-1.085.695 0 1.328.166 1.9.5.571.333 1.004.78 1.299 1.342l-1.585.929a1.601 1.601 0 0 0-.657-.7 1.845 1.845 0 0 0-.971-.257c-.552 0-1.01.185-1.371.557-.362.362-.543.828-.543 1.399 0 .562.181 1.029.543 1.4.361.362.819.543 1.371.543.371 0 .7-.081.985-.243.295-.171.514-.405.657-.7l1.6.914a3.63 3.63 0 0 1-1.328 1.357c-.572.333-1.205.5-1.9.5Zm10.787-.2h-2.143l-2.599-3.242v3.242h-1.843V151.4h1.843v5.999l2.457-3.142h2.199l-2.871 3.528 2.957 3.613Zm2.145-5.113c0 .19.124.347.371.471.257.114.567.219.929.314.361.086.723.2 1.085.343.362.134.667.362.914.686.257.324.386.728.386 1.214 0 .733-.276 1.3-.829 1.699-.542.391-1.223.586-2.042.586-1.466 0-2.466-.566-2.999-1.7l1.599-.899c.21.619.676.928 1.4.928.657 0 .986-.205.986-.614 0-.191-.129-.343-.386-.457a4.827 4.827 0 0 0-.914-.329 9.56 9.56 0 0 1-1.086-.357 2.303 2.303 0 0 1-.928-.671c-.248-.314-.371-.705-.371-1.171 0-.705.257-1.257.771-1.657.524-.409 1.171-.614 1.942-.614.581 0 1.11.133 1.586.4.476.257.852.628 1.128 1.114l-1.571.857c-.229-.486-.609-.729-1.143-.729-.238 0-.438.053-.6.157a.495.495 0 0 0-.228.429Zm8.596 7.97v-13.14h1.842v13.14h-1.842Zm15.679-4.157c-1.009 1-2.237 1.5-3.685 1.5-1.447 0-2.675-.5-3.685-1.5-.999-1.009-1.499-2.242-1.499-3.699 0-1.457.5-2.685 1.499-3.685 1.01-1.009 2.238-1.514 3.685-1.514 1.448 0 2.676.505 3.685 1.514 1.01 1 1.514 2.228 1.514 3.685 0 1.457-.504 2.69-1.514 3.699Zm-5.984-1.342c.619.609 1.385.914 2.299.914.915 0 1.681-.305 2.3-.914.619-.619.928-1.405.928-2.357 0-.952-.309-1.738-.928-2.357-.619-.618-1.385-.928-2.3-.928-.914 0-1.68.31-2.299.928-.619.619-.928 1.405-.928 2.357 0 .952.309 1.738.928 2.357Zm12.769-4.699c.78 0 1.423.262 1.928.785.514.524.771 1.248.771 2.171v4.385h-1.842v-4.156c0-.476-.129-.838-.386-1.086-.257-.257-.6-.385-1.028-.385-.477 0-.857.147-1.143.442-.286.296-.429.738-.429 1.329v3.856h-1.842v-7.141h1.842v.8c.448-.667 1.157-1 2.129-1Zm4.272 7.341v-10.426h1.843v10.426h-1.843Zm4.443-7.998a1.123 1.123 0 0 1-1.128-1.129c0-.304.109-.571.328-.799.229-.229.496-.343.8-.343.314 0 .581.114.8.343.229.228.343.495.343.799 0 .305-.114.572-.343.8a1.09 1.09 0 0 1-.8.329Zm-.914 7.998v-7.141h1.843v7.141h-1.843Zm7.5-7.341c.78 0 1.423.262 1.928.785.514.524.771 1.248.771 2.171v4.385h-1.842v-4.156c0-.476-.129-.838-.386-1.086-.257-.257-.6-.385-1.028-.385-.477 0-.857.147-1.143.442-.286.296-.429.738-.429 1.329v3.856h-1.842v-7.141h1.842v.8c.448-.667 1.157-1 2.129-1Zm5.829 4.527c.248.895.919 1.343 2.014 1.343.705 0 1.238-.238 1.6-.714l1.485.857c-.705 1.019-1.742 1.528-3.114 1.528-1.18 0-2.128-.357-2.842-1.071s-1.071-1.614-1.071-2.7c0-1.076.352-1.971 1.057-2.685.704-.723 1.609-1.085 2.714-1.085 1.047 0 1.909.362 2.585 1.085.685.724 1.028 1.619 1.028 2.685 0 .238-.024.491-.071.757h-5.385Zm-.028-1.428h3.642c-.105-.485-.324-.847-.657-1.085a1.832 1.832 0 0 0-1.114-.357c-.496 0-.905.128-1.229.385-.324.248-.538.6-.642 1.057ZM192.241 136.225c-8.842 0-16.011-7.215-16.011-16.113S183.399 104 192.241 104c8.842 0 16.011 7.214 16.011 16.112 0 8.898-7.169 16.113-16.011 16.113Zm-4.002-24.157v16.088l12.008-8.044-12.008-8.044Z" fill="#fff"/></svg>