<svg width="44" height="33" fill="none" xmlns="http://www.w3.org/2000/svg"><path d="M21.643 19.097c.192 0 .383 0 .574-.19l4.777-3.247c.383-.191.956-.382 1.53-.382h12.23c1.529 0 2.867-1.337 2.867-2.865V2.865C43.62 1.337 42.283 0 40.754 0h-17.2c-1.528 0-2.866 1.337-2.866 2.865v15.277c0 .383.191.764.573.764 0 .191.191.191.383.191ZM40.755 1.91c.573 0 .956.382.956.955v9.548c0 .573-.383.955-.956.955h-12.23c-.956 0-1.912.191-2.676.764l-3.249 2.292V2.864c0-.572.382-.954.956-.954h17.199Z" fill="url(#a)"/><path d="M10.51 21.542c-3.248 0-5.733-2.483-5.733-5.73 0-3.246 2.485-5.729 5.734-5.729 3.248 0 5.733 2.483 5.733 5.73 0 3.246-2.485 5.729-5.733 5.729Zm0-9.549a3.832 3.832 0 0 0-3.822 3.82c0 2.1 1.72 3.819 3.823 3.819a3.832 3.832 0 0 0 3.822-3.82c0-2.1-1.72-3.819-3.822-3.819ZM20.066 33c-.573 0-.956-.382-.956-.955v-3.82c0-1.527-1.337-2.864-2.866-2.864H4.778c-1.53 0-2.867 1.337-2.867 2.865v3.82c0 .572-.382.954-.955.954C.382 33 0 32.618 0 32.045v-3.82c0-2.673 2.102-4.774 4.778-4.774h11.466c2.675 0 4.778 2.101 4.778 4.775v3.82c0 .572-.383.954-.956.954Z" fill="#fff"/><defs><linearGradient id="a" x1="43.621" y1="19.097" x2="20.688" y2="19.097" gradientUnits="userSpaceOnUse"><stop stop-color="#FB8133"/><stop offset="1" stop-color="#FFBA08"/></linearGradient></defs></svg>