<svg width="35" height="33" fill="none" xmlns="http://www.w3.org/2000/svg"><path d="M17.186 32.917a.716.716 0 0 1-.716-.716v-8.587a.716.716 0 0 1 1.432 0v8.587c0 .395-.32.716-.716.716Z" fill="#fff"/><path d="M23.63 32.917a.715.715 0 0 1-.396-.12l-6.445-4.294a.715.715 0 1 1 .793-1.19l6.445 4.293a.715.715 0 0 1-.397 1.311Z" fill="#fff"/><path d="M10.741 32.917a.716.716 0 0 1-.398-1.311l6.445-4.294a.714.714 0 1 1 .793 1.191l-6.444 4.293a.7.7 0 0 1-.396.12ZM31.508 5.725H2.864A2.866 2.866 0 0 1 0 2.862 2.866 2.866 0 0 1 2.864 0h28.644a2.866 2.866 0 0 1 2.864 2.862 2.866 2.866 0 0 1-2.864 2.863ZM2.864 1.43c-.789 0-1.432.643-1.432 1.431 0 .789.643 1.432 1.432 1.432h28.644c.789 0 1.432-.643 1.432-1.432 0-.788-.643-1.43-1.432-1.43H2.864Z" fill="#fff"/><path d="M29.36 24.33H5.011a2.15 2.15 0 0 1-2.148-2.147V5.009c0-.395.321-.716.716-.716h27.211c.396 0 .716.32.716.716v17.174a2.15 2.15 0 0 1-2.148 2.147ZM4.295 5.724v16.459c0 .395.321.716.716.716H29.36c.395 0 .716-.321.716-.716V5.724H4.296Z" fill="#fff"/><path d="M9.31 20.036a.716.716 0 0 1-.507-1.22l5.728-5.725a.716.716 0 0 1 .904-.09l3.75 2.498 5.318-6.643a.717.717 0 0 1 1.119.894l-5.73 7.156a.716.716 0 0 1-.956.15l-3.808-2.537-5.313 5.31a.718.718 0 0 1-.506.207Z" fill="url(#a)"/><defs><linearGradient id="a" x1="8.593" y1="20.036" x2="25.778" y2="20.036" gradientUnits="userSpaceOnUse"><stop stop-color="#FB8133"/><stop offset="1" stop-color="#FFBA08"/></linearGradient></defs></svg>