<svg width="40" height="39" fill="none" xmlns="http://www.w3.org/2000/svg"><path d="M28.548 38.781c-5.796 0-10.51-4.712-10.51-10.503s4.714-10.503 10.51-10.503c5.795 0 10.51 4.712 10.51 10.503S34.343 38.78 28.548 38.78Zm0-19.39c-4.905 0-8.894 3.987-8.894 8.887s3.99 8.887 8.894 8.887 8.893-3.988 8.893-8.887c0-4.9-3.989-8.888-8.893-8.888Z" fill="url(#a)"/><path d="M26.93 32.318a.817.817 0 0 1-.572-.236l-3.234-3.232a.808.808 0 0 1 1.143-1.143l2.623 2.621 5.09-5.814a.808.808 0 1 1 1.218 1.064l-5.66 6.463a.815.815 0 0 1-.582.277h-.025ZM15.611 33.934H4.293a4.046 4.046 0 0 1-4.043-4.04V8.887a4.046 4.046 0 0 1 4.043-4.04h3.234a.809.809 0 0 1 0 1.617H4.293a2.428 2.428 0 0 0-2.426 2.423v21.007a2.428 2.428 0 0 0 2.426 2.424h11.319a.808.808 0 1 1 0 1.616ZM26.93 14.543a.808.808 0 0 1-.808-.808V8.887a2.428 2.428 0 0 0-2.425-2.423h-3.234a.809.809 0 0 1 0-1.616h3.234a4.046 4.046 0 0 1 4.042 4.04v4.847a.808.808 0 0 1-.808.808Z" fill="#fff"/><path d="M18.846 9.695H9.144a2.428 2.428 0 0 1-2.426-2.424V4.04c0-.446.362-.808.809-.808h2.506A4.049 4.049 0 0 1 13.995 0a4.049 4.049 0 0 1 3.961 3.232h2.507c.446 0 .808.362.808.808V7.27a2.428 2.428 0 0 1-2.425 2.424ZM8.336 4.848V7.27a.81.81 0 0 0 .808.808h9.702a.81.81 0 0 0 .808-.808V4.848H17.23a.809.809 0 0 1-.809-.808 2.428 2.428 0 0 0-2.425-2.424 2.428 2.428 0 0 0-2.426 2.424.809.809 0 0 1-.808.808H8.335ZM22.08 14.543H5.91a.809.809 0 0 1 0-1.616h16.17a.809.809 0 0 1 0 1.616ZM17.229 19.39H5.909a.808.808 0 1 1 0-1.616h11.32a.809.809 0 0 1 0 1.616ZM13.995 24.238H5.91a.809.809 0 0 1 0-1.616h8.085a.809.809 0 0 1 0 1.616Z" fill="#fff"/><defs><linearGradient id="a" x1="18.037" y1="38.781" x2="39.058" y2="38.781" gradientUnits="userSpaceOnUse"><stop stop-color="#FB8133"/><stop offset="1" stop-color="#FFBA08"/></linearGradient></defs></svg>