<svg width="34" height="30" fill="none" xmlns="http://www.w3.org/2000/svg"><path d="M31.063 0H2.071A2.07 2.07 0 0 0 0 2.07v20.71a2.07 2.07 0 0 0 2.07 2.07h15.533l.59-.724.963-1.18-.093-.166H2.07V2.07h28.992v8.864a8.707 8.707 0 0 1 2.071 1.875V2.07A2.07 2.07 0 0 0 31.064 0Z" fill="#fff"/><path d="M5.178 6.213H22.78v1.656H5.178V6.213ZM5.178 10.354h11.39v1.657H5.178v-1.656ZM5.178 17.603h10.354v1.656H5.178v-1.656Z" fill="#fff"/><path d="M26.362 11.628a6.586 6.586 0 0 0-4.556 11.39l-2.008 2.454.932 3.738 3.79-4.618c1.199.355 2.476.355 3.675 0l3.79 4.618.932-3.738-2.009-2.454a6.586 6.586 0 0 0-4.556-11.39h.01Zm0 11.059a4.462 4.462 0 1 1 4.525-4.463 4.505 4.505 0 0 1-4.525 4.463Z" fill="url(#a)"/><defs><linearGradient id="a" x1="19.725" y1="20.419" x2="32.99" y2="20.419" gradientUnits="userSpaceOnUse"><stop stop-color="#FB8530"/><stop offset="1" stop-color="#FEB50B"/></linearGradient></defs></svg>