<svg width="24" height="23" fill="none" xmlns="http://www.w3.org/2000/svg"><path d="M21.084 18.04c1.463-1.302 2.29-3.04 2.29-4.842 0-1.916-.896-3.708-2.525-5.046-1.585-1.302-3.683-2.019-5.908-2.019-2.225 0-4.323.717-5.908 2.019-1.628 1.338-2.525 3.13-2.525 5.046 0 1.915.897 3.707 2.525 5.045 1.585 1.302 3.683 2.019 5.908 2.019.296 0 .595-.013.89-.04l.506.439A9.576 9.576 0 0 0 22.607 23h.767v-1.632l-.224-.225a9.544 9.544 0 0 1-2.066-3.102Zm-3.743 1.462-1.014-.879-.338.041a8.64 8.64 0 0 1-1.048.064c-3.805 0-6.9-2.48-6.9-5.53 0-3.05 3.095-5.531 6.9-5.531s6.9 2.48 6.9 5.53c0 1.52-.758 2.938-2.135 3.995l-.441.338.204.577a11.082 11.082 0 0 0 1.815 3.25 8.042 8.042 0 0 1-3.943-1.855Z" fill="#fff"/><path d="M2.491 14.446a10.566 10.566 0 0 0 1.668-3.02l.202-.574-.44-.339C2.621 9.517 1.906 8.181 1.906 6.75c0-2.876 2.924-5.216 6.517-5.216 2.643 0 4.924 1.267 5.945 3.081a11.784 11.784 0 0 1 1.713.042c-.394-1.022-1.08-1.956-2.022-2.73C12.548.685 10.547 0 8.424 0S4.3.684 2.787 1.927C1.231 3.205.374 4.917.374 6.749c0 1.716.784 3.369 2.168 4.612A9.027 9.027 0 0 1 .6 14.27l-.225.224V16.1h.767c1.417 0 2.816-.33 4.084-.965a7.537 7.537 0 0 1-.243-1.612 7.608 7.608 0 0 1-2.49.923Z" fill="url(#a)"/><defs><linearGradient id="a" x1=".374" y1="8.05" x2="16.082" y2="8.05" gradientUnits="userSpaceOnUse"><stop stop-color="#FB8530"/><stop offset="1" stop-color="#FEB50B"/></linearGradient></defs></svg>