<svg width="186" height="186" fill="none" xmlns="http://www.w3.org/2000/svg"><path d="M93 139c33.689 0 61-27.311 61-61 0-33.69-27.311-61-61-61-33.69 0-61 27.31-61 61 0 33.689 27.31 61 61 61Z" fill="url(#a)"/><path d="M75.5 95.887v5.323c-.452.237-1.043.43-1.774.58-.731.14-1.473.21-2.226.21-1.14 0-2.124-.231-2.952-.694a4.697 4.697 0 0 1-1.903-2.032c-.43-.882-.645-1.935-.645-3.161 0-1.215.215-2.258.645-3.13.441-.881 1.065-1.553 1.871-2.015.817-.473 1.78-.71 2.887-.71.807 0 1.543.124 2.21.371a4.548 4.548 0 0 1 1.742 1.08l-.516 1.017c-.56-.473-1.108-.812-1.645-1.016-.527-.215-1.124-.323-1.79-.323-1.302 0-2.302.408-3 1.226-.689.806-1.033 1.973-1.033 3.5 0 1.56.355 2.747 1.065 3.564.71.807 1.741 1.21 3.096 1.21.957 0 1.877-.15 2.758-.452v-3.5h-2.855v-1.048H75.5Zm6.33-2.323c.269 0 .516.033.742.097l-.033 1.194a2.609 2.609 0 0 0-.854-.13c-.785 0-1.371.248-1.758.743-.377.484-.565 1.075-.565 1.774v4.629h-1.306v-5.839c0-.838-.043-1.596-.13-2.274h1.242l.13 1.5c.204-.548.532-.968.983-1.258a2.8 2.8 0 0 1 1.549-.436Zm5.267 8.42c-.764 0-1.436-.173-2.017-.516A3.515 3.515 0 0 1 83.726 100c-.312-.634-.468-1.376-.468-2.226 0-.85.156-1.591.468-2.226a3.513 3.513 0 0 1 1.354-1.467c.581-.344 1.253-.517 2.017-.517.763 0 1.435.173 2.016.517.58.343 1.026.833 1.338 1.467.323.635.484 1.376.484 2.226 0 .85-.161 1.592-.484 2.226a3.413 3.413 0 0 1-1.338 1.468c-.58.343-1.253.516-2.016.516Zm0-1.081c.806 0 1.424-.263 1.854-.79.43-.537.646-1.318.646-2.339 0-.989-.22-1.753-.662-2.29-.44-.548-1.053-.823-1.838-.823-.796 0-1.414.275-1.855.823-.441.537-.662 1.301-.662 2.29 0 1.021.216 1.802.646 2.339.44.527 1.064.79 1.87.79Zm18.103-7.145-3 8.113h-1.258l-2.323-6.339-2.306 6.339h-1.258l-3-8.113h1.37l2.291 6.548 2.371-6.548h1.145l2.339 6.565 2.338-6.565h1.291Zm3.61 1.032v4.436c0 .602.124 1.027.371 1.274.248.237.597.355 1.049.355.301 0 .592-.049.871-.145v1.113c-.333.107-.71.161-1.129.161-.774 0-1.381-.215-1.823-.645-.429-.441-.645-1.086-.645-1.936V94.79h-1.581v-1.032h1.581v-2.08l1.306-.468v2.548h2.323v1.032h-2.323Zm7.946-1.226c1.947 0 2.919 1.07 2.919 3.21v5.097h-1.306v-5.032c0-.753-.15-1.302-.452-1.645-.301-.355-.774-.533-1.419-.533-.753 0-1.355.231-1.806.694-.452.462-.678 1.085-.678 1.87v4.646h-1.306V90h1.306v5.08c.258-.494.624-.87 1.097-1.128.484-.258 1.032-.388 1.645-.388ZM50.96 82v-2.96h-7.214v-3.184l7.911-11.394h3.657v11.17h2.289v3.408h-2.29V82h-4.352Zm0-6.368v-5.747h.647l-4.652 6.791v-1.044h4.006Zm14.295 6.642c-.78 0-1.56-.083-2.339-.25-.779-.148-1.5-.364-2.164-.646-.663-.282-1.227-.614-1.691-.995L60.454 77c.73.497 1.492.879 2.288 1.144.796.249 1.6.373 2.413.373.846 0 1.501-.182 1.966-.547.48-.365.721-.879.721-1.542 0-.664-.224-1.186-.672-1.568-.447-.381-1.053-.572-1.816-.572-.564 0-1.086.1-1.567.299-.48.182-.937.464-1.368.846h-2.836V64.462h11.493v3.707h-7.214v3.905h-1.02c.398-.464.92-.812 1.567-1.045a5.916 5.916 0 0 1 2.14-.373c1.127 0 2.114.24 2.96.722.846.464 1.5 1.12 1.965 1.965.48.846.721 1.832.721 2.96 0 1.194-.281 2.247-.845 3.16-.564.895-1.369 1.592-2.413 2.09-1.029.48-2.256.72-3.682.72Zm9.095-5.424v-3.432h8.135v3.432H74.35ZM85.7 82v-3.358l5.323-5.548c.647-.663 1.11-1.244 1.393-1.741.282-.498.423-1.003.423-1.518 0-.63-.216-1.102-.647-1.418-.415-.315-1.02-.472-1.816-.472-.663 0-1.343.124-2.04.373-.68.232-1.368.614-2.065 1.144l-1.418-3.333c.78-.597 1.717-1.07 2.811-1.418a11.09 11.09 0 0 1 3.384-.523c1.343 0 2.479.2 3.408.597.928.398 1.633.979 2.114 1.742.498.746.747 1.675.747 2.786a6.668 6.668 0 0 1-.747 3.06c-.48.962-1.285 1.99-2.413 3.084l-4.08 3.98V78.27h7.886V82H85.7Zm20.687.274c-2.156 0-3.815-.788-4.976-2.364-1.144-1.592-1.716-3.839-1.716-6.741 0-2.936.572-5.166 1.716-6.692 1.161-1.526 2.82-2.289 4.976-2.289 2.172 0 3.831.763 4.975 2.289 1.144 1.526 1.717 3.748 1.717 6.667 0 2.919-.573 5.174-1.717 6.766-1.144 1.576-2.803 2.364-4.975 2.364Zm0-3.657c.796 0 1.385-.431 1.766-1.294.398-.862.597-2.255.597-4.18 0-1.276-.091-2.304-.274-3.084-.165-.78-.423-1.343-.771-1.691-.348-.365-.788-.548-1.318-.548-.796 0-1.393.415-1.791 1.244-.382.813-.573 2.173-.573 4.08 0 1.277.083 2.322.249 3.134.183.796.448 1.385.796 1.767a1.71 1.71 0 0 0 1.319.572Zm14.916 3.657c-2.156 0-3.814-.788-4.975-2.364-1.145-1.592-1.717-3.839-1.717-6.741 0-2.936.572-5.166 1.717-6.692 1.161-1.526 2.819-2.289 4.975-2.289 2.173 0 3.831.763 4.975 2.289 1.145 1.526 1.717 3.748 1.717 6.667 0 2.919-.572 5.174-1.717 6.766-1.144 1.576-2.802 2.364-4.975 2.364Zm0-3.657c.796 0 1.385-.431 1.766-1.294.398-.862.597-2.255.597-4.18 0-1.276-.091-2.304-.273-3.084-.166-.78-.423-1.343-.772-1.691-.348-.365-.787-.548-1.318-.548-.796 0-1.393.415-1.791 1.244-.382.813-.572 2.173-.572 4.08 0 1.277.083 2.322.248 3.134.183.796.448 1.385.797 1.767.348.381.787.572 1.318.572ZM127.886 82l6.119-7.463v1.915l-5.771-7.09h5.174l3.135 4.105h-1.592l3.159-4.104h5.149l-5.771 7.114v-1.99L143.632 82h-5.224l-3.457-4.453h1.592L133.06 82h-5.174Z" fill="#fff"/><defs><linearGradient id="a" x1="32" y1="139" x2="154" y2="139" gradientUnits="userSpaceOnUse"><stop stop-color="#258EE8"/><stop offset="1" stop-color="#2AB5ED"/></linearGradient></defs></svg>