<svg width="186" height="186" fill="none" xmlns="http://www.w3.org/2000/svg"><g filter="url(#a)"><circle cx="93" cy="78" r="61" fill="url(#b)"/></g><path d="M77.12 87.719h-4.687V94h-7.392v-6.281H50.594v-5.605l15.8-22.515h6.039v22.274h4.687v5.846Zm-12.08-5.846V71.05l-7.537 10.823h7.538Zm29.503-10.146c2.125 0 4.01.467 5.652 1.4a9.317 9.317 0 0 1 3.866 3.866c.934 1.675 1.401 3.608 1.401 5.798 0 2.319-.548 4.364-1.643 6.136-1.063 1.74-2.609 3.092-4.638 4.058-1.997.934-4.332 1.401-7.006 1.401-2.19 0-4.364-.354-6.522-1.062-2.126-.709-3.85-1.643-5.17-2.803l2.416-5.411c3.06 2.222 6.184 3.334 9.373 3.334 4.026 0 6.04-1.788 6.04-5.363 0-1.707-.532-3.044-1.595-4.01-1.03-.999-2.448-1.498-4.252-1.498-1.127 0-2.27.21-3.43.628a10.538 10.538 0 0 0-3.044 1.74h-4.3V59.598h22.08v5.798H89.035v7.682c1.514-.901 3.35-1.352 5.508-1.352ZM134.915 94h-8.6l-5.943-7.489L114.43 94h-8.552l10.339-12.61-9.711-11.886h8.6l5.266 6.813 5.267-6.813h8.648l-9.711 11.886L134.915 94ZM75.416 108.064v5.28c-.448.235-1.035.427-1.76.576-.725.139-1.461.208-2.208.208-1.13 0-2.107-.229-2.928-.688a4.663 4.663 0 0 1-1.888-2.016c-.427-.875-.64-1.92-.64-3.136 0-1.205.213-2.24.64-3.104.437-.875 1.056-1.541 1.856-2 .81-.469 1.765-.704 2.864-.704.8 0 1.53.123 2.192.368a4.512 4.512 0 0 1 1.728 1.072l-.512 1.008c-.555-.469-1.099-.805-1.632-1.008-.523-.213-1.115-.32-1.776-.32-1.29 0-2.283.405-2.976 1.216-.683.8-1.024 1.957-1.024 3.472 0 1.547.352 2.725 1.056 3.536.704.8 1.728 1.2 3.072 1.2a8.4 8.4 0 0 0 2.736-.448v-3.472h-2.832v-1.04h4.032Zm6.28-2.304c.266 0 .511.032.735.096l-.032 1.184a2.586 2.586 0 0 0-.848-.128c-.779 0-1.36.245-1.744.736-.373.48-.56 1.067-.56 1.76V114h-1.296v-5.792c0-.832-.042-1.584-.128-2.256h1.232l.128 1.488c.203-.544.528-.96.976-1.248.448-.288.96-.432 1.536-.432Zm5.224 8.352c-.758 0-1.424-.171-2-.512a3.484 3.484 0 0 1-1.344-1.456c-.31-.629-.464-1.365-.464-2.208 0-.843.154-1.579.464-2.208a3.484 3.484 0 0 1 1.344-1.456c.576-.341 1.242-.512 2-.512.757 0 1.424.171 2 .512a3.383 3.383 0 0 1 1.328 1.456c.32.629.48 1.365.48 2.208 0 .843-.16 1.579-.48 2.208a3.383 3.383 0 0 1-1.328 1.456c-.576.341-1.243.512-2 .512Zm0-1.072c.8 0 1.413-.261 1.84-.784.426-.533.64-1.307.64-2.32 0-.981-.219-1.739-.656-2.272-.438-.544-1.046-.816-1.824-.816-.79 0-1.403.272-1.84.816-.438.533-.656 1.291-.656 2.272 0 1.013.213 1.787.64 2.32.437.523 1.056.784 1.856.784Zm17.958-7.088L101.902 114h-1.248l-2.304-6.288L96.062 114h-1.248l-2.976-8.048h1.36l2.272 6.496 2.352-6.496h1.136l2.32 6.512 2.32-6.512h1.28Zm3.582 1.024v4.4c0 .597.123 1.019.368 1.264.246.235.592.352 1.04.352.299 0 .587-.048.864-.144v1.104c-.33.107-.704.16-1.12.16-.768 0-1.37-.213-1.808-.64-.426-.437-.64-1.077-.64-1.92v-4.576h-1.568v-1.024h1.568v-2.064l1.296-.464v2.528h2.304v1.024h-2.304Zm7.882-1.216c1.931 0 2.896 1.061 2.896 3.184V114h-1.296v-4.992c0-.747-.149-1.291-.448-1.632-.299-.352-.768-.528-1.408-.528-.747 0-1.344.229-1.792.688-.448.459-.672 1.077-.672 1.856V114h-1.296v-11.776h1.296v5.04a2.627 2.627 0 0 1 1.088-1.12c.48-.256 1.024-.384 1.632-.384Z" fill="#fff"/><defs><linearGradient id="b" x1="32" y1="139" x2="154" y2="139" gradientUnits="userSpaceOnUse"><stop stop-color="#258EE8"/><stop offset="1" stop-color="#2AB5ED"/></linearGradient><filter id="a" x="0" y="0" width="186" height="186" filterUnits="userSpaceOnUse" color-interpolation-filters="sRGB"><feFlood flood-opacity="0" result="BackgroundImageFix"/><feColorMatrix in="SourceAlpha" values="0 0 0 0 0 0 0 0 0 0 0 0 0 0 0 0 0 0 127 0" result="hardAlpha"/><feOffset dy="15"/><feGaussianBlur stdDeviation="16"/><feColorMatrix values="0 0 0 0 0 0 0 0 0 0 0 0 0 0 0 0 0 0 0.2 0"/><feBlend in2="BackgroundImageFix" result="effect1_dropShadow_4157_11012"/><feBlend in="SourceGraphic" in2="effect1_dropShadow_4157_11012" result="shape"/></filter></defs></svg>