<svg width="96" height="27" fill="none" xmlns="http://www.w3.org/2000/svg"><rect width="96" height="27" rx="1.908" fill="url(#a)"/><path d="M31.956 18.122c-.895 0-1.664-.179-2.307-.537a3.708 3.708 0 0 1-1.465-1.538c-.342-.668-.513-1.453-.513-2.356 0-.904.171-1.685.513-2.344A3.63 3.63 0 0 1 29.65 9.82c.643-.367 1.412-.55 2.307-.55a4.82 4.82 0 0 1 1.624.257c.489.17.908.423 1.258.756l-.513 1.246c-.383-.31-.753-.53-1.111-.66a3.27 3.27 0 0 0-1.209-.207c-.87 0-1.538.264-2.002.793-.456.521-.683 1.266-.683 2.235 0 .643.101 1.192.305 1.648.203.455.504.801.903 1.037.407.236.9.354 1.477.354.456 0 .859-.065 1.209-.195.358-.138.728-.366 1.11-.684l.514 1.246a3.68 3.68 0 0 1-1.258.756 4.62 4.62 0 0 1-1.623.27ZM36.188 18V9.015h1.526V18h-1.526Zm5.564.122c-.537 0-1.01-.126-1.416-.378a2.608 2.608 0 0 1-.952-1.111c-.228-.48-.342-1.054-.342-1.722 0-.667.114-1.237.342-1.709.228-.48.545-.846.952-1.098.407-.26.879-.391 1.416-.391.521 0 .977.13 1.367.39a1.8 1.8 0 0 1 .794 1.026h-.134l.134-1.294h1.465c-.025.252-.049.509-.073.769-.017.26-.025.517-.025.77V18h-1.514l-.012-1.27h.147c-.13.424-.395.761-.794 1.014a2.48 2.48 0 0 1-1.355.378Zm.427-1.172c.48 0 .867-.167 1.16-.5.293-.342.44-.855.44-1.539 0-.683-.147-1.192-.44-1.526-.293-.333-.68-.5-1.16-.5-.48 0-.866.167-1.16.5-.292.334-.439.843-.439 1.526 0 .684.143 1.197.427 1.539.293.333.684.5 1.172.5Zm6.96 1.172a5.558 5.558 0 0 1-1.465-.183c-.439-.13-.81-.31-1.11-.537l.427-1.026a3.88 3.88 0 0 0 2.16.66c.408 0 .709-.07.904-.208a.646.646 0 0 0 .305-.561.535.535 0 0 0-.195-.44c-.122-.114-.322-.2-.598-.256l-1.221-.232c-.521-.114-.92-.31-1.197-.586-.268-.277-.402-.64-.402-1.087 0-.382.101-.72.305-1.013.211-.293.508-.521.891-.684.39-.17.846-.256 1.367-.256.456 0 .883.06 1.282.183.407.122.749.305 1.026.55l-.44.988a2.886 2.886 0 0 0-.867-.476 2.872 2.872 0 0 0-.952-.17c-.423 0-.732.076-.928.231a.685.685 0 0 0-.293.574c0 .179.057.33.171.452.122.114.31.199.562.256l1.22.232c.546.106.957.293 1.234.562.285.26.427.618.427 1.074a1.7 1.7 0 0 1-.33 1.05c-.22.293-.525.516-.915.671-.39.155-.847.232-1.368.232Zm6.116 0c-.529 0-1.017-.061-1.465-.183-.44-.13-.81-.31-1.11-.537l.427-1.026a3.881 3.881 0 0 0 2.16.66c.407 0 .709-.07.904-.208a.646.646 0 0 0 .305-.561.535.535 0 0 0-.195-.44c-.122-.114-.322-.2-.598-.256l-1.221-.232c-.521-.114-.92-.31-1.197-.586-.268-.277-.402-.64-.402-1.087 0-.382.101-.72.305-1.013.211-.293.508-.521.891-.684.39-.17.846-.256 1.367-.256.456 0 .883.06 1.282.183.407.122.749.305 1.026.55l-.44.988a2.885 2.885 0 0 0-.867-.476 2.871 2.871 0 0 0-.952-.17c-.423 0-.732.076-.928.231a.685.685 0 0 0-.293.574c0 .179.057.33.171.452.122.114.31.199.562.256l1.22.232c.546.106.957.293 1.234.562.284.26.427.618.427 1.074a1.7 1.7 0 0 1-.33 1.05c-.22.293-.525.516-.915.671-.391.155-.847.232-1.368.232ZM59.161 18v-4.59c0-.26-.008-.525-.025-.794a8.004 8.004 0 0 0-.06-.781h1.476l.171 1.685h-.244c.081-.407.216-.745.403-1.014.195-.268.431-.468.708-.598.277-.13.578-.195.903-.195.147 0 .265.008.354.024.09.008.18.029.269.061l-.012 1.343a1.684 1.684 0 0 0-.403-.122 2.729 2.729 0 0 0-.403-.024c-.35 0-.647.073-.891.22a1.4 1.4 0 0 0-.537.61c-.114.26-.171.557-.171.891V18H59.16Zm7.492.122c-.634 0-1.184-.13-1.648-.39a2.747 2.747 0 0 1-1.086-1.111c-.252-.48-.378-1.05-.378-1.71 0-.659.126-1.224.378-1.697.26-.48.623-.85 1.086-1.11.464-.26 1.014-.391 1.648-.391.635 0 1.185.13 1.649.39.472.261.834.631 1.086 1.111.26.473.39 1.038.39 1.697 0 .66-.13 1.23-.39 1.71-.252.48-.614.85-1.086 1.11-.464.26-1.014.391-1.649.391Zm0-1.172c.48 0 .863-.167 1.148-.5.285-.342.427-.855.427-1.539 0-.683-.142-1.192-.427-1.526-.285-.333-.667-.5-1.148-.5-.48 0-.862.167-1.147.5-.285.334-.427.843-.427 1.526 0 .684.142 1.197.427 1.539.285.333.667.5 1.147.5Zm7.225 1.172c-.635 0-1.184-.13-1.648-.39a2.746 2.746 0 0 1-1.086-1.111c-.253-.48-.379-1.05-.379-1.71 0-.659.126-1.224.379-1.697.26-.48.622-.85 1.086-1.11.464-.26 1.013-.391 1.648-.391s1.184.13 1.648.39c.472.261.835.631 1.087 1.111.26.473.39 1.038.39 1.697 0 .66-.13 1.23-.39 1.71-.252.48-.615.85-1.087 1.11-.464.26-1.013.391-1.648.391Zm0-1.172c.48 0 .863-.167 1.148-.5.285-.342.427-.855.427-1.539 0-.683-.142-1.192-.427-1.526-.285-.333-.668-.5-1.148-.5-.48 0-.862.167-1.147.5-.285.334-.428.843-.428 1.526 0 .684.143 1.197.428 1.539.285.333.667.5 1.147.5ZM78.32 18v-4.627a12.316 12.316 0 0 0-.097-1.538h1.477l.122 1.22h-.147c.171-.422.432-.752.782-.988.358-.236.781-.354 1.27-.354.488 0 .89.118 1.208.354.326.228.553.586.684 1.074h-.196c.171-.44.452-.785.843-1.037.39-.26.838-.391 1.343-.391.691 0 1.208.203 1.55.61.342.407.513 1.042.513 1.905V18h-1.526v-3.711c0-.489-.082-.838-.244-1.05-.163-.22-.424-.33-.782-.33-.423 0-.757.15-1 .452-.245.293-.367.692-.367 1.196V18h-1.526v-3.711c0-.489-.081-.838-.244-1.05-.163-.22-.423-.33-.781-.33-.424 0-.757.15-1.001.452-.237.293-.355.692-.355 1.196V18H78.32ZM20.65 8H8.55a.55.55 0 0 0-.55.55v9.9a.55.55 0 0 0 .55.55h12.1a.55.55 0 0 0 .55-.55v-9.9a.55.55 0 0 0-.55-.55Zm-.55 9.9H19v-.55h-2.75v.55H9.1V9.1h11v8.8Zm-6.44-5.66a.94.94 0 1 1 1.88 0 .941.941 0 1 1-1.88 0Zm-2.52.87a.711.711 0 0 1 1.212-.502.707.707 0 0 1-.502 1.206.707.707 0 0 1-.71-.704Zm5.5 0a.71.71 0 0 1 1.42 0c0 .39-.32.704-.71.704a.707.707 0 0 1-.71-.704ZM19 15.227v.473h-8.8v-.473c0-.517.853-.94 1.65-.94.303 0 .61.06.88.164.412-.379 1.155-.638 1.87-.638.715 0 1.458.259 1.87.638.27-.104.578-.165.88-.165.797 0 1.65.424 1.65.941Z" fill="#fff"/><defs><linearGradient id="a" x1="0" y1="13.5" x2="96" y2="13.5" gradientUnits="userSpaceOnUse"><stop stop-color="#FF6E3F"/><stop offset="1" stop-color="#FF5634"/></linearGradient></defs></svg>