<svg width="29" height="19" viewBox="0 0 29 19" fill="none" xmlns="http://www.w3.org/2000/svg">
<path d="M4.36195 0.174292C3.53256 0.449272 2.53423 1.32004 2.11954 2.11443C1.84308 2.63383 1.76628 3.10741 1.68949 4.91005C1.58197 7.35432 1.41303 7.81262 0.476128 8.07232C0.015359 8.20981 0 8.22509 0 9.14169C0 10.0736 0.0153591 10.0888 0.491487 10.2263C1.41303 10.5166 1.58197 10.9596 1.68949 13.4039C1.797 15.7718 1.98131 16.3675 2.87213 17.2078C3.31754 17.6355 4.89951 18.4299 5.06846 18.323C5.1299 18.2771 5.26813 17.9563 5.36028 17.5897C5.54459 16.9328 5.54459 16.9175 5.02238 16.3981C4.33123 15.7106 4.14692 15.0232 4.14692 13.0678C4.14692 11.1429 3.94726 10.4096 3.22538 9.69165L2.67246 9.14169L3.22538 8.60701C3.9319 7.91956 4.14692 7.171 4.14692 5.27669C4.14692 3.2449 4.34659 2.48107 5.02238 1.88528C5.55995 1.42698 5.55995 1.42698 5.37564 0.739529C5.26813 0.372889 5.1299 0.0368022 5.08382 0.00624888C5.03774 -0.0243044 4.69985 0.0520792 4.36195 0.174292ZM23.4378 0.693698C23.2074 1.35059 23.2074 1.50336 23.3764 1.6103C23.4839 1.68668 23.6221 1.74779 23.6835 1.74779C23.745 1.74779 23.9446 1.97694 24.1443 2.23664C24.4515 2.67966 24.5129 2.96992 24.5897 4.8795C24.6972 7.32377 24.9276 8.07232 25.7416 8.7445L26.2638 9.17224L25.8031 9.50833C24.9276 10.1652 24.6819 10.9138 24.6051 13.2053C24.5283 15.4815 24.2825 16.2759 23.5607 16.5967C23.3456 16.6884 23.2074 16.8564 23.2535 16.9633C23.2842 17.055 23.4071 17.4216 23.5146 17.773C23.6682 18.3077 23.745 18.3841 24.0214 18.3077C25.2194 17.941 26.1717 17.1619 26.6785 16.1384C27.0625 15.344 27.1086 15.0843 27.1547 13.358C27.1854 12.304 27.2775 11.2499 27.3697 11.0207C27.5386 10.593 28.1837 10.1499 28.6445 10.1499C28.8288 10.1499 28.8749 9.95135 28.8749 9.15696C28.8749 8.39313 28.8288 8.16398 28.6445 8.16398C28.2144 8.16398 27.6154 7.79734 27.4004 7.38487C27.2468 7.09462 27.1854 6.43772 27.1854 5.29197C27.1854 2.64911 26.6017 1.30476 25.0966 0.510379C23.791 -0.192347 23.7603 -0.192348 23.4378 0.693698ZM8.17097 12.3192C7.54126 12.4873 7.21872 12.9761 7.21872 13.74C7.21872 14.8552 8.43208 15.5273 9.49185 14.9774C10.3827 14.5191 10.567 13.5414 9.90654 12.7775C9.49185 12.2734 8.92356 12.1359 8.17097 12.3192ZM13.7002 12.3192C13.0705 12.4873 12.7479 12.9761 12.7479 13.74C12.7479 14.8552 13.9613 15.5273 15.0211 14.9774C15.9119 14.5191 16.0962 13.5414 15.4358 12.7775C15.0211 12.2734 14.4528 12.1359 13.7002 12.3192ZM19.383 12.3192C18.7533 12.4873 18.4308 12.9761 18.4308 13.74C18.4308 14.8552 19.6441 15.5273 20.7039 14.9774C21.5947 14.5191 21.779 13.5414 21.1186 12.7775C20.7039 12.2734 20.1356 12.1359 19.383 12.3192Z" fill="url(#paint0_linear_2292_4522)"/>
<defs>
<linearGradient id="paint0_linear_2292_4522" x1="2.15135e-07" y1="9.16614" x2="28.8749" y2="9.16614" gradientUnits="userSpaceOnUse">
<stop stop-color="#FF6E3F"/>
<stop offset="1" stop-color="#FF5634"/>
</linearGradient>
</defs>
</svg>
