<svg width="406" height="523" fill="none" xmlns="http://www.w3.org/2000/svg"><path d="M95.723 392.889c-.63.997 36.032-159.109 25.14-156.697-.987.222-20.045 1.994-22.883 7.74-8.215 16.65-14.1 147.751-14.1 147.751l11.843 1.206Z" fill="#FFB1A5"/><path d="M84.588 385.53s-5.909 27.343 16.431 30.358a3.13 3.13 0 0 0 2.054-.434 3.117 3.117 0 0 0 1.314-1.633l.074-.185a3.135 3.135 0 0 0-1.74-3.876c-3.639-1.625-9.288-5.722-6.488-15.05 0 0 3.232-.393 5.008 5.612a2.58 2.58 0 0 0 1.445 1.648 2.59 2.59 0 0 0 2.194-.049 2.587 2.587 0 0 0 1.406-2.645c-.542-4.209-2.664-14.336-10.806-17.056l-10.892 3.31Z" fill="#FFB1A5"/><path d="M91.393 282.399s21.118 29.668 21.229 29.102c.111-.566 7.401-41.666 7.401-41.666L94.39 258.76l-2.997 23.639Z" fill="#F3978E"/><path d="M399.61 116H274.391c-3.53 0-6.391 2.854-6.391 6.375v115.526c0 3.521 2.861 6.375 6.391 6.375H399.61c3.529 0 6.391-2.854 6.391-6.375V122.375c0-3.521-2.862-6.375-6.391-6.375Z" fill="#1F222C"/><path d="M363.996 197.443H311V162h52.996v35.443Z" stroke="url(#a)" stroke-width="2.588" stroke-linecap="round" stroke-linejoin="round"/><path d="m311 162 26.506 20.827L363.996 162" stroke="url(#b)" stroke-width="2.588" stroke-linecap="round" stroke-linejoin="round"/><path d="M247.943.825H124.477a3.708 3.708 0 0 0-3.713 3.704v30.074a3.708 3.708 0 0 0 3.713 3.704h123.466a3.709 3.709 0 0 0 3.713-3.704V4.53a3.709 3.709 0 0 0-3.713-3.704Z" fill="#1A1C25"/><path d="M138.6 14.189h87.791M138.6 23.172h35.76" stroke="#F2F2F2" stroke-width="1.452" stroke-miterlimit="10" stroke-linecap="round"/><path d="M135.023 34.074v14.607l18.417-14.607h-18.417ZM7.969 61.429h62.307c2.113 0 4.14.837 5.634 2.328a7.94 7.94 0 0 1 2.334 5.621v57.959a7.94 7.94 0 0 1-2.334 5.621 7.982 7.982 0 0 1-5.634 2.328H10.51a10.53 10.53 0 0 1-7.432-3.071A10.475 10.475 0 0 1 0 124.802V69.427a7.932 7.932 0 0 1 2.317-5.652 7.97 7.97 0 0 1 5.652-2.346Z" fill="#1A1C25"/><path d="m56.935 104.257-4.453-4.443-.016-.016-.015-.017a3.258 3.258 0 0 0-2.397-1.128 3.473 3.473 0 0 0-2.42 1.045l-.007.007-2.554 2.535-.313.31-.395-.197-.469-.233a9.74 9.74 0 0 0-.31-.147l-.102-.047a4.555 4.555 0 0 1-.43-.223l-.011-.006-.01-.007a28.241 28.241 0 0 1-6.74-6.167 14.592 14.592 0 0 1-2.155-3.382l-.193-.42.35-.302c.414-.357.79-.751 1.16-1.14.186-.196.371-.39.56-.577l.715-.714.017-.017.018-.015a3.25 3.25 0 0 0 1.138-2.467 3.24 3.24 0 0 0-1.138-2.467l-.02-.016-.016-.018-2.214-2.22a8.257 8.257 0 0 1-.758-.818l-1.482-1.49v-.001a3.547 3.547 0 0 0-2.433-1.049 3.327 3.327 0 0 0-2.408 1.039l-.006.006-.006.006-2.788 2.781a5.68 5.68 0 0 0-1.646 3.495c-.087 1.967.248 3.93.98 5.759l.005.009.003.009a32.162 32.162 0 0 0 6.052 10.203l.009.01a37.992 37.992 0 0 0 12.527 9.76l.01.005a20.522 20.522 0 0 0 6.924 2.075h.53a5.723 5.723 0 0 0 4.303-1.848l.068-.079 2.536-7.383Zm0 0 .008.008m-.008-.008.008.008m0 0a3.361 3.361 0 0 1 1.031 2.439 3.351 3.351 0 0 1-1.062 2.427l-.007.007m.038-4.873-.038 4.873m0 0-.007.006m.007-.006-.007.006m0 0-1.02 1.017m1.02-1.017-1.02 1.017m0 0c-.53.455-1.024.949-1.479 1.479l1.48-1.479Zm-.886-.788.019-.016.018-.018.931-.929a2.121 2.121 0 0 0 .745-1.611 2.114 2.114 0 0 0-.745-1.611l-4.42-4.409a2.295 2.295 0 0 0-1.399-.754l-.066-.01-.067.005a2.247 2.247 0 0 0-1.514.76l-2.77 2.752-.014.014-.013.014a1.225 1.225 0 0 1-1.39.315l-.06-.068-.09-.052c-.28-.16-.57-.303-.868-.426a6.395 6.395 0 0 1-.928-.503l-.004-.002a28.83 28.83 0 0 1-7.09-6.458l-.007-.01a17.552 17.552 0 0 1-2.489-4.058v-.068l-.046-.112a1.14 1.14 0 0 1 .303-1.294l.083-.071.018-.016.017-.016 1.986-1.981.703-.702c.435-.392.703-.938.746-1.522l.005-.058-.007-.058a2.422 2.422 0 0 0-.737-1.478l-2.215-2.21-.015-.015-.016-.014a7.557 7.557 0 0 1-.742-.74l-.014-.015-.015-.016-1.411-1.407a2.132 2.132 0 0 0-1.539-.753l-.039-.001-.039.003c-.58.05-1.12.314-1.514.74l-2.68 2.674a3.952 3.952 0 0 0-1.302 2.71 10.439 10.439 0 0 0 1 5.208 34.878 34.878 0 0 0 5.904 9.748 36.783 36.783 0 0 0 12.08 9.527 17.35 17.35 0 0 0 6.384 1.972l.033.003H50.123a4.403 4.403 0 0 0 3.324-1.42c.211-.211.398-.407.575-.594.326-.343.618-.652.97-.949Z" fill="#fff" stroke="url(#c)" stroke-width="1.231"/><path d="m204.634 320.186-45.025-5.98.358 4.467-38.499 5.107S96.6 385.922 118.47 522.512h31.32l11.263-138.497h4.009l10.917 138.497h31.307c21.871-136.59-2.652-202.326-2.652-202.326Z" fill="#8E716C"/><path d="M146.74 383.978h32.665" stroke="#282828" stroke-width="1.514" stroke-linecap="round" stroke-linejoin="round"/><path d="M230.882 254.673c-3.849-6.153-25.498-5.919-26.633-6.055-5.847-.676 3.701 45.752 15.913 86.347a13.637 13.637 0 0 0 7.283 8.405 13.684 13.684 0 0 0 11.134.209l.247-.098a13.656 13.656 0 0 0 6.725-6.122 13.603 13.603 0 0 0 1.379-8.977c-5.785-30.579-11.595-66.621-16.048-73.709Z" fill="#FFB1A5"/><path d="m236.038 271.47-27.631 10.693-2.591-13.081 28.606-7.124 1.616 9.512ZM241.256 297.631s-13.088 17.523-12.459 16.723c.629-.8 10.263-28.303 10.263-28.303l2.196 11.58Z" fill="#F3978E"/><path d="m259.97 274.054-37.512 48.495a13.738 13.738 0 0 0-2.68 10.718 13.764 13.764 0 0 0 6.085 9.229 13.828 13.828 0 0 0 15.972-.642 13.8 13.8 0 0 0 3.666-4.28l31.233-57.478-16.764-6.042Z" fill="#FFB1A5"/><path d="M269.679 286.507a15.473 15.473 0 0 1-7.37-5.115 15.403 15.403 0 0 1-1.368-17.087 15.458 15.458 0 0 1 6.463-6.217 15.508 15.508 0 0 1 8.836-1.588 15.491 15.491 0 0 1 8.232 3.575 15.428 15.428 0 0 1 4.855 7.534 15.395 15.395 0 0 1-3.099 14.218 15.475 15.475 0 0 1-10.549 5.382 15.498 15.498 0 0 1-6-.702Z" fill="#FFB1A5"/><path d="M285.712 262.536s4.244-4.381-3.269-7.457c-7.512-3.077-16.801-2.363-22.734 11.998l26.003-4.541Z" fill="#FFB1A5"/><path d="m293.451 231.895 15.715 6.793a1.616 1.616 0 0 1 .875.999 1.602 1.602 0 0 1-.171 1.314l-20.613 38.504a1.972 1.972 0 0 1-2.467.935l-15.703-6.792a1.61 1.61 0 0 1-.716-2.301l20.662-38.504a1.977 1.977 0 0 1 2.418-.948Z" fill="#372F5F"/><path d="m292.005 231.219 15.703 6.792a1.61 1.61 0 0 1 .716 2.301l-20.662 38.553a1.973 1.973 0 0 1-2.467.948l-15.716-6.793a1.622 1.622 0 0 1-.875-.998 1.619 1.619 0 0 1 .172-1.315l20.674-38.602a1.972 1.972 0 0 1 2.455-.886Z" fill="#261B43"/><path d="m290.229 235.132 13.803 5.968-16.838 31.379-13.803-5.969 16.838-31.378Z" fill="#E6E6E6"/><path d="m304.032 241.1-30.641 25.41 16.838-31.378 13.803 5.968Z" fill="#fff"/><path d="M277.933 253.799c2.327.5 4.57 1.328 6.661 2.461a3.569 3.569 0 0 1 1.715 3.938 3.537 3.537 0 0 1-2.985 2.646l-8.167 1.021s-4.255 7.383-9.868 8.146l5.144-12.834 7.5-5.378Z" fill="#FFB1A5"/><path d="M173.646 193.613c-.901 0 57.903 8.122 67.611 75.063l-30.457 4.615-6.168 50.452h-85.115l-16.912-93.3s18.861-26.961 53.894-36.916l17.147.086Z" fill="#FB8530"/><path d="M85.734 263.853c2.96-7.876 12.746-25.637 17.269-33.225l16.037 54.144c-12.336-3.692-36.267-13.044-33.306-20.919Z" fill="#FB8530"/><path d="m210.74 273.291 2.652-29.213" stroke="#282828" stroke-width="1.514" stroke-linecap="round" stroke-linejoin="round"/><path d="M179.235 194.573v-23.232h-27.298v23.503a53.266 53.266 0 0 0-7.328 2.966l21.279 12.649 21.772-12.649a35.368 35.368 0 0 0-8.425-3.237Z" fill="#FFB1A5"/><path d="M151.689 174.171s4.935 12.982 17.986 11.862c12.027-1.021 10.115-19.024 10.115-19.024l-28.101 7.162Z" fill="#282828"/><path d="M139.785 156.906c-4.281 3.877-13.853-10.804-9.708-14.926 4.144-4.122 7.278 2.338 7.278 2.338l1.85 4.381 1.394 5.943.333 1.551-1.147.713Z" fill="#F3978E"/><path d="M132.066 147.197s3.245-1.452 6.168 3.237" stroke="#282828" stroke-width="1.218" stroke-linecap="round" stroke-linejoin="round"/><path d="M190.375 156.463c3.935 4.221 14.717-9.61 10.942-14.065-3.775-4.454-7.401 1.723-7.401 1.723l-2.208 4.209-1.888 5.808-.468 1.513 1.023.812Z" fill="#F3978E"/><path d="M198.887 147.419s-3.109-1.723-6.366 2.695" stroke="#282828" stroke-width="1.218" stroke-linecap="round" stroke-linejoin="round"/><path d="M132.275 127.964c0 19.443 14.865 28.659 33.183 28.659 18.318 0 33.182-9.216 33.182-28.659 0-19.442-14.802-32.658-33.182-32.658-18.38 0-33.183 13.228-33.183 32.658Z" fill="#282828"/><path d="M136.788 129.318a132.248 132.248 0 0 0 3.38 29.533c1.653 7.161 6.291 12.157 12.866 16.181l1.233.739a22.603 22.603 0 0 0 11.457 3.26 22.593 22.593 0 0 0 11.524-3.014c7.118-4.135 12.101-9.586 13.631-17.228a194.276 194.276 0 0 0 3.096-29.434s2.652-30.112-28.174-29.533c-30.827.578-29.013 29.496-29.013 29.496Z" fill="#FFB1A5"/><path d="M163.492 146.508v4.172c.001.24.047.478.136.701a1.867 1.867 0 0 0 2.22 1.022l1.912-.505" stroke="#282828" stroke-width="1.514" stroke-linecap="round" stroke-linejoin="round"/><path d="m158.598 130.351-15.321 3.581s.691-3.888 6.958-5.303c6.266-1.415 8.363 1.722 8.363 1.722ZM172.193 130.351l14.803 3.581s-.678-3.888-6.723-5.303c-6.044-1.415-8.08 1.722-8.08 1.722ZM152.777 144.146a2.575 2.575 0 0 0 2.578-2.572 2.575 2.575 0 0 0-2.578-2.572 2.575 2.575 0 0 0-2.578 2.572 2.575 2.575 0 0 0 2.578 2.572ZM179.84 141.574a2.577 2.577 0 0 1-3.081 2.522 2.574 2.574 0 0 1-1.879-3.506 2.582 2.582 0 0 1 4.205-.835c.483.483.755 1.137.755 1.819Z" fill="#282828"/><path d="M155.352 157.251h19.921s-8.881 10.718-19.921 0Z" fill="#fff"/><path d="M159.447 150.307a10.932 10.932 0 0 0 0-15.488c-4.287-4.277-11.238-4.277-15.526 0a10.933 10.933 0 0 0 0 15.488c4.288 4.277 11.239 4.277 15.526 0ZM186.43 150.314a10.933 10.933 0 0 0 0-15.488c-4.288-4.277-11.239-4.277-15.526 0a10.932 10.932 0 0 0 0 15.488c4.287 4.277 11.238 4.277 15.526 0Z" stroke="#FB8530" stroke-width="1.649" stroke-miterlimit="10"/><path d="M162.693 142.571s2.603-2.461 5.021 0M140.696 142.571l-3.454-.086M189.66 142.571l3.479-.086" stroke="#FB8530" stroke-width="1.649" stroke-miterlimit="10"/><path d="M193.532 139.31s-12.335-16.625-9.486-33.459a24.25 24.25 0 0 1 7.556 6.972 24.18 24.18 0 0 1 3.978 9.468c2.393 11.85-2.048 17.019-2.048 17.019ZM136.787 140.43s14.322-18.877 11.472-35.686a28.106 28.106 0 0 0-12.335 17.572c-2.381 11.825.863 18.114.863 18.114Z" fill="#282828"/><path d="M192.508 112.484s-15.826 17.228-59.112 14.323c0 0 6.625-25.361 27.607-28.056 0 0 24.227-2.892 31.505 13.733Z" fill="#282828"/><path d="M211.801 95.573c1.819-11.244-5.844-21.831-17.116-23.647C183.413 70.111 172.8 77.756 170.98 89c-1.819 11.245 5.843 21.832 17.116 23.647 11.272 1.815 21.885-5.829 23.705-17.074Z" fill="#282828"/><path fill="url(#d)" d="M8.393 193.226h341.98V522.86H8.393z"/><defs><linearGradient id="a" x1="311" y1="197.443" x2="363.996" y2="197.443" gradientUnits="userSpaceOnUse"><stop stop-color="#258EE8"/><stop offset="1" stop-color="#2AB5ED"/></linearGradient><linearGradient id="b" x1="311" y1="182.827" x2="363.996" y2="182.827" gradientUnits="userSpaceOnUse"><stop stop-color="#258EE8"/><stop offset="1" stop-color="#2AB5ED"/></linearGradient><linearGradient id="c" x1="22.359" y1="103.419" x2="57.818" y2="103.511" gradientUnits="userSpaceOnUse"><stop stop-color="#F36B3D"/><stop offset="0" stop-color="#FFBA08"/><stop offset="1" stop-color="#FB8133"/></linearGradient><linearGradient id="d" x1="179.383" y1="193.226" x2="179.383" y2="411.412" gradientUnits="userSpaceOnUse"><stop stop-color="#15171E" stop-opacity="0"/><stop offset="1" stop-color="#15171E"/></linearGradient></defs></svg>