<svg width="28" height="28" fill="none" xmlns="http://www.w3.org/2000/svg"><path d="M9.334 4.667v14A2.333 2.333 0 0 0 11.667 21h9.334a2.334 2.334 0 0 0 2.333-2.333V8.449a2.335 2.335 0 0 0-.702-1.668l-3.868-3.783a2.334 2.334 0 0 0-1.63-.665h-5.467a2.333 2.333 0 0 0-2.333 2.334v0Z" stroke="url(#a)" stroke-width="1.647" stroke-linecap="round" stroke-linejoin="round"/><path d="M18.668 21v2.333a2.333 2.333 0 0 1-2.333 2.334H7a2.333 2.333 0 0 1-2.333-2.334V10.5a2.333 2.333 0 0 1 2.333-2.333h2.334" stroke="url(#b)" stroke-width="1.647" stroke-linecap="round" stroke-linejoin="round"/><defs><linearGradient id="a" x1="9.334" y1="15.478" x2="23.036" y2="15.505" gradientUnits="userSpaceOnUse"><stop stop-color="#F36B3D"/><stop offset="0" stop-color="#FFBA08"/><stop offset="1" stop-color="#FB8133"/></linearGradient><linearGradient id="b" x1="4.668" y1="20.49" x2="18.37" y2="20.519" gradientUnits="userSpaceOnUse"><stop stop-color="#F36B3D"/><stop offset="0" stop-color="#FFBA08"/><stop offset="1" stop-color="#FB8133"/></linearGradient></defs></svg>