<svg width="11" height="11" fill="none" xmlns="http://www.w3.org/2000/svg"><path d="M9.878 1.833a.611.611 0 0 0-.125 0H1.197a.61.61 0 0 0-.162.025L5.45 6.255l4.428-4.422Z" fill="#828282"/><path d="m10.331 2.258-4.449 4.43a.611.611 0 0 1-.862 0L.611 2.293a.611.611 0 0 0-.021.152v6.112a.611.611 0 0 0 .611.61h8.556a.611.611 0 0 0 .61-.61V2.444a.612.612 0 0 0-.036-.186ZM1.62 8.556h-.425v-.437l2.221-2.203.431.43-2.227 2.21Zm8.13 0h-.427l-2.228-2.21.431-.43 2.221 2.203.003.437Z" fill="#828282"/></svg>