<svg width="14" height="14" fill="none" xmlns="http://www.w3.org/2000/svg"><path d="M12.573 2.333a.778.778 0 0 0-.16 0H1.524a.778.778 0 0 0-.206.031l5.62 5.597 5.635-5.628Z" fill="url(#a)"/><path d="M13.148 2.874 7.486 8.513a.778.778 0 0 1-1.097 0L.777 2.917a.778.778 0 0 0-.027.194v7.778a.778.778 0 0 0 .778.778h10.889a.778.778 0 0 0 .777-.778V3.11a.779.779 0 0 0-.046-.237ZM2.06 10.889H1.52v-.556l2.827-2.804.549.548L2.06 10.89Zm10.348 0h-.545L9.03 8.077l.549-.548 2.827 2.804.004.556Z" fill="url(#b)"/><defs><linearGradient id="a" x1="1.318" y1="6.295" x2="12.333" y2="6.352" gradientUnits="userSpaceOnUse"><stop stop-color="#F36B3D"/><stop offset="0" stop-color="#FFBA08"/><stop offset="1" stop-color="#FB8133"/></linearGradient><linearGradient id="b" x1=".75" y1="9.066" x2="12.929" y2="9.111" gradientUnits="userSpaceOnUse"><stop stop-color="#F36B3D"/><stop offset="0" stop-color="#FFBA08"/><stop offset="1" stop-color="#FB8133"/></linearGradient></defs></svg>