<svg width="31" height="20" fill="none" xmlns="http://www.w3.org/2000/svg"><path d="M4.683.187C3.793.48 2.721 1.41 2.276 2.259c-.297.554-.38 1.06-.462 2.985-.116 2.61-.297 3.1-1.303 3.377C.016 8.768 0 8.784 0 9.763c0 .996.016 1.012.528 1.159.989.31 1.17.783 1.286 3.393.115 2.529.313 3.165 1.27 4.063.478.456 2.176 1.305 2.357 1.19.066-.049.215-.391.314-.783.198-.701.198-.718-.363-1.272-.742-.734-.94-1.469-.94-3.557 0-2.055-.214-2.838-.99-3.605l-.593-.588.594-.57c.758-.735.99-1.534.99-3.557 0-2.17.213-2.986.939-3.622.577-.49.577-.49.38-1.224C5.655.4 5.506.04 5.457.007c-.05-.032-.412.05-.775.18Zm20.48.554c-.248.702-.248.865-.066.98.115.08.264.146.33.146s.28.245.494.522c.33.473.396.783.479 2.823.115 2.61.362 3.41 1.236 4.127l.56.457-.494.359c-.94.701-1.204 1.5-1.286 3.948-.082 2.43-.346 3.28-1.121 3.622-.231.098-.38.277-.33.391.033.098.165.49.28.865.165.571.248.653.544.571 1.287-.391 2.309-1.223 2.853-2.317.412-.848.462-1.125.511-2.969.033-1.126.132-2.251.231-2.496.181-.457.874-.93 1.369-.93.198 0 .247-.212.247-1.06 0-.816-.05-1.06-.247-1.06-.462 0-1.105-.392-1.336-.833-.165-.31-.23-1.011-.23-2.235 0-2.822-.627-4.258-2.243-5.106-1.402-.75-1.435-.75-1.781.195ZM8.773 13.157c-.677.18-1.023.701-1.023 1.517 0 1.191 1.303 1.909 2.44 1.322.957-.49 1.155-1.534.446-2.35-.446-.538-1.056-.685-1.864-.49Zm5.936 0c-.677.18-1.023.701-1.023 1.517 0 1.191 1.303 1.909 2.44 1.322.957-.49 1.155-1.534.446-2.35-.445-.538-1.055-.685-1.863-.49Zm6.1 0c-.675.18-1.022.701-1.022 1.517 0 1.191 1.303 1.909 2.44 1.322.957-.49 1.155-1.534.446-2.35-.445-.538-1.055-.685-1.863-.49Z" fill="url(#a)"/><defs><linearGradient id="a" x1="0" y1="9.789" x2="31" y2="9.789" gradientUnits="userSpaceOnUse"><stop stop-color="#FB8530"/><stop offset="1" stop-color="#FEB50B"/></linearGradient></defs></svg>