<svg width="25" height="24" fill="none" xmlns="http://www.w3.org/2000/svg"><path d="M14.47 19.612a.425.425 0 0 0-.426.425v3.538a.424.424 0 1 0 .85 0v-3.538a.425.425 0 0 0-.425-.425Z" fill="url(#a)"/><path d="M11.355 19.612a.425.425 0 0 0-.425.425v3.538a.424.424 0 1 0 .85 0v-3.538a.425.425 0 0 0-.425-.425Z" fill="url(#b)"/><path d="M11.355 4.387c.234 0 .425-.19.425-.424V.425a.425.425 0 0 0-.85 0v3.538c0 .234.19.424.425.424Z" fill="url(#c)"/><path d="M14.47 4.387c.233 0 .424-.19.424-.424V.425a.425.425 0 0 0-.85 0v3.538c0 .234.19.424.425.424Z" fill="url(#d)"/><path d="M24.488 10.019H20.95a.425.425 0 1 0 0 .849h3.538a.425.425 0 1 0 0-.85Z" fill="url(#e)"/><path d="M24.487 13.132H20.95a.424.424 0 1 0 0 .85h3.538a.425.425 0 1 0 0-.85Z" fill="url(#f)"/><path d="M4.875 13.132H1.337a.425.425 0 1 0 0 .85h3.538a.425.425 0 0 0 0-.85Z" fill="url(#g)"/><path d="M4.875 10.019H1.337a.424.424 0 1 0 0 .849h3.538a.425.425 0 0 0 0-.85Z" fill="url(#h)"/><rect x="3.288" y="2.376" width="19.248" height="19.248" rx="4" fill="#1A1C25" stroke="url(#i)"/><path d="M19.912 6.717c0-.948-.769-1.717-1.717-1.717H7.63c-.948 0-1.717.769-1.717 1.717v10.566c0 .948.769 1.717 1.717 1.717h10.566c.948 0 1.717-.769 1.717-1.717V6.717Zm-.792 10.566c0 .51-.414.924-.925.924H7.63a.924.924 0 0 1-.924-.924V6.717c0-.51.413-.925.924-.925h10.566c.51 0 .925.414.925.925v10.566Z" fill="url(#j)"/><defs><linearGradient id="a" x1="14.044" y1="21.806" x2="14.894" y2="21.806" gradientUnits="userSpaceOnUse"><stop stop-color="#FB8530"/><stop offset="1" stop-color="#FEB50B"/></linearGradient><linearGradient id="b" x1="10.93" y1="21.806" x2="11.78" y2="21.806" gradientUnits="userSpaceOnUse"><stop stop-color="#FB8530"/><stop offset="1" stop-color="#FEB50B"/></linearGradient><linearGradient id="c" x1="10.93" y1="2.194" x2="11.78" y2="2.194" gradientUnits="userSpaceOnUse"><stop stop-color="#FB8530"/><stop offset="1" stop-color="#FEB50B"/></linearGradient><linearGradient id="d" x1="14.044" y1="2.194" x2="14.894" y2="2.194" gradientUnits="userSpaceOnUse"><stop stop-color="#FB8530"/><stop offset="1" stop-color="#FEB50B"/></linearGradient><linearGradient id="e" x1="20.525" y1="10.443" x2="24.913" y2="10.443" gradientUnits="userSpaceOnUse"><stop stop-color="#FB8530"/><stop offset="1" stop-color="#FEB50B"/></linearGradient><linearGradient id="f" x1="20.525" y1="13.557" x2="24.912" y2="13.557" gradientUnits="userSpaceOnUse"><stop stop-color="#FB8530"/><stop offset="1" stop-color="#FEB50B"/></linearGradient><linearGradient id="g" x1=".912" y1="13.557" x2="5.299" y2="13.557" gradientUnits="userSpaceOnUse"><stop stop-color="#FB8530"/><stop offset="1" stop-color="#FEB50B"/></linearGradient><linearGradient id="h" x1=".912" y1="10.443" x2="5.299" y2="10.443" gradientUnits="userSpaceOnUse"><stop stop-color="#FB8530"/><stop offset="1" stop-color="#FEB50B"/></linearGradient><linearGradient id="i" x1="3.288" y1="12" x2="22.536" y2="12" gradientUnits="userSpaceOnUse"><stop stop-color="#FB8530"/><stop offset="1" stop-color="#FEB50B"/></linearGradient><linearGradient id="j" x1="5.912" y1="12" x2="19.912" y2="12" gradientUnits="userSpaceOnUse"><stop stop-color="#FB8530"/><stop offset="1" stop-color="#FEB50B"/></linearGradient></defs></svg>