<svg width="51" height="51" fill="none" xmlns="http://www.w3.org/2000/svg"><circle cx="25.369" cy="25.369" r="25.369" fill="#1F212C"/><path d="M34.657 16.672a21.124 21.124 0 0 0-5.351-1.681c-.23.417-.5.977-.686 1.423-1.995-.3-3.972-.3-5.93 0a15.228 15.228 0 0 0-.694-1.423 21.056 21.056 0 0 0-5.356 1.686c-3.386 5.117-4.304 10.108-3.845 15.027 2.246 1.678 4.423 2.697 6.563 3.364.528-.728 1-1.5 1.406-2.315a13.822 13.822 0 0 1-2.214-1.078c.186-.137.367-.281.543-.429 4.268 1.996 8.905 1.996 13.122 0 .177.148.359.292.543.43-.702.422-1.445.785-2.218 1.079.406.812.875 1.587 1.406 2.315 2.142-.667 4.32-1.686 6.567-3.366.538-5.703-.92-10.648-3.856-15.032ZM21.345 28.68c-1.281 0-2.332-1.196-2.332-2.653 0-1.456 1.028-2.654 2.332-2.654 1.304 0 2.354 1.196 2.332 2.654.002 1.457-1.028 2.653-2.332 2.653Zm8.618 0c-1.282 0-2.332-1.196-2.332-2.653 0-1.456 1.028-2.654 2.332-2.654 1.303 0 2.354 1.196 2.331 2.654 0 1.457-1.028 2.653-2.331 2.653Z" fill="#fff"/></svg>