<svg width="51" height="51" fill="none" xmlns="http://www.w3.org/2000/svg"><circle cx="25.631" cy="25.369" r="25.369" fill="#1F212C"/><path d="M21.226 35.52c-.747 0-.62-.282-.878-.993l-2.197-7.231 16.913-10.034" fill="#C8DAEA"/><path d="M21.227 35.827c.577 0 .832-.264 1.154-.577l3.075-2.99-3.836-2.313" fill="#A9C9DD"/><path d="m21.618 30.026 9.295 6.867c1.06.585 1.826.282 2.09-.985l3.783-17.828c.387-1.553-.592-2.257-1.607-1.797L12.964 24.85c-1.517.609-1.508 1.455-.277 1.832l5.702 1.78 13.198-8.328c.623-.377 1.195-.174.726.242" fill="url(#a)"/><defs><linearGradient id="a" x1="28.346" y1="25.337" x2="31.945" y2="33.537" gradientUnits="userSpaceOnUse"><stop stop-color="#EFF7FC"/><stop offset="1" stop-color="#fff"/></linearGradient></defs></svg>