<svg width="945" height="436" fill="none" xmlns="http://www.w3.org/2000/svg"><path d="m613.468 22.41-.027 10.448-6.267 3.005.027-10.449 6.267-3.005ZM607.199 25.414l-.027 10.45-4.467.69.027-10.463 4.467-.677ZM602.729 26.091l-.027 10.463-3.059 1.231.027-10.462 3.059-1.232Z" fill="#222532"/><path d="m599.675 27.323-.027 10.462-2.017.988.04-10.462 2.004-.988ZM609.136 29.285l-.027 10.463-2.599.96.027-10.448 2.599-.975Z" fill="#222532"/><path d="m606.537 30.26-.027 10.449-.785 3.573.027-10.449.785-3.573Z" fill="#222532"/><path d="m607.729 36.418-.027 10.463-4.981 1.056.027-10.45 4.981-1.069ZM602.745 37.487l-.027 10.45-1.611 3.316.041-10.45 1.597-3.316ZM559.283 40.75l-.04 10.449-.528-1.597.027-10.45.541 1.598Z" fill="#222532"/><path d="m601.148 40.804-.04 10.45-3.831 1.258.027-10.45 3.844-1.258ZM555.021 43.105l-.027 10.463-1.137-1.043.027-10.462 1.137 1.042ZM590.227 43.741l-.028 10.463-3.072-.325.027-10.463 3.073.325Z" fill="#222532"/><path d="m590.441 46.015-.027 10.449-.217-2.26.027-10.463.217 2.274ZM588.05 46.218l-.027 10.449-1.787.771.041-10.462 1.773-.758ZM586.274 46.976l-.04 10.463-3.14-.92.04-10.45 3.14.907ZM620.356 45.704l-.027 10.449-.298 1.556.027-10.462.298-1.543Z" fill="#222532"/><path d="m583.135 46.07-.04 10.448-4.534 1.909.027-10.45 4.547-1.908ZM594.461 48.234l-.027 10.45-4.02-2.22.027-10.45 4.02 2.22Z" fill="#222532"/><path d="m597.456 50.711-.027 10.45-3.005-1.381.027-10.45 3.005 1.381ZM604.292 50.942l-.027 10.449-6.835-.23.027-10.45 6.835.23Z" fill="#222532"/><path d="m621.192 50.049-.027 10.462-16.905.88.027-10.45 16.905-.892ZM623.028 52.011l-.027 10.463-1.827-1.963.027-10.462 1.827 1.962ZM625.418 50.346l-.04 10.45-.501 1.826.027-10.462.514-1.814Z" fill="#222532"/><path d="m624.905 52.16-.027 10.462-1.882-.148.027-10.463 1.882.149ZM585.139 50.752l-.027 10.463-4.007 2.87.028-10.463 4.006-2.87ZM581.128 53.621l-.027 10.463-4.359 1.056.027-10.463 4.359-1.056Z" fill="#222532"/><path d="m576.77 54.677-.027 10.463-2.03 3.045.027-10.449 2.03-3.059Z" fill="#222532"/><path d="m574.743 57.736-.027 10.45-5.292 1.76.04-10.464 5.279-1.746ZM631.239 60.186l-.027 10.45-.636.784.027-10.462.636-.772ZM629.414 62.514l-.027 10.45-1.164-1.463.027-10.449 1.164 1.462Z" fill="#222532"/><path d="m631.703 62.42-.027 10.462-1.11.487.041-10.449 1.096-.5ZM569.461 59.482l-.04 10.463-5.333 3.722.027-10.45 5.346-3.735ZM629.226 63.922l-.027 10.449-.623-.61.027-10.448.623.609ZM584.174 63.962l-.027 10.45-1.11-.596.027-10.463 1.11.61ZM610.43 62.947l-.027 10.463-4.426 1.096.027-10.462 4.426-1.097Z" fill="#222532"/><path d="m629.507 64.598-.027 10.463-.285-.69.027-10.45.285.677ZM585.664 64.761l-.04 10.463-1.476-.812.027-10.45 1.489.8ZM633.217 64.165l-.027 10.45-.163.96.041-10.462.149-.948ZM600.99 65.546v10.449c-.244.135-5.942-.541-6.24-.582V64.95c.311 0 6.01.731 6.24.596Z" fill="#222532"/><path d="M606.288 66.154v10.463c-.257 0-5.062-.758-5.306-.623v-10.45c.244-.135 5.063.57 5.306.61ZM618.178 65.33l-.027 10.449-1.922.88.027-10.463 1.922-.866ZM594.762 64.95l-.041 10.463-.162 1.408.027-10.463.176-1.408ZM633.065 65.113l-.04 10.463-1.029 1.434.027-10.449 1.042-1.448Z" fill="#222532"/><path d="m610.761 67.373-.027 10.463-4.466-1.218.027-10.463 4.466 1.218ZM502.803 67.238l-.027 10.45-1.272-1.11.027-10.463 1.272 1.123ZM616.435 67.59l-.027 10.449-5.672-.203.027-10.463 5.672.217ZM618.138 67.996l-.027 10.45-1.029-.353.027-10.462 1.029.365Z" fill="#222532"/><path d="m620.925 68.077-.027 10.463-2.789-.095.027-10.449 2.789.081ZM633.834 67.198v10.449s0 .758-.271.826c-.27.067-3.235.473-3.397.5V68.511c.162 0 3.194-.433 3.411-.501.216-.068.257-.772.257-.812ZM503.489 68.307l-.027 10.45-.691-1.07.028-10.449.69 1.07Z" fill="#222532"/><path d="m623.698 69.187-.027 10.45-2.775-1.097.028-10.463 2.774 1.11ZM630.196 68.51l-.027 10.463-1.3.948.027-10.45 1.3-.96Z" fill="#222532"/><path d="m624.916 71.272-.027 10.462-2.26-1.326.027-10.463 2.26 1.327ZM627.449 71.65v10.449a10.25 10.25 0 0 1-2.517-.365V71.27c.826.224 1.675.351 2.531.379h-.014ZM633.133 72.666l-.027 10.463-2.667-2.153.028-10.462 2.666 2.152Z" fill="#222532"/><path d="M630.647 71.989v10.449a22.46 22.46 0 0 0-3.208-.339V71.65a18.95 18.95 0 0 1 3.195.338h.013ZM635.884 72.95l-.027 10.462-2.748-.284.027-10.463 2.748.285Z" fill="#222532"/><path d="m638.481 74.02-.04 10.462-2.586-1.07.028-10.462 2.598 1.07ZM496.347 73.667l-.041 10.463-.216-1.462.027-10.462.23 1.461Z" fill="#222532"/><path d="m639.64 75.386-.027 10.463-1.177-1.367.04-10.463 1.164 1.367ZM650.673 75.955l-.027 10.463-1.259-.15.027-10.448 1.259.135ZM652.559 76.063l-.027 10.463-.284.812.027-10.463.284-.812ZM652.271 76.875l-.027 10.463-1.598-.92.028-10.463 1.597.92ZM640.122 76.862l-.027 10.462-.474-1.475.027-10.463.474 1.476Z" fill="#222532"/><path d="m651.095 77.39-.027 10.449-1.205.88.027-10.463 1.205-.866ZM637.925 78.486l-.027 10.463-1.367-.569.027-10.462 1.367.568Z" fill="#222532"/><path d="m640.037 78.743-.027 10.449-2.112-.244.027-10.462 2.112.257ZM613.401 74.885l-.027 10.45-1.259 4.263.027-10.45 1.259-4.263ZM649.89 78.256l-.027 10.463-2.383 1.19.028-10.462 2.382-1.191ZM612.138 79.148l-.027 10.45-3.343.203.027-10.45 3.343-.203ZM640.19 79.704l-.027 10.45-.149-.962.027-10.449.149.961Z" fill="#222532"/><path d="m641.131 80.34-.027 10.462-.948-.65.027-10.448.948.636ZM608.799 79.352l-.027 10.449-.135 2.111.027-10.449.135-2.111ZM476.314 81.098l-.027 10.45-1.949-.759.027-10.462 1.949.771ZM648.781 82.14l-.028 10.463-3.14.19.027-10.45 3.141-.203Z" fill="#222532"/><path d="m645.644 82.344-.027 10.449-1.002.338.027-10.463 1.002-.325Z" fill="#222532"/><path d="m646.317 84.238-.027 10.463-2.03.406.027-10.463 2.03-.406ZM613.031 83.832l-.027 10.45-1.109 1.759.04-10.45 1.096-1.759Z" fill="#222532"/><path d="m646.384 85.551-.027 10.463-.839.27.027-10.449.839-.284Z" fill="#222532"/><path d="m645.547 85.835-.027 10.45-2.125.053.027-10.449 2.125-.054ZM643.42 85.89l-.027 10.449-1.286.46.028-10.463 1.285-.446ZM636.029 86.525l-.027 10.463-.338-3.289.041-10.449.324 3.275ZM636.843 87.473l-.041 10.45-.798-.935.027-10.462.812.947ZM630.982 87.365l-.027 10.463-1.529 1.475.027-10.449 1.529-1.489ZM609.379 89.233l-.027 10.449-2.842.149.027-10.45 2.842-.148ZM647.266 89.53l-.028 10.463-.947.122.041-10.45.934-.135Z" fill="#222532"/><path d="m642.288 89.95-.027 10.449-2.247-.866.027-10.45 2.247.867ZM640.035 89.084l-.027 10.449-1.313.893.027-10.463 1.313-.88Z" fill="#222532"/><path d="m638.723 89.964-.027 10.462-2.464-.582.028-10.449 2.463.569ZM631.239 60.186l-.637.771 1.097 1.462-1.097.5.082 1.693 1.272-.515h1.259l-.149.948-1.042 1.448 1.84.636s0 .758-.257.812c-.257.055-3.248.488-3.411.501l-1.353.961 1.137.569 1.719-.433 1.448.541 1.936.108 4.723.19 2.342.907 1.354.622 5.522 1.909 1.624.149 1.827 2.03-.284.812-1.597-.907-1.259-.149 1.679 1.57-1.205.867-2.382 1.19 1.232 1.8v.894l-3.141.203-1.001.325 1.57.596.108.974-2.03.406 2.098.907-.839.284h-2.125l-1.286.447 1.759.88 2.816.65.555 1.664-.934.136-2.22.568-1.827-.284-2.247-.866-1.354.88-2.463-.57.582-1.921-.812-.948-.325-3.275 2.111-1.354 1.043-.622 2.273-.907-.947-.636-.149-.961-2.111-.257-1.354-.569.745-.84 2.057.57.758-.786-.474-1.475-1.164-1.353-2.599-1.07-2.707-.284-2.707-2.152.176 1.475a18.939 18.939 0 0 0-3.194-.338 11.004 11.004 0 0 1-2.531-.38l-2.261-1.353 1.043-.758-2.775-1.11-2.788-.08-1.029-.366 1.245-1.164 3.655.162 2.152-.555 1.556-.162 1.638-1.205.46-.46 1.692.352-.284-.677-.623-.609.813-.798-1.165-1.462.312-.298.257-.365 1.15-.515 1.422.42ZM646.329 89.665l-.041 10.45-2.22.582.041-10.463 2.22-.569Z" fill="#222532"/><path d="m644.108 90.234-.04 10.463-1.814-.298.027-10.449 1.827.284ZM621.492 90.505l-.027 10.463-3.871-1.313.027-10.462 3.871 1.313ZM612.652 91.06l-.027 10.449-3.275-1.827.027-10.45 3.275 1.828ZM615.754 91.195l-.027 10.463-3.1-.149.027-10.449 3.1.135Z" fill="#222532"/><path d="m617.621 89.193-.027 10.462-1.867 2.004.027-10.463 1.867-2.003ZM606.538 89.381l-.027 10.45-3.195 2.68.041-10.45 3.181-2.68ZM626.599 92.847l-.041 10.449-5.089-2.328.027-10.463 5.103 2.342Z" fill="#222532"/><path d="m629.954 91.074-.041 10.462-3.356 1.76.04-10.45 3.357-1.772ZM603.357 92.062l-.041 10.449-.785 2.518.027-10.463.799-2.504ZM611.913 93.523l-.041 10.463-1.434 1.164.04-10.463 1.435-1.164ZM642.053 108.507l-.027 10.463-.108 3.708.027-10.449.108-3.722ZM665.998 112.297v10.449-10.449a.152.152 0 0 1 0 .067v-.067ZM417.52 112.743l-.027 10.449-.122-1.881.041-10.463.108 1.895ZM687.613 115.071l-.04 10.449-.135.528.027-10.462.148-.515ZM672.266 114.449l-.027 10.449-.88 1.259.027-10.463.88-1.245ZM662.749 115.965l-.027 10.449-2.044-1.976.04-10.463 2.031 1.99ZM641.943 112.229l-.027 10.449-.771 3.736.04-10.463.758-3.722Z" fill="#222532"/><path d="m666.861 116.98-.028 10.463-4.114-1.029.027-10.449 4.115 1.015ZM416.733 117.17l-.041 10.463-1.462-.406.028-10.463 1.475.406ZM793.728 117.183l-.027 10.449-4.06 1.963.027-10.45 4.06-1.962ZM779.761 118.631l-.027 10.449-2.517.528.04-10.463 2.504-.514ZM641.19 115.951l-.04 10.463-1.597 3.208.027-10.463 1.61-3.208ZM672.602 118.74l-.027 10.449-2.22.825.028-10.449 2.219-.825Z" fill="#222532"/><path d="m670.387 119.565-.027 10.45-4.575-1.232.027-10.463 4.575 1.245ZM777.253 119.146l-.041 10.463-2.599.758.027-10.463 2.613-.758ZM746.07 120.282l-.041 10.463-.175-1.543.027-10.449.189 1.529ZM789.668 119.146l-.027 10.449-3.221 1.476.027-10.45 3.221-1.475ZM786.444 120.621l-.027 10.449-6.687-1.99.028-10.449 6.686 1.99ZM695.832 120.174l-.027 10.463-2.828.176.027-10.463 2.828-.176ZM674.661 120.35l-.041 10.449-2.044-1.61.027-10.449 2.058 1.61ZM413.931 119.917l-.027 10.463-.406-1.814.027-10.449.406 1.8ZM681.724 120.959l-.027 10.449-2.517.352.027-10.449 2.517-.352ZM639.577 119.159l-.027 10.463-4.493 2.247.04-10.449 4.48-2.261ZM410.764 121.122l-.027 10.462-3.208-.324.027-10.463 3.208.325ZM692.998 120.35l-.027 10.463-.948 1.949.028-10.463.947-1.949ZM676.706 122.475l-.041 10.449-2.044-2.125.041-10.449 2.044 2.125ZM684.88 122.773l-.027 10.463-3.154-1.828.027-10.449 3.154 1.814ZM687.793 122.205l-.027 10.463-2.911.568.028-10.463 2.91-.568Z" fill="#222532"/><path d="m689.925 123.03-.027 10.463-2.138-.825.027-10.463 2.138.825ZM692.054 122.299l-.027 10.463-2.125.731.027-10.463 2.125-.731ZM745.113 123.707l-.041 10.463-.988-1.57.041-10.463.988 1.57ZM759.634 124.506l-.041 10.463-4.872-.257.027-10.45 4.886.244ZM637.613 122.868l-.027 10.462-.785 1.462.027-10.463.785-1.461ZM698.332 124.167l-.027 10.45-2.45.365.028-10.463 2.449-.352ZM634.502 124.573l-.027 10.463-3.479-.095.041-10.463 3.465.095Z" fill="#222532"/><path d="m636.828 124.33-.027 10.462-2.328.244.027-10.463 2.328-.243ZM776.131 123.626l-.027 10.462-3.803 1.747.027-10.463 3.803-1.746ZM706.392 123.869l-.028 10.45-1.434 1.448.027-10.449 1.435-1.449ZM678.381 125.317l-.027 10.463-1.692-2.856.041-10.449 1.678 2.842ZM701.136 125.846l-.028 10.449-2.801-1.678.027-10.45 2.802 1.679Z" fill="#222532"/><path d="m704.949 125.318-.027 10.449-3.817.528.028-10.449 3.816-.528ZM771.192 126.13l-.027 10.462-4.765-.324.027-10.45 4.765.312ZM772.33 125.372l-.027 10.463-1.137.758.027-10.463 1.137-.758ZM754.748 124.262l-.027 10.45-5.563 1.827.027-10.463 5.563-1.814ZM391.895 123.423l-.04 10.449-1.611 1.665.027-10.449 1.624-1.665ZM738.533 126.198l-.027 10.462-3.059-.176.027-10.449 3.059.163ZM695.885 124.519l-.027 10.463-.528 1.881.027-10.462.528-1.882ZM631.032 124.478l-.04 10.463-2.369 1.786.041-10.462 2.368-1.787ZM762.15 126.685l-.027 10.462-2.531-2.179.04-10.463 2.518 2.18ZM679.247 126.509l-.041 10.462-.852-1.191.027-10.462.866 1.191Z" fill="#222532"/><path d="m749.188 126.076-.027 10.462-4.399.853.027-10.449 4.399-.866ZM403.549 126.468l-.027 10.463-3.397-1.367.027-10.463 3.397 1.367ZM695.357 126.401l-.027 10.462-1.408.894.027-10.463 1.408-.893ZM693.946 127.294l-.027 10.463-2.017-1.015.027-10.45 2.017 1.002ZM735.476 126.035l-.027 10.449-3.33 1.449.027-10.45 3.33-1.448ZM732.144 127.483l-.027 10.45-2.111-1.273.041-10.449 2.097 1.272ZM738.709 127.673l-.027 10.449-.176-1.462.027-10.462.176 1.475Z" fill="#222532"/><path d="m744.79 126.942-.027 10.449-2.165 1.232.027-10.449 2.165-1.232ZM742.624 128.173l-.027 10.45-3.911-.501.027-10.449 3.911.5ZM766.426 125.818l-.027 10.45-3.979 2.896.027-10.463 3.979-2.883ZM390.271 125.087l-.027 10.449-3.316 3.113.04-10.449 3.303-3.113Z" fill="#222532"/><path d="m762.447 128.702-.027 10.463-2.166.649.027-10.462 2.166-.65Z" fill="#222532"/><path d="m793.618 115.735.108 1.448-4.06 1.963-3.222 1.475-6.686-1.99-2.504.515-2.612.758.216 1.746 1.272 1.976-3.803 1.746-1.137.758-4.764-.312-3.98 2.883-2.165.65 1.868-2.666-2.518-2.179-4.886-.244-5.563 1.814-4.399.866-2.166 1.232-3.912-.501-.175-1.476-3.059-.162-3.33 1.448-2.098-1.272 2.653-1.123.88-2.207 5.441-1.462 2.761 2.735 3.33-.447-.988-1.57 1.949-1.854-.19-1.53 5.279-1.922 4.602-1.205 8.08-1.015 6.849-1.434 2.085 1.272 4.25-.69 1.678.135.934 2.017 1.584-.65 4.006 1.069 4.697-.947 3.695.352ZM405.592 128.701l-.027 10.45-2.233-.447.027-10.463 2.233.46Z" fill="#222532"/><path d="m407.863 129.379-.027 10.462-2.274-.69.028-10.449 2.273.677ZM682.933 127.944l-.027 10.463-1.218 2.463.027-10.463 1.218-2.463ZM681.711 130.407l-.027 10.463-1.516.122.027-10.463 1.516-.122Z" fill="#222532"/><path d="m703.208 119.199 2.531 2.708.65 1.922-1.435 1.448-3.817.528-2.801-1.584-2.45.352-.528 1.881-1.354.894-2.017-1.002 1.354-2.436 2.355-1.706.217-1.976-2.829.176-.948 1.949-2.125.731-2.138-.826-2.91.569-3.14-1.814-2.532.352.136 2.409 2.098 1.503 1.502 2.707-1.232 2.45-1.515.122-1.692-1.354.744-2.639-.866-1.191-1.679-2.843-2.043-2.125-2.139-1.597-2.22.826-4.575-1.246 1.056-1.353-4.06-1.015-2.044-1.99c.176-.095 3.356-1.827 4.399-1.543 1.042.284.893-.176.879-.203h3.181l3.1 2.22-.88 1.245 3.005 1.705 2.138-.379 3.114-1.705 2.395-.799 2.91 2.017 2.626-1.529-.149.528 3.763 1.042 1.8.893 3.073.244 2.842 1.218 4.25.216ZM680.197 130.529l-.027 10.463-1.691-1.381.027-10.463 1.691 1.381ZM778.541 131.206l-.027 10.449-3.221-2.613.027-10.449 3.221 2.613ZM712.504 131.598l-.027 10.462-.555-2.246.027-10.463.555 2.247ZM386.967 128.201l-.04 10.449-1.665 2.666.027-10.449 1.678-2.666ZM715.728 131.909l-.027 10.449-2.111 2.423.027-10.463 2.111-2.409ZM695.396 132.478l-.027 10.462-1.408 2.017.027-10.449 1.408-2.03ZM783.808 134.955l-.027 10.463-5.265-3.763.027-10.449 5.265 3.749Z" fill="#222532"/><path d="m385.29 130.867-.027 10.449-2.992 3.181.041-10.463 2.978-3.167ZM684.544 135.956l-.027 10.463-2.017-3.6.027-10.45 2.017 3.587ZM395.74 135.361l-.041 10.463-1.57.392.027-10.449 1.584-.406Z" fill="#222532"/><path d="m394.156 135.767-.041 10.449.027-10.449h.014ZM713.611 134.319l-.027 10.462-5.211 2.586.027-10.463 5.211-2.585ZM394.141 135.767l-.027 10.449-2.815.704.04-10.449 2.802-.704ZM396.687 136.796l-.027 10.462-.961-1.434.041-10.463.947 1.435ZM718.485 135.618l-.027 10.463-2.45 2.166.027-10.463 2.45-2.166ZM684.704 137.892l-.027 10.449-1.394-.961.027-10.449 1.394.961ZM377.17 137.269l-.041 10.463-1.34-2.179.041-10.449 1.34 2.165ZM705.805 138.434l-.027 10.449-2.274-.515.027-10.449 2.274.515ZM786.351 139.083l-.041 10.463-2.531-4.128.027-10.463 2.545 4.128Z" fill="#222532"/><path d="m703.533 137.919-.027 10.449-.934 1.652.027-10.45.934-1.651ZM391.342 136.47l-.04 10.45-3.208 2.382.027-10.449 3.221-2.383ZM707.645 140.328l-.027 10.449-1.841-1.894.027-10.45 1.841 1.895ZM658.501 138.298l-.027 10.449-1.245 2.193.027-10.463 1.245-2.179ZM388.117 138.853l-.027 10.449-4.981.921.027-10.463 4.981-.907ZM378.871 141.032l-.041 10.45-1.705-3.75.041-10.462 1.705 3.762Z" fill="#222532"/><path d="m383.139 139.76-.027 10.463-2.274 1.38.04-10.463 2.261-1.38Z" fill="#222532"/><path d="m384.817 136.471 4.237-.447 5.089-.257-2.802.704-3.221 2.382-4.981.907-2.26 1.38-2.003-.108-1.706-3.763-1.34-2.165 1.489-2.41 2.206-2.72 4.48-2.937 1.868-2.112 2.816-1.719 3.207.217-1.624 1.665-3.302 3.113-1.679 2.666-2.978 3.167 2.504 2.437Z" fill="#222532"/><path d="m380.884 141.141-.041 10.462-2.003-.122.04-10.449 2.004.109ZM720.626 142.48l-.027 10.45h-2.572l.027-10.45h2.572ZM726.809 141.1l-.027 10.449-.677 1.827.028-10.449.676-1.827ZM723.471 143.374l-.027 10.463-2.842-.907.027-10.45 2.842.894Z" fill="#222532"/><path d="m726.133 142.927-.027 10.449-2.667.46.027-10.462 2.667-.447ZM710.595 143.591l-.027 10.449-2.951-3.262.027-10.449 2.951 3.262ZM651.296 143.942l-.027 10.449-4.521.366.027-10.449 4.521-.366Z" fill="#222532"/><path d="m646.777 144.308-.027 10.449-6.172-.839.027-10.449 6.172.839ZM743.104 142.101l-.027 10.45-3.546 2.531.027-10.463 3.546-2.518ZM715.321 144.862l-.027 10.463-4.724-1.286.027-10.449 4.724 1.272ZM716.391 144.497l-.027 10.449-1.069.379.027-10.462 1.069-.366ZM658.848 142.575l-.027 10.463-2.68 2.125.027-10.449 2.68-2.139ZM656.167 144.714l-.027 10.449-4.872-.772.027-10.449 4.872.772Z" fill="#222532"/><path d="m640.606 143.469-.027 10.449-1.679 1.258.027-10.449 1.679-1.258Z" fill="#222532"/><path d="m638.927 144.727-.027 10.45-3.533-.352.041-10.45 3.519.352ZM755.535 145.188l-.041 10.462-1.732-3.857.04-10.449 1.733 3.844ZM602.615 144.943l-.027 10.45-8.879-.217.041-10.463 8.865.23Z" fill="#222532"/><path d="m608.932 145.309-.027 10.463-6.321-.379.027-10.449 6.321.365ZM736.271 146.406l-.027 10.449-.961-1.611.027-10.449.961 1.611ZM630.006 146.541l-.027 10.449-10.977-3.005.027-10.463 10.977 3.019ZM721.179 145.228l-.027 10.463-1.584 1.597.027-10.449 1.584-1.611Z" fill="#222532"/><path d="m719.598 146.839-.027 10.449-3.208-2.342.027-10.449 3.208 2.342ZM735.309 144.795l-.027 10.449-2.057 2.734.027-10.449 2.057-2.734ZM619.029 143.522l-.027 10.463-.379 4.413.027-10.45.379-4.426ZM618.647 147.948l-.027 10.45-3.208.446.027-10.449 3.208-.447Z" fill="#222532"/><path d="m615.442 148.395-.027 10.449-6.511-3.072.027-10.463 6.511 3.086ZM757.062 148.801l-.027 10.449-1.543-3.6.041-10.463 1.529 3.614ZM738.11 149.099l-.027 10.462-2.058-.568.027-10.463 2.058.569ZM739.981 147.339l-.027 10.45-1.868 1.773.027-10.463 1.868-1.76ZM593.748 144.713l-.04 10.463-6.146 4.48.028-10.449 6.158-4.494ZM637.813 149.383l-.027 10.449-7.809-2.842.027-10.449 7.809 2.842ZM640.859 149.653v10.463-10.463a.1.1 0 0 0 0-.068v.068ZM709.28 147.908l-.027 10.449-2.233 2.247.04-10.449 2.22-2.247Z" fill="#222532"/><path d="m707.065 150.155-.041 10.449-2.815-.677.027-10.463 2.829.691ZM680.806 150.263l-.027 10.463-2.193-3.547.027-10.449 2.193 3.533ZM733.253 147.529l-.027 10.449-4.304 3.032.027-10.449 4.304-3.032ZM376.718 150.398l-.04 10.463-1.922-1.204.027-10.463 1.935 1.204Z" fill="#222532"/><path d="m687.125 151.603-.04 10.449-6.308-1.326.027-10.463 6.321 1.34ZM379.159 150.791l-.027 10.449-2.45-.379.04-10.463 2.437.393ZM720.03 152.686l-.027 10.449-.298-.974.027-10.449.298.974ZM733.143 151.305l-.027 10.463-2.274 1.597.04-10.462 2.261-1.598Z" fill="#222532"/><path d="m730.883 152.902-.041 10.463-4.967-.095.027-10.449 4.981.081ZM700.214 152.848l-.027 10.463-1.976-.366.027-10.462 1.976.365ZM704.237 149.464l-.028 10.463-4.02 3.384.028-10.463 4.02-3.384ZM690.389 153.525l-.041 10.463-3.262-1.936.041-10.449 3.262 1.922ZM642.646 154.175l-.027 10.449-4.832-4.791.027-10.45 4.832 4.792Z" fill="#222532"/><path d="m725.904 152.821-.027 10.449-4.656 1.584.04-10.463 4.643-1.57ZM714.534 129.54l1.191 2.369-2.112 2.409-5.211 2.585 3.52-.365 3.167-1.854 3.397.934-2.45 2.165 4.914 2.247 3.383-.406 2.477 1.475-.676 1.828-2.667.446-2.842-.893h-2.572l3.127 2.748-1.584 1.61-3.208-2.341-1.069.365-4.724-1.272-2.951-3.262-1.84-1.895-2.274-.514-.934 1.651 2.775 1.394 1.096 4.182 2.815 2.762-2.22 2.247-2.828-.691-4.02 3.384-1.977-.365-2.734 1.854-5.116-.812-3.262-1.922-6.321-1.34-2.193-3.533 4.751-.216.866-3.154.474-5.468-1.394-.961 1.232-.975-2.017-3.587 3.018-.907 2.207.826 6.009-.474 1.638.663-1.408 2.031 2.071 2.45 3.506-.555 3.113.176 2.775-1.625 2.355-.446 4.697-2.91-.555-2.247 2.585.189Z" fill="#222532"/><path d="m698.238 152.483-.027 10.462-2.734 1.841.027-10.449 2.734-1.854Z" fill="#222532"/><path d="m695.505 154.338-.027 10.449-5.13-.799.04-10.463 5.117.813ZM646.237 155.028l-.041 10.449-3.573-.853.027-10.449 3.587.853Z" fill="#222532"/><path d="m648.009 153.538-.027 10.463-1.787 1.475.041-10.449 1.773-1.489ZM711.609 154.54l-.041 10.463-.216.758.04-10.463.217-.758ZM674.243 155.123l-.027 10.449-2.234.744.028-10.449 2.233-.744ZM721.26 154.392l-.041 10.463-2.463 1.827.027-10.449 2.477-1.841Z" fill="#222532"/><path d="m661.583 156.137-.027 10.463-13.576-2.599.028-10.463 13.575 2.599ZM667.934 156.286l-.027 10.449-6.348-.135.027-10.463 6.348.149Z" fill="#222532"/><path d="m672.007 155.867-.027 10.449-4.074.419.027-10.449 4.074-.419ZM718.784 156.232l-.027 10.449-2.991 1.178.027-10.449 2.991-1.178ZM690.672 155.989l-.027 10.462-1.327 1.841.027-10.449 1.327-1.854Z" fill="#222532"/><path d="m689.345 157.843-.027 10.449-1.759.054.027-10.449 1.759-.054ZM715.794 157.41l-.027 10.449-6.037 2.951.028-10.45 6.036-2.95Z" fill="#222532"/><path d="m687.587 157.897-.027 10.449-.447 2.558.027-10.449.447-2.558ZM709.758 160.36l-.028 10.45-4.453.568.027-10.463 4.454-.555ZM655.102 161.023l-.027 10.463-2.68-.284.027-10.463 2.68.284Z" fill="#222532"/><path d="m652.422 160.739-.027 10.463-2.125.839.027-10.463 2.125-.839ZM650.295 161.579l-.028 10.463-7.173-.961.04-10.45 7.161.948ZM656.022 161.944l-.027 10.449-.921-.907.027-10.463.921.921ZM658.417 161.281l-.027 10.449-.691.799.027-10.463.691-.785Z" fill="#222532"/><path d="m657.727 162.066-.027 10.462-1.706-.135.027-10.449 1.706.122ZM661.289 162.093l-.027 10.463-2.869-.826.027-10.449 2.869.812ZM705.305 160.915l-.027 10.463-3.776 2.396.027-10.449 3.776-2.41Z" fill="#222532"/><path d="m662.693 163.744-.041 10.45-1.394-1.638.027-10.463 1.408 1.651ZM701.526 163.325l-.027 10.449-4.345.65.027-10.45 4.345-.649ZM697.18 163.974l-.027 10.45-1.313.257.027-10.463 1.313-.244ZM676.294 164.218l-.027 10.463-2.396-.122.027-10.463 2.396.122ZM686.762 164.381l-.027 10.449-6.741.216.027-10.449 6.741-.216Z" fill="#222532"/><path d="m680.023 164.597-.027 10.449-3.723-.365.027-10.463 3.723.379ZM692.216 164.096l-.027 10.45-1.638.541.04-10.449 1.625-.542Z" fill="#222532"/><path d="m690.592 164.638-.041 10.449-3.817-.257.027-10.449 3.831.257ZM695.864 164.218l-.027 10.463-3.357.595.041-10.462 3.343-.596Z" fill="#222532"/><path d="m692.532 164.814-.041 10.463-.298-.731.027-10.45.312.718ZM591.295 161.66l-.027 10.449-3.086 2.896.04-10.449 3.073-2.896ZM751.362 165.558l-.027 10.449-3.804-2.748.027-10.463 3.804 2.762ZM668.391 165.531l-.04 10.463-5.699-1.8.041-10.45 5.698 1.787ZM673.652 165.72v10.463c-.406 0-5.008-.189-5.252-.203v-10.449l5.252.189Z" fill="#222532"/><path d="m743.107 142.101-3.546 2.518.42 2.707-1.922 1.787-2.058-.582.217-2.125-.866-1.611-2.058 2.707-4.304 3.018 3.127.149 1.069.609-2.26 1.597-4.981-.081-4.643 1.57-2.477 1.841-2.991 1.178-6.037 2.95-4.453.555-3.83 2.437-4.345.649-1.354.244-3.357.596-.311-.718-1.624.542-3.831-.258-6.767.217-3.722-.379-2.396-.122 2.125 1.543c-.095 0-1.99.122-2.382.081l-5.252-.189-5.698-1.787-1.354-1.651-2.869-.812-.691.785-1.705-.122-.92-.92-2.707-.285-2.126.84-7.16-.948.136-1.353 2.896-.19 2.179-1.259 4.873.285 3.641-.542 5.915.46 1.178-.636 4.683-.23 3.546-.406 1.529.677 3.682.257 2.396.095.663-1.083h2.463l3.777.474.92-.867 2.491-.703.568.324-1.353 1.855h-1.76l-.447 2.558 3.533 2.314 1.069-1.285 7.715-.934 2.153-1.719.825-1.706 2.166.23 3.478-1.353 3.533-1.475-.217.757 1.841-.284 4.061-1.083 2.707-1.245-.298-.974 3.506-1.259 3.072-1.354 4.169-2.355 2.707-2.707 2.788-.609 1.679-1.556 2.802-1.354 2.774 1.705Z" fill="#222532"/><path d="M676.023 165.639v10.463c-.095 0-1.99.108-2.396.081V165.72c.392 0 2.287 0 2.382-.081h.014ZM839.413 165.585l-.027 10.463-6.308 3.884.027-10.449 6.308-3.898ZM563.631 169.334l-.027 10.463-4.792-1.15.028-10.45 4.791 1.137ZM545.887 169.7l-.027 10.449-8.88-.325.028-10.449 8.879.325Z" fill="#222532"/><path d="m558.842 168.197-.027 10.45-1.868 3.099.027-10.463 1.868-3.086ZM550.125 171.338l-.027 10.449-4.237-1.638.027-10.449 4.237 1.638Z" fill="#222532"/><path d="m556.972 171.283-.027 10.463-6.849.04.027-10.449 6.849-.054ZM568.175 171.879v10.462a205.337 205.337 0 0 0-4.548-2.544v-10.463c.149.081 2.802 1.543 4.548 2.545ZM537.008 169.375l-.027 10.449-5.17 2.504.027-10.463 5.17-2.49ZM569.563 172.745v10.449a11.61 11.61 0 0 0-1.354-.852v-10.463c.476.248.929.538 1.354.866ZM809.785 175.953l-.027 10.449-6.781-4.534.04-10.463 6.768 4.548Z" fill="#222532"/><path d="m819.379 173.273-.027 10.463-9.596 2.666.027-10.449 9.596-2.68Z" fill="#222532"/><path d="m823.304 176.914-.027 10.463-3.925-3.641.027-10.463 3.925 3.641Z" fill="#222532"/><path d="m828.026 175.358-.027 10.462-4.724 1.557.027-10.463 4.724-1.556ZM803.012 171.405l-.04 10.463-14.605 5.996.027-10.463 14.618-5.996ZM608.376 177.564l-.04 10.462-5.82-2.274.027-10.462 5.833 2.274ZM613.33 177.888l-.027 10.45-4.967-.312.041-10.462 4.953.324Z" fill="#222532"/><path d="m616.443 175.236-.027 10.462-3.113 2.64.027-10.45 3.113-2.652ZM332.018 177.28l-.028 10.462-.947-1.813.027-10.45.948 1.801Z" fill="#222532"/><path d="m333.906 177.848-.04 10.449-1.882-.555.027-10.463 1.895.569ZM531.836 171.865l-.028 10.463-11.044 6.646.027-10.45 11.045-6.659ZM831.111 179.811l-.027 10.449-3.086-4.44.027-10.462 3.086 4.453ZM599.873 179.635v10.462c-1.516-.338-30.251-6.767-30.346-6.889v-10.463c.109 0 28.83 6.551 30.346 6.89Z" fill="#222532"/><path d="m603.005 177.821-.027 10.449-3.126 1.827.027-10.462 3.126-1.814ZM520.792 178.525l-.027 10.449-6.281 1.367.027-10.449 6.281-1.367ZM743.364 181.963l-.04 10.449-1.394-3.749.027-10.463 1.407 3.763ZM841.984 179.432l-.041 10.463-2.314 3.289.027-10.463 2.328-3.289ZM839.652 182.721l-.027 10.462-8.541-2.923.027-10.449 8.541 2.91ZM788.398 177.401l-.027 10.463-.975 6.903.027-10.449.975-6.917ZM334.26 183.573l-.027 10.449-.366-5.725.041-10.449.352 5.725ZM276.333 181.164l-.027 10.449-2.368 3.046.04-10.45 2.355-3.045Z" fill="#222532"/><path d="m750.985 185.739-.027 10.463-7.634-3.79.041-10.449 7.62 3.776ZM787.42 184.318l-.027 10.449-7.161 3.343.041-10.449 7.147-3.343ZM273.98 184.209l-.041 10.45-3.898 3.465.027-10.45 3.912-3.465ZM352.384 189.962l-.027 10.463-5.806-.582.04-10.45 5.793.569ZM270.064 187.674l-.027 10.45-.637 2.138.041-10.449.623-2.139ZM763.021 191.654l-.027 10.463-12.033-5.915.027-10.463 12.033 5.915ZM356.325 191.275l-.027 10.449-3.939-1.299.027-10.463 3.939 1.313ZM448.918 191.897l-.04 10.45-3.98-.785.027-10.45 3.993.785Z" fill="#222532"/><path d="m444.928 191.112-.027 10.45-.514 2.138.027-10.463.514-2.125ZM536.246 189.083l-.027 10.462-3.221 4.575.041-10.463 3.207-4.574ZM274.273 190.896l-.027 10.463-2.355 2.125.027-10.463 2.355-2.125ZM452.073 193.847l-.027 10.449-3.167-1.949.041-10.449 3.153 1.949ZM780.276 187.661l-.041 10.449-7.458 7.607.041-10.463 7.458-7.593ZM347.05 192.046l-.041 10.463-3.14 2.206.027-10.462 3.154-2.207ZM357.012 194.632l-.027 10.449-1.651-1.313.027-10.463 1.651 1.327ZM337.289 194.862l-.027 10.449-5.59-2.869.027-10.449 5.59 2.869ZM444.411 193.238l-.028 10.462-2.449 1.963.027-10.449 2.45-1.976ZM343.895 194.253l-.027 10.462-3.411.691.041-10.463 3.397-.69Z" fill="#222532"/><path d="m340.504 194.943-.04 10.463-3.194-.095.027-10.449 3.207.081ZM826.119 136.281l9.421 6.957.162 6.768 3.709 15.579-6.308 3.898 6.118.974 2.558 3.154.203 5.82-2.328 3.289-8.54-2.91-3.086-4.453-4.724 1.557-3.925-3.641-9.597 2.68-6.768-4.548-14.618 5.996-.974 6.916-7.147 3.344-7.458 7.593-5.942 1.529-4.196-.487.339-4.642-12.033-5.915-7.62-3.777-1.408-3.762 2.964-6.051 6.443-6.591-3.803-2.762.69-5.102 1.881-6.903 6.93-1.99-1.529-3.614-1.733-3.844 3.506-2.599 5.076-1.353 2.707-2.139 2.314-.771 3.316 1.258 1.868 2.572 1.462 2.612 6.483-.825 5.821-1.015-2.545-4.129-5.265-3.749-3.222-2.612.082-2.355 1.664-.975 6.66 3.398 3.032.148 5.712.623 8.973 3.736 7.039-.921 7.322 2.802 10.314 1.232Z" fill="#222532"/><path d="m772.817 195.254-.041 10.463-5.928 1.516.027-10.449 5.942-1.53ZM766.873 196.784l-.027 10.449-4.196-.474.027-10.462 4.196.487ZM441.962 195.214l-.027 10.449-5.292.717.027-10.449 5.292-.717ZM350.101 197l-.027 10.45-3.533-2.031.027-10.462 3.533 2.043ZM419.207 197.623l-.027 10.462-1.543-1.204.027-10.463 1.543 1.205Z" fill="#222532"/><path d="m352.563 197.623-.041 10.462-2.45-.636.027-10.449 2.464.623ZM417.667 196.418l-.027 10.463-4.128 1.475.04-10.449 4.115-1.489ZM435.588 198.598l-.027 10.462-1.854-.027.027-10.449 1.854.014Z" fill="#222532"/><path d="m437.413 197.609-.027 10.449-1.827 1.002.027-10.463 1.827-.988ZM354.606 198.408l-.027 10.449-2.058-.771.041-10.463 2.044.785ZM456.541 198.787l-.028 10.463-4.466-4.954.027-10.449 4.467 4.94ZM419.996 198.841l-.027 10.463-.785-1.218.027-10.463.785 1.218ZM276.208 197.068l-.027 10.45-3.587 2.219.027-10.462 3.587-2.207Z" fill="#222532"/><path d="m423.54 200.168-.027 10.462-3.546-1.326.027-10.463 3.546 1.327ZM426.627 199.681l-.027 10.449-3.086.501.027-10.463 3.086-.487ZM414.813 199.247l-.027 10.449-.284 1.056.027-10.449.284-1.056Z" fill="#222532"/><path d="m428.779 200.493-.027 10.449-2.152-.812.027-10.449 2.152.812ZM414.524 200.303l-.027 10.449-3.573.352.027-10.449 3.573-.352ZM433.731 198.584l-.028 10.449-.744 2.274.041-10.463.731-2.26Z" fill="#222532"/><path d="m433 200.844-.041 10.463-4.209-.365.027-10.449 4.223.351ZM402.749 202.509l-.027 10.463-4.48.122.041-10.449 4.466-.136ZM421.561 202.604l-.027 10.463-2.409.108.027-10.463 2.409-.108Z" fill="#222532"/><path d="m404.237 203.619-.027 10.449-1.489-1.096.027-10.463 1.489 1.11ZM323.933 203.876l-.027 10.463-1.191-1.286.027-10.449 1.191 1.272ZM389.677 204.093l-.041 10.462-1.583-.636.027-10.462 1.597.636Z" fill="#222532"/><path d="m393.531 204.377-.027 10.463-3.871-.285.04-10.462 3.858.284ZM398.286 202.644l-.041 10.45-4.737 1.746.027-10.463 4.751-1.733ZM385.665 204.729l-.027 10.463-3.329-.46.027-10.463 3.329.46ZM388.079 203.457l-.027 10.462-2.409 1.273.027-10.463 2.409-1.272ZM413.633 205.149l-.027 10.462-1.665-.446.027-10.463 1.665.447ZM422.783 204.81l-.027 10.463-2.545.406.027-10.463 2.545-.406Z" fill="#222532"/><path d="m382.338 204.269-.027 10.463-1.34.879.027-10.449 1.34-.893ZM408.246 205.311l-.027 10.449-4.006-1.692.027-10.449 4.006 1.692Z" fill="#222532"/><path d="m411.964 204.702-.027 10.463-3.722.595.027-10.449 3.722-.609ZM297.607 204.228l-.04 10.463-1.124.961.027-10.463 1.137-.961ZM447.28 205.731l-.027 10.462-.718-2.003.027-10.463.718 2.004ZM289.027 205.351l-.041 10.463-.595-.528.027-10.462.609.527ZM533.701 197.136l-.027 10.449-7.147 9.15.027-10.449 7.147-9.15ZM420.238 205.216l-.027 10.463-.162.88.04-10.463.149-.88ZM420.089 206.096l-.04 10.463-1.557.162.027-10.449 1.57-.176Z" fill="#222532"/><path d="m418.519 206.272-.028 10.449-2.003-.893.027-10.463 2.004.907ZM230.259 205.947l-.028 10.449-.676-1.637.027-10.463.677 1.651ZM404.981 206.407l-.027 10.45-3.938.351.027-10.462 3.938-.339ZM416.514 205.365l-.028 10.463-1.922 1.719.028-10.463 1.922-1.719Z" fill="#222532"/><path d="m414.593 207.084-.027 10.463-1.625-.785.028-10.449 1.624.771ZM296.699 205.974l-.027 10.463-1.705.92.027-10.462 1.705-.921ZM401.048 206.746l-.027 10.462-.257 1.029.027-10.463.257-1.028ZM321.499 207.883l-.027 10.449-.826-1.503.028-10.449.825 1.503Z" fill="#222532"/><path d="m294.995 206.895-.027 10.462-.298 1.124.027-10.463.298-1.123ZM285.201 208.464l-.027 10.463-.162-.338.027-10.463.162.338ZM349.677 209.033l-.041 10.449-.23-3.6.027-10.449.244 3.6ZM399.217 208.681l-.027 10.463-6.51.717.027-10.449 6.51-.731ZM284.355 209.317v10.45a1.648 1.648 0 0 1-.23-.528v-10.463c.045.192.123.375.23.541ZM225.077 209.195l-.027 10.45-.488-1.124.028-10.463.487 1.137Z" fill="#222532"/><path d="m402.842 209.818-.027 10.449-3.627-1.123.027-10.463 3.627 1.137ZM332.46 209.724l-.027 10.462-2.044.109.027-10.45 2.044-.121ZM294.703 208.018l-.027 10.463-1.76 1.719.027-10.463 1.76-1.719ZM320.644 209.845l-.027 10.463-2.301-1.124.027-10.449 2.301 1.11ZM276.084 203.863l-.027 10.449-3.641 6.389.027-10.463 3.641-6.375ZM380.336 209.994l-.027 10.449-1.502.596.027-10.449 1.502-.596Z" fill="#222532"/><path d="m381.567 210.644-.027 10.463-1.231-.664.027-10.449 1.231.65ZM403.398 210.942l-.027 10.449-.555-1.124.027-10.449.555 1.124ZM392.706 209.412l-.027 10.449-5.902 1.597.027-10.449 5.902-1.597Z" fill="#222532"/><path d="m386.805 211.009-.027 10.449-2.423-.054.028-10.449 2.422.054ZM405.324 210.143l-.041 10.449-.609.988.027-10.462.623-.975ZM333.936 210.969l-.027 10.449-1.475-1.232.027-10.462 1.475 1.245ZM526.556 206.286l-.027 10.449-4.074 5.36.027-10.463 4.074-5.346ZM322.578 211.172l-.027 10.462-1.936-1.326.027-10.463 1.936 1.327ZM330.42 209.845l-.027 10.449-1.272 1.516.027-10.462 1.272-1.503ZM347.853 209.507l-.028 10.463-1.813 1.895.027-10.45 1.814-1.908ZM378.834 210.59l-.027 10.449-2.666.947.027-10.462 2.666-.934ZM381.906 211.551l-.04 10.449-.325-.893.027-10.463.338.907ZM292.938 209.737l-.027 10.463-.677 1.664.027-10.449.677-1.678Z" fill="#222532"/><path d="m292.262 211.415-.028 10.45-.961.081.027-10.463.962-.068ZM383.553 211.808l-.027 10.449-1.665-.257.041-10.449 1.651.257ZM384.38 210.955l-.027 10.449-.826.853.027-10.449.826-.853ZM325.56 211.713l-.041 10.449-2.964-.527.027-10.463 2.978.541ZM282.571 211.876l-.027 10.462-.825-.176.027-10.449.825.163ZM278.998 212.552l-.027 10.463-.338-.758.027-10.449.338.744Z" fill="#222532"/><path d="m291.306 211.483-.027 10.463-1.814 1.205.027-10.45 1.814-1.218ZM289.486 212.701l-.027 10.449-2.748.122.027-10.463 2.748-.108ZM281.749 211.713l-.027 10.449-.88 1.164.027-10.462.88-1.151ZM286.737 212.809l-.027 10.463-.284.244.04-10.45.271-.257ZM346.036 211.415l-.027 10.45-3.343 1.949.027-10.45 3.343-1.949ZM284.492 213.202l-.027 10.449-1.192-.474.028-10.449 1.191.474Z" fill="#222532"/><path d="m280.869 212.864-.027 10.462-1.354.664.027-10.463 1.354-.663ZM272.448 210.238l-.027 10.463-3.966 3.329.027-10.449 3.966-3.343ZM279.511 213.527l-.027 10.462-.839.298.027-10.449.839-.311Z" fill="#222532"/><path d="m278.673 213.838-.027 10.449-.406-.379.041-10.449.392.379ZM283.303 212.728l-.027 10.449-1.151 1.192.027-10.463 1.151-1.178ZM333.558 214.19l-.027 10.463-1.963-2.058.027-10.449 1.963 2.044ZM377.194 213.865l-.027 10.463-1.8.474.027-10.449 1.8-.488ZM335.699 214.501l-.027 10.463-2.139-.311.027-10.463 2.139.311ZM282.152 213.906l-.027 10.462-1.016.596.027-10.463 1.016-.595Z" fill="#222532"/><path d="m281.137 214.501-.027 10.463-1.069-.42.027-10.449 1.069.406ZM407.017 213.974l-.027 10.449-1.611.947.027-10.463 1.611-.933ZM342.695 213.365l-.027 10.449-.176 1.38.027-10.449.176-1.38ZM426.518 215.016l-.027 10.449-.866-1.381.027-10.449.866 1.381ZM405.404 214.907l-.027 10.463-3.127.122.027-10.449 3.127-.136ZM286.468 213.067l-.041 10.449-1.8 1.705.041-10.462 1.8-1.692Z" fill="#222532"/><path d="m296.608 203.267.988.961-1.124.961.23.785-1.705.921-.298 1.136-1.759 1.706-.677 1.678-.961.068-1.8 1.218-2.707.108-.271.258-1.895 1.692h-.65l-.541-.691.88-.514.135-.366-1.191-.473-1.151 1.177-1.015.596-1.069-.406 2.003-1.706.501-.514-.826-.162-.866 1.15-1.353.663-.84.312-.392-.379.717-.907-.338-.745.812-.934.853-.5.108-.582.731-.298 1.705.392h1.219l.27-.609s-.338-.555-.189-.609l1.028-.244-.162-.338.961-1.353.934.311.298-.528 1.069-.325.717-.853-.595-.527 1.583-.921h1.246l.852-.704.515-.46.433 1.029 1.015-.406 2.572-.068Z" fill="#222532"/><path d="m284.667 214.758-.041 10.463-.636.014.027-10.463.65-.014Z" fill="#222532"/><path d="m284.022 214.772-.027 10.463-.542-.69.027-10.463.542.69ZM335.792 215.097l-.027 10.463-.095-.596.027-10.463.095.596ZM375.393 214.352l-.027 10.45-.542.893.027-10.463.542-.88ZM337.769 215.625l-.027 10.463-1.976-.528.027-10.463 1.976.528ZM399.027 215.828 399 226.291l-1.516-1.056.027-10.449 1.516 1.042Z" fill="#222532"/><path d="m402.274 215.043-.028 10.449-3.248.799.027-10.463 3.249-.785ZM322.486 215.719l-.027 10.463-.027-.69.027-10.449.027.676ZM429.184 216.247l-.027 10.463-2.667-1.245.027-10.449 2.667 1.231ZM333.639 215.611l-.027 10.45-1.706.365.027-10.449 1.706-.366ZM342.516 214.745l-.027 10.449-2.26 1.327.027-10.463 2.26-1.313ZM374.856 215.232l-.027 10.463-5.55 1.679.041-10.463 5.536-1.679ZM345.783 216.951l-.027 10.449-.19-2.084.027-10.449.19 2.084ZM268.482 213.581l-.028 10.449-4.899 3.316.027-10.462 4.9-3.303Z" fill="#222532"/><path d="m331.935 215.977-.027 10.449-2.125 1.597.027-10.463 2.125-1.583ZM322.936 217.953l-.027 10.449-3.032-.974.027-10.463 3.032.988ZM369.317 216.911l-.041 10.462-.487 1.259.041-10.463.487-1.258ZM340.26 216.058l-.027 10.463-1.096 2.274.027-10.463 1.096-2.274Z" fill="#222532"/><path d="m339.167 218.332-.027 10.462-1.57-.27.027-10.45 1.57.258ZM395.407 218.67l-.027 10.449-.068-1.732.041-10.449.054 1.732ZM354.335 219.293l-.027 10.463-5.103-.799.027-10.463 5.103.799ZM324.208 219.455l-.027 10.449-1.273-1.502.027-10.449 1.273 1.502ZM344.849 220.335l-.027 10.449-2.517-.974.027-10.449 2.517.974Z" fill="#222532"/><path d="m349.233 218.494-.027 10.463-4.386 1.827.027-10.449 4.386-1.841ZM325.518 221.066l-.041 10.463-1.299-1.624.027-10.45 1.313 1.611ZM327.36 221.269l-.027 10.463-1.854-.203.04-10.463 1.841.203Z" fill="#222532"/><path d="m329.805 217.56-.027 10.463-2.45 3.709.027-10.463 2.45-3.709Z" fill="#222532"/><path d="m345.695 206.326.839 1.746 1.313 1.435-1.814 1.908-3.343 1.949-.176 1.381-2.261 1.313-1.096 2.274-1.57-.258.176-2.449-1.976-.528-.095-.596-2.139-.311-1.962-2.044 2.341-1.178-1.475-1.245-2.044.122-1.272 1.502 1.394 1.584 3.1 2.68-1.706.365-2.125 1.584-2.45 3.709-1.84-.203-1.313-1.611-1.273-1.502-3.032-.988 2.586-1.246-.027-.676.406-1.286 2.693-2.044-2.978-.542-1.935-1.326-2.301-1.11.379-1.746 2.775.893-.826-1.502 1.11-.65 2.152-1.854-1.191-1.272 1.096-1.097 1.218 1.76.623.839 1.611-1.326 2.747 1.042.081 1.408 4.278 1.136 4.182.163 2.22 1.029 2.883-1.665 2.017.433ZM372.175 219.753l-.027 10.463-1.029 1.962.041-10.449 1.015-1.976ZM357.424 222.704l-.041 10.462-3.072-3.41.027-10.463 3.086 3.411Z" fill="#222532"/><path d="m371.16 221.729-.041 10.449-2.342 1.936.027-10.449 2.356-1.936ZM550.751 217.533v10.449c0 2.044-.23 6.958-.243 7.269v-10.449c0-.325.243-5.239.243-7.269ZM207.056 224.666l-.041 10.463-1.015-2.166.027-10.449 1.029 2.152ZM263.839 220.565l-.027 10.463-4.683 4.304.027-10.463 4.683-4.304ZM220.346 225.56v10.463c-.135 0-2.544.825-2.842 1.015v-10.463c.298-.19 2.707-.975 2.842-1.015Z" fill="#222532"/><path d="m223.961 228.226-.04 10.463-3.614-2.667.027-10.462 3.627 2.666ZM259.155 224.869l-.027 10.463-4.765 4.006.027-10.462 4.765-4.007ZM217.501 226.574v10.463c-.298.203-6.768 2.545-7.079 2.707v-10.449c.338-.122 6.767-2.477 7.079-2.707v-.014ZM346.119 230.337l-.041 10.45-.365-1.246.027-10.449.379 1.245ZM227.254 230.595l-.027 10.462-.514-.365.027-10.449.514.352ZM374.599 230.324l-.027 10.463-1.597 1.055.027-10.462 1.597-1.056ZM226.738 230.243l-.027 10.449-1.963 1.164.027-10.463 1.963-1.15Z" fill="#222532"/><path d="m224.775 231.393-.027 10.463-.826-3.167.04-10.463.813 3.167ZM346.188 232.246l-.04 10.463-1.043-.623.028-10.449 1.055.609ZM201.074 232.029l-.027 10.45-1.584.054.027-10.449 1.584-.055ZM347.488 232.517l-.027 10.462-1.313-.27.041-10.463 1.299.271ZM210.414 229.255l-.027 10.449-4.453 3.167.027-10.449 4.453-3.167Z" fill="#222532"/><path d="m348.756 233.735-.04 10.449-1.259-1.204.027-10.463 1.272 1.218ZM201.94 233.505l-.027 10.449-.866-1.475.027-10.45.866 1.476ZM205.963 232.422l-.027 10.449-4.02 1.083.027-10.449 4.02-1.083ZM230.405 233.234l-.04 10.449-3.722.352.027-10.462 3.735-.339ZM373.369 232.909l-.041 10.463-2.125 1.381.027-10.449 2.139-1.395ZM351.113 234.493l-.028 10.449-2.368-.758.04-10.449 2.356.758ZM371.226 234.303l-.027 10.45-1.164.961.027-10.45 1.164-.961Z" fill="#222532"/><path d="m370.064 235.265-.027 10.449-1.353 1.245.027-10.463 1.353-1.231ZM352.859 236.645l-.027 10.449-1.746-2.152.027-10.449 1.746 2.152ZM364.596 237.498l-.027 10.449-1.637.325.027-10.463 1.637-.311Z" fill="#222532"/><path d="m369.781 237.579-.027 10.463-1.367.785.04-10.449 1.354-.799ZM368.422 238.377l-.04 10.45-2.247.027.027-10.45 2.26-.027Z" fill="#222532"/><path d="m366.166 238.404-.028 10.45-1.57-.907.027-10.449 1.571.906ZM356.822 238.147l-.041 10.45-.974.595.027-10.463.988-.582ZM362.955 237.809l-.027 10.463-.135 1.137.027-10.463.135-1.137ZM354.13 239.014l-.027 10.449-1.38-.907.027-10.463 1.38.921Z" fill="#222532"/><path d="m355.834 238.729-.027 10.463-1.705.271.027-10.449 1.705-.285ZM231.37 238.946l-.028 10.463-1.096-3.181.041-10.449 1.083 3.167ZM362.819 238.946l-.027 10.463-2.044.636.027-10.463 2.044-.636ZM358.152 239.88l-.027 10.463-1.34-1.746.041-10.45 1.326 1.733ZM360.523 240.706l-.027 10.462-2.369-.825.027-10.463 2.369.826Z" fill="#222532"/><path d="m360.778 239.582-.027 10.463-.257 1.123.027-10.463.257-1.123ZM369.391 241.585l-.041 10.463-1.11-2.436.027-10.45 1.124 2.423ZM257.886 240.299v10.45a18.857 18.857 0 0 1-2.558 1.488v-10.462c.89-.425 1.745-.918 2.558-1.476ZM255.319 241.775v10.463c-.46.094-3.479 0-3.628 0v-10.463c.149 0 3.168.081 3.628 0ZM243.346 242.411l-.027 10.463-11.979-3.465.027-10.463 11.979 3.465ZM601.177 242.75l-.027 10.462-.433 1.124.027-10.463.433-1.123Z" fill="#222532"/><path d="m276.335 181.164-2.355 3.046-3.912 3.451-.636 2.152 4.846 1.083-2.355 2.125 2.883 1.8 1.353 2.247-3.587 2.206.163 2.572 1.353.338 1.909 1.679-3.546 6.375-3.966 3.316-4.9 3.303.257 3.681-4.683 4.304-4.751 4.061 1.679 2.396.541 3.519 1.259 5.509a19.11 19.11 0 0 1-2.558 1.475c-.461.108-3.479 0-3.628 0l-3.736 1.529-4.615-.934-11.979-3.465-1.083-3.167.122-2.544-3.736.352.582-2.992-.514-.352-1.962 1.151-.813-3.167-3.627-2.707c-.135 0-2.545.825-2.842 1.015-.298.189-6.768 2.558-7.079 2.707l-4.453 3.153-4.061 1.083-.866-1.462h-1.584v-1.258l4.886-3.898 2.707-2.261-1.028-2.152 4.629-4.399 6.253-3.83 4.954-4.643 3.208-.447-.488-1.137 2.193-1.272 3.479-.839-.677-1.651 8.04-4.67 8.974-5.211 5.414-3.032 9.055-4.061 3.032-.717 3.505-.893 2.708-2.897 4.859-1.665 1.177.095Z" fill="#222532"/><path d="m251.694 241.802-.027 10.463-3.735 1.529.027-10.462 3.735-1.53Z" fill="#222532"/><path d="m247.961 243.332-.027 10.463-4.616-.921.027-10.463 4.616.921ZM593.027 244.374 593 254.837l-3.303-4.548.041-10.463 3.289 4.548ZM211.105 243.819l-.027 10.449-.433 2.26.027-10.449.433-2.26ZM221.145 245.863l-.028 10.462-2.49 2.288.027-10.463 2.491-2.287ZM188.785 248.448l-.027 10.462-1.178-2.111.027-10.463 1.178 2.112ZM369.819 249.274l-.027 10.462-2.261-2.03.027-10.463 2.261 2.031Z" fill="#222532"/><path d="m372.738 250.465-.027 10.462-2.924-1.191.027-10.463 2.924 1.192ZM219.511 249.273l-.027 10.463-1.38 1.503.04-10.463 1.367-1.503ZM218.142 250.776l-.04 10.463-5.969-1.638.027-10.463 5.982 1.638Z" fill="#222532"/><path d="m212.161 249.138-.027 10.463-.446 2.247.027-10.449.446-2.261ZM591.785 252.82l-.027 10.462-2.139-2.774.027-10.463 2.139 2.775ZM196.285 252.969l-.027 10.449-3.492-.447.027-10.449 3.492.447ZM373.593 253.781l-.027 10.449-.853-3.303.027-10.462.853 3.316Z" fill="#222532"/><path d="m595.776 254.633-.027 10.45-3.993-1.801.027-10.462 3.993 1.813ZM202.673 253.943l-.027 10.449-2.544-.974.027-10.449 2.544.974ZM200.125 252.969l-.027 10.449-.528 1.096.027-10.449.528-1.096Z" fill="#222532"/><path d="m598.631 256.718-.027 10.449-2.856-2.084.027-10.45 2.856 2.085ZM199.601 254.065l-.027 10.449-.609 1.827.027-10.463.609-1.813ZM188.365 255.879l-.027 10.462-3.451.014.027-10.463 3.451-.013ZM220.974 255.324l-.027 10.449-5.468.934.027-10.463 5.468-.92ZM193.011 255.824l-.04 10.45-2.139.46.027-10.463 2.152-.447Z" fill="#222532"/><path d="m190.855 256.271-.027 10.463-2.49-.393.027-10.462 2.49.392ZM176.811 256.894l-.027 10.463-.136-2.058.041-10.463.122 2.058ZM184.917 255.892l-.027 10.463-1.638 1.773.041-10.449 1.624-1.787ZM183.287 257.679l-.04 10.449-.149.176.027-10.463.162-.162ZM201.478 258.153l-.027 10.462-.365-1.461.027-10.45.365 1.449ZM600.326 259.303l-.027 10.449-1.692-2.585.027-10.449 1.692 2.585Z" fill="#222532"/><path d="m183.127 257.841-.027 10.463-1.164.298.04-10.463 1.151-.298ZM198.991 255.879l-.027 10.462-2.991 2.64.027-10.449 2.991-2.653Z" fill="#222532"/><path d="m196.002 258.532-.027 10.449-2.87-1.164.028-10.449 2.869 1.164ZM615.403 259.059l-.027 10.463-1.245 1.029.027-10.463 1.245-1.029ZM219.522 257.99l-.027 10.449-5.143.988.027-10.463 5.143-.974ZM181.977 258.139l-.041 10.463-3.776.974.041-10.449 3.776-.988Z" fill="#222532"/><path d="m178.201 259.127-.041 10.449-1.381-2.22.027-10.462 1.395 2.233ZM580.563 253.821l-.027 10.463-1.3 6.916.041-10.449 1.286-6.93ZM600.542 261.008l-.027 10.45-.216-1.706.027-10.449.216 1.705ZM372.975 260.575l-.027 10.463-2.491-2.396.027-10.449 2.491 2.382ZM214.379 258.965l-.028 10.462-1.367 1.462.027-10.449 1.368-1.475ZM206.625 259.628l-.027 10.449-4.412.934.04-10.449 4.399-.934Z" fill="#222532"/><path d="m209.102 260.981-.027 10.45-2.477-1.354.027-10.449 2.477 1.353ZM213.015 260.44l-.027 10.449-3.912.542.027-10.449 3.912-.542ZM604.739 262.213l-.027 10.463-4.196-1.218.027-10.449 4.196 1.204ZM202.224 260.562l-.041 10.449-2.152 1.353.027-10.449 2.166-1.353Z" fill="#222532"/><path d="m608.095 263.215-.027 10.449-3.357-.988.027-10.463 3.357 1.002Z" fill="#222532"/><path d="m600.326 241.342.852 1.407-.433 1.124 2.166 1.042 2.558 5.374 6.294 3.465 3.641 5.305-1.245 1.029.365 1.421-3.289 1.909-3.14-.203-3.357-1.002-4.196-1.205-.216-1.705-1.692-2.585-2.856-2.085-3.993-1.813-2.139-2.775 2.41-2.057.974-3.614-3.289-4.548.718-2.071 2.422.853 2.68 1.502 4.765 1.232Z" fill="#222532"/><path d="m611.238 263.418-.041 10.462-3.127-.216.027-10.449 3.141.203Z" fill="#222532"/><path d="m614.523 261.509-.027 10.463-3.303 1.908.041-10.462 3.289-1.909ZM191.302 258.87l-.027 10.463-2.517 3.695.027-10.449 2.517-3.709ZM220.488 262.7l-.041 10.45-.988-3.154.027-10.463 1.002 3.167Z" fill="#222532"/><path d="m219.875 244.292 1.272 1.571-2.491 2.287.853 1.123-1.367 1.503-5.983-1.638-.446 2.26 3.587.312 3.275.934 2.396 2.68-5.468.92 3.654.46.366 1.286-5.144.975-1.367 1.475-3.912.541-2.476-1.353-4.399.934-2.166 1.353-2.098 2.288-2.937-.122.433-2.802 3.79-1.841 2.233-1.285-.365-1.449 1.556-2.761-2.544-.974-.528 1.096-.609 1.814-2.992 2.653-2.869-1.165 1.299-2.815 1.855-1.583-3.492-.447.216 3.302-2.152.447-2.491-.392-3.451.013-1.624 1.787-.163.162-1.15.298-3.776.988-1.395-2.233-.121-2.058.433-1.881 2.436-1.773 2.382-.582.474.853 6.375-3.005-1.177-2.112 4.304-1.989 2.287.419 4.02-.176 2.897-1.448 3.099.325 2.301-1.692 4.589 2.044-.433 2.26 3.086-.812 6.118-.975Z" fill="#222532"/><path d="m200.063 261.916-.028 10.449-2.097 2.301.027-10.463 2.098-2.287ZM197.964 264.203l-.027 10.462-2.937-.121.027-10.463 2.937.122ZM475.407 265.069l-.027 10.449-4.534-.297.04-10.463 4.521.311ZM579.276 260.751l-.041 10.45-.108 4.656.027-10.45.122-4.656ZM168.468 264.243l-.027 10.463-2.91-1.583.027-10.45 2.91 1.57ZM374.599 265.015l-.04 10.463-2.112-2.437.027-10.462 2.125 2.436ZM188.783 262.579l-.027 10.449-.027 2.369.027-10.463.027-2.355Z" fill="#222532"/><path d="m470.887 264.758-.041 10.463-3.789 2.571.027-10.449 3.803-2.585ZM478.805 268.115l-.027 10.449-3.397-3.046.027-10.449 3.397 3.046ZM464.104 268.345l-.027 10.449-6.524-1.313.04-10.463 6.511 1.327ZM467.083 267.343l-.027 10.449-2.978 1.002.027-10.449 2.978-1.002ZM156.938 265.529l-.027 10.45-3.587 3.194.027-10.463 3.587-3.181Z" fill="#222532"/><path d="m457.598 267.018-.04 10.463-6.876 3.912.027-10.463 6.889-3.912ZM167.739 270.483l-.027 10.463-2.003-2.423.027-10.449 2.003 2.409ZM480.912 271.715l-.027 10.463-2.112-3.614.027-10.449 2.112 3.6ZM378.75 272.594l-.027 10.463-5.008-4.602.027-10.463 5.008 4.602ZM488.087 273.217l-.027 10.449-7.173-1.489.027-10.462 7.173 1.502ZM381.824 272.974l-.027 10.462-3.072-.379.027-10.462 3.072.379ZM184.929 272.622l-.027 10.449-3.099-2.369.027-10.449 3.099 2.369Z" fill="#222532"/><path d="m191.041 267.83-.027 10.463-6.118 4.778.028-10.449 6.117-4.792ZM498.608 273.691l-.027 10.463-10.517-.488.028-10.449 10.516.474ZM261.132 271.444l-.027 10.45-.23 2.395.027-10.449.23-2.396ZM260.898 273.84l-.027 10.449h-7.525l.027-10.462 7.525.013ZM200.276 274.043l-.027 10.463-4.128-3.425.027-10.462 4.128 3.424ZM384.017 274.72l-.027 10.449-2.193-1.733.027-10.462 2.193 1.746ZM181.827 270.253l-.027 10.449-1.652 4.047.041-10.449 1.638-4.047ZM591.149 271.755l-.027 10.45-3.587 4.006.027-10.449 3.587-4.007ZM242.44 270.646l-.028 10.449-2.869 4.169.027-10.45 2.87-4.168ZM450.705 270.93l-.027 10.463-1.326 4.507.027-10.463 1.326-4.507ZM387.415 275.572l-.041 10.463-3.384-.866.027-10.449 3.398.852Z" fill="#222532"/><path d="m507.836 276.263-.027 10.449-9.231-2.558.027-10.463 9.231 2.572ZM159.766 272.107l-.027 10.45-1.259 3.316.028-10.449 1.258-3.317ZM253.376 273.827l-.027 10.462-3.398 1.895.041-10.449 3.384-1.908ZM244.711 276.181l-.027 10.463-2.274-5.549.027-10.449 2.274 5.535ZM449.377 275.437l-.027 10.463-1.557 1.827.027-10.463 1.557-1.827Z" fill="#222532"/><path d="m158.511 275.424-.027 10.449-2.531 1.895.027-10.463 2.531-1.881ZM155.977 277.305l-.028 10.463-5.197.379.027-10.463 5.198-.379ZM180.188 274.3l-.041 10.449-2.667 3.858.028-10.449 2.68-3.858ZM247.354 278.888l-.027 10.463-2.639-2.707.027-10.463 2.639 2.707ZM249.997 275.734l-.041 10.45-2.626 3.167.027-10.463 2.64-3.154ZM203.362 278.875l-.028 10.463-5.563-1.57.028-10.449 5.563 1.556ZM447.818 277.265l-.027 10.462-7.729 2.328.028-10.462 7.728-2.328ZM239.774 277.657l-.027 10.449-1.882 2.003.041-10.463 1.868-1.989ZM517.364 281.487l-.027 10.463-9.528-5.238.027-10.449 9.528 5.224ZM150.776 277.684l-.027 10.463-1.61 3.018.027-10.449 1.61-3.032ZM393.097 281.663l-.028 10.463-5.698-6.091.041-10.462 5.685 6.09Z" fill="#222532"/><path d="m440.095 279.592-.027 10.463-.65 2.626.027-10.463.65-2.626ZM149.168 280.716l-.027 10.449-.5.947.04-10.462.487-.934ZM395.062 282.719l-.041 10.463-1.949-1.056.027-10.463 1.963 1.056ZM177.511 278.158l-.027 10.449-3.357 4.331.027-10.449 3.357-4.331ZM126.765 282.936l-.027 10.462-.392-1.57.027-10.449.392 1.557ZM148.679 281.65l-.041 10.462-3.167 1.814.027-10.463 3.181-1.813ZM134.684 283.639l-.028 10.45-2.301-.447.028-10.463 2.301.46Z" fill="#222532"/><path d="m397.079 284.654-.027 10.449-2.031-1.922.041-10.462 2.017 1.935ZM517.628 284.993l-.027 10.463-.257-3.506.027-10.463.257 3.506ZM203.512 284.167l-.027 10.449-.149-5.278.027-10.463.149 5.292ZM401.479 285.291l-.027 10.449-4.399-.636.027-10.45 4.399.637Z" fill="#222532"/><path d="m410.384 283.829-.027 10.449-8.906 1.462.027-10.449 8.906-1.462ZM439.445 282.218l-.027 10.463-3.451 3.181.027-10.45 3.451-3.194Z" fill="#222532"/><path d="m415.661 285.521-.04 10.463-5.266-1.706.028-10.449 5.278 1.692ZM419.981 285.575l-.027 10.449-4.331-.041.041-10.462 4.317.054Z" fill="#222532"/><path d="m435.992 285.412-.027 10.45-16.012.162.027-10.449 16.012-.163ZM132.384 283.179l-.027 10.463-.839 1.624.04-10.463.826-1.624ZM145.501 283.464l-.027 10.462-3.37 1.922.027-10.462 3.37-1.922ZM142.127 285.386l-.027 10.462-4.182 1.327.027-10.449 4.182-1.34ZM137.944 286.725l-.027 10.45-3.735-.447.04-10.463 3.722.46Z" fill="#222532"/><path d="m131.562 284.804-.041 10.462-1.57 1.963.027-10.463 1.584-1.962Z" fill="#222532"/><path d="m129.978 286.766-.027 10.463-2.152 1.908.027-10.463 2.152-1.908ZM127.821 288.674l-.027 10.463-1.028-.649.027-10.45 1.028.636ZM174.151 282.489l-.027 10.449-1.651 6.416.04-10.463 1.638-6.402Z" fill="#222532"/><path d="m126.793 288.038-.027 10.45-4.02.758.027-10.45 4.02-.758Z" fill="#222532"/><path d="m156.936 265.529-3.586 3.181 2.206 1.272.054 2.288 4.155-.163-1.259 3.317-2.531 1.881-5.197.379-1.611 3.032-.487.934-3.181 1.813-3.37 1.923-4.183 1.339-3.722-.46.46-2.626-2.301-.46-.825 1.625-1.584 1.962-2.152 1.909-1.029-.637-4.02.758 1.083-2.828 2.91-3.032-.392-1.557 1.57-2.125 5.346-2.585 3.465-.596.812.352 3.75-1.015 5.833-2.531 4.196-3.858 1.435-2.991 4.155-.501ZM526.452 291.449l-.027 10.463-8.825-6.456.027-10.463 8.825 6.456ZM204.624 291.151l-.027 10.45-4.697-4.453.027-10.45 4.697 4.453ZM246.429 283.044l-.04 10.449-5.225 8.243.027-10.463 5.238-8.229ZM239.162 291.991l-.027 10.462-3.289-3.614.04-10.462 3.276 3.614Z" fill="#222532"/><path d="m241.194 291.273-.027 10.463-2.03.717.027-10.462 2.03-.718ZM540.771 294.373l-.027 10.449-14.32-2.91.027-10.463 14.32 2.924Z" fill="#222532"/><path d="m544.681 294.481-.027 10.463-3.912-.122.027-10.449 3.912.108ZM596.782 292.315l-.041 10.463-1.624 4.413.027-10.45 1.638-4.426ZM235.886 288.377l-.041 10.462-2.761 7.932.027-10.463 2.775-7.931ZM550.529 297.743l-.027 10.449-5.848-3.248.027-10.463 5.848 3.262ZM595.14 296.741l-.027 10.45-5.82 2.585.027-10.449 5.82-2.586Z" fill="#222532"/><path d="m557.931 300.288-.027 10.449-7.404-2.545.027-10.449 7.404 2.545ZM589.321 299.327l-.027 10.449-3.587 3.966.027-10.463 3.587-3.952ZM573.429 303.333l-.04 10.449-15.485-3.045.027-10.449 15.498 3.045Z" fill="#222532"/><path d="m575.39 305.472-.027 10.449-1.976-2.139.04-10.449 1.963 2.139ZM585.733 303.279l-.027 10.463-4.128 2.964.027-10.463 4.128-2.964Z" fill="#222532"/><path d="m585.731 303.279-4.061 2.964-6.212-.771-1.963-2.139-15.498-3.045-7.404-2.545-5.847-3.262-3.911-.108-14.321-2.924-8.825-6.456-.257-3.506-9.475-5.224-9.231-2.572-10.516-.474-7.323-1.462-2.111-3.6-3.303-3.086-4.534-.298-3.79 2.572-2.978 1.002-6.51-1.354-6.89 3.912-1.353 4.507-1.557 1.827-7.729 2.328-.649 2.626-3.452 3.194-16.012.163h-4.318l-5.278-1.692-8.934 1.435-4.412-.637-2.017-1.935-1.963-1.056-5.684-6.091-3.398-.852-2.192-1.746-3.073-.379-5.008-4.602.853-2.978-2.125-2.437.501-2.003-2.491-2.355 3.113-4.412-.839-3.316-2.937-1.192-2.261-2.03 1.828-5.658-1.124-2.422 2.707-1.164 2.166-1.774 2.802-.595 1.949-3.086 2.152-3.438 3.993-2.924 2.544-1.123 1.895-2.139 3.398-1.258.88-2.504 2.707-.488v-1.732l2.571.311 1.57 1.543 3.005 1.096.298 2.518 2.166.217 5.102-.664 1.652-1.922 4.466-1.042 3.533 1.029 2.558-.501 2.707-1.272 3.479-.325.758-1.679-2.707-1.231-.867-1.354 3.614-3.316 2.707-.122 3.195-1.489 2.707.298 9.366-3.275-.704-2.004 2.707-2.152h3.533l3.776-2.788-4.466-4.94-3.276-2.004-3.979-.785-.514 2.125-2.45 1.977-5.293.717.745 1.665-1.827 1.001h-1.855l-.731 2.261-4.223-.352-2.152-.812-3.086.487-3.546-1.353-.785-1.219-1.543-1.204-4.128 1.489 1.272 1.353-.284 1.056-3.574.338 1.909.596 5.076-.122 3.167-.298.46 1.787-2.409.108.744 1.056 2.883 1.042-2.544.406-.149.88-1.57.176-2.004-.907-1.949 1.719-1.624-.771.663-1.165-1.665-.446-3.722.609-4.06-1.692-1.489-1.11-4.467.135-4.751 1.733-3.857-.284-1.597-.636-2.41 1.272-3.329-.46-1.354.893 1.029.582 1.029 1.083 4.656-.609 1.637 1.123 4.061-.758 2.545-1.353.419 1.258 2.247-.365 4.778-1.259 1.354.623.23.934-3.858.365-.257 1.029 2.342-.338 1.353.324.893 2.383-.622.974.122 1.719 2.192 1.137-1.61.934-3.127.135-3.249.785-1.515-1.042.663-.893 2.896-.704 1.178-1.191 1.15-1.056-.555-1.123-3.627-1.137-6.51.731-5.902 1.597h-2.423l-.825.853-1.665-.258-.325-.906-1.232-.65-1.502.595-2.707.934 1.042 2.342-1.814.487-.541.88-5.536 1.678-.487 1.259 3.343 1.584-1.015 1.976-2.355 1.935 1.516.731.176 2.599 2.287.122.623.947.121 1.164 1.07 1.097-1.597 1.056.365 1.529-2.139 1.354-1.164.947-1.353 1.245 1.069 1.097-1.353.785h-2.261l-1.57-.907-1.638.311-.135 1.137-2.044.636-.243 1.124-2.383-.826-1.353-1.733-.988.582-1.706.285-1.353-.921.108-1.448-1.746-2.152-2.355-.758-1.272-1.218-1.354-.271-1.056-.609.988-1.354-.378-1.245 3.722-.92 4.967-2.599 2.978-2.869-3.073-3.411-5.102-.799-4.332 1.854-2.517-.974 3.451-2.409-.243-2.031 3.695-3.153.392-2.707-.243-3.601.852-3.424.894-2.03 3.424-1.571-2.044-.785-2.463-.622-3.533-2.044 2.179-2.315 4.061.217 1.638 2.206 2.531-.433-1.652-1.353.961-2.031-3.938-1.353-5.793-.569.46 2.707-3.154 2.207-3.411.69-3.194-.081-5.59-2.87.068-2.707 2.49-5.739-.352-5.725-1.895-.569-.947-1.813 3.492-4.846 5.536-5.062 5.603-4.981 7.77-1.8 3.776-1.07 3.56-1.624 12.547-4.358 2.368.812 1.571 1.353 1.488-1.353.379-1.787-2.436-.392-1.935-1.205 2.192-1.272 4.277-.799.366 1.53 3.099-.609.515-1.476 1.962-3.722 1.354-1.665 2.084-1.177 1.557.798 4.48-4.06-.947-1.435-1.584.406 1.015-1.353 2.707-.42 3.208-2.355 6.768-2.274-2.274-.677-2.234-.46.19-1.773-3.398-1.354 2.071-1.935 3.195-.88 2.964.217 2.328.121V121l-3.208-.325 2.057-.947 2.992.148 1.353-.081-.406-1.8 3.208-.947-1.475-.406 1.962-2.707.298-1.354-.122-1.895 4.941-4.683 2.639-3.628 4.061-.676 2.517-2.477c0-.109.975-2.247 1.042-2.613a13.476 13.476 0 0 1 2.45-2.03l5.915-1.665 2.91-2.571 9.191-2.41 1.8 1.49 5.414-1.233 6.118-4.06 4.372-.555 5.522-2.612-1.949-.772.609-1.001 4.873-1.26.23-1.055 3.343-1.245 5.834-.61 3.627-.69 3.465-.798-.23-1.462 3.465-1.624 3.912-2.274-.69-1.07-1.273-1.123 4.778-1.692 5.644-2.856 7.147-4.06 4.061-.704 4.656-1.205 2.626-3.018 9.028-4.06 3.803.46 11.681-5.915-1.137-1.043 1.191-1.353h4.209l-.541-1.597 13.535-6.768 19.274-6.767 5.658-1.476 3.289-2.26L608.199 20l.894 1.354 2.883.189 1.489.853-6.267 3.018-4.467.677-3.059 1.232-2.003 1.001 2.707 1.584 8.297-2.18.433 1.557-2.598.975-.772 3.573 1.963 2.585-4.981 1.07-1.597 3.316-3.844 1.258.879 1.097 3.655-.257 6.632.203 6.917.88 4.94 1.732-.298 1.543 5.414 3.1-.514 1.813-1.881-.149-1.828-1.962-16.905.88-6.836-.217-3.004-1.354v-1.096l-4.061-2.22-.217-2.274-3.072-.324.893 2.801-1.773.758-3.154-.907-4.534 1.909 2.044 2.369 4.507.406-4.06 2.87-4.359 1.055-2.03 3.059-5.279 1.746-5.346 3.736 3.654 3.18 1.002 3.276 3.005-2.044 4.06-.081 2.274-1.354 7.526-1.461-1.489-.799-1.11-.61 3.695-.405h9.895l10.043-.311 3.735.31-4.426 1.11 2.356 1.124 3.275-.365 6.483-.38v.894l-1.922.866.176 1.354-5.414-.19-4.466-1.218c-.244 0-5.063-.744-5.306-.609-.244.135-5.929-.555-6.24-.596l-.162 1.354 8.486 1.435 5.414 2.937 4.941 4.155-1.313 4.318-3.343.203-.136 2.111 2.477 1.354 1.895 1.002-1.096 1.76 1.989.554 4.927-.771 6.687.406 5.414 1.583-1.53 1.49.501 2.219-3.357 1.773-5.102-2.341-3.871-1.354-1.868 2.003-3.1-.135-3.275-1.827-2.843.148-3.181 2.707-.798 2.504 2.409-.527 4.372-1.056 2.572.541-1.435 1.164.338 3.844 2.328-.812 4.914.812 5.13-.379c.216 0 4.358.515 4.71.718a14.11 14.11 0 0 0 2.829 1.096c.514 0 2.233.311 2.328.325l2.937 2.071 1.773 2.707 4.196 1.353.068 2.153-.109 3.722-.758 3.722-1.61 3.208-4.481 2.247 2.518 1.461-.785 1.462-2.328.244-3.465-.095-2.369 1.8.623 4.061 3.465-.379 4.507.934 5.577-.487 7.512 1.015 6.564 3.113 1.584 3.735-1.232 2.153 1.597 2.098-2.707 2.138-4.859-.771-4.534.352-6.172-.84-1.679 1.273-3.519-.352 3.222 3.384c.121.081 2.504 1.637 2.206 1.962 1.507.155 3.027.155 4.534 0l1.8 1.042 3.127.542 2.355-.88 6.592-.433 3.451 1.353 4.223 2.098 6.308.542 1.015 1.055-2.22.745-4.061.42-6.348-.149-13.535-2.599-1.773 1.489-3.587-.853-4.832-4.791-7.81-2.843-10.977-3.018-.379 4.426-3.208.446-6.51-3.086-6.321-.365-8.866-.23-6.158 4.494 1.949 2.328.501 6.009 1.259 4.061-3.073 2.896 6.429 3.181 5.103 3.98 3.411-.352 9.312.947 3.966 2.924-3.113 2.707-4.954-.325-5.834-2.274.461 2.531-3.127 1.814c-1.516-.339-30.238-6.835-30.346-6.89.135 0-.474-.352-1.354-.866-1.746-1.001-4.399-2.463-4.547-2.545l-4.792-1.136-1.868 3.086h-6.849l-4.304-1.489-8.879-.325-5.17 2.49-11.045 6.66-6.281 1.353 4.724 1.273 7.133-1.963 5.279.771 4.602 9.11-3.208 4.575.663 3.478-7.146 9.15-4.061 5.414 3.844 1.205 5.563-2.775 6.064-7.201 4.507 2.139c.406.582 8.121 11.478 8.243 11.654.122.176-.176 7.742-.203 8.121l.69 9.732 3.411 6.686 4.061 1.272 4.724 2.558c.23.136 4.06.785 4.25.813l10.639 4.967 2.246 3.005-1.353 6.916-.108 4.656c.365.149 7.403 3.154 8.121 3.547.203.203 3.735 2.707 3.911 2.801l-3.586 4.061c.148.081 2.91 1.584 3.153 1.733.244.148 3.628 5.969 3.804 6.28l2.26 8.541-1.638 4.426-5.82 2.585-3.519 3.871Z" fill="#222532"/><path d="m581.607 306.243-.027 10.463-6.213-.785.027-10.449 6.213.771ZM234.722 300.734l-.027 10.463-3.099 6.754.027-10.463 3.099-6.754ZM233.775 319.656l-.041 10.463-1.584 4.71.027-10.449 1.598-4.724ZM103.502 333.043l-.027 10.463-7.526.541.027-10.449 7.526-.555ZM64.33 335.046l-.028 10.463-4.52-2.613.026-10.462 4.521 2.612ZM282.006 336.576l-.041 10.449-2.477.609.027-10.463 2.491-.595Z" fill="#222532"/><path d="m106.882 337.347-.027 10.45-3.384-4.291.027-10.463 3.384 4.304ZM231.189 336.373v10.449c-.365.081-7.309 1.556-7.769 1.353v-10.462c.447.162 7.404-1.354 7.769-1.354v.014ZM95.973 333.598l-.027 10.449-7.255 4.656.028-10.449 7.254-4.656ZM279.51 337.171l-.027 10.463-.528 1.706.027-10.45.528-1.719ZM250.724 338.836l-.027 10.463-3.33-1.638.041-10.449 3.316 1.624ZM253.203 339.12l-.04 10.463-2.464-.284.027-10.463 2.477.284ZM115.765 338.755l-.027 10.462-3.722-.406.027-10.449 3.722.393ZM247.406 337.212l-.041 10.449-4.277 2.166.04-10.463 4.278-2.152ZM111.135 339.066l-.028 10.463-4.25-1.733.027-10.449 4.251 1.719ZM234.191 340.054v10.463a17.857 17.857 0 0 1-2.992-3.695v-10.45a16.657 16.657 0 0 0 2.992 3.682Z" fill="#222532"/><path d="m278.983 338.89-.027 10.449-1.245 1.936.027-10.449 1.245-1.936Z" fill="#222532"/><path d="m277.738 340.826-.027 10.449-3.695-.176.027-10.463 3.695.19ZM269.646 340.812l-.041 10.449-1.962-.866.027-10.449 1.976.866ZM242.411 340.785v10.463c-.379 0-7.431-.461-8.229-.731v-10.463c.785.271 7.85.704 8.216.731h.013Z" fill="#222532"/><path d="m243.129 339.364-.04 10.462-.704 1.422.027-10.463.717-1.421ZM267.671 339.946l-.027 10.449-2.531.975.027-10.463 2.531-.961ZM223.441 337.767v10.463c-.46-.163-4.859 3.275-5.089 3.465v-10.463c.23-.176 4.629-3.614 5.102-3.465h-.013ZM120.093 341.354l-.041 10.449-4.318-2.585.027-10.463 4.332 2.599ZM64.427 342.842l-.027 10.463-.664-1.462.027-10.449.664 1.448ZM265.138 340.907l-.027 10.463-1.759 2.626.027-10.45 1.759-2.639ZM88.716 338.254l-.028 10.449-7.647 5.184.027-10.449 7.648-5.184Z" fill="#222532"/><path d="m115.978 342.585-.027 10.463-1.935 1.11.027-10.449 1.935-1.124Z" fill="#222532"/><path d="m114.044 343.709-.027 10.449-4.345-1.502.027-10.463 4.345 1.516ZM258.882 343.912l-.027 10.449-3.533.203.041-10.449 3.519-.203ZM274.056 341.069v10.45c0 .351 0 .798-.285.92-.284.122-3.708 2.409-3.884 2.518v-10.45c.176-.122 3.505-2.328 3.884-2.517.379-.19.285-.582.285-.921Z" fill="#222532"/><path d="m269.889 344.507-.027 10.45-3.262-1.259.04-10.449 3.249 1.258ZM255.368 344.115l-.041 10.449-5.684.839.04-10.463 5.685-.825ZM63.763 341.394l-.027 10.449-5.238 3.289.04-10.462 5.225-3.276ZM58.536 344.67l-.041 10.463-3.98-1.016.028-10.462 3.993 1.015ZM260.145 345.428l-.04 10.449-1.246-1.516.027-10.449 1.259 1.516Z" fill="#222532"/><path d="m263.379 343.547-.027 10.449-3.248 1.881.04-10.449 3.235-1.881ZM124.169 345.089l-.027 10.463-5.048-1.665.027-10.449 5.048 1.651ZM127.946 345.779l-.027 10.463-3.776-.69.027-10.463 3.776.69ZM81.073 343.438l-.027 10.449-3.343 2.45.04-10.463 3.33-2.436ZM217.034 346.47l-.027 10.463-3.601-.758.027-10.449 3.601.744Z" fill="#222532"/><path d="m218.711 343.966-.04 10.462-1.665 2.504.027-10.462 1.678-2.504ZM249.68 344.94l-.041 10.463-4.006 1.909.027-10.45 4.02-1.922ZM243.549 346.835l-.027 10.463-.338 1.177.027-10.462.338-1.178ZM213.435 345.726l-.027 10.449-5.441 2.599.027-10.463 5.441-2.585Z" fill="#222532"/><path d="m245.658 349.38-.027 10.449-2.111-2.531.027-10.463 2.111 2.545ZM247.013 348.581l-.027 10.463-1.353.785.027-10.449 1.353-.799ZM243.212 348.013l-.027 10.463-1.015 2.639.027-10.449 1.015-2.653ZM242.194 350.666l-.027 10.449-1.882-.406.027-10.449 1.882.406Z" fill="#222532"/><path d="m280.567 335.114 1.354 1.462-2.477.595-.528 1.719-1.245 1.936-3.695-.19c0 .068.121 1.151-.271 1.354-.393.203-3.709 2.396-3.885 2.517l-3.248-1.258 3.005-2.437-1.976-.866-2.532.961-1.759 2.707-3.235 1.882-1.259-1.516-3.519.203-5.685.825-4.06 1.922 1.353 1.719-1.353.785-2.112-2.531-.338 1.178-1.015 2.707-1.868-.406.433-2.464 1.177-2.138 2.626-1.448 2.41-1.07 2.707-.446 4.967-1.07 6.159-1.123 4.886-.514 2.152-1.354 2.477-.135.825-.988 3.181-2.207 3.574.393 2.774-.704ZM130.882 352.249l-.027 10.463-2.937-6.47.027-10.462 2.937 6.469ZM207.993 348.311l-.027 10.463-2.571 4.71.027-10.449 2.571-4.724ZM79.347 350.26v10.462c-.257.217-5.143 4.426-5.481 4.765-.339.338-3.127.067-3.263 0v-10.45c.15 0 2.938.285 3.263 0 .324-.284 5.224-4.547 5.414-4.777h.067ZM67.254 352.737l-.027 10.462-3.41 2.816.04-10.45 3.397-2.828ZM63.854 355.566l-.04 10.449-1.638-1.8.04-10.45 1.638 1.801Z" fill="#222532"/><path d="m67.522 355.863-.027 10.463-.27-3.127.027-10.462.27 3.126ZM62.219 353.765l-.04 10.45-1.693 2.314.027-10.463 1.706-2.301ZM56.79 356.202l-.027 10.463-2.613-3.614.041-10.45 2.599 3.601Z" fill="#222532"/><path d="m60.509 356.066-.027 10.463-3.722.135.027-10.462 3.722-.136ZM282.357 358.259l-.027 10.449-2.18-2.409.027-10.449 2.18 2.409ZM233.753 360.817l-.041 10.45-3.763-2.329.041-10.449 3.763 2.328ZM133.932 362.347l-.041 10.462-3.032-10.097.027-10.463 3.046 10.098ZM434.129 358.598v10.449a78.296 78.296 0 0 1-6.768 4.737v-10.463a74.263 74.263 0 0 0 6.768-4.737v.014Z" fill="#222532"/><path d="m234.02 364.079-.027 10.463-.284-3.275.041-10.45.27 3.262ZM284.397 362.333l-.028 10.449-.744 2.112.027-10.449.745-2.112Z" fill="#222532"/><path d="m289.986 365.189-.027 10.463-5.59-2.87.027-10.449 5.59 2.856ZM70.596 355.078l-.028 10.45-8.69 12.33.028-10.449 8.69-12.331ZM283.655 364.445l-.027 10.449-3.032 4.331.027-10.463 3.032-4.317ZM280.622 368.763l-.028 10.462-8.053-.067.027-10.463 8.054.068ZM254.258 367.26l-.027 10.463-6.565 1.475.027-10.449 6.565-1.489ZM427.343 363.348l-.027 10.449-3.343 5.915.027-10.449 3.343-5.915ZM143.845 368.992l-.027 10.463-9.935-6.646.04-10.462 9.922 6.645Z" fill="#222532"/><path d="m272.57 368.695-.028 10.463-12.046.893.027-10.463 12.047-.893ZM260.522 369.588l-.027 10.463-6.266-2.328.027-10.463 6.266 2.328ZM152.976 369.358l-.027 10.449-9.123-.352.027-10.462 9.123.365Z" fill="#222532"/><path d="m158.183 368.37-.04 10.463-5.198.974.027-10.449 5.211-.988ZM293.265 369.994l-.027 10.463-3.275-4.805.027-10.463 3.275 4.805ZM247.69 368.749l-.027 10.449-7.255 1.421.027-10.462 7.255-1.408ZM61.905 367.409l-.027 10.449-6.673 2.572.027-10.463 6.673-2.558ZM240.435 370.156l-.027 10.463-7.607.853.027-10.463 7.607-.853ZM177.385 370.59l-.027 10.462-4.981 1.083.027-10.463 4.981-1.082Z" fill="#222532"/><path d="m163.243 371.957-.027 10.449-5.075-3.573.04-10.463 5.062 3.587ZM167.672 372.782l-.027 10.45-4.426-.826.027-10.449 4.426.825ZM187.24 372.999l-.027 10.449-9.854-2.396.027-10.462 9.854 2.409ZM194.458 373.094l-.027 10.449-7.214-.095.027-10.449 7.214.095ZM232.831 371.009l-.027 10.463-3.763 2.775.041-10.463 3.749-2.775ZM293.277 375.3l-.041 10.449v-5.292l.027-10.463.014 5.306Z" fill="#222532"/><path d="m201.333 375.909-.041 10.449-6.862-2.815.027-10.449 6.876 2.815ZM229.081 373.784l-.04 10.463-14.334 3.641.027-10.45 14.347-3.654ZM175.019 377.371l-.027 10.449-8-1.529.027-10.463 8 1.543ZM182.707 377.249l-.027 10.463-7.688.108.027-10.449 7.688-.122ZM205.611 378.711l-.027 10.449-4.291-2.802.041-10.449 4.277 2.802Z" fill="#222532"/><path d="m214.734 377.438-.027 10.45-9.123 1.272.027-10.449 9.123-1.273ZM191.726 377.222l-.027 10.449-1.408 1.543.027-10.449 1.408-1.543ZM190.314 378.765l-.028 10.449-7.606-1.502.027-10.463 7.607 1.516ZM299.95 383.651l-.027 10.45-6.687-8.352.041-10.449 6.673 8.351ZM318.819 385.831l-.027 10.449-7.837 1.272.041-10.463 7.823-1.258Z" fill="#222532"/><path d="m310.998 387.089-.041 10.463-11.031-3.452.027-10.449 11.045 3.438ZM333.691 390.148l-.027 10.463-14.875-4.331.027-10.449 14.875 4.317ZM439.336 387.292l-.027 10.463-5.022 3.167.027-10.449 5.022-3.181ZM350.599 391.096l-.027 10.463-16.906-.948.027-10.463 16.906.948ZM367.101 389.539l-.027 10.449-16.5 1.57.027-10.462 16.5-1.557Z" fill="#222532"/><path d="m383.15 398.296-.027 10.45-16.053-8.758.027-10.449 16.053 8.757ZM443.451 394.831l-.027 10.463-5.049 5.509.027-10.463 5.049-5.509Z" fill="#222532"/><path d="m440.676 402.113-.04 10.463-.312 2.883.041-10.463.311-2.883ZM411.348 411.128l-.027 10.462-28.194-12.845.027-10.449 28.194 12.832ZM448.243 408.854l-.027 10.449-1.015 3.424.027-10.449 1.015-3.424Z" fill="#222532"/><path d="m415.609 416.136-.027 10.449-4.264-4.995.027-10.462 4.264 5.008ZM427.723 418.951l-.027 10.463-12.114-2.829.027-10.449 12.114 2.815ZM482.243 417.232l-.04 10.449-.609 4.007.027-10.463.622-3.993Z" fill="#222532"/><path d="m436.234 421.685-.027 10.463-8.514-2.734.027-10.463 8.514 2.734Z" fill="#222532"/><path d="m439.372 424.054-.027 10.449-3.14-2.355.027-10.463 3.14 2.369Z" fill="#222532"/><path d="m406.217 331.026 5.102 4.061 2.707 7.837 15.038 9.867c.257.27 5.198 5.414 5.049 5.82a74.402 74.402 0 0 1-6.768 4.737l-3.303 5.861 6.768 3.871 6.862 8.69 1.76 5.414-5.022 3.181 5.604 2.138 3.533 2.22-5.144 5.617 2.261 1.773-.298 2.883 7.877 3.858-1.015 3.424 6.849-1.15 2.964 1.61 4.277 2.031v3.167l6.836 1.218 9.474-2.504 4.562.65-.609 3.993c-.623.203-12.547 4.06-12.71 4.06-.162 0-14.753.135-15.525.135l-14.009-1.421-3.113-2.382-8.514-2.707-12.181-2.815-4.264-5.008-28.194-12.832-15.971-8.811-16.5 1.556-16.905-.947-14.889-4.318-7.823 1.259-11.045-3.438-6.673-8.365v-5.292l-3.221-4.819-5.59-2.856-.745 2.112-3.14 4.358-8.054-.067-12.046.893-6.267-2.328-6.564 1.489-7.255 1.353-7.607.853-3.641 2.829-14.347 3.654-9.123 1.273-4.331-2.734-6.876-2.816-7.215-.094-9.853-2.505-4.981 1.083 10.178 3.452h4.981l4.156 2.044-1.354 1.543-7.661-1.354h-7.715l-7.999-1.543.649-3.045-4.399-.826-5.062-3.587-5.211.988-9.109-.325-9.921-6.645-3.046-10.098-2.937-6.47-3.776-.69-5.062-1.597.974-2.098-4.331-2.585-3.722-.393 3.938 4.223-1.935 1.124-4.345-1.625 1.435-3.126-4.25-1.719-3.384-4.304-7.526.555-7.254 4.656-7.648 5.292-3.33 2.436 1.598 4.332c-.258.23-5.144 4.426-5.414 4.778-.271.351-3.114.067-3.263 0l-8.69 12.33-6.672 2.558 12.29-14.103-.27-3.127-3.412 2.829-1.624-1.8-1.705 2.301-3.723.135-2.598-3.6 1.962-4.494 8.27-5.265-.663-1.449-5.238 3.317-4.06-1.016 4.06-5.238 5.793-3.37-4.52-2.612L75.902 316.3l11.532-3.357 15.619-6.186 5.414-3.356 11.086-9.475 1.841.325 4.331-3.032 7.85-2.112 3.33-.324 5.184-2.707 3.424-2.708 3.181-1.813.487-.934 2.707-.636 8.473-3.384.934-2.707 1.787-2.707 4.67-.758-2.004-2.409 2.708-3.831-2.938-1.516 1.774-3.343 3.126-3.357 4.372-.419.853 1.245.568 3.33 4.25 1.001c.278-.808.513-1.63.704-2.463 0-.149.311-.339.745-.528l1.164-.298a36.804 36.804 0 0 1 4.209-1.218l3.966 2.247-2.518 3.708v2.355l2.288 2.897-6.118 4.792-3.1-2.369-1.637 4.06-2.708 3.844-3.356 4.345-1.638 6.402 4.737 3.005 5.536-2.707 7.147.149 5.928-1.353 4.318 5.414 4.561-2.166-4.764-4.602 3.587-2.531-.149-5.292-5.563-1.557 2.477-3.275-4.128-3.425 1.664-4.06 6.037-2.396 5.753-1.178 6.266 3.168 4.616-3.425-1.002-3.167 3.682-.542 7.282 4.386 3.939-.677 5.793.542 4.615 1.651 2.545 4.223 5.549-1.354 2.058 2.125 6.185 1.584-.23 2.396h-7.525l-3.384 1.908-2.64 3.154-2.707-2.707-2.274-5.536-2.869 4.169.203 2.842-1.868 1.99.569 4.06 5.617-2.49 2.409 1.773-5.238 8.229-2.03.718-3.262-3.573-2.775 7.931 1.611 4.426-3.1 6.768 1.638 6.998.514 5.184-1.597 4.71.162 7.255 10.626 5.143 2.246-1.123 3.032.067 2.707 2.18 2.18 1.218-2.464-.285-3.316-1.624-4.25 2.206-.704 1.422c-.365 0-7.431-.461-8.216-.731a16.675 16.675 0 0 1-2.991-3.682c-.366.081-7.323 1.557-7.769 1.354-.447-.203-4.873 3.289-5.103 3.465l.379 2.707-1.678 2.504-3.601-.745-5.414 2.586-2.572 4.723 3.411 5.225 6.47 4.643 4.751 3.519 6.375.555 2.707-1.922 4.913-.975-.27-3.262-3.763-2.328 3.384-2.869 4.25-2.626 7.065 9.759 5.008-3.411 8.5-.366 5.577 4.765 8.121 2.26 2.775-4.602 7.728-3.14-2.179-2.409 2.409-6.118 3.357-3.425 9.475.42 14.699-7.093 7.539-1.123 10.693 1.272 4.061-3.817 13.075-1.028 15.227 3.384 6.767-2.274 7.743-.677 9.718-3.817 8.121-.366 6.429-2.828 6.633 2.666Z" fill="#222532"/><path d="m453.386 425.475-.027 10.463-14.009-1.435.027-10.449 14.009 1.421Z" fill="#222532"/><path d="M481.613 421.225v10.463c-.622.203-12.547 4.06-12.723 4.06-.176 0-14.74.149-15.511.149v-10.463c.771 0 15.349 0 15.525-.135.176-.135 12.087-3.912 12.709-4.06v-.014Z" fill="#222532"/><path d="M464.08 238.823c2.67-1.542 6.903-1.61 9.445-.151 3.842 2.204 5.264 8.31 5.346 8.633-.556-.045-11.174-.842-15.039-3.046-2.519-1.458-2.444-3.895.248-5.436Z" fill="#CFCEF0" style="mix-blend-mode:multiply"/><path d="M479.887 247.877a3.143 3.143 0 0 1-2.835 0 .868.868 0 0 1-.589-.82.868.868 0 0 1 .589-.82 3.142 3.142 0 0 1 2.835 0 .86.86 0 0 1 .589.82.866.866 0 0 1-.589.82Z" fill="#FCFCFC"/><path d="m479.082 231.589-3.76-2.196a8.572 8.572 0 0 0 2.757-2.917 8.579 8.579 0 0 0 1.131-3.851 2.736 2.736 0 0 0-1.136-2.504l3.76 2.203a2.715 2.715 0 0 1 1.136 2.497 8.571 8.571 0 0 1-3.888 6.768Z" fill="url(#a)"/><path d="m479.082 231.589-3.76-2.196a8.572 8.572 0 0 0 2.757-2.917 8.579 8.579 0 0 0 1.131-3.851 2.736 2.736 0 0 0-1.136-2.504l3.76 2.203a2.715 2.715 0 0 1 1.136 2.497 8.571 8.571 0 0 1-3.888 6.768Z" fill="url(#b)"/><path d="m476.307 231.867-3.76-2.195a2.766 2.766 0 0 0 2.775-.271l3.76 2.196a2.75 2.75 0 0 1-2.775.27Z" fill="url(#c)"/><path d="m479.055 222.625-3.76-2.203a2.77 2.77 0 0 1 2.782-.271l3.76 2.203a2.743 2.743 0 0 0-2.782.271Z" fill="#CEE1ED"/><path d="m476.311 231.867-3.76-2.196a2.744 2.744 0 0 1-1.143-2.511 8.591 8.591 0 0 1 3.887-6.768l3.76 2.203a8.584 8.584 0 0 0-3.887 6.768 2.733 2.733 0 0 0 1.143 2.504Z" fill="#CEE1ED"/><path d="M479.05 222.626c2.158-1.249 3.918-.249 3.918 2.255a8.576 8.576 0 0 1-3.888 6.768c-2.158 1.241-3.91.241-3.918-2.256a8.577 8.577 0 0 1 3.888-6.767Z" fill="#FCFCFC"/><path d="m479.045 219.144-3.76-2.195c1.925-1.113 3.67-1.211 4.933-.482l3.76 2.196c-1.263-.752-3.008-.624-4.933.481Z" fill="url(#d)"/><path d="M479.044 219.144c3.827-2.203 6.94-.436 6.956 3.963 0 6.625-6.535 20.814-6.881 21.566-.353-.346-6.963-6.94-6.978-13.535-.015-4.429 3.075-9.783 6.903-11.994Zm0 12.452a8.573 8.573 0 0 0 3.887-6.767c0-2.474-1.759-3.474-3.917-2.256a8.582 8.582 0 0 0-3.888 6.768c0 2.474 1.76 3.474 3.918 2.255Z" fill="#FB0"/><path d="m479.119 244.673-3.76-2.203c-.353-.346-6.963-6.933-6.978-13.535 0-4.399 3.075-9.776 6.903-11.964l3.76 2.195c-3.828 2.211-6.918 7.565-6.903 11.964 0 6.625 6.625 13.22 6.978 13.536v.007Z" fill="url(#e)"/><path d="m480.186 223.257-1.135-.654a2.772 2.772 0 0 1 2.782-.271l1.136.655a2.784 2.784 0 0 0-2.783.27Z" fill="#CEE1ED"/><path d="m477.432 232.507-1.135-.662a2.723 2.723 0 0 1-1.136-2.504 8.571 8.571 0 0 1 3.888-6.768l1.135.655a8.589 8.589 0 0 0-3.887 6.767 2.728 2.728 0 0 0 1.135 2.504v.008Z" fill="#CEE1ED"/><path d="M480.183 223.257c2.158-1.241 3.91-.241 3.917 2.256a8.595 8.595 0 0 1-3.887 6.768c-2.158 1.241-3.911.24-3.918-2.256a8.591 8.591 0 0 1 3.888-6.768Z" fill="#FCFCFC"/><path d="M519.08 119.823c2.67-1.542 6.903-1.61 9.445-.151 3.842 2.204 5.264 8.31 5.346 8.633-.556-.045-11.174-.842-15.039-3.046-2.519-1.458-2.444-3.895.248-5.436Z" fill="#CFCEF0" style="mix-blend-mode:multiply"/><path d="M534.887 128.876a3.131 3.131 0 0 1-2.835 0 .862.862 0 0 1-.427-1.324.868.868 0 0 1 .427-.315 3.13 3.13 0 0 1 2.835 0 .86.86 0 0 1 .589.82.861.861 0 0 1-.589.819Z" fill="#FCFCFC"/><path d="m534.082 112.589-3.76-2.196a8.572 8.572 0 0 0 2.757-2.917 8.579 8.579 0 0 0 1.131-3.851 2.736 2.736 0 0 0-1.136-2.504l3.76 2.204a2.715 2.715 0 0 1 1.136 2.496 8.568 8.568 0 0 1-3.888 6.768Z" fill="url(#f)"/><path d="m534.082 112.589-3.76-2.196a8.572 8.572 0 0 0 2.757-2.917 8.579 8.579 0 0 0 1.131-3.851 2.736 2.736 0 0 0-1.136-2.504l3.76 2.204a2.715 2.715 0 0 1 1.136 2.496 8.568 8.568 0 0 1-3.888 6.768Z" fill="url(#g)"/><path d="m531.307 112.868-3.76-2.196a2.766 2.766 0 0 0 2.775-.271l3.76 2.196a2.76 2.76 0 0 1-2.775.271Z" fill="url(#h)"/><path d="m534.055 103.625-3.76-2.203a2.77 2.77 0 0 1 2.782-.271l3.76 2.203a2.743 2.743 0 0 0-2.782.271Z" fill="#CEE1ED"/><path d="m531.311 112.867-3.76-2.196a2.744 2.744 0 0 1-1.143-2.511 8.595 8.595 0 0 1 3.887-6.768l3.76 2.203a8.585 8.585 0 0 0-3.887 6.768 2.733 2.733 0 0 0 1.143 2.504Z" fill="#CEE1ED"/><path d="M534.05 103.626c2.158-1.249 3.918-.249 3.918 2.255a8.576 8.576 0 0 1-3.888 6.768c-2.158 1.241-3.91.241-3.918-2.256a8.577 8.577 0 0 1 3.888-6.767Z" fill="#FCFCFC"/><path d="m534.045 100.144-3.76-2.195c1.925-1.113 3.67-1.211 4.933-.482l3.76 2.196c-1.263-.752-3.008-.624-4.933.481Z" fill="url(#i)"/><path d="M534.044 100.144c3.827-2.203 6.94-.436 6.956 3.963 0 6.625-6.535 20.814-6.881 21.566-.353-.346-6.963-6.94-6.978-13.535-.015-4.429 3.075-9.783 6.903-11.994Zm0 12.452a8.573 8.573 0 0 0 3.887-6.767c0-2.474-1.759-3.474-3.917-2.256a8.582 8.582 0 0 0-3.888 6.768c0 2.474 1.76 3.474 3.918 2.255Z" fill="#FB0"/><path d="m534.119 125.673-3.76-2.203c-.353-.346-6.963-6.933-6.978-13.535 0-4.399 3.075-9.776 6.903-11.964l3.76 2.195c-3.828 2.211-6.918 7.565-6.903 11.964 0 6.625 6.625 13.22 6.978 13.536v.007Z" fill="url(#j)"/><path d="m535.186 104.257-1.135-.654a2.772 2.772 0 0 1 2.782-.271l1.136.655a2.784 2.784 0 0 0-2.783.27Z" fill="#CEE1ED"/><path d="m532.432 113.507-1.135-.662a2.723 2.723 0 0 1-1.136-2.504 8.571 8.571 0 0 1 3.888-6.768l1.135.654a8.6 8.6 0 0 0-3.887 6.768 2.728 2.728 0 0 0 1.135 2.504v.008Z" fill="#CEE1ED"/><path d="M535.183 104.257c2.158-1.241 3.91-.241 3.917 2.256a8.595 8.595 0 0 1-3.887 6.768c-2.158 1.241-3.911.24-3.918-2.256a8.591 8.591 0 0 1 3.888-6.768Z" fill="#FCFCFC"/><path d="M166.08 322.823c2.67-1.542 6.903-1.61 9.445-.151 3.842 2.204 5.264 8.31 5.346 8.633-.556-.045-11.174-.842-15.039-3.046-2.519-1.458-2.444-3.895.248-5.436Z" fill="#CFCEF0" style="mix-blend-mode:multiply"/><path d="M181.887 331.877a3.143 3.143 0 0 1-2.835 0 .868.868 0 0 1-.589-.82.868.868 0 0 1 .589-.82 3.142 3.142 0 0 1 2.835 0 .86.86 0 0 1 .589.82.866.866 0 0 1-.589.82Z" fill="#FCFCFC"/><path d="m181.082 315.589-3.76-2.196a8.572 8.572 0 0 0 2.757-2.917 8.579 8.579 0 0 0 1.131-3.851 2.736 2.736 0 0 0-1.136-2.504l3.76 2.203a2.715 2.715 0 0 1 1.136 2.497 8.571 8.571 0 0 1-3.888 6.768Z" fill="url(#k)"/><path d="m181.082 315.589-3.76-2.196a8.572 8.572 0 0 0 2.757-2.917 8.579 8.579 0 0 0 1.131-3.851 2.736 2.736 0 0 0-1.136-2.504l3.76 2.203a2.715 2.715 0 0 1 1.136 2.497 8.571 8.571 0 0 1-3.888 6.768Z" fill="url(#l)"/><path d="m178.307 315.867-3.76-2.195a2.766 2.766 0 0 0 2.775-.271l3.76 2.196a2.75 2.75 0 0 1-2.775.27Z" fill="url(#m)"/><path d="m181.055 306.625-3.76-2.203a2.77 2.77 0 0 1 2.782-.271l3.76 2.203a2.743 2.743 0 0 0-2.782.271Z" fill="#CEE1ED"/><path d="m178.311 315.867-3.76-2.196a2.744 2.744 0 0 1-1.143-2.511 8.591 8.591 0 0 1 3.887-6.768l3.76 2.203a8.584 8.584 0 0 0-3.887 6.768 2.733 2.733 0 0 0 1.143 2.504Z" fill="#CEE1ED"/><path d="M181.05 306.626c2.158-1.249 3.918-.249 3.918 2.255a8.576 8.576 0 0 1-3.888 6.768c-2.158 1.241-3.91.241-3.918-2.256a8.577 8.577 0 0 1 3.888-6.767Z" fill="#FCFCFC"/><path d="m181.045 303.144-3.76-2.195c1.925-1.113 3.67-1.211 4.933-.482l3.76 2.196c-1.263-.752-3.008-.624-4.933.481Z" fill="url(#n)"/><path d="M181.044 303.144c3.827-2.203 6.94-.436 6.956 3.963 0 6.625-6.535 20.814-6.881 21.566-.353-.346-6.963-6.94-6.978-13.535-.015-4.429 3.075-9.783 6.903-11.994Zm0 12.452a8.573 8.573 0 0 0 3.887-6.767c0-2.474-1.759-3.474-3.917-2.256a8.582 8.582 0 0 0-3.888 6.768c0 2.474 1.76 3.474 3.918 2.255Z" fill="#FB0"/><path d="m181.119 328.673-3.76-2.203c-.353-.346-6.963-6.933-6.978-13.535 0-4.399 3.075-9.776 6.903-11.964l3.76 2.195c-3.828 2.211-6.918 7.565-6.903 11.964 0 6.625 6.625 13.22 6.978 13.536v.007Z" fill="url(#o)"/><path d="m182.186 307.257-1.135-.654a2.772 2.772 0 0 1 2.782-.271l1.136.655a2.784 2.784 0 0 0-2.783.27Z" fill="#CEE1ED"/><path d="m179.432 316.507-1.135-.662a2.723 2.723 0 0 1-1.136-2.504 8.571 8.571 0 0 1 3.888-6.768l1.135.655a8.589 8.589 0 0 0-3.887 6.767 2.728 2.728 0 0 0 1.135 2.504v.008Z" fill="#CEE1ED"/><path d="M182.183 307.257c2.158-1.241 3.91-.241 3.917 2.256a8.595 8.595 0 0 1-3.887 6.768c-2.158 1.241-3.911.24-3.918-2.256a8.591 8.591 0 0 1 3.888-6.768Z" fill="#FCFCFC"/><path d="M358.08 366.823c2.67-1.542 6.903-1.61 9.445-.151 3.842 2.204 5.264 8.31 5.346 8.633-.556-.045-11.174-.842-15.039-3.046-2.519-1.458-2.444-3.895.248-5.436Z" fill="#CFCEF0" style="mix-blend-mode:multiply"/><path d="M373.887 375.877a3.143 3.143 0 0 1-2.835 0 .868.868 0 0 1-.589-.82.868.868 0 0 1 .589-.82 3.142 3.142 0 0 1 2.835 0 .86.86 0 0 1 .589.82.866.866 0 0 1-.589.82Z" fill="#FCFCFC"/><path d="m373.082 359.589-3.76-2.196a8.572 8.572 0 0 0 2.757-2.917 8.579 8.579 0 0 0 1.131-3.851 2.736 2.736 0 0 0-1.136-2.504l3.76 2.203a2.715 2.715 0 0 1 1.136 2.497 8.571 8.571 0 0 1-3.888 6.768Z" fill="url(#p)"/><path d="m373.082 359.589-3.76-2.196a8.572 8.572 0 0 0 2.757-2.917 8.579 8.579 0 0 0 1.131-3.851 2.736 2.736 0 0 0-1.136-2.504l3.76 2.203a2.715 2.715 0 0 1 1.136 2.497 8.571 8.571 0 0 1-3.888 6.768Z" fill="url(#q)"/><path d="m370.307 359.867-3.76-2.195a2.766 2.766 0 0 0 2.775-.271l3.76 2.196a2.75 2.75 0 0 1-2.775.27Z" fill="url(#r)"/><path d="m373.055 350.625-3.76-2.203a2.77 2.77 0 0 1 2.782-.271l3.76 2.203a2.743 2.743 0 0 0-2.782.271Z" fill="#CEE1ED"/><path d="m370.311 359.867-3.76-2.196a2.744 2.744 0 0 1-1.143-2.511 8.591 8.591 0 0 1 3.887-6.768l3.76 2.203a8.584 8.584 0 0 0-3.887 6.768 2.733 2.733 0 0 0 1.143 2.504Z" fill="#CEE1ED"/><path d="M373.05 350.626c2.158-1.249 3.918-.249 3.918 2.255a8.576 8.576 0 0 1-3.888 6.768c-2.158 1.241-3.91.241-3.918-2.256a8.577 8.577 0 0 1 3.888-6.767Z" fill="#FCFCFC"/><path d="m373.045 347.144-3.76-2.195c1.925-1.113 3.67-1.211 4.933-.482l3.76 2.196c-1.263-.752-3.008-.624-4.933.481Z" fill="url(#s)"/><path d="M373.044 347.144c3.827-2.203 6.94-.436 6.956 3.963 0 6.625-6.535 20.814-6.881 21.566-.353-.346-6.963-6.94-6.978-13.535-.015-4.429 3.075-9.783 6.903-11.994Zm0 12.452a8.573 8.573 0 0 0 3.887-6.767c0-2.474-1.759-3.474-3.917-2.256a8.582 8.582 0 0 0-3.888 6.768c0 2.474 1.76 3.474 3.918 2.255Z" fill="#FB0"/><path d="m373.119 372.673-3.76-2.203c-.353-.346-6.963-6.933-6.978-13.535 0-4.399 3.075-9.776 6.903-11.964l3.76 2.195c-3.828 2.211-6.918 7.565-6.903 11.964 0 6.625 6.625 13.22 6.978 13.536v.007Z" fill="url(#t)"/><path d="m374.186 351.257-1.135-.654a2.772 2.772 0 0 1 2.782-.271l1.136.655a2.784 2.784 0 0 0-2.783.27Z" fill="#CEE1ED"/><path d="m371.432 360.507-1.135-.662a2.723 2.723 0 0 1-1.136-2.504 8.571 8.571 0 0 1 3.888-6.768l1.135.655a8.589 8.589 0 0 0-3.887 6.767 2.728 2.728 0 0 0 1.135 2.504v.008Z" fill="#CEE1ED"/><path d="M374.183 351.257c2.158-1.241 3.91-.241 3.917 2.256a8.595 8.595 0 0 1-3.887 6.768c-2.158 1.241-3.911.24-3.918-2.256a8.591 8.591 0 0 1 3.888-6.768Z" fill="#FCFCFC"/><path d="M685.08 150.823c2.67-1.542 6.903-1.61 9.445-.151 3.842 2.204 5.264 8.31 5.346 8.633-.556-.045-11.174-.842-15.039-3.046-2.519-1.458-2.444-3.895.248-5.436Z" fill="#CFCEF0" style="mix-blend-mode:multiply"/><path d="M700.887 159.876a3.131 3.131 0 0 1-2.835 0 .862.862 0 0 1-.427-1.324.868.868 0 0 1 .427-.315 3.13 3.13 0 0 1 2.835 0 .86.86 0 0 1 .589.82.861.861 0 0 1-.589.819Z" fill="#FCFCFC"/><path d="m700.082 143.589-3.76-2.196a8.572 8.572 0 0 0 2.757-2.917 8.579 8.579 0 0 0 1.131-3.851 2.736 2.736 0 0 0-1.136-2.504l3.76 2.204a2.715 2.715 0 0 1 1.136 2.496 8.568 8.568 0 0 1-3.888 6.768Z" fill="url(#u)"/><path d="m700.082 143.589-3.76-2.196a8.572 8.572 0 0 0 2.757-2.917 8.579 8.579 0 0 0 1.131-3.851 2.736 2.736 0 0 0-1.136-2.504l3.76 2.204a2.715 2.715 0 0 1 1.136 2.496 8.568 8.568 0 0 1-3.888 6.768Z" fill="url(#v)"/><path d="m697.307 143.868-3.76-2.196a2.766 2.766 0 0 0 2.775-.271l3.76 2.196a2.76 2.76 0 0 1-2.775.271Z" fill="url(#w)"/><path d="m700.055 134.625-3.76-2.203a2.77 2.77 0 0 1 2.782-.271l3.76 2.203a2.743 2.743 0 0 0-2.782.271Z" fill="#CEE1ED"/><path d="m697.311 143.867-3.76-2.196a2.744 2.744 0 0 1-1.143-2.511 8.595 8.595 0 0 1 3.887-6.768l3.76 2.203a8.585 8.585 0 0 0-3.887 6.768 2.733 2.733 0 0 0 1.143 2.504Z" fill="#CEE1ED"/><path d="M700.05 134.626c2.158-1.249 3.918-.249 3.918 2.255a8.576 8.576 0 0 1-3.888 6.768c-2.158 1.241-3.91.241-3.918-2.256a8.577 8.577 0 0 1 3.888-6.767Z" fill="#FCFCFC"/><path d="m700.045 131.144-3.76-2.195c1.925-1.113 3.67-1.211 4.933-.482l3.76 2.196c-1.263-.752-3.008-.624-4.933.481Z" fill="url(#x)"/><path d="M700.044 131.144c3.827-2.203 6.94-.436 6.956 3.963 0 6.625-6.535 20.814-6.881 21.566-.353-.346-6.963-6.94-6.978-13.535-.015-4.429 3.075-9.783 6.903-11.994Zm0 12.452a8.573 8.573 0 0 0 3.887-6.767c0-2.474-1.759-3.474-3.917-2.256a8.582 8.582 0 0 0-3.888 6.768c0 2.474 1.76 3.474 3.918 2.255Z" fill="#FB0"/><path d="m700.119 156.673-3.76-2.203c-.353-.346-6.963-6.933-6.978-13.535 0-4.399 3.075-9.776 6.903-11.964l3.76 2.195c-3.828 2.211-6.918 7.565-6.903 11.964 0 6.625 6.625 13.22 6.978 13.536v.007Z" fill="url(#y)"/><path d="m701.186 135.257-1.135-.654a2.772 2.772 0 0 1 2.782-.271l1.136.655a2.784 2.784 0 0 0-2.783.27Z" fill="#CEE1ED"/><path d="m698.432 144.507-1.135-.662a2.723 2.723 0 0 1-1.136-2.504 8.571 8.571 0 0 1 3.888-6.768l1.135.654a8.6 8.6 0 0 0-3.887 6.768 2.728 2.728 0 0 0 1.135 2.504v.008Z" fill="#CEE1ED"/><path d="M701.183 135.257c2.158-1.241 3.91-.241 3.917 2.256a8.595 8.595 0 0 1-3.887 6.768c-2.158 1.241-3.911.24-3.918-2.256a8.591 8.591 0 0 1 3.888-6.768Z" fill="#FCFCFC"/><path fill="url(#z)" d="M0 0h945v435H0z"/><defs><linearGradient id="n" x1="177.285" y1="301.572" x2="185.978" y2="301.572" gradientUnits="userSpaceOnUse"><stop stop-color="#FF6E3F"/><stop offset="1" stop-color="#FF5634"/></linearGradient><linearGradient id="a" x1="475.322" y1="225.855" x2="482.984" y2="225.855" gradientUnits="userSpaceOnUse"><stop stop-color="#FF6E3F"/><stop offset="1" stop-color="#FF5634"/></linearGradient><linearGradient id="c" x1="472.547" y1="230.762" x2="479.082" y2="230.762" gradientUnits="userSpaceOnUse"><stop stop-color="#FF6E3F"/><stop offset="1" stop-color="#FF5634"/></linearGradient><linearGradient id="d" x1="475.285" y1="217.572" x2="483.978" y2="217.572" gradientUnits="userSpaceOnUse"><stop stop-color="#FF6E3F"/><stop offset="1" stop-color="#FF5634"/></linearGradient><linearGradient id="e" x1="468.381" y1="230.822" x2="479.119" y2="230.822" gradientUnits="userSpaceOnUse"><stop stop-color="#FF6E3F"/><stop offset="1" stop-color="#FF5634"/></linearGradient><linearGradient id="f" x1="530.322" y1="106.855" x2="537.984" y2="106.855" gradientUnits="userSpaceOnUse"><stop stop-color="#FF6E3F"/><stop offset="1" stop-color="#FF5634"/></linearGradient><linearGradient id="g" x1="530.322" y1="106.855" x2="537.984" y2="106.855" gradientUnits="userSpaceOnUse"><stop stop-color="#FF6E3F"/><stop offset="1" stop-color="#FF5634"/></linearGradient><linearGradient id="h" x1="527.547" y1="111.762" x2="534.082" y2="111.762" gradientUnits="userSpaceOnUse"><stop stop-color="#FF6E3F"/><stop offset="1" stop-color="#FF5634"/></linearGradient><linearGradient id="i" x1="530.285" y1="98.572" x2="538.978" y2="98.572" gradientUnits="userSpaceOnUse"><stop stop-color="#FF6E3F"/><stop offset="1" stop-color="#FF5634"/></linearGradient><linearGradient id="j" x1="523.381" y1="111.822" x2="534.119" y2="111.822" gradientUnits="userSpaceOnUse"><stop stop-color="#FF6E3F"/><stop offset="1" stop-color="#FF5634"/></linearGradient><linearGradient id="k" x1="177.322" y1="309.855" x2="184.984" y2="309.855" gradientUnits="userSpaceOnUse"><stop stop-color="#FF6E3F"/><stop offset="1" stop-color="#FF5634"/></linearGradient><linearGradient id="l" x1="177.322" y1="309.855" x2="184.984" y2="309.855" gradientUnits="userSpaceOnUse"><stop stop-color="#FF6E3F"/><stop offset="1" stop-color="#FF5634"/></linearGradient><linearGradient id="m" x1="174.547" y1="314.762" x2="181.082" y2="314.762" gradientUnits="userSpaceOnUse"><stop stop-color="#FF6E3F"/><stop offset="1" stop-color="#FF5634"/></linearGradient><linearGradient id="b" x1="475.322" y1="225.855" x2="482.984" y2="225.855" gradientUnits="userSpaceOnUse"><stop stop-color="#FF6E3F"/><stop offset="1" stop-color="#FF5634"/></linearGradient><linearGradient id="o" x1="170.381" y1="314.822" x2="181.119" y2="314.822" gradientUnits="userSpaceOnUse"><stop stop-color="#FF6E3F"/><stop offset="1" stop-color="#FF5634"/></linearGradient><linearGradient id="p" x1="369.322" y1="353.855" x2="376.984" y2="353.855" gradientUnits="userSpaceOnUse"><stop stop-color="#FF6E3F"/><stop offset="1" stop-color="#FF5634"/></linearGradient><linearGradient id="q" x1="369.322" y1="353.855" x2="376.984" y2="353.855" gradientUnits="userSpaceOnUse"><stop stop-color="#FF6E3F"/><stop offset="1" stop-color="#FF5634"/></linearGradient><linearGradient id="r" x1="366.547" y1="358.762" x2="373.082" y2="358.762" gradientUnits="userSpaceOnUse"><stop stop-color="#FF6E3F"/><stop offset="1" stop-color="#FF5634"/></linearGradient><linearGradient id="s" x1="369.285" y1="345.572" x2="377.978" y2="345.572" gradientUnits="userSpaceOnUse"><stop stop-color="#FF6E3F"/><stop offset="1" stop-color="#FF5634"/></linearGradient><linearGradient id="t" x1="362.381" y1="358.822" x2="373.119" y2="358.822" gradientUnits="userSpaceOnUse"><stop stop-color="#FF6E3F"/><stop offset="1" stop-color="#FF5634"/></linearGradient><linearGradient id="u" x1="696.322" y1="137.855" x2="703.984" y2="137.855" gradientUnits="userSpaceOnUse"><stop stop-color="#FF6E3F"/><stop offset="1" stop-color="#FF5634"/></linearGradient><linearGradient id="v" x1="696.322" y1="137.855" x2="703.984" y2="137.855" gradientUnits="userSpaceOnUse"><stop stop-color="#FF6E3F"/><stop offset="1" stop-color="#FF5634"/></linearGradient><linearGradient id="w" x1="693.547" y1="142.762" x2="700.082" y2="142.762" gradientUnits="userSpaceOnUse"><stop stop-color="#FF6E3F"/><stop offset="1" stop-color="#FF5634"/></linearGradient><linearGradient id="x" x1="696.285" y1="129.572" x2="704.978" y2="129.572" gradientUnits="userSpaceOnUse"><stop stop-color="#FF6E3F"/><stop offset="1" stop-color="#FF5634"/></linearGradient><linearGradient id="y" x1="689.381" y1="142.822" x2="700.119" y2="142.822" gradientUnits="userSpaceOnUse"><stop stop-color="#FF6E3F"/><stop offset="1" stop-color="#FF5634"/></linearGradient><linearGradient id="z" x1="472.5" y1="0" x2="472.5" y2="435" gradientUnits="userSpaceOnUse"><stop stop-color="#15171E" stop-opacity=".15"/><stop offset=".514" stop-color="#15171E" stop-opacity="0"/><stop offset="1" stop-color="#15171E"/></linearGradient></defs></svg>