<svg version="1.1" id="Layer_1" xmlns="http://www.w3.org/2000/svg" x="0" y="0" viewBox="0 0 250 150" style="enable-background:new 0 0 250 150" xml:space="preserve"><style>.st0{fill:#102346}.st1{fill:#fdc90b}</style><path class="st0" d="M180.9 55.5v43.8h23.2c1.2.1 1.9.7 2.2 1.8.4 1.2.4 2.4.1 3.6-.3 1.3-1.2 1.9-2.6 1.9H176.2c-2.4-.2-3.5-1.2-3.9-3.7-.1-.4-.1-.7-.1-1.1V52.6c0-.6.1-1.2.2-1.8.5-1.9 1.7-2.8 3.7-2.9h26c2.3 0 3.1 1.2 3.2 2.8.1.8.1 1.7 0 2.5-.2 1.3-1 2-2.3 2.1-.4 0-.8.1-1.2.1h-20c-.3.1-.6.1-.9.1zM221.4 99.7V51.9c0-.5 0-1-.1-1.4-.2-1-.8-1.6-1.7-2-1.5-.6-3-.6-4.5-.1-1.5.4-2.2 1.4-2.3 3v51.2c0 .5 0 .9.1 1.4.4 2.1 1.7 3.2 3.9 3.2h25.4c1.9 0 2.7-.7 3-2.5.1-1 .1-2.1-.1-3.1-.2-1.1-1-1.7-2.1-1.8-.4 0-.8-.1-1.2-.1h-20.4z"/><path class="st0" d="M193.6 82.2c-3.4 0-6-2.7-6-6.1 0-3.5 2.6-6.1 6.1-6.1 3.5 0 6.2 2.7 6.1 6.2 0 3.4-2.7 6.1-6.2 6z"/><circle class="st1" cx="12.2" cy="55" r="7.4"/><circle class="st1" cx="12.2" cy="77.3" r="7.4"/><circle class="st1" cx="12.2" cy="99.5" r="7.4"/><circle class="st1" cx="34.5" cy="55" r="7.4"/><circle class="st1" cx="34.5" cy="77.3" r="7.4"/><circle class="st1" cx="34.5" cy="99.5" r="7.4"/><circle class="st1" cx="56.7" cy="55" r="7.4"/><circle class="st1" cx="56.7" cy="77.3" r="7.4"/><circle class="st1" cx="56.7" cy="99.5" r="7.4"/><path class="st0" d="M142.5 55.5v47.8c0 .5 0 1-.1 1.4-.2 1-.8 1.6-1.7 2-1.5.6-3 .6-4.5.1-1.5-.4-2.2-1.4-2.3-3V52.6c0-.5 0-.9.1-1.4.4-2.1 1.7-3.2 3.9-3.2h25.4c1.9 0 2.7.7 3 2.5.1 1 .1 2.1-.1 3.1-.2 1.1-1 1.7-2.1 1.8-.4 0-.8.1-1.2.1h-20.4z"/><path class="st0" d="M155.2 82.2c-3.4 0-6.1-2.7-6.1-6.1 0-3.4 2.7-6.1 6.1-6.1 3.4 0 6.2 2.8 6.2 6.1 0 3.5-2.7 6.1-6.2 6.1zM124.7 76.1h-1c-1.8 0-3.2 1.4-3.2 3.2v18c0 1.5-1 2.8-2.4 3.1-1.9.4-4.4.7-7.5.7-13.5 0-22.4-8.7-22.4-23.4 0-14.5 9.2-23.3 23.3-23.3 4.1 0 7.2.5 9.8 1.3 1.7.5 3.5-.4 4-2.1.5-1.7-.4-3.4-2.1-3.9-2.8-.8-6.8-1.6-11.5-1.6-19.4 0-31.3 12.6-31.4 29.9 0 9 3.1 16.8 8.1 21.6 5.7 5.4 12.9 7.7 21.7 7.7 6.4 0 11.9-1.3 15.6-2.4 1.3-.4 2.2-1.6 2.2-3V79.5c0-2-1.5-3.4-3.2-3.4z"/><circle cx="229.1" cy="46.3" style="fill:none;stroke:#102346;stroke-width:.9748;stroke-miterlimit:10" r="3.5"/><path class="st0" d="M229.1 46.7h-1v1.8h-.6v-4.4h1.5c.5 0 .9.1 1.1.3.3.2.4.6.4 1 0 .3-.1.5-.2.7-.1.2-.4.4-.6.5l1 1.9h-.6l-1-1.8zm-1-.4h.9c.3 0 .5-.1.7-.2.2-.1.3-.3.3-.6s-.1-.5-.2-.6c-.2-.1-.4-.2-.7-.2h-.9v1.6z"/></svg>