<svg width="120" height="129" fill="none" xmlns="http://www.w3.org/2000/svg"><path d="M33.47 53.387a16.061 16.061 0 0 1-1.57-.934c0 2.635-.523 5.671-2.251 7.475-1.972 2.083 3.55 6.849 9.642 5.951 6.092-.897 9.073-3.905 9.073-3.905s-3.373-2.635-3.522-9.176l-.59.355a11.371 11.371 0 0 1-10.782.234Z" fill="#E29B8D"/><path d="M58.912 33.214c-.598-2.046-2.803-1.009-2.803-1.009.645-7.008-.402-26.826-19.818-25.424C16.875 8.182 20.145 32.28 20.145 32.28c-2.485-1.224-3.943 1.476-2.177 5.97 1.607 4.093 5.167 3.373 5.167 3.373a25.49 25.49 0 0 0 8.802 10.83c.505.34 1.029.653 1.57.934a11.371 11.371 0 0 0 10.782-.205l.589-.355c6.307-3.971 8.998-11.344 8.998-11.344 4.429 1.15 5.625-6.222 5.036-8.269Z" fill="#EAB2A5"/><path d="M57.894 33.476c.121.13-.458-.701-1.075-.271a2.355 2.355 0 0 0-.533 2.476c.374.504.832 1.644 0 2.158-.831.514-.56.767-.56.767.244-.302.568-.529.934-.655.589-.196.589-1.224 0-2.018-.588-.794.234-3.597 1.234-2.457ZM18.426 33.588c-.094.14.383-.739 1.046-.383a2.327 2.327 0 0 1 .794 2.4c-.317.552-.644 1.73.206 2.15.85.42.645.7.645.7a2.196 2.196 0 0 0-.99-.55c-.599-.132-.71-1.15-.216-2 .496-.85-.616-3.56-1.485-2.317Z" fill="#BC6262"/><path d="M35.562 45.837a4.037 4.037 0 0 0 6.363-.102c.374-.56-.523-1.075-.934-.524-1.093 1.645-3.626 1.318-4.737-.102-.411-.533-1.14.205-.738.728h.046Z" fill="#1D2937"/><path d="M28.584 41.212a1.99 1.99 0 1 0 0-3.98 1.99 1.99 0 0 0 0 3.98Z" fill="#CE7A7A"/><path d="M29.49 36.401c.959-.04 1.689-1.201 1.63-2.593-.059-1.392-.884-2.488-1.843-2.448-.959.04-1.689 1.202-1.63 2.594.059 1.392.884 2.488 1.843 2.447ZM28.068 30.093c-.159.206 0 0 .121-.056.268-.125.55-.213.841-.261a2.13 2.13 0 0 1 1.056.074c.094 0 .365.206.28.131.561.477 1.383-.336.813-.822a3.186 3.186 0 0 0-4.11.346c-.45.598.55 1.168.999.588Z" fill="#332535"/><path d="M47.635 41.212a1.99 1.99 0 1 0 0-3.98 1.99 1.99 0 0 0 0 3.98Z" fill="#CE7A7A"/><path d="M48.6 33.977c.059-1.392-.671-2.553-1.63-2.593-.959-.04-1.784 1.055-1.842 2.447-.059 1.392.67 2.554 1.63 2.594.959.04 1.784-1.055 1.842-2.447ZM48.15 30.093c.158.206 0 0-.122-.056a3.26 3.26 0 0 0-.841-.261 2.131 2.131 0 0 0-1.056.075c-.093 0-.364.205-.28.13-.57.477-1.392-.336-.822-.822a3.205 3.205 0 0 1 4.12.346c.448.598-.551 1.168-1 .588Z" fill="#332535"/><path d="M36.936 32.158a3.391 3.391 0 0 1 .794 3.056c-.402 1.43-1.757 2.653-1.607 3.84.15 1.187 3.223 1.29 3.223 1.29s-3.064-.636-2.803-1.617c.215-1.159 3.327-4.896.393-6.569Z" fill="#CE7A7A"/><path d="M61.874 17.442c-5.821-6.85 2.364-9.11-5.055-15.184-6.428-5.26-15.23.112-17.473 1.645 0 0-10.791-6.784-18.21-.71-7.42 6.073-1.112 9.157-6.924 16.005C8.4 26.048.991 21.796 3.327 32.158c2.336 10.362 9.96 7.391 8.091 12.764-1.868 5.372 1.346 7.362 5.737 9.717 2.532 1.364 8.652 2.682 13.651 3.55a14.586 14.586 0 0 0 1.094-5.736 25.49 25.49 0 0 1-8.802-10.83s-3.56.72-5.167-3.373c-1.766-4.494-.309-7.194 2.177-5.97.626.345 2.111 1.635 3.12 6.25 0 0-1.28-8.549 1.056-11.931 2.336-3.383 8.41-3.392 12.147-7.13a12.738 12.738 0 0 0 1.869-2.504c.5.85 1.103 1.634 1.794 2.336 3.737 3.738 9.81 3.738 12.147 7.13 2.336 3.391 1.046 11.931 1.046 11.931 1.187-5.363 2.86-6.204 3.29-6.335a1.739 1.739 0 0 1 2.317 1.187c.588 2.046-.617 9.418-5.074 8.27 0 0-2.691 7.371-8.998 11.342a15.633 15.633 0 0 0 1.074 5.513c5.252-.869 12.147-2.261 14.8-3.737 4.392-2.355 7.597-4.336 5.728-9.718-1.868-5.382 5.766-2.41 8.101-12.763 2.336-10.353-6.877-7.83-12.65-14.68Z" fill="#332535"/><path d="M113.265 69.907a49.964 49.964 0 0 0 3.99-8.98c1.018-3.737 2.803-12.96 1.401-14.211-1.401-1.252-1.943.514-2.196 1.448-.523 2-1.168 6.419-1.588 8.138-.421 1.72-.112-1.868.103-3.606.233-2 1.168-7.924 1.056-8.793-.113-.869-.851-1.7-1.589-1.364-1.691.776-2.411 11.511-2.71 11.81-.299.3.215-9.072.327-10.474.113-1.401-.485-3.672-1.644-3.298-2.149.682-1.869 10.278-2.084 12.147-.224 2.504-.663-.87-.644-1.972.018-1.102-.524-8.942-1.654-9.203-1.533-.346-2.215.84-2.056 3.176.159 2.336.888 11.372.374 11.858-.514.486-1.682-1.047-2.42-2.374-.738-1.327-4-4.317-5.42-3.027s.3 1.327 1.542 3.56a29.471 29.471 0 0 1 2.803 6.167c.608 2.093 2.897 7.475 4.794 9.147 1.896 1.673 5.774 1.477 7.615-.15Z" fill="#FEAC97"/><path d="M90.268 97.144a13.577 13.577 0 0 0-3.27 7.886c-.169 4.55 1.289 10.39 4.56 11.268 3.27.878 10.744-15.482 10.744-15.482l-12.034-3.672Z" fill="#FB8E55"/><path d="M92.877 98.442 81.236 85.081C74.76 76.905 67.09 67.767 64.837 66.15c-2.252-1.617-8.96-3.355-8.96-3.355s1.018 14.483 0 16.66c-1.019 2.177 4.671 5.914 11.062 13.128 9.466 10.623 22.911 24.06 24.621 23.751 1.486-.271 1.15-11.137 0-16.174a36.764 36.764 0 0 1 1.317-1.719Z" fill="#F97B43"/><path d="m87.926 100.975 2.345-3.831c.934-.355 15.314-27.293 15.314-27.293s6.541.71 8.008-.131c0 0-3.738 16.557-10.474 29.526-6.737 12.969-8.288 16.697-11.558 17.052-3.27.355-3.635-15.323-3.635-15.323Z" fill="#FB8E55"/><path d="M61.109 78.877c.7-11.446-1.869-15.062-3.149-15.53-1.28-.467-9.297-2.532-11.979-4.868 0 0 0 5.158-7.166 5.607-8.53.514-8.325-5.233-8.325-5.233s-7.223 3.224-11.428 3.925c-4.204.7-5.372 7.474-4.905 13.08.336 4.018 1.682 12.147 2.98 19.772.514 3.008 1.019 5.933 1.458 8.493.934 5.279-1.252 14.623-3.223 22.164 5.628 1.85 19.128 1.85 19.128 1.85h21.34a66.93 66.93 0 0 1-1.552-13.736c.28-9.128 6.11-24.078 6.82-35.524Z" fill="#F97B43"/><path d="M28.322 101.694a16.371 16.371 0 0 1 9.652-1.869 25.473 25.473 0 0 1 9.886 3.261 52.696 52.696 0 0 0-19.538-1.392ZM60.22 85.707s1.046-7.382 1-10.026l-.328-3.523-2.251 20.855 1.579-7.306ZM15.8 73.663a41.772 41.772 0 0 1 1.085 8.559c.084 4.578-.645 9.184.065 12.445.71 3.261.794 2.663.794 2.663s-1.242-5.232-.72-7.867c.524-2.635 1.047-12.8-1.223-15.8Z" fill="#E56239"/><path d="M19.063 62.796s-7.634 1.243-11.213 5.765c-3.578 4.522-4.83 29.115-6.232 38.309-1.401 9.194-3.27 18.781 3.43 19.435 4.82.467 9.717-19.435 12.09-30.657-1.299-7.615-1-16.818-1.327-20.827-.486-5.643-.962-11.362 3.252-12.025Z" fill="#F97B43"/><path d="M0 120.223s5.046-10.652 11.119-18.127c6.073-7.475 9.633-11.147 9.633-11.147s3.121 5.139 4.831 5.68c1.243.393-10.67 21.94-12.754 24.977-2.084 3.036-11.474 9.661-12.829-1.383Z" fill="#FB8E55"/><path d="M46.15 74.027H28.322v23.34H46.15v-23.34Z" fill="#F4E2DC"/><path d="M43.867 74.027h-13.8V94.94h13.8V74.026Z" fill="#fff"/><path d="M47.533 91.761h-3.41v-2.803h3.41c1.197 0 2.196-1.355 2.196-2.953V82.97c0-1.598-1-2.953-2.196-2.953H44.89v-2.803h2.644c2.757 0 5 2.579 5 5.756v3.037c0 3.195-2.243 5.755-5 5.755ZM20.93 92.173c.177-.3 4.204-7.933 6.428-9.344a75.245 75.245 0 0 1 11.446-4.97c1.402-.29 2.467.27 2.57.7.27 1.233-2.084 2.513-3.897 3.214a73.056 73.056 0 0 0-7.11 3.018c-.467.43 5.046-1.56 7.036-2.084 1.99-.523 4.391-1.681 5.326-.868.934.812 1.168 1.98-.468 2.466-1.635.486-8.409 2.317-10.66 3.308-2.253.99-1.44.645-.935.411a49.96 49.96 0 0 1 7.942-1.691c2.215-.178 3.326-.467 3.85.056.523.523 1.345 1.813-.524 2.57-1.868.756-7.129 1.4-8.409 1.868a8.046 8.046 0 0 0-2.28 1.336 8.912 8.912 0 0 1 2.803-.99c2.047-.467 5.317-1.346 6.447-.934.879.308 1.206 1.214 0 1.934-1.205.72-4.727 1.233-6.073 1.99-1.345.757-2.86 2.513-4.326 2.924-1.467.412-2.7-.934-3.738-1.504-1.037-.57-6.363-1.953-5.428-3.41Z" fill="#F4E2DC"/><path d="M20.21 91.677c.177-.299 4.205-7.933 6.42-9.344a74.573 74.573 0 0 1 11.445-4.961c1.402-.299 2.476.262 2.57.7.28 1.225-2.075 2.505-3.887 3.206a73.097 73.097 0 0 0-7.11 3.018c-.468.43 5.045-1.551 7.026-2.084 1.98-.533 4.4-1.682 5.335-.869.934.813 1.168 1.99-.467 2.467-1.636.476-8.41 2.317-10.662 3.307-2.251.99-1.448.654-.934.412a51.287 51.287 0 0 1 7.942-1.692c2.224-.177 3.336-.467 3.86.056.522.524 1.345 1.813-.524 2.57-1.869.757-7.13 1.402-8.41 1.869a8.043 8.043 0 0 0-2.28 1.336 9.117 9.117 0 0 1 2.804-.935c2.046-.467 5.316-1.354 6.447-.934.878.308 1.205 1.224 0 1.934s-4.737 1.234-6.073 1.99c-1.337.757-2.869 2.514-4.327 2.925-1.457.411-4.316.58-5.372 0s-4.719-3.485-3.803-4.97Z" fill="#FEAC97"/></svg>