<svg width="30" height="28" viewBox="0 0 30 28" fill="none" xmlns="http://www.w3.org/2000/svg">
<path d="M14.6169 27.9994C14.2807 27.9994 14.0078 27.7268 14.0078 27.3908V20.0866C14.0078 19.7506 14.2807 19.4779 14.6169 19.4779C14.9532 19.4779 15.226 19.7506 15.226 20.0866V27.3908C15.226 27.7268 14.9532 27.9994 14.6169 27.9994Z" fill="white"/>
<path d="M20.0989 27.9997C19.9831 27.9997 19.8662 27.9668 19.7614 27.8974L14.2794 24.2451C13.9992 24.0588 13.9236 23.6814 14.11 23.4014C14.2964 23.1214 14.6729 23.0459 14.9543 23.2322L20.4363 26.8845C20.7165 27.0707 20.7921 27.4482 20.6057 27.7282C20.4887 27.9047 20.295 27.9997 20.0989 27.9997Z" fill="white"/>
<path d="M9.13757 27.9999C8.94022 27.9999 8.74774 27.905 8.62957 27.7285C8.44318 27.4485 8.51871 27.0711 8.7989 26.8848L14.281 23.2327C14.5611 23.0452 14.94 23.1219 15.1252 23.4019C15.3116 23.6819 15.236 24.0593 14.9559 24.2456L9.4738 27.8977C9.37147 27.9671 9.25452 27.9999 9.13757 27.9999Z" fill="white"/>
<path d="M26.8012 4.86965H2.43647C1.09276 4.86965 0 3.77763 0 2.43483C0 1.09202 1.09276 0 2.43647 0H26.8012C28.1449 0 29.2376 1.09202 29.2376 2.43483C29.2376 3.77763 28.1449 4.86965 26.8012 4.86965ZM2.43647 1.21741C1.76522 1.21741 1.21823 1.76403 1.21823 2.43483C1.21823 3.10562 1.76522 3.65224 2.43647 3.65224H26.8012C27.4724 3.65224 28.0194 3.10562 28.0194 2.43483C28.0194 1.76403 27.4724 1.21741 26.8012 1.21741H2.43647Z" fill="white"/>
<path d="M24.9748 20.6957H4.26485C3.25737 20.6957 2.4375 19.8764 2.4375 18.8696V4.2608C2.4375 3.9248 2.71038 3.6521 3.04662 3.6521H26.1931C26.5293 3.6521 26.8022 3.9248 26.8022 4.2608V18.8696C26.8022 19.8764 25.9823 20.6957 24.9748 20.6957ZM3.65573 4.8695V18.8696C3.65573 19.2056 3.92862 19.4783 4.26485 19.4783H24.9748C25.3111 19.4783 25.584 19.2056 25.584 18.8696V4.8695H3.65573Z" fill="white"/>
<path d="M7.91802 17.0432C7.76208 17.0432 7.60615 16.9836 7.48676 16.8655C7.2492 16.6281 7.2492 16.2422 7.48676 16.0048L12.3597 11.1353C12.5656 10.9296 12.8872 10.8979 13.1284 11.0586L16.319 13.1841L20.8423 7.53309C21.053 7.27257 21.4356 7.22753 21.6987 7.43813C21.9606 7.64874 22.0033 8.03099 21.7937 8.29395L16.9208 14.3808C16.7234 14.6267 16.3714 14.6839 16.107 14.5074L12.8677 12.3502L8.34805 16.8667C8.22988 16.9836 8.07395 17.0432 7.91802 17.0432Z" fill="url(#paint0_linear_2320_3559)"/>
<defs>
<linearGradient id="paint0_linear_2320_3559" x1="7.30859" y1="17.0432" x2="21.9268" y2="17.0432" gradientUnits="userSpaceOnUse">
<stop stop-color="#FB8133"/>
<stop offset="1" stop-color="#FFBA08"/>
</linearGradient>
</defs>
</svg>
