<svg width="47" height="47" fill="none" xmlns="http://www.w3.org/2000/svg"><g clip-path="url(#a)"><path d="M3.916 33.944h10.445V47H3.915V33.944Zm28.722 0h10.445V47H32.638V33.944Z" fill="#FFDC5D"/><path d="M43.083 37.495s-3.917 2.612-10.445 1.306v-6.528h10.445v5.222Zm-39.167 0s3.917 2.612 10.444 1.306v-6.528H3.916v5.222Z" fill="#F9CA55"/><path d="M5.2 24.288h10.444v10.445H5.199V24.289Zm26.14-.652h10.445V34.08H31.34V23.636Z" fill="#EF9645"/><path d="M.488 15.451s.004-1.599 1.602-1.595c1.601.005 1.596 1.604 1.596 1.604l-.025 7.421c.255-.117.52-.223.8-.314l.033-10.3s.005-1.6 1.602-1.594c1.598.004 1.594 1.604 1.594 1.604l-.028 9.688c.26-.024.528-.042.797-.055l.036-11.23S8.5 9.08 10.1 9.087c1.599.005 1.592 1.604 1.592 1.604l-.036 11.228c.274.016.538.043.802.068l.032-10.495s.005-1.6 1.602-1.593c1.598.004 1.591 1.602 1.591 1.602l-.03 11.098-.005.89v.797c-4.796-.012-8.007 3.971-8.021 7.97 0 .798.799.803.799.803.013-4.801 3.22-7.983 8.019-7.969l2.35-5.468s.517-1.513 2.032-.994c1.512.512 1 2.027 1 2.027l-1.167 4.054c-.462 1.611-.894 3.233-1.121 4.888-.65 4.68-4.675 8.277-9.53 8.264C4.715 37.84.432 33.533.45 28.24c.002-.28.019-.546.045-.796l-.042-.005.036-11.987Zm46.013 0s-.003-1.599-1.601-1.595c-1.601.005-1.597 1.604-1.597 1.604l.025 7.421a7.342 7.342 0 0 0-.8-.314l-.032-10.3s-.005-1.6-1.602-1.594c-1.6.004-1.595 1.604-1.595 1.604l.028 9.688a18.823 18.823 0 0 0-.796-.055l-.035-11.23s-.006-1.6-1.605-1.593c-1.6.005-1.593 1.604-1.593 1.604l.037 11.228c-.274.016-.538.043-.802.068l-.032-10.495s-.007-1.6-1.603-1.593c-1.599.004-1.592 1.602-1.592 1.602l.031 11.098.004.89v.797c4.797-.012 8.007 3.971 8.023 7.97 0 .798-.799.803-.799.803-.014-4.801-3.222-7.983-8.019-7.969l-2.351-5.468s-.515-1.513-2.032-.994c-1.51.512-.998 2.027-.998 2.027l1.166 4.054c.462 1.611.894 3.233 1.121 4.888.65 4.68 4.674 8.277 9.53 8.264 5.293-.022 9.577-4.328 9.559-9.622a8.045 8.045 0 0 0-.045-.796l.042-.005-.037-11.987Z" fill="#FFDC5D"/><path d="M30.733 8.431a1.304 1.304 0 0 1-1.031-2.103l3.888-5.033a1.305 1.305 0 1 1 2.065 1.597l-3.889 5.033a1.3 1.3 0 0 1-1.033.506Zm-14.388 0c-.39 0-.777-.175-1.034-.508l-3.889-5.031a1.307 1.307 0 0 1 2.068-1.597l3.89 5.033a1.307 1.307 0 0 1-1.035 2.103Zm7.153-.598c-.72 0-1.305-.585-1.305-1.305V1.306a1.306 1.306 0 0 1 2.61 0v5.222c0 .72-.583 1.305-1.305 1.305Z" fill="#5DADEC"/></g><defs><clipPath id="a"><path fill="#fff" d="M0 0h47v47H0z"/></clipPath></defs></svg>