<svg width="37" height="52" fill="none" xmlns="http://www.w3.org/2000/svg"><path d="M23.064 27.792c-.85-.304-1.397-1.008-1.397-1.794 0-.785.548-1.486 1.397-1.79C29.237 22 32.5 15.503 32.5 5.417a1.084 1.084 0 0 0-2.167 0c0 9.217-2.69 14.852-7.997 16.75-1.722.616-2.836 2.121-2.836 3.835 0 1.712 1.114 3.216 2.836 3.83 5.306 1.899 7.997 7.534 7.997 16.751a1.084 1.084 0 0 0 2.167 0c0-10.085-3.263-16.583-9.436-18.791ZM14.497 22.167C9.19 20.27 6.5 14.634 6.5 5.417a1.084 1.084 0 0 0-2.167 0c0 10.085 3.263 16.583 9.436 18.791.85.304 1.397 1.008 1.397 1.794 0 .785-.548 1.486-1.397 1.79C7.596 30 4.333 36.497 4.333 46.583a1.084 1.084 0 0 0 2.167 0c0-9.217 2.69-14.852 7.997-16.75 1.722-.616 2.836-2.121 2.836-3.835 0-1.712-1.114-3.216-2.836-3.83Z" fill="#fff"/><path d="M33.583 0H3.25A3.254 3.254 0 0 0 0 3.25 3.254 3.254 0 0 0 3.25 6.5h30.333a3.254 3.254 0 0 0 3.25-3.25A3.254 3.254 0 0 0 33.583 0Zm0 4.333H3.25A1.085 1.085 0 0 1 2.167 3.25c0-.598.487-1.083 1.083-1.083h30.333c.596 0 1.084.485 1.084 1.083s-.488 1.083-1.084 1.083ZM33.583 45.5H3.25A3.254 3.254 0 0 0 0 48.75 3.254 3.254 0 0 0 3.25 52h30.333a3.254 3.254 0 0 0 3.25-3.25 3.254 3.254 0 0 0-3.25-3.25Zm0 4.333H3.25a1.085 1.085 0 0 1-1.083-1.083c0-.598.487-1.083 1.083-1.083h30.333c.596 0 1.084.485 1.084 1.083s-.488 1.083-1.084 1.083Z" fill="#fff"/><path d="M26.287 43.702c-.592.003-.99-.43-.992-1.08-.017-4.116-3.193-7.57-6.947-7.554-.592.003-.99-.429-.992-1.079-.003-.65.39-1.085.983-1.087 4.94-.02 8.91 4.296 8.932 9.713.002.65-.391 1.085-.984 1.087Z" fill="url(#a)"/><defs><linearGradient id="a" x1="17.396" y1="43.739" x2="27.275" y2="43.698" gradientUnits="userSpaceOnUse"><stop stop-color="#FB8133"/><stop offset="1" stop-color="#FFBA08"/></linearGradient></defs></svg>