<svg width="22" height="25" viewBox="0 0 22 25" fill="none" xmlns="http://www.w3.org/2000/svg">
<path d="M1.96252 22.01L0 -0.000488281H21.5642L19.599 22.0065L10.769 24.4546L1.96252 22.01Z" fill="#E44F26"/>
<path d="M10.7812 22.584L17.9169 20.6058L19.5956 1.7998H10.7812V22.584Z" fill="#F1662A"/>
<path d="M10.7805 9.96226H7.20835L6.96205 7.19796H10.7805V4.49829H4.01172L4.07635 5.22321L4.73926 12.6619H10.7805V9.96226ZM10.7805 16.973L10.7683 16.9765L7.76208 16.1651L7.56994 14.0122H4.85979L5.23797 18.2499L10.7683 19.7854L10.7805 19.7819V16.973Z" fill="#EBEBEB"/>
<path d="M10.7695 9.96226V12.6619H14.0937L13.781 16.1634L10.7695 16.9756V19.7845L16.3042 18.2499L16.3444 17.794L16.9785 10.6872L17.0449 9.96226H10.7695ZM10.7695 4.49829V7.19796H17.2903L17.3445 6.59182L17.4676 5.22321L17.5322 4.49829H10.7695Z" fill="white"/>
</svg>
