<svg width="50" height="50" fill="none" xmlns="http://www.w3.org/2000/svg"><path d="M28.125 50h-6.25c-1.458 0-3.125-1.25-3.125-3.75v-4.375c0-2.083-1.041-3.958-2.708-5.417-3.75-2.916-5.625-7.083-5.625-11.666.208-7.917 6.667-14.167 14.375-14.375 3.958 0 7.708 1.458 10.417 4.166 2.708 2.709 4.375 6.459 4.375 10.417 0 4.375-1.875 8.542-5.417 11.25-1.875 1.458-2.917 3.75-2.917 5.833v4.792c0 1.667-1.458 3.125-3.125 3.125ZM25 12.5c-6.666 0-12.291 5.625-12.5 12.292 0 3.958 1.667 7.708 4.792 10 2.292 1.875 3.542 4.375 3.542 7.083v4.375c0 .417 0 1.667 1.041 1.667h6.25c.625 0 1.042-.417 1.042-1.042v-4.792c0-2.708 1.458-5.625 3.75-7.5C35.834 32.292 37.5 28.75 37.5 25c0-3.333-1.25-6.458-3.75-8.958C31.46 13.75 28.334 12.5 25 12.5Z" fill="#fff"/><path d="M30.208 43.75H19.792c-.625 0-1.042-.417-1.042-1.042s.417-1.041 1.042-1.041h10.416c.625 0 1.042.416 1.042 1.041s-.417 1.042-1.042 1.042Z" fill="#fff"/><path d="M25 6.25c-.625 0-1.042-.417-1.042-1.042V1.042C23.958.417 24.375 0 25 0s1.041.417 1.041 1.042v4.166c0 .625-.416 1.042-1.041 1.042Z" fill="url(#a)"/><path d="M38.958 12.083c-.208 0-.625 0-.833-.208a1.007 1.007 0 0 1 0-1.458L41.042 7.5a1.007 1.007 0 0 1 1.458 0 1.007 1.007 0 0 1 0 1.458l-2.917 2.917s-.416.208-.625.208Z" fill="url(#b)"/><path d="M48.958 26.042h-4.166c-.625 0-1.042-.417-1.042-1.042s.417-1.042 1.042-1.042h4.166c.625 0 1.042.417 1.042 1.042s-.417 1.042-1.042 1.042Z" fill="url(#c)"/><path d="M41.875 42.917c-.208 0-.625 0-.833-.209l-2.917-2.916a1.007 1.007 0 0 1 0-1.459 1.007 1.007 0 0 1 1.458 0L42.5 41.25a1.007 1.007 0 0 1 0 1.458c0 .209-.208.209-.625.209Z" fill="url(#d)"/><path d="M8.125 42.917c-.208 0-.625 0-.833-.209a1.007 1.007 0 0 1 0-1.458l2.917-2.917a1.007 1.007 0 0 1 1.458 0 1.007 1.007 0 0 1 0 1.459L8.75 42.708c-.208.209-.416.209-.625.209Z" fill="url(#e)"/><path d="M5.208 26.042H1.042C.417 26.042 0 25.625 0 25s.417-1.042 1.042-1.042h4.166c.625 0 1.042.417 1.042 1.042s-.417 1.042-1.042 1.042Z" fill="url(#f)"/><path d="M11.042 12.083c-.208 0-.625 0-.833-.208L7.292 8.75a1.007 1.007 0 0 1 0-1.458 1.007 1.007 0 0 1 1.458 0l2.917 2.916a1.007 1.007 0 0 1 0 1.459c-.208.208-.417.416-.625.416Z" fill="url(#g)"/><path d="M33.333 26.042c-.625 0-1.042-.417-1.042-1.042 0-3.958-3.333-7.292-7.291-7.292-.625 0-1.042-.416-1.042-1.041s.417-1.042 1.042-1.042A9.336 9.336 0 0 1 34.375 25c0 .625-.417 1.042-1.042 1.042Z" fill="url(#h)"/><defs><linearGradient id="a" x1="23.958" y1="6.25" x2="26.041" y2="6.25" gradientUnits="userSpaceOnUse"><stop stop-color="#FB8133"/><stop offset="1" stop-color="#FFBA08"/></linearGradient><linearGradient id="b" x1="37.813" y1="12.083" x2="42.813" y2="12.083" gradientUnits="userSpaceOnUse"><stop stop-color="#FB8133"/><stop offset="1" stop-color="#FFBA08"/></linearGradient><linearGradient id="c" x1="43.75" y1="26.042" x2="50" y2="26.042" gradientUnits="userSpaceOnUse"><stop stop-color="#FB8133"/><stop offset="1" stop-color="#FFBA08"/></linearGradient><linearGradient id="d" x1="37.813" y1="42.917" x2="42.813" y2="42.917" gradientUnits="userSpaceOnUse"><stop stop-color="#FB8133"/><stop offset="1" stop-color="#FFBA08"/></linearGradient><linearGradient id="e" x1="6.979" y1="42.917" x2="11.979" y2="42.917" gradientUnits="userSpaceOnUse"><stop stop-color="#FB8133"/><stop offset="1" stop-color="#FFBA08"/></linearGradient><linearGradient id="f" x1="0" y1="26.042" x2="6.25" y2="26.042" gradientUnits="userSpaceOnUse"><stop stop-color="#FB8133"/><stop offset="1" stop-color="#FFBA08"/></linearGradient><linearGradient id="g" x1="6.979" y1="12.083" x2="11.979" y2="12.083" gradientUnits="userSpaceOnUse"><stop stop-color="#FB8133"/><stop offset="1" stop-color="#FFBA08"/></linearGradient><linearGradient id="h" x1="23.958" y1="26.042" x2="34.375" y2="26.042" gradientUnits="userSpaceOnUse"><stop stop-color="#FB8133"/><stop offset="1" stop-color="#FFBA08"/></linearGradient></defs></svg>