<svg width="17" height="18" fill="none" xmlns="http://www.w3.org/2000/svg"><path d="M16.132 12.98v2.408a1.604 1.604 0 0 1-1.753 1.606 15.941 15.941 0 0 1-6.943-2.465 15.672 15.672 0 0 1-4.827-4.817A15.869 15.869 0 0 1 .14 2.75a1.603 1.603 0 0 1 .953-1.614c.204-.09.425-.136.648-.136h2.414a1.61 1.61 0 0 1 1.609 1.38c.101.771.29 1.528.563 2.257a1.603 1.603 0 0 1-.362 1.694l-1.022 1.02a12.86 12.86 0 0 0 4.827 4.817l1.022-1.02a1.61 1.61 0 0 1 1.697-.361c.73.271 1.488.46 2.26.562a1.61 1.61 0 0 1 1.384 1.63Z" stroke="#fff" stroke-linecap="round" stroke-linejoin="round"/></svg>