<svg width="17" height="29" fill="none" xmlns="http://www.w3.org/2000/svg"><path fill-rule="evenodd" clip-rule="evenodd" d="M10.156.179C8.387.529 6.63 1.812 5.828 3.343c-.667 1.271-.83 2.12-.906 4.73l-.069 2.35H2.906c-1.743 0-1.967.021-2.135.207-.163.18-.188.547-.188 2.818 0 2.288.024 2.63.188 2.767.138.115.695.164 2.149.19l1.963.036.03 6.12c.03 5.907.04 6.124.252 6.28.174.127.752.16 2.81.16 1.57 0 2.678-.046 2.811-.117.213-.114.22-.303.22-6.288v-6.17h4.54l.285-.284.284-.283-.034-2.558c-.032-2.379-.05-2.568-.255-2.718-.172-.126-.715-.16-2.536-.16h-2.316l.058-1.841c.09-2.835.092-2.836 2.873-2.917 1.407-.041 1.989-.1 2.124-.212.164-.136.187-.468.187-2.616 0-2.24-.018-2.478-.207-2.649-.18-.163-.525-.186-2.634-.176-1.566.006-2.707.066-3.22.167Z" fill="#4285F4"/></svg>