<svg width="41" height="46" fill="none" xmlns="http://www.w3.org/2000/svg"><path d="M20.503 0C9.333 0 .285 8.864.285 20.065c0 7.925 4.535 14.788 11.137 18.13v3.611a3.243 3.243 0 0 0 3.24 3.242h11.695a3.243 3.243 0 0 0 3.24-3.242v-3.61c6.6-3.343 11.136-10.206 11.136-18.131C40.722 8.865 31.673 0 20.503 0Zm7.34 37.078v4.56a1.965 1.965 0 0 1-1.955 1.957H14.974a1.965 1.965 0 0 1-1.955-1.956v-4.572C6.384 34.25 1.737 27.777 1.737 20.232c0-10.127 8.378-18.332 18.71-18.332 10.333 0 18.711 8.205 18.711 18.332 0 7.557-4.658 14.04-11.316 16.846Z" fill="#fff"/><path d="M31.627 17.334s3.899-.447 5.083 2.761c1.184 3.208-1.095 5.042-1.095 5.042s.09-1.7-1.932-3.03l.837-1.296s.224-1.029-.48-.403l-.882 1.017s.313-2.18-1.53-4.09Zm3.117-.402s-1.888-.716-3.854-.18c0 0-1.184-.76-2.368-.67 0 0-.39-2.403-2.279-2.94 0 0 .179-1.744-.39-1.565 0 0 .424-.525 1.083-.715.67-.19 1.564-.034 2.468.559 1.799 1.185.704 3.364.704 3.364l.201.313s.939.269.939-2.627c-.012 0 3.753-.313 3.496 4.46Zm-9.294-4.17s-1.05-.536-2.569.224c0 0-.369 0-.748-.202 0 0-2.28-3.14-1.207-.424 0 0-2.1-.09-2.804.827l-.815-.961s-.503-.57.246-1.532c0 0 1.14-1.43 2.569-1.654 1.43-.224 2.647.179 2.647.179s2.179.67 2.681 3.543Zm-9.048 2.65.749-1.275s.089-.827-.38-1.319c-.47-.492-.95-.917-.95-.917s-1.228-1.028-3.094 0c0 0-.748.582-1.14 1.275 0 0-.022.492.37.67 0 0 .748 1.174-.615.537-1.363-.648-1.597-.537-1.597-.537s-2.145-.29-2.826 2.292c-.682 2.582 2.524 3.678 3.395 3.566.011.011-.156-5.97 6.088-4.293Z" fill="#fff"/><path d="M27.115 24.98s3.965 1.028 5.171-3.387c0 0 .771-4.483-4.334-4.661 0 0-.938-4.975-5.283-2.94 0 0-1.955-2.024-4.558.156 0 0 4.737-1.05 4.86 4.438l.659.503s1.932-3.51 4.01.414c0 0 1.552-.157 2.211.514.66.67-.525.85-.57.581-.044-.268-.915-.604-1.317-.38 0 0 .022 2.873-.726 3.79-.738.905-.123.972-.123.972Z" fill="#fff"/><path d="M32.722 22.878s-.838 2.672-4.01 2.94c0 0-.916 1.274-2.87 2.046 0 0-.503 3.007 2.691 2.738 0 0 2.692-.603 1.43-3.252l.48-.492s.682.514.592 1.565c0 0 0 .492.939.156.938-.335 1.81-.805 2.357-1.654.547-.85.815-2.806-.827-4.058.011.011-.648-.682-.782.011Zm-8.199-1.956v1.442s-.491 1.241-.692 0c-.201-1.24-.593-2.135-.593-2.135s-1.385-2.861-4.077-1.118c-2.692 1.744-1.81 5.22-1.81 5.22s.95 1.767 2.726.75c0 0 .358-.146-.033-.884-.391-.737-.29-1.106-.29-1.106s-.135-1.274.826-.168c0 0 .357 2.27 2.726 2.739 2.368.47 3.708-3.342 3.742-4.013.033-.67.022-2.158-1.207-3.119 0 0-1.363-.29-1.519.94-.168 1.251.201 1.452.201 1.452Z" fill="#fff"/><path d="M27.606 25.863s-.838 0-1.608-.402c0 0-2.927 2.269-4.837 0 0 0-1.743 1.341-2.726.972 0 0 1.006 6.886 6.78 3.175l-.212-1.532s-.692.827-3.06.29c0 0-1.285-.368.178-.57.012.012 2.726.448 5.485-1.933Zm-9.863 2.224s-1.542.123-2-.178c-.458-.302-.882.178-.882.178s-1.15.593-1.776.828c-.626.234.826 1.274.826 1.274s2.134 1.509 4.211-.201c0 0 .86-.37.324-.906s-.703-.995-.703-.995Zm-.09-2.224v1.174s-.234.436-.692.234c-.458-.2-.168.09-1.91-.67 0 0-2.301 2.548-4.334.726-2.033-1.822-.86-3.465-.883-3.33-.033.133.525-1.342 1.419-1.677 0 0 1.854 2.067 4.524 1.307 0 0 .67-.2.67.57-.011.772.871 1.599 1.206 1.666Z" fill="#fff"/><path d="M22.133 17.703s-1.196-5.153-5.172-1.341c0 0-.246.368-1.195-.235-.95-.604-3.084.201-3.084.201s-2.401 1.341-1.351 4.483c0 0 1.061 2.604 4.423 2.1 0 0 .023-.088.637 0 0 0-.123-.57.201-1.564 0 0 .536-.67 0-.939 0 0-.503-1.442-2.279-1.107 0 0-1.217-.245.034-.804 1.25-.57 2.993 1.218 2.993 1.218s2.201-2.783 4.212-1.878c.01 0 .402.47.58-.134ZM10.292 20.62s.592.738.324 1.208c0 0-1.251.704-1.642 2.034 0 0-.883.57-1.218 1.04-.324.47-1.083-.705-1.083-.705s-1.877-2.828.458-5.086l3.161 1.51Zm-1.687 4.528s-.067 2.325 3.184 3.923c0 0-2.033.973-3.184-.335-1.15-1.297-.558-3.398 0-3.588Zm11.372 5.89s.301.56 1.173.37V43.78h-1.173V31.038Z" fill="#fff"/></svg>