<svg width="46" height="33" fill="none" xmlns="http://www.w3.org/2000/svg"><path d="m20.038 16.825-9.841-3.441-6.239-2.18c-3.277-1.147-3.277-3.022 0-4.169l16.08-5.622c1.577-.55 4.157-.55 5.733 0l16.08 5.622c3.278 1.147 3.278 3.022 0 4.166l-16.08 5.622c-1.576.553-4.156.553-5.733.002Z" stroke="#fff" stroke-width="1.6"/><path d="M10.357 14.286v7.861c0 .77.503 1.456 1.254 1.71l10.652 3.61c.415.14.868.14 1.283 0l10.652-3.61c.75-.254 1.254-.94 1.254-1.71v-7.861" stroke="#fff" stroke-width="1.6"/><path d="m22.166 9.857 10.33 5.064v12.31" stroke="url(#a)" stroke-width="1.6" stroke-linecap="round"/><path d="M33.975 32h-2.951v-2.799c0-.9.66-1.63 1.476-1.63.815 0 1.476.73 1.476 1.63V32h-.001Z" stroke="url(#b)" stroke-width="1.6" stroke-linecap="round"/><path d="M30.5 29a2 2 0 1 1 4 0v3h-4v-3Z" fill="url(#c)"/><defs><linearGradient id="a" x1="22.166" y1="27.231" x2="32.496" y2="27.231" gradientUnits="userSpaceOnUse"><stop stop-color="#FB8133"/><stop offset="1" stop-color="#FFBA08"/></linearGradient><linearGradient id="b" x1="31.024" y1="32" x2="33.976" y2="32" gradientUnits="userSpaceOnUse"><stop stop-color="#FB8133"/><stop offset="1" stop-color="#FFBA08"/></linearGradient><linearGradient id="c" x1="30.5" y1="32" x2="34.5" y2="32" gradientUnits="userSpaceOnUse"><stop stop-color="#FB8133"/><stop offset="1" stop-color="#FFBA08"/></linearGradient></defs></svg>