<svg width="54" height="57" fill="none" xmlns="http://www.w3.org/2000/svg"><path d="M24.722.605c1.427-.807 3.283-.807 4.71 0 7.155 3.982 14.328 7.946 21.482 11.928 1.339.754 2.249 2.228 2.23 3.754V40.23c.019 1.596-.98 3.105-2.408 3.824-7.137 3.964-14.274 7.91-21.41 11.875-1.464.825-3.355.754-4.764-.123a1195.413 1195.413 0 0 0-6.424-3.648c-.446-.263-.928-.456-1.23-.877.267-.369.766-.404 1.159-.562.892-.28 1.713-.719 2.534-1.157.214-.14.463-.088.66.035 1.838 1.035 3.64 2.087 5.477 3.122.393.228.785-.07 1.124-.263 7.012-3.894 14.024-7.77 21.018-11.665a.634.634 0 0 0 .375-.666V16.427a.73.73 0 0 0-.446-.737c-7.101-3.964-14.202-7.893-21.321-11.84a.734.734 0 0 0-.839 0C19.53 7.797 12.43 11.744 5.31 15.673a.73.73 0 0 0-.445.737v23.697a.673.673 0 0 0 .392.667c1.892 1.052 3.8 2.105 5.692 3.157 1.07.561 2.39.895 3.568.474 1.035-.369 1.767-1.404 1.749-2.491.018-7.858 0-15.7 0-23.558-.018-.35.303-.63.66-.596.91 0 1.82-.017 2.73 0 .375 0 .642.368.589.72 0 7.893.018 15.804 0 23.697 0 2.105-.875 4.403-2.855 5.42-2.444 1.246-5.46.983-7.868-.21-2.088-1.018-4.086-2.228-6.138-3.333-1.428-.72-2.409-2.245-2.391-3.824V16.287c-.018-1.561.928-3.052 2.32-3.79L24.721.606Z" fill="#fff"/><path d="M30.95 17.42c3.104-.193 6.44-.123 9.241 1.386 2.177 1.157 3.373 3.578 3.408 5.946-.053.316-.392.491-.713.474-.91 0-1.802.017-2.712 0-.375.017-.607-.334-.66-.667-.268-1.14-.893-2.263-1.981-2.806-1.66-.825-3.604-.772-5.406-.755-1.32.07-2.748.176-3.872.947-.856.58-1.124 1.755-.82 2.702.285.684 1.088.894 1.73 1.105 3.747.965 7.726.877 11.401 2.14 1.517.526 3.015 1.526 3.533 3.087.678 2.105.375 4.613-1.142 6.297-1.231 1.386-3.033 2.14-4.817 2.561-2.391.526-4.853.544-7.28.298-2.284-.263-4.639-.842-6.405-2.368-1.5-1.28-2.23-3.28-2.16-5.21.019-.333.34-.56.66-.526.91 0 1.82-.017 2.73 0 .358-.017.625.281.643.614.16 1.088.589 2.21 1.535 2.86 1.855 1.175 4.175 1.087 6.28 1.122 1.748-.07 3.729-.105 5.156-1.245.75-.65.982-1.737.768-2.666-.215-.79-1.053-1.158-1.785-1.404-3.71-1.157-7.725-.736-11.383-2.034-1.48-.51-2.926-1.491-3.497-3-.803-2.122-.428-4.753 1.249-6.385 1.677-1.631 4.05-2.262 6.298-2.473Z" fill="#fff"/></svg>