<svg width="53" height="34" fill="none" xmlns="http://www.w3.org/2000/svg"><path d="M8.54.315C7.043.811 5.244 2.38 4.496 3.812c-.498.936-.636 1.79-.775 5.039-.193 4.405-.498 5.231-2.187 5.7-.83.247-.858.275-.858 1.927 0 1.68.028 1.707.886 1.955 1.661.523 1.966 1.321 2.16 5.727.193 4.268.525 5.341 2.13 6.856.804.77 3.655 2.203 3.96 2.01.11-.083.36-.661.525-1.322.333-1.184.333-1.211-.609-2.148-1.245-1.239-1.577-2.478-1.577-6.002 0-3.47-.36-4.791-1.661-6.085l-.997-.991.997-.964c1.273-1.24 1.66-2.588 1.66-6.003 0-3.662.36-5.038 1.578-6.112.97-.826.97-.826.637-2.065C10.172.673 9.923.067 9.84.012c-.083-.055-.692.083-1.3.303Zm34.381.936c-.415 1.184-.415 1.46-.11 1.652.193.138.442.248.553.248.11 0 .47.413.83.881.554.799.665 1.322.803 4.764.194 4.405.61 5.754 2.077 6.966l.94.77-.83.607c-1.578 1.184-2.02 2.533-2.16 6.663-.138 4.102-.58 5.534-1.882 6.112-.387.166-.636.468-.553.661.055.166.277.826.47 1.46.277.963.416 1.1.914.963 2.16-.66 3.876-2.065 4.79-3.91.691-1.431.774-1.9.857-5.01.056-1.9.222-3.8.388-4.214.304-.77 1.467-1.57 2.297-1.57.333 0 .416-.357.416-1.789 0-1.376-.083-1.79-.415-1.79-.776 0-1.855-.66-2.243-1.404-.277-.523-.387-1.707-.387-3.772 0-4.763-1.052-7.186-3.765-8.618-2.353-1.267-2.409-1.267-2.99.33ZM15.404 22.205c-1.134.303-1.716 1.184-1.716 2.56 0 2.01 2.187 3.222 4.097 2.23 1.606-.825 1.938-2.587.748-3.964-.748-.909-1.772-1.157-3.129-.826Zm9.966 0c-1.135.303-1.716 1.184-1.716 2.56 0 2.01 2.187 3.222 4.097 2.23 1.605-.825 1.938-2.587.747-3.964-.747-.909-1.771-1.157-3.128-.826Zm10.243 0c-1.135.303-1.716 1.184-1.716 2.56 0 2.01 2.186 3.222 4.096 2.23 1.606-.825 1.938-2.587.748-3.964-.748-.909-1.772-1.157-3.128-.826Z" fill="#fff"/></svg>