<svg width="37" height="30" fill="none" xmlns="http://www.w3.org/2000/svg"><path d="M10.25 18.3c-.45 0-.75-.3-.75-.75v-6.3c0-.45.3-.75.75-.75s.75.3.75.75v6.3c0 .3-.3.75-.75.75Z" fill="url(#a)"/><path d="M26.75 18.3c-.45 0-.75-.3-.75-.75v-6.3c0-.45.3-.75.75-.75s.75.3.75.75v6.3c0 .3-.3.75-.75.75Z" fill="url(#b)"/><path d="M35.75 15H1.25c-.45 0-.75-.3-.75-.75s.3-.75.75-.75h34.5c.45 0 .75.3.75.75s-.3.75-.75.75Z" fill="url(#c)"/><path d="M32.75 30H4.25C2.15 30 .5 28.35.5 26.25v-18c0-2.1 1.65-3.75 3.75-3.75h28.5c2.1 0 3.75 1.65 3.75 3.75v18c0 2.1-1.65 3.75-3.75 3.75ZM4.25 6C3.05 6 2 7.05 2 8.25v18c0 1.2 1.05 2.25 2.25 2.25h28.5c1.2 0 2.25-1.05 2.25-2.25v-18C35 7.05 33.95 6 32.75 6H4.25Z" fill="#fff"/><path d="M23.75 6c-.45 0-.75-.3-.75-.75v-3c0-.45-.3-.75-.75-.75h-7.5c-.45 0-.75.3-.75.75v3c0 .45-.3.75-.75.75s-.75-.3-.75-.75v-3c0-1.2 1.05-2.25 2.25-2.25h7.5c1.2 0 2.25 1.05 2.25 2.25v3c0 .45-.3.75-.75.75Z" fill="#fff"/><defs><linearGradient id="a" x1="9.5" y1="18.3" x2="11" y2="18.3" gradientUnits="userSpaceOnUse"><stop stop-color="#FB8133"/><stop offset="1" stop-color="#FFBA08"/></linearGradient><linearGradient id="b" x1="26" y1="18.3" x2="27.5" y2="18.3" gradientUnits="userSpaceOnUse"><stop stop-color="#FB8133"/><stop offset="1" stop-color="#FFBA08"/></linearGradient><linearGradient id="c" x1=".5" y1="15" x2="36.5" y2="15" gradientUnits="userSpaceOnUse"><stop stop-color="#FB8133"/><stop offset="1" stop-color="#FFBA08"/></linearGradient></defs></svg>