<svg width="21" height="20" fill="none" xmlns="http://www.w3.org/2000/svg"><path d="M19.851 2.625H17.72v1.312h1.968v14.438H1.313V3.937H3.28V2.625H1.15A1.168 1.168 0 0 0 0 3.813v14.686a1.169 1.169 0 0 0 1.149 1.188H19.85A1.169 1.169 0 0 0 21 18.5V3.813a1.168 1.168 0 0 0-1.149-1.188Z" fill="url(#a)"/><path d="M3.938 7.875H5.25v1.312H3.937V7.875Z" fill="url(#b)"/><path d="M7.875 7.875h1.312v1.312H7.875V7.875Z" fill="url(#c)"/><path d="M11.813 7.875h1.312v1.312h-1.313V7.875Z" fill="url(#d)"/><path d="M15.75 7.875h1.313v1.312H15.75V7.875Z" fill="url(#e)"/><path d="M3.938 11.156H5.25v1.313H3.937v-1.313Z" fill="url(#f)"/><path d="M7.875 11.156h1.312v1.313H7.875v-1.313Z" fill="url(#g)"/><path d="M11.813 11.156h1.312v1.313h-1.313v-1.313Z" fill="url(#h)"/><path d="M15.75 11.156h1.313v1.313H15.75v-1.313Z" fill="url(#i)"/><path d="M3.938 14.437H5.25v1.313H3.937v-1.313Z" fill="url(#j)"/><path d="M7.875 14.437h1.312v1.313H7.875v-1.313Z" fill="url(#k)"/><path d="M11.813 14.437h1.312v1.313h-1.313v-1.313Z" fill="url(#l)"/><path d="M15.75 14.437h1.313v1.313H15.75v-1.313Z" fill="url(#m)"/><path d="M5.25 5.25a.656.656 0 0 0 .656-.656V.656a.656.656 0 0 0-1.312 0v3.938a.656.656 0 0 0 .656.656Z" fill="url(#n)"/><path d="M15.75 5.25a.656.656 0 0 0 .656-.656V.656a.656.656 0 1 0-1.312 0v3.938a.656.656 0 0 0 .656.656Z" fill="url(#o)"/><path d="M7.219 2.625h6.562v1.312H7.22V2.625Z" fill="url(#p)"/><defs><linearGradient id="i" x1="15.75" y1="11.812" x2="17.063" y2="11.812" gradientUnits="userSpaceOnUse"><stop stop-color="#FB8530"/><stop offset="1" stop-color="#FEB50B"/></linearGradient><linearGradient id="a" x1="0" y1="11.156" x2="21" y2="11.156" gradientUnits="userSpaceOnUse"><stop stop-color="#FB8530"/><stop offset="1" stop-color="#FEB50B"/></linearGradient><linearGradient id="c" x1="7.875" y1="8.531" x2="9.187" y2="8.531" gradientUnits="userSpaceOnUse"><stop stop-color="#FB8530"/><stop offset="1" stop-color="#FEB50B"/></linearGradient><linearGradient id="d" x1="11.813" y1="8.531" x2="13.125" y2="8.531" gradientUnits="userSpaceOnUse"><stop stop-color="#FB8530"/><stop offset="1" stop-color="#FEB50B"/></linearGradient><linearGradient id="e" x1="15.75" y1="8.531" x2="17.063" y2="8.531" gradientUnits="userSpaceOnUse"><stop stop-color="#FB8530"/><stop offset="1" stop-color="#FEB50B"/></linearGradient><linearGradient id="f" x1="3.938" y1="11.812" x2="5.25" y2="11.812" gradientUnits="userSpaceOnUse"><stop stop-color="#FB8530"/><stop offset="1" stop-color="#FEB50B"/></linearGradient><linearGradient id="g" x1="7.875" y1="11.812" x2="9.187" y2="11.812" gradientUnits="userSpaceOnUse"><stop stop-color="#FB8530"/><stop offset="1" stop-color="#FEB50B"/></linearGradient><linearGradient id="h" x1="11.813" y1="11.812" x2="13.125" y2="11.812" gradientUnits="userSpaceOnUse"><stop stop-color="#FB8530"/><stop offset="1" stop-color="#FEB50B"/></linearGradient><linearGradient id="b" x1="3.938" y1="8.531" x2="5.25" y2="8.531" gradientUnits="userSpaceOnUse"><stop stop-color="#FB8530"/><stop offset="1" stop-color="#FEB50B"/></linearGradient><linearGradient id="j" x1="3.938" y1="15.093" x2="5.25" y2="15.093" gradientUnits="userSpaceOnUse"><stop stop-color="#FB8530"/><stop offset="1" stop-color="#FEB50B"/></linearGradient><linearGradient id="k" x1="7.875" y1="15.093" x2="9.187" y2="15.093" gradientUnits="userSpaceOnUse"><stop stop-color="#FB8530"/><stop offset="1" stop-color="#FEB50B"/></linearGradient><linearGradient id="l" x1="11.813" y1="15.093" x2="13.125" y2="15.093" gradientUnits="userSpaceOnUse"><stop stop-color="#FB8530"/><stop offset="1" stop-color="#FEB50B"/></linearGradient><linearGradient id="m" x1="15.75" y1="15.093" x2="17.063" y2="15.093" gradientUnits="userSpaceOnUse"><stop stop-color="#FB8530"/><stop offset="1" stop-color="#FEB50B"/></linearGradient><linearGradient id="n" x1="4.594" y1="2.625" x2="5.906" y2="2.625" gradientUnits="userSpaceOnUse"><stop stop-color="#FB8530"/><stop offset="1" stop-color="#FEB50B"/></linearGradient><linearGradient id="o" x1="15.094" y1="2.625" x2="16.406" y2="2.625" gradientUnits="userSpaceOnUse"><stop stop-color="#FB8530"/><stop offset="1" stop-color="#FEB50B"/></linearGradient><linearGradient id="p" x1="7.219" y1="3.281" x2="13.781" y2="3.281" gradientUnits="userSpaceOnUse"><stop stop-color="#FB8530"/><stop offset="1" stop-color="#FEB50B"/></linearGradient></defs></svg>