<svg width="116" height="95" fill="none" xmlns="http://www.w3.org/2000/svg"><g filter="url(#a)"><path d="M90.45 27.74a8.252 8.252 0 0 0-2.164-3.771 8.633 8.633 0 0 0-3.821-2.212C79.159 20.5 57.935 20.5 57.935 20.5s-21.224 0-26.53 1.376a8.632 8.632 0 0 0-3.82 2.212 8.252 8.252 0 0 0-2.164 3.772A84.213 84.213 0 0 0 24 43.687a84.216 84.216 0 0 0 1.42 15.947 8.27 8.27 0 0 0 2.215 3.634 8.641 8.641 0 0 0 3.77 2.11c5.305 1.377 26.53 1.377 26.53 1.377s21.223 0 26.529-1.376a8.633 8.633 0 0 0 3.82-2.213 8.252 8.252 0 0 0 2.164-3.771 84.213 84.213 0 0 0 1.42-15.708 84.215 84.215 0 0 0-1.42-15.947Z" fill="#fff"/><path d="m50.992 53.471 17.738-9.783-17.738-9.784v19.567Z" fill="url(#b)"/></g><defs><linearGradient id="b" x1="50.992" y1="53.471" x2="68.73" y2="53.471" gradientUnits="userSpaceOnUse"><stop stop-color="#FB8133"/><stop offset="1" stop-color="#FFBA08"/></linearGradient><filter id="a" x="0" y=".5" width="115.871" height="94.254" filterUnits="userSpaceOnUse" color-interpolation-filters="sRGB"><feFlood flood-opacity="0" result="BackgroundImageFix"/><feColorMatrix in="SourceAlpha" values="0 0 0 0 0 0 0 0 0 0 0 0 0 0 0 0 0 0 127 0" result="hardAlpha"/><feOffset dy="4"/><feGaussianBlur stdDeviation="12"/><feComposite in2="hardAlpha" operator="out"/><feColorMatrix values="0 0 0 0 0 0 0 0 0 0 0 0 0 0 0 0 0 0 0.2 0"/><feBlend in2="BackgroundImageFix" result="effect1_dropShadow_4157_10708"/><feBlend in="SourceGraphic" in2="effect1_dropShadow_4157_10708" result="shape"/></filter></defs></svg>