<svg width="40" height="31" fill="none" xmlns="http://www.w3.org/2000/svg"><path fill-rule="evenodd" clip-rule="evenodd" d="M24.408 2.426A71.39 71.39 0 0 0 20 3.24a71.376 71.376 0 0 0-4.408-.813c1.245.49 2.51 1.077 3.845 1.722a.998.998 0 0 1 .563.898c0-.383.218-.732.563-.898 1.335-.645 2.6-1.233 3.845-1.722ZM20 27.4c0 .578-.473 1-1 1.007v.197c-6.269-1.06-10.698-1.128-17-.022V5.032a52.31 52.31 0 0 1 2-.417V2.582c-1.026.184-2.1.412-3.243.688A.991.991 0 0 0 0 4.235v25.54c0 .632.583 1.104 1.204.986 7.076-1.35 11.525-1.27 18.604.015a1.064 1.064 0 0 0 .384 0c7.079-1.285 11.528-1.365 18.604-.015A1.011 1.011 0 0 0 40 29.774V4.236a.99.99 0 0 0-.757-.966A55.77 55.77 0 0 0 36 2.582v2.033c.644.12 1.308.26 2 .417v23.55c-6.302-1.106-10.731-1.04-17 .022v-.197c-.527-.008-1-.43-1-1.007Z" fill="url(#a)"/><path fill-rule="evenodd" clip-rule="evenodd" d="M5 2.506v22.548a.023.023 0 0 0 .007.008.064.064 0 0 0 .053.013c5.34-.98 9.353.22 13.915 2.33a.025.025 0 0 0 .008.002h.002a.026.026 0 0 0 .012-.004.012.012 0 0 0 .003-.002V5.047c-4.98-2.404-8.734-3.88-14-2.54ZM4.474.576c6.019-1.54 10.347.232 15.398 2.671A1.998 1.998 0 0 1 21 5.047V27.4c0 1.487-1.547 2.428-2.864 1.82-4.38-2.025-7.95-3.052-12.715-2.177C4.211 27.265 3 26.363 3 25.054V2.491c0-.88.583-1.687 1.474-1.915Z" fill="url(#b)"/><path fill-rule="evenodd" clip-rule="evenodd" d="M35 2.506v22.548a.02.02 0 0 1-.008.008.065.065 0 0 1-.052.013c-5.34-.98-9.352.22-13.915 2.33a.025.025 0 0 1-.008.002h-.002a.026.026 0 0 1-.012-.004L21 27.4V5.046c4.98-2.404 8.734-3.88 14-2.54Zm.526-1.93c-6.019-1.54-10.347.232-15.398 2.671A2 2 0 0 0 19 5.047v22.354c0 1.487 1.547 2.428 2.864 1.82 4.38-2.026 7.95-3.053 12.715-2.178 1.21.222 2.421-.679 2.421-1.989V2.491A1.97 1.97 0 0 0 35.526.576Z" fill="url(#c)"/><path fill-rule="evenodd" clip-rule="evenodd" d="M7.01 21.002c3.67-.038 5.717.332 9.612 1.923l.756-1.852c-4.127-1.685-6.438-2.112-10.388-2.07l.02 2Z" fill="url(#d)"/><path fill-rule="evenodd" clip-rule="evenodd" d="M7.01 17.002c3.67-.038 5.717.332 9.612 1.923l.756-1.852c-4.127-1.685-6.438-2.112-10.388-2.07l.02 2Z" fill="url(#e)"/><path fill-rule="evenodd" clip-rule="evenodd" d="M7.01 13.002c3.67-.038 5.717.332 9.612 1.923l.756-1.852c-4.127-1.685-6.438-2.112-10.388-2.07l.02 2Z" fill="url(#f)"/><path fill-rule="evenodd" clip-rule="evenodd" d="M9.5 5v3h-2V5h2Z" fill="url(#g)"/><path fill-rule="evenodd" clip-rule="evenodd" d="M13 6v3h-2V6h2Z" fill="url(#h)"/><path fill-rule="evenodd" clip-rule="evenodd" d="M16.5 7v3h-2V7h2Z" fill="url(#i)"/><path fill-rule="evenodd" clip-rule="evenodd" d="M32.99 21.002c-3.67-.038-5.718.332-9.613 1.923l-.756-1.852c4.127-1.685 6.438-2.112 10.388-2.07l-.02 2Z" fill="url(#j)"/><path fill-rule="evenodd" clip-rule="evenodd" d="M32.99 17.002c-3.67-.038-5.718.332-9.613 1.923l-.756-1.852c4.127-1.685 6.438-2.112 10.388-2.07l-.02 2Z" fill="url(#k)"/><path fill-rule="evenodd" clip-rule="evenodd" d="M32.99 13.002c-3.67-.038-5.718.332-9.613 1.923l-.756-1.852c4.127-1.685 6.438-2.112 10.388-2.07l-.02 2Z" fill="url(#l)"/><path fill-rule="evenodd" clip-rule="evenodd" d="M30.5 5v3h2V5h-2Z" fill="url(#m)"/><path fill-rule="evenodd" clip-rule="evenodd" d="M27 6v3h2V6h-2Z" fill="url(#n)"/><path fill-rule="evenodd" clip-rule="evenodd" d="M23.5 7v3h2V7h-2Z" fill="url(#o)"/><defs><linearGradient id="h" x1="11" y1="8.999" x2="13" y2="8.999" gradientUnits="userSpaceOnUse"><stop stop-color="#258EE8"/><stop offset="1" stop-color="#2AB5ED"/></linearGradient><linearGradient id="a" x1="0" y1="30.793" x2="40" y2="30.793" gradientUnits="userSpaceOnUse"><stop stop-color="#258EE8"/><stop offset="1" stop-color="#2AB5ED"/></linearGradient><linearGradient id="c" x1="19" y1="29.408" x2="37" y2="29.408" gradientUnits="userSpaceOnUse"><stop stop-color="#258EE8"/><stop offset="1" stop-color="#2AB5ED"/></linearGradient><linearGradient id="d" x1="6.99" y1="22.925" x2="17.378" y2="22.925" gradientUnits="userSpaceOnUse"><stop stop-color="#258EE8"/><stop offset="1" stop-color="#2AB5ED"/></linearGradient><linearGradient id="e" x1="6.99" y1="18.925" x2="17.378" y2="18.925" gradientUnits="userSpaceOnUse"><stop stop-color="#258EE8"/><stop offset="1" stop-color="#2AB5ED"/></linearGradient><linearGradient id="f" x1="6.99" y1="14.925" x2="17.378" y2="14.925" gradientUnits="userSpaceOnUse"><stop stop-color="#258EE8"/><stop offset="1" stop-color="#2AB5ED"/></linearGradient><linearGradient id="g" x1="7.5" y1="7.999" x2="9.5" y2="7.999" gradientUnits="userSpaceOnUse"><stop stop-color="#258EE8"/><stop offset="1" stop-color="#2AB5ED"/></linearGradient><linearGradient id="b" x1="3" y1="29.407" x2="21" y2="29.407" gradientUnits="userSpaceOnUse"><stop stop-color="#258EE8"/><stop offset="1" stop-color="#2AB5ED"/></linearGradient><linearGradient id="i" x1="14.5" y1="9.999" x2="16.5" y2="9.999" gradientUnits="userSpaceOnUse"><stop stop-color="#258EE8"/><stop offset="1" stop-color="#2AB5ED"/></linearGradient><linearGradient id="j" x1="22.621" y1="22.925" x2="33.009" y2="22.925" gradientUnits="userSpaceOnUse"><stop stop-color="#258EE8"/><stop offset="1" stop-color="#2AB5ED"/></linearGradient><linearGradient id="k" x1="22.621" y1="18.925" x2="33.009" y2="18.925" gradientUnits="userSpaceOnUse"><stop stop-color="#258EE8"/><stop offset="1" stop-color="#2AB5ED"/></linearGradient><linearGradient id="l" x1="22.621" y1="14.925" x2="33.009" y2="14.925" gradientUnits="userSpaceOnUse"><stop stop-color="#258EE8"/><stop offset="1" stop-color="#2AB5ED"/></linearGradient><linearGradient id="m" x1="30.5" y1="7.999" x2="32.5" y2="7.999" gradientUnits="userSpaceOnUse"><stop stop-color="#258EE8"/><stop offset="1" stop-color="#2AB5ED"/></linearGradient><linearGradient id="n" x1="27" y1="8.999" x2="29" y2="8.999" gradientUnits="userSpaceOnUse"><stop stop-color="#258EE8"/><stop offset="1" stop-color="#2AB5ED"/></linearGradient><linearGradient id="o" x1="23.5" y1="9.999" x2="25.5" y2="9.999" gradientUnits="userSpaceOnUse"><stop stop-color="#258EE8"/><stop offset="1" stop-color="#2AB5ED"/></linearGradient></defs></svg>