<svg width="79" height="80" fill="none" xmlns="http://www.w3.org/2000/svg"><rect x="1.12" y="1.12" width="76.084" height="77.76" rx="6.324" fill="#7B09D3" fill-opacity=".5"/><path d="M24.983 39.78c-.368 0-.809-.074-1.102-.294-.956-.514-2.131-1.837-2.131-5.364 0-7.347-3.968-11.608-3.968-11.608l-.66-.735 3.452-3.82.588.881c.073.074 1.91 2.719 4.776 1.984l.367 1.91c-2.865.735-4.922-.808-5.951-1.91l-.735.955c1.25 1.616 3.894 5.878 3.894 12.343 0 1.91.367 3.233 1.102 3.6.515.294 1.323 0 2.058-.734 1.91-1.91 3.306-6.613 3.306-6.613l1.616.588c-.073.22-1.543 5.29-3.82 7.494-.956.882-1.91 1.323-2.792 1.323ZM53.343 39.78c.367 0 .808-.074 1.102-.294.955-.514 2.13-1.837 2.13-5.364 0-7.42 3.894-11.608 3.968-11.682l.661-.661-3.453-3.82-.588.881c-.073.074-1.91 2.719-4.776 1.984l-.367 1.91c2.865.735 4.923-.808 5.951-1.91l.882.955c-1.25 1.616-3.894 5.878-3.894 12.343 0 1.91-.367 3.233-1.102 3.6-.514.294-1.323 0-2.057-.734-1.91-1.91-3.307-6.613-3.307-6.613l-1.616.588c.073.22 1.543 5.29 3.82 7.494.809.882 1.764 1.323 2.645 1.323ZM36.959 34.784h4.482v18h-4.482v-18Z" fill="#F2B200"/><path d="M37.838 34.784h2.645v18h-2.645v-18Z" fill="#FFCE31"/><path d="M24.32 17.959c1.25 11.314 7.421 20.351 14.842 20.351 7.42 0 13.592-9.037 14.841-20.352H24.32Z" fill="#F2B200"/><path d="M27.186 17.959C28.213 29.42 33.21 38.53 39.16 38.53c5.952 0 10.948-9.11 11.976-20.572H27.186Z" fill="#FFCE31"/><path d="M50.623 56.164H27.699s5.143-6.613 11.462-6.613 11.462 6.613 11.462 6.613Z" fill="#F2B200"/><path d="M47.902 56.164H30.416s3.894-6.76 8.743-6.76c4.85 0 8.743 6.76 8.743 6.76Z" fill="#FFCE31"/><path d="M24.32 57.633h29.683v4.409H24.32v-4.409Z" fill="#BC845E"/><path d="M27.7 56.164h22.996v1.47H27.699v-1.47Z" fill="#916140"/><path d="M31.814 58.736H46.51v2.204H31.814v-2.204Z" fill="#F2B200"/><path d="M24.32 57.633h1.47v4.409h-1.47v-4.409Z" fill="#CE9C7A"/><path d="M52.531 57.633h1.47v4.409h-1.47v-4.409Z" fill="#916140"/><path d="M32.549 58.736h13.225v2.204H32.549v-2.204Z" fill="#FFCE31"/><rect x="1.12" y="1.12" width="76.084" height="77.76" rx="6.324" stroke="#fff" stroke-width="2.24"/></svg>