<svg width="48" height="54" fill="none" xmlns="http://www.w3.org/2000/svg"><path d="M.368 38.975V15.141s0-1.695 1.65-2.593C3.67 11.651 21.826.831 21.826.831s2.3-1.546 4.702 0c0 0 21.558 11.917 21.208 12.615l-9.554 5.585s-1.8-4.189-6.552-6.483c-5.652-2.742-14.856-3.091-21.458 6.632 0 0-4.302 6.731.15 15.757L.818 40.272s-.45-.3-.45-1.297Z" fill="#fff"/><path d="M31.03 23.02c-1.401-2.344-3.952-3.94-6.903-3.94-4.402 0-8.003 3.59-8.003 7.978a7.71 7.71 0 0 0 1 3.84l13.905-7.879Z" fill="#fff"/><path d="M17.074 30.848c1.4 2.343 3.952 3.94 6.903 3.94 4.402 0 8.003-3.591 8.003-7.979a7.71 7.71 0 0 0-1-3.84l-13.906 7.879Z" fill="#fff"/><path d="M47.736 13.446 24.527 26.659l23.06 13.513c.8-.499.15-26.726.15-26.726Zm-7.203 14.46h-1.95v1.944h-2.101v-1.944h-2V25.86h2v-2.044h2.1v2.044h1.951v2.045Zm6.803 0h-1.95v1.944h-2.101v-1.944h-2.001V25.86h2v-2.044h2.101v2.044h1.951v2.045Z" fill="#fff"/><path d="M10.271 34.886s4.602 8.477 14.256 8.028c9.654-.448 13.655-8.277 13.655-8.277l9.354 5.385s2.05.4-20.808 12.815c0 0-2.451 1.645-5.102 0 0 0-20.658-11.518-20.808-12.615l9.454-5.336Z" fill="#fff"/></svg>