<svg width="51" height="50" fill="none" xmlns="http://www.w3.org/2000/svg"><rect x="5.832" y="5.081" width="39.752" height="39.751" rx="8.261" fill="#fff"/><path d="M41.199 13.265a3.8 3.8 0 0 0-3.8-3.8H14.016a3.8 3.8 0 0 0-3.8 3.8v23.383a3.8 3.8 0 0 0 3.8 3.8H37.4a3.8 3.8 0 0 0 3.8-3.8V13.265Zm-1.754 23.383c0 1.13-.916 2.046-2.046 2.046H14.016a2.046 2.046 0 0 1-2.046-2.046V13.265c0-1.13.916-2.046 2.046-2.046H37.4c1.13 0 2.046.915 2.046 2.046v23.383Z" fill="#15171E"/><path d="M43.523 11.362c0-2.703-2.111-4.894-4.716-4.894H12.608c-2.605 0-4.716 2.19-4.716 4.894V38.55c0 2.703 2.111 4.894 4.716 4.894h26.2c2.604 0 4.715-2.191 4.715-4.894v-27.19ZM41.951 38.55c0 1.802-1.408 3.263-3.144 3.263H12.608c-1.737 0-3.144-1.461-3.144-3.263v-27.19c0-1.802 1.407-3.262 3.144-3.262h26.2c1.735 0 3.143 1.46 3.143 3.263V38.55Z" fill="#fff"/><path d="M28.923 40.677a.877.877 0 0 0-.877.877v7.307a.876.876 0 1 0 1.754 0v-7.307a.877.877 0 0 0-.877-.877ZM22.492 40.677a.877.877 0 0 0-.877.877v7.307a.876.876 0 1 0 1.754 0v-7.307a.877.877 0 0 0-.877-.877ZM22.492 9.235a.877.877 0 0 0 .877-.877V1.05a.877.877 0 0 0-1.754 0v7.307c0 .484.392.877.877.877ZM28.923 9.235a.877.877 0 0 0 .877-.877V1.05a.877.877 0 0 0-1.754 0v7.307c0 .484.392.877.877.877ZM49.613 20.864h-7.307a.877.877 0 1 0 0 1.754h7.307a.877.877 0 1 0 0-1.753ZM49.613 27.295h-7.307a.877.877 0 1 0 0 1.754h7.307a.877.877 0 1 0 0-1.754ZM9.109 27.295H1.802a.877.877 0 1 0 0 1.753h7.307a.877.877 0 0 0 0-1.753ZM9.109 20.864H1.802a.877.877 0 1 0 0 1.754h7.307a.877.877 0 0 0 0-1.753Z" fill="#fff"/></svg>