<svg width="48" height="57" fill="none" xmlns="http://www.w3.org/2000/svg"><path d="M44.302 18.332a3.455 3.455 0 0 1 3.457 3.448v14.483a3.455 3.455 0 0 1-3.457 3.448 3.455 3.455 0 0 1-3.458-3.448V21.78a3.455 3.455 0 0 1 3.458-3.448ZM.168 21.78a3.455 3.455 0 0 1 3.457-3.448 3.455 3.455 0 0 1 3.458 3.448v14.483a3.455 3.455 0 0 1-3.458 3.448 3.455 3.455 0 0 1-3.457-3.448V21.78Zm39.267-2.842h.171v22.73c0 1.894-1.557 3.447-3.457 3.447h-2.912v7.921a3.455 3.455 0 0 1-3.457 3.448 3.455 3.455 0 0 1-3.457-3.448v-7.92h-4.719v7.92a3.455 3.455 0 0 1-3.457 3.448 3.455 3.455 0 0 1-3.457-3.448v-7.92h-2.912c-1.9 0-3.457-1.554-3.457-3.449v-22.73h31.114ZM8.352 17.727v-1.662c.047-.474.117-.94.21-1.39.857-4.046 3.683-7.47 7.56-9.459L13.74.83a.561.561 0 1 1 .989-.536l2.414 4.45a17.292 17.292 0 0 1 6.79-1.375c2.452 0 4.773.505 6.836 1.39l2.43-4.465a.561.561 0 1 1 .989.536l-2.4 4.41c3.7 1.911 6.432 5.126 7.406 8.939.249.986.381 2.019.381 3.075 0 .155-.008.318-.008.474H8.353Zm8.495-8.442a1.469 1.469 0 1 0 0 2.936 1.469 1.469 0 1 0 0-2.936Zm14.233 0a1.468 1.468 0 1 0 0 2.936 1.468 1.468 0 1 0 0-2.936Z" fill="#fff"/></svg>