<svg width="33" height="34" fill="none" xmlns="http://www.w3.org/2000/svg"><path d="M31.536 8.705h-6.06a5.653 5.653 0 0 0 .886-3.038A5.673 5.673 0 0 0 20.696 0a5.66 5.66 0 0 0-4.27 1.946A5.66 5.66 0 0 0 12.154 0a5.673 5.673 0 0 0-5.667 5.667c0 1.117.324 2.16.887 3.038H1.314C.587 8.705 0 9.293 0 10.02v8.213c0 .18.148.328.329.328H1.97v14.126c0 .727.587 1.314 1.314 1.314h26.28c.727 0 1.314-.587 1.314-1.314V18.56h1.643a.33.33 0 0 0 .328-.328v-8.213c0-.726-.587-1.314-1.314-1.314ZM17.821 5.667a2.878 2.878 0 0 1 2.875-2.875 2.877 2.877 0 0 1 2.874 2.875 2.877 2.877 0 0 1-2.874 2.874H17.82V5.667Zm-5.666-2.875a2.878 2.878 0 0 1 2.874 2.875V8.54h-2.874A2.878 2.878 0 0 1 9.28 5.667a2.878 2.878 0 0 1 2.875-2.875ZM2.792 15.768v-4.27H15.03v4.27H2.792Zm1.971 2.792H15.03v12.648H4.763V18.56Zm23.324 12.648H17.821V18.56h10.266v12.648Zm1.971-15.44H17.821v-4.27h12.237v4.27Z" fill="url(#a)"/><defs><linearGradient id="a" x1="16.425" y1="0" x2="16.425" y2="34" gradientUnits="userSpaceOnUse"><stop stop-color="#219653"/><stop offset="1" stop-color="#55C294"/></linearGradient></defs></svg>