<svg width="31" height="29" fill="none" xmlns="http://www.w3.org/2000/svg"><path d="m31 23.25-1.566-1.566-2.863 2.864V15.5h-2.215v9.048l-2.863-2.863-1.565 1.565 5.535 5.536L31 23.25Z" fill="url(#a)"/><path d="M18.822 11.071h4.429v2.215h-4.429V11.07Z" fill="url(#b)"/><path d="M18.822 6.643h7.75v2.214h-7.75V6.643Z" fill="url(#c)"/><path d="M7.75 15.5h6.642a3.321 3.321 0 0 1 3.321 3.321v2.215H15.5V18.82a1.107 1.107 0 0 0-1.107-1.107H7.749a1.107 1.107 0 0 0-1.107 1.107v2.215H4.428V18.82A3.321 3.321 0 0 1 7.749 15.5Z" fill="url(#d)"/><path d="M15.5 9.964a4.429 4.429 0 1 0-8.858 0 4.429 4.429 0 0 0 8.858 0Zm-2.215 0a2.214 2.214 0 1 1-4.428 0 2.214 2.214 0 0 1 4.428 0Z" fill="url(#e)"/><path d="M17.714 24.357h-15.5V2.214h26.572v11.072H31V2.214A2.214 2.214 0 0 0 28.786 0H2.214A2.214 2.214 0 0 0 0 2.214v22.143a2.214 2.214 0 0 0 2.214 2.214h15.5v-2.214Z" fill="url(#f)"/><defs><linearGradient id="a" x1="19.928" y1="22.143" x2="30.999" y2="22.143" gradientUnits="userSpaceOnUse"><stop stop-color="#FB8530"/><stop offset="1" stop-color="#FEB50B"/></linearGradient><linearGradient id="b" x1="18.822" y1="12.179" x2="23.251" y2="12.179" gradientUnits="userSpaceOnUse"><stop stop-color="#FB8530"/><stop offset="1" stop-color="#FEB50B"/></linearGradient><linearGradient id="c" x1="18.822" y1="7.75" x2="26.572" y2="7.75" gradientUnits="userSpaceOnUse"><stop stop-color="#FB8530"/><stop offset="1" stop-color="#FEB50B"/></linearGradient><linearGradient id="d" x1="4.428" y1="18.268" x2="17.713" y2="18.268" gradientUnits="userSpaceOnUse"><stop stop-color="#FB8530"/><stop offset="1" stop-color="#FEB50B"/></linearGradient><linearGradient id="e" x1="6.643" y1="9.964" x2="15.5" y2="9.964" gradientUnits="userSpaceOnUse"><stop stop-color="#FB8530"/><stop offset="1" stop-color="#FEB50B"/></linearGradient><linearGradient id="f" x1="0" y1="13.286" x2="31" y2="13.286" gradientUnits="userSpaceOnUse"><stop stop-color="#FB8530"/><stop offset="1" stop-color="#FEB50B"/></linearGradient></defs></svg>