<svg width="33" height="31" fill="none" xmlns="http://www.w3.org/2000/svg"><g clip-path="url(#a)"><path d="M9.5 23.25c-.256 0-.512-.094-.707-.284a.948.948 0 0 1 0-1.37l3.626-3.513-3.627-3.513a.948.948 0 0 1 0-1.37 1.023 1.023 0 0 1 1.415 0l4.333 4.198c.39.378.39.992 0 1.37l-4.333 4.198c-.195.19-.451.284-.707.284Z" fill="url(#b)"/><path d="M23.5 23.25h-6c-.552 0-1-.434-1-.969 0-.534.448-.968 1-.968h6c.552 0 1 .434 1 .968 0 .535-.448.969-1 .969Z" fill="url(#c)"/><path d="M28.833 29.708H4.167C2.144 29.708.5 28.116.5 26.156V4.844c0-1.96 1.644-3.552 3.667-3.552h24.666c2.023 0 3.667 1.592 3.667 3.552v21.312c0 1.96-1.644 3.552-3.667 3.552ZM4.167 3.23c-.919 0-1.667.725-1.667 1.615v21.312c0 .89.748 1.615 1.667 1.615h24.666c.919 0 1.667-.725 1.667-1.615V4.844c0-.89-.748-1.615-1.667-1.615H4.167Z" fill="#fff"/><path d="M31.5 7.75h-30c-.552 0-1-.434-1-.969 0-.534.448-.968 1-.968h30c.552 0 1 .434 1 .968 0 .535-.448.969-1 .969Z" fill="#fff"/></g><defs><linearGradient id="b" x1="8.499" y1="23.25" x2="14.833" y2="23.25" gradientUnits="userSpaceOnUse"><stop stop-color="#FB8133"/><stop offset="1" stop-color="#FFBA08"/></linearGradient><linearGradient id="c" x1="16.5" y1="23.25" x2="24.5" y2="23.25" gradientUnits="userSpaceOnUse"><stop stop-color="#FB8133"/><stop offset="1" stop-color="#FFBA08"/></linearGradient><clipPath id="a"><path fill="#fff" transform="translate(.5)" d="M0 0h32v31H0z"/></clipPath></defs></svg>