<svg width="41" height="55" fill="none" xmlns="http://www.w3.org/2000/svg"><path d="M13.007 42.348s-2.092 1.217 1.49 1.629c4.339.495 6.556.424 11.338-.481 0 0 1.257.788 3.013 1.47-10.72 4.595-24.26-.266-15.84-2.618ZM11.697 36.353S9.35 38.09 12.935 38.46c4.635.478 8.295.517 14.63-.703 0 0 .876.889 2.253 1.374-12.96 3.79-27.396.3-18.12-2.78ZM22.74 26.183c2.641 3.04-.694 5.777-.694 5.777s6.707-3.462 3.627-7.797c-2.877-4.044-5.083-6.052 6.86-12.979 0 0-18.747 4.682-9.793 14.999Z" fill="#fff"/><path d="M36.917 46.782s1.549 1.276-1.705 2.263c-6.188 1.875-25.753 2.44-31.189.075-1.953-.85 1.71-2.03 2.863-2.277 1.202-.26 1.889-.212 1.889-.212-2.173-1.53-14.045 3.005-6.03 4.304C24.6 54.48 42.586 49.34 36.917 46.782ZM14.014 30.141s-9.952 2.364-3.525 3.222c2.714.364 8.125.281 13.165-.14 4.118-.348 8.254-1.087 8.254-1.087s-1.452.622-2.503 1.34c-10.106 2.657-29.63 1.42-24.01-1.298 4.754-2.298 8.619-2.037 8.619-2.037ZM31.867 40.12c10.273-5.338 5.523-10.469 2.208-9.777-.813.169-1.175.315-1.175.315s.301-.472.878-.677c6.559-2.306 11.603 6.801-2.118 10.408 0 0 .16-.142.207-.269ZM25.672 0s5.69 5.692-5.397 14.444c-8.89 7.02-2.027 11.023-.003 15.597-5.19-4.682-8.998-8.803-6.443-12.64 3.75-5.63 14.138-8.36 11.843-17.401Z" fill="#fff"/><path d="M15.023 54.587c9.861.63 25.005-.35 25.363-5.017 0 0-.69 1.77-8.15 3.174-8.417 1.584-18.798 1.399-24.955.384 0 0 1.26 1.043 7.742 1.459Z" fill="#fff"/></svg>