<svg width="24" height="25" fill="none" xmlns="http://www.w3.org/2000/svg"><path d="M5.47 15.438 2.262 17.12c-1.684.776-1.684 2.046 0 2.823L5.47 21.42l5.058 2.331c.81.374 2.136.374 2.946-.001l8.264-3.808c1.684-.776 1.684-2.046 0-2.822l-3.206-1.683" stroke="#fff" stroke-width="1.6"/><path d="m5.47 9.25-3.207 1.682c-1.684.777-1.684 2.047 0 2.824l3.206 1.477 5.058 2.33c.81.374 2.136.374 2.946 0l8.264-3.809c1.684-.775 1.684-2.045 0-2.822L18.53 9.25" stroke="url(#a)" stroke-width="1.6"/><path d="M10.527 11.72 5.469 9.39 2.263 7.912C.58 7.135.58 5.865 2.263 5.088l8.264-3.808c.81-.373 2.136-.373 2.946 0l8.264 3.808c1.684.777 1.684 2.047 0 2.823l-8.264 3.808c-.81.375-2.136.375-2.946.001Z" stroke="#fff" stroke-width="1.6"/><defs><linearGradient id="a" x1="1" y1="17.844" x2="23" y2="17.844" gradientUnits="userSpaceOnUse"><stop stop-color="#FB8133"/><stop offset="1" stop-color="#FFBA08"/></linearGradient></defs></svg>