<svg width="41" height="44" fill="none" xmlns="http://www.w3.org/2000/svg"><path d="M18.49.471a3.81 3.81 0 0 1 3.67 0c5.576 3.1 11.165 6.187 16.74 9.288 1.042.587 1.751 1.734 1.737 2.923v18.643c.014 1.243-.764 2.418-1.877 2.978-5.56 3.087-11.121 6.16-16.683 9.246-1.14.642-2.613.588-3.712-.095-1.668-.956-3.336-1.899-5.004-2.841-.348-.205-.723-.355-.96-.683.209-.287.598-.314.904-.437.695-.219 1.335-.56 1.974-.902.167-.109.362-.068.514.028 1.433.806 2.837 1.625 4.269 2.43.305.178.611-.054.875-.204 5.464-3.032 10.928-6.05 16.378-9.083.208-.095.32-.3.292-.519V12.791a.568.568 0 0 0-.348-.574c-5.533-3.086-11.066-6.146-16.614-9.219a.572.572 0 0 0-.653 0c-5.547 3.073-11.08 6.146-16.627 9.206a.568.568 0 0 0-.348.573V31.23a.524.524 0 0 0 .306.519c1.474.82 2.961 1.639 4.435 2.458.834.437 1.863.697 2.78.369.807-.287 1.377-1.093 1.363-1.94.014-6.119 0-12.224 0-18.343-.014-.273.236-.491.514-.464.71 0 1.418-.014 2.127 0 .292 0 .5.287.459.56 0 6.146.014 12.306 0 18.452 0 1.64-.681 3.428-2.224 4.22-1.905.97-4.255.766-6.131-.163-1.627-.792-3.184-1.735-4.783-2.595C.751 33.743-.014 32.555 0 31.325V12.682c-.014-1.216.723-2.377 1.808-2.95L18.49.472Z" fill="url(#a)"/><path d="M23.342 13.564c2.42-.15 5.019-.095 7.202 1.08 1.696.9 2.627 2.785 2.655 4.63-.042.245-.306.382-.556.368-.71 0-1.404.014-2.113 0-.292.014-.473-.26-.515-.519-.208-.888-.695-1.762-1.543-2.185-1.293-.642-2.808-.601-4.212-.588-1.03.055-2.141.137-3.017.738-.667.45-.876 1.366-.64 2.103.223.533.848.697 1.349.86 2.92.752 6.02.684 8.884 1.667 1.181.41 2.35 1.188 2.752 2.404.529 1.639.292 3.592-.89 4.903-.959 1.08-2.363 1.667-3.753 1.994-1.863.41-3.782.424-5.672.233-1.78-.205-3.615-.656-4.991-1.844-1.168-.997-1.738-2.554-1.683-4.057.014-.26.265-.437.515-.41.709 0 1.418-.013 2.127 0 .278-.013.486.219.5.479.125.846.46 1.72 1.196 2.226 1.446.915 3.253.847 4.894.874 1.362-.055 2.905-.082 4.018-.97.583-.505.764-1.352.597-2.076-.167-.614-.82-.901-1.39-1.093-2.892-.901-6.02-.573-8.87-1.584-1.154-.396-2.28-1.16-2.725-2.335-.625-1.653-.333-3.702.974-4.972 1.306-1.27 3.155-1.762 4.907-1.926Z" fill="url(#b)"/><defs><linearGradient id="a" x1="20.319" y1="0" x2="20.319" y2="44" gradientUnits="userSpaceOnUse"><stop stop-color="#34A866"/><stop offset="1" stop-color="#087D4C"/></linearGradient><linearGradient id="b" x1="25.225" y1="13.504" x2="25.225" y2="31.37" gradientUnits="userSpaceOnUse"><stop stop-color="#34A866"/><stop offset="1" stop-color="#087D4C"/></linearGradient></defs></svg>