<svg width="40" height="46" fill="none" xmlns="http://www.w3.org/2000/svg"><path d="m38.56 38.504.009.013.009.014a.296.296 0 0 1-.017.364l-.033.04-.024.047c-.051.103-.2.203-.364.203h-7.535l-.13.232-3.317 5.905-.005.01-.005.01c-.051.102-.2.202-.364.202-.127 0-.268-.07-.386-.24L19.91 34.097l-.392-.678-.396.676-6.495 11.083-.008.013-.007.014c-.05.102-.2.202-.364.202-.127 0-.267-.07-.385-.24l-3.308-5.755-.131-.228H.892c-.123 0-.26-.066-.377-.228-.083-.182-.07-.346-.016-.426l.01-.014.008-.015L7.285 26.51l.253-.45-.476-.195c-.6-.248-.966-.836-.903-1.43l.59-4.218.03-.214-.147-.159-2.852-3.078c-.49-.605-.43-1.422.024-1.877l.007-.007 2.862-2.998.148-.156-.025-.213-.5-4.172c-.067-.773.419-1.412 1.129-1.549l4.13-.726.214-.038.105-.19 2.044-3.679c.176-.317.45-.55.778-.648a1.32 1.32 0 0 1 1.01.098l.01.006.011.006 3.725 1.817.195.095.197-.092L23.568.714h.033l.081-.032c.7-.28 1.437.004 1.736.635l.005.01.006.012 1.999 3.68.102.187.21.042 4.132.817c.666.134 1.154.815 1.09 1.498l-.589 4.215-.03.214.147.16 2.853 3.078c.49.604.43 1.422-.024 1.876l-.008.008-2.861 2.998-.149.155.026.213.498 4.164c.03.647-.292 1.182-.783 1.41l-.448.21.244.43 6.723 11.81ZM11.9 43.367l.396.684.394-.686 6.132-10.674.13-.227-.13-.227-.908-1.59-.208-.363-.38.176-1.77.821h-.034l-.081.033c-.7.28-1.436-.005-1.735-.635l-.006-.012-.006-.01-1.998-3.68-.105-.193-.217-.038-2.59-.455-.316-.055-.159.28L2.04 37.599l-.385.68h7.05c.127 0 .268.07.386.241l2.808 4.847Zm3.029-12.81h.712l-.122-.23 3.374-1.584.012-.006.012-.007a1.281 1.281 0 0 1 1.2 0l.008.005.01.005 3.724 1.817.389.19.21-.378 2.044-3.68.001-.003c.2-.366.574-.608.95-.678l4.085-.68.43-.072-.052-.432-.5-4.18-.001-.01-.002-.01a1.25 1.25 0 0 1 .373-1.102l.005-.005 2.907-2.998.3-.31-.293-.317-2.862-3.089-.006-.006-.006-.006c-.252-.252-.395-.692-.327-1.102l.002-.011.59-4.179.06-.427-.423-.084L27.6 6.17l-.024-.004-.023-.002c-.308-.028-.647-.267-.871-.634l-1.993-3.76-.128-.241H24.14l-.09.04-3.77 1.727-.015.007-.014.007a1.282 1.282 0 0 1-1.198 0l-.01-.005-.009-.004-3.724-1.817-.389-.19-.21.378-2.044 3.68-.002.003c-.2.366-.574.609-.952.678l-4.132.726-.141.025-.102.102a.616.616 0 0 0-.179.398V7.298l.456.001h-.456v.027l.003.028.5 4.133.001.01.002.01a1.25 1.25 0 0 1-.373 1.102l-.007.008-2.862 2.998-.293.307.286.315 2.816 3.088.008.008.007.008c.252.252.395.691.327 1.101l-.002.011-.59 4.18-.061.432.43.08 4.178.772.023.004.022.002c.357.03.693.272.913.633l1.993 3.76.402-.214v.456H14.929Zm15.069 7.945.006-.01.005-.01c.05-.102.2-.202.364-.202H37.424l-.387-.682-6.223-10.947-.16-.281-.319.058-2.725.5-.212.039-.104.188-2.045 3.68-.002.004c-.227.422-.695.67-1.189.67-.22 0-.418-.037-.614-.134l-.004-.002-3.724-1.817-.188-.092-.192.082-.318.137-.467.2.25.443 1 1.771.03.054.044.044c.022.023.038.041.071.14l.015.044.023.04 6.405 11.084.4.691.392-.696 2.816-4.996Z" fill="url(#a)" stroke="url(#b)" stroke-width=".912"/><path d="M19.516 7.392c4.745 0 8.63 3.884 8.63 8.628 0 4.745-3.885 8.63-8.63 8.63-4.744 0-8.628-3.885-8.628-8.63 0-4.744 3.883-8.628 8.628-8.628Zm-7.723 8.628c0 4.25 3.474 7.724 7.723 7.724 4.25 0 7.724-3.474 7.724-7.724 0-4.249-3.475-7.723-7.724-7.723-4.249 0-7.723 3.474-7.723 7.723Z" fill="url(#c)" stroke="url(#d)" stroke-width=".912"/><defs><linearGradient id="a" x1="5.568" y1="46" x2="37.887" y2="46" gradientUnits="userSpaceOnUse"><stop stop-color="#E74E4B"/><stop offset="1" stop-color="#FB8133"/></linearGradient><linearGradient id="b" x1="19.544" y1="0" x2="19.544" y2="46" gradientUnits="userSpaceOnUse"><stop stop-color="#D88EF4"/><stop offset="1" stop-color="#AE4DED"/></linearGradient><linearGradient id="c" x1="13.02" y1="25.105" x2="28.043" y2="25.105" gradientUnits="userSpaceOnUse"><stop stop-color="#E74E4B"/><stop offset="1" stop-color="#FB8133"/></linearGradient><linearGradient id="d" x1="19.516" y1="6.936" x2="19.516" y2="25.105" gradientUnits="userSpaceOnUse"><stop stop-color="#D88EF4"/><stop offset="1" stop-color="#AE4DED"/></linearGradient></defs></svg>