<svg width="1252" height="530" fill="none" xmlns="http://www.w3.org/2000/svg"><path d="M10 25v171c0 22.091 17.909 40 40 40h261.143c22.092 0 40-17.909 40-40V65c0-22.091 17.909-40 40-40h34.197c22.092 0 40 17.909 40 40v131c0 22.091 17.909 40 40 40h315.8c22.092 0 40-17.909 40-40V55c0-22.091 17.909-40 40-40h299.92c22.09 0 40 17.909 40 40v218.5c0 22.091-17.91 40-40 40H1026.5c-22.09 0-40 17.909-40 40V480c0 22.091-17.909 40-40 40h-318c-22.091 0-40-17.909-40-40V378c0-22.091-17.909-40-40-40H496c-22.091 0-40 17.909-40 40v102c0 22.091-17.909 40-40 40H10" stroke="url(#a)" stroke-width="20" stroke-linecap="round"/><path d="M10 25v171c0 22.091 17.909 40 40 40h261.143c22.092 0 40-17.909 40-40V65c0-22.091 17.909-40 40-40h34.197c22.092 0 40 17.909 40 40v131c0 22.091 17.909 40 40 40h315.8c22.092 0 40-17.909 40-40V55c0-22.091 17.909-40 40-40h299.92c22.09 0 40 17.909 40 40v218.5c0 22.091-17.91 40-40 40H1026.5c-22.09 0-40 17.909-40 40V480c0 22.091-17.909 40-40 40h-318c-22.091 0-40-17.909-40-40V378c0-22.091-17.909-40-40-40H496c-22.091 0-40 17.909-40 40v102c0 22.091-17.909 40-40 40H10" stroke="#F2F2F2" stroke-width=".5" stroke-dasharray="5.99 5.99"/><path d="M1083.29 29.14h3.1l6.96-12.402h8s4.65 0 4.65-2.168c0-2.17-4.65-2.17-4.65-2.17h-8L1086.39 0h-3.1l3.86 12.4h-5.56l-3.49-3.102h-3.1l2.48 5.27-2.48 5.272h3.1l3.49-3.102h5.56l-3.86 12.402ZM172.292 250.14h3.1l6.957-12.402h8.001s4.65 0 4.65-2.168c0-2.17-4.65-2.17-4.65-2.17h-8.001l-6.957-12.4h-3.1l3.857 12.4h-5.56l-3.489-3.102H164l2.482 5.27L164 240.84h3.1l3.489-3.102h5.56l-3.857 12.402ZM1113.71 300h-3.1l-6.96 12.402h-8s-4.65 0-4.65 2.168c0 2.17 4.65 2.17 4.65 2.17h8l6.96 12.4h3.1l-3.86-12.4h5.56l3.49 3.102h3.1l-2.48-5.27 2.48-5.272h-3.1l-3.49 3.102h-5.56l3.86-12.402ZM40.377 476.043a2.577 2.577 0 0 1 3.258-1.63l7.157 2.387 12.8-4.8 3.2 1.6-9.6 6.4 6.4 3.2 6.4-3.2 1.6 1.6-6.4 6.4-23.275-8.728a2.576 2.576 0 0 1-1.54-3.229Z" fill="#fff"/><rect x="79.482" y="495.5" width="1.487" height="11" rx=".744" transform="rotate(120 79.482 495.5)" fill="#fff"/><rect x="93.269" y="494.5" width="1.487" height="11" rx=".744" transform="rotate(120 93.27 494.5)" fill="#fff" fill-opacity=".8"/><defs><linearGradient id="a" x1="34.786" y1="15" x2="1291.71" y2="257.58" gradientUnits="userSpaceOnUse"><stop stop-color="#1C1E25"/><stop offset="1" stop-color="#1F222C"/></linearGradient></defs></svg>