<svg width="49" height="44" fill="none" xmlns="http://www.w3.org/2000/svg"><path fill-rule="evenodd" clip-rule="evenodd" d="M4.598 30.8V12.51c0-.765.38-.994.38-.994l.01.005c.52-1.014 17.53-9.647 17.53-9.647 2.234-1.263 4.3 0 4.3 0 15.44 7.634 17.399 9.347 17.567 9.727l.016-.009c.673.382.13 20.392.127 20.507.295.536-17.878 9.68-17.878 9.68-2.024 1.187-3.963 0-3.963 0S7.38 33.479 5.988 32.79c-1.391-.69-1.391-1.99-1.391-1.99ZM24.963 9.489c-7.737-.328-11.625 5.536-11.989 6.114l.014.007c-3.752 6.926-.126 12.09-.126 12.09 5.566 7.462 13.324 7.194 18.089 5.09 3.612-1.587 5.2-4.357 5.478-4.886l-6.008-3.114c-1.186 1.78-3.324 2.988-5.796 2.988-3.71 0-6.746-2.755-6.746-6.122 0-1.053.285-2.032.815-2.9l-.014-.008c1.18-1.799 3.33-3.023 5.819-3.023 2.588 0 4.849 1.341 5.979 3.295l5.988-3.194c-.186-.32-3.594-6.003-11.503-6.337ZM36.81 21.005h1.645v1.57H36.81v1.568h-1.77v-1.569h-1.687v-1.569h1.686v-1.492h1.771v1.492Zm5.735 0h1.644v1.57h-1.644v1.568h-1.771v-1.569h-1.687v-1.569h1.687v-1.492h1.77v1.492Z" fill="url(#a)"/><defs><linearGradient id="a" x1="40.58" y1="1.314" x2="6.461" y2="1.314" gradientUnits="userSpaceOnUse"><stop stop-color="#F24F60"/><stop offset="1" stop-color="#A5066C"/></linearGradient></defs></svg>