<svg width="53" height="34" fill="none" xmlns="http://www.w3.org/2000/svg"><path d="M7.862.315C6.367.811 4.568 2.38 3.82 3.812c-.498.936-.636 1.79-.775 5.039-.194 4.405-.498 5.231-2.187 5.7-.83.247-.858.275-.858 1.927 0 1.68.028 1.707.886 1.955 1.66.523 1.965 1.321 2.16 5.727.193 4.267.525 5.341 2.13 6.856.803.77 3.655 2.203 3.96 2.01.11-.083.36-.661.525-1.322.332-1.184.332-1.211-.609-2.148-1.245-1.239-1.578-2.478-1.578-6.002 0-3.47-.36-4.791-1.66-6.085l-.997-.991.996-.964c1.274-1.24 1.661-2.588 1.661-6.003 0-3.662.36-5.038 1.578-6.112.97-.826.97-.826.637-2.065C9.495.673 9.246.067 9.163.012c-.083-.055-.692.083-1.301.303Zm34.382.936c-.415 1.184-.415 1.46-.11 1.652.193.138.442.248.553.248.11 0 .47.413.83.881.554.799.665 1.322.803 4.764.194 4.405.609 5.754 2.076 6.966l.941.77-.83.607c-1.578 1.183-2.02 2.533-2.16 6.663-.138 4.102-.58 5.534-1.882 6.112-.387.166-.636.468-.553.661.055.165.276.826.47 1.46.277.963.416 1.1.914.963 2.159-.66 3.875-2.065 4.789-3.91.692-1.431.775-1.9.858-5.01.055-1.9.221-3.8.388-4.214.304-.77 1.467-1.57 2.297-1.57.332 0 .416-.357.416-1.789 0-1.376-.084-1.79-.416-1.79-.775 0-1.855-.66-2.242-1.404-.277-.523-.388-1.707-.388-3.772 0-4.763-1.052-7.186-3.764-8.618-2.354-1.267-2.409-1.267-2.99.33ZM14.727 22.205c-1.135.303-1.716 1.184-1.716 2.56 0 2.01 2.187 3.222 4.097 2.23 1.605-.825 1.938-2.588.747-3.964-.747-.909-1.771-1.157-3.128-.826Zm9.966 0c-1.135.303-1.716 1.184-1.716 2.56 0 2.01 2.187 3.222 4.097 2.23 1.605-.825 1.938-2.588.747-3.964-.747-.909-1.772-1.157-3.128-.826Zm10.243 0c-1.135.303-1.717 1.184-1.717 2.56 0 2.01 2.187 3.222 4.097 2.23 1.606-.825 1.938-2.588.748-3.964-.748-.909-1.772-1.157-3.128-.826Z" fill="url(#a)"/><defs><linearGradient id="a" x1="0" y1="33.043" x2="52.044" y2="33.043" gradientUnits="userSpaceOnUse"><stop stop-color="#258EE8"/><stop offset="1" stop-color="#2AB5ED"/></linearGradient></defs></svg>