<svg width="60" height="58" fill="none" xmlns="http://www.w3.org/2000/svg"><rect x="1.489" y="1.489" width="56.588" height="41.312" rx="4.095" stroke="#fff" stroke-width="2.978"/><path d="M28.823 42.364v13.48" stroke="#fff" stroke-width="2.978"/><path d="M19.215 55.844h22.098" stroke="#fff" stroke-width="2.978" stroke-linecap="round"/><path d="M29 20c-2.75 0-5-2.25-5-5s2.25-5 5-5 5 2.25 5 5-2.25 5-5 5Zm0-7.5c-1.5 0-2.5 1-2.5 2.5s1 2.5 2.5 2.5 2.5-1 2.5-2.5-1-2.5-2.5-2.5Z" fill="url(#a)"/><path d="M37.75 32.5c-.75 0-1.25-.5-1.25-1.25v-2.5c0-2-1.75-3.75-3.75-3.75h-7.5c-2 0-3.75 1.75-3.75 3.75v2.5c0 .75-.5 1.25-1.25 1.25S19 32 19 31.25v-2.5c0-3.5 2.75-6.25 6.25-6.25h7.5c3.5 0 6.25 2.75 6.25 6.25v2.5c0 .75-.5 1.25-1.25 1.25Z" fill="url(#b)"/><defs><linearGradient id="a" x1="24" y1="20" x2="34" y2="20" gradientUnits="userSpaceOnUse"><stop stop-color="#FB8133"/><stop offset="1" stop-color="#FFBA08"/></linearGradient><linearGradient id="b" x1="19" y1="32.5" x2="39" y2="32.5" gradientUnits="userSpaceOnUse"><stop stop-color="#FB8133"/><stop offset="1" stop-color="#FFBA08"/></linearGradient></defs></svg>