<svg width="48" height="65" fill="none" xmlns="http://www.w3.org/2000/svg"><path d="M15.383 50.081s-2.475 1.44 1.76 1.926c5.132.586 7.755.502 13.41-.568 0 0 1.487.932 3.563 1.74-12.677 5.433-28.69-.315-18.733-3.098ZM13.833 42.991s-2.776 2.055 1.463 2.493c5.482.566 9.811.612 17.302-.83 0 0 1.036 1.05 2.666 1.625-15.328 4.482-32.4.353-21.431-3.288ZM26.892 30.964c3.124 3.597-.82 6.833-.82 6.833s7.931-4.095 4.289-9.222c-3.402-4.781-6.011-7.157 8.112-15.348 0 0-22.17 5.537-11.58 17.737Z" fill="#fff"/><path d="M43.659 55.326s1.831 1.509-2.017 2.676c-7.318 2.217-30.456 2.886-36.884.088-2.31-1.005 2.023-2.4 3.386-2.693 1.421-.308 2.233-.25 2.233-.25-2.57-1.81-16.609 3.554-7.131 5.09 25.847 4.192 47.117-1.887 40.413-4.911ZM16.573 35.645s-11.77 2.796-4.168 3.811c3.21.43 9.608.332 15.568-.167 4.87-.41 9.762-1.284 9.762-1.284s-1.718.735-2.96 1.584C22.821 42.732-.268 41.269 6.38 38.054c5.622-2.717 10.193-2.409 10.193-2.409ZM37.686 47.447c12.15-6.314 6.532-12.38 2.61-11.563-.96.2-1.389.373-1.389.373s.357-.559 1.038-.8c7.757-2.728 13.723 8.042-2.504 12.308 0 0 .188-.168.245-.318ZM30.36 0s6.729 6.731-6.382 17.081c-10.513 8.303-2.397 13.037-.004 18.446-6.137-5.537-10.64-10.411-7.62-14.948C20.79 13.92 33.076 10.692 30.36 0Z" fill="#fff"/><path d="M17.767 64.555c11.662.747 29.57-.414 29.995-5.932 0 0-.815 2.092-9.638 3.753-9.954 1.873-22.231 1.654-29.513.454 0 0 1.49 1.234 9.156 1.725Z" fill="#fff"/></svg>