<svg width="285" height="237" fill="none" xmlns="http://www.w3.org/2000/svg"><path d="M232.031 90.183v58.906c0 7.57-5.548 13.704-12.39 13.704h-80.849v.773h-25.333c-.564.09-1.135.134-1.706.133H28.734c-6.808 0-12.318-6.135-12.318-13.699V91.09c0-7.566 5.514-13.7 12.318-13.7 0 0 24.02 2.963 42.038 2.963 18.017 0 40.981-2.962 40.981-2.962 6.041 0 11.068 4.831 12.115 11.209.706-6.826 5.945-12.12 12.318-12.12 0 0 24.163 2.962 42.27 2.962 18.107 0 41.219-2.962 41.219-2.962 6.807 0 12.356 6.133 12.356 13.703Z" fill="#292F3D"/><path opacity=".4" d="M111.422 77.39h-82.73s18.373 7.785 41.881 7.785c23.509 0 40.849-7.785 40.849-7.785Z" fill="#555E78"/><path d="M232.708 213.689c1.568-.477 2.43-2.271 1.947-4.045l-6.543-27.247-8.85 2.7 9.594 26.317c.578 1.745 2.283 2.752 3.852 2.275ZM16.032 213.689c-1.568-.477-2.43-2.271-1.947-4.045l6.543-27.247 8.831 2.7-9.575 26.317c-.578 1.745-2.27 2.752-3.852 2.275Z" fill="#292F3D"/><path d="M173.241 160.913v.258a22.593 22.593 0 0 1-2.326-.153c.776.012 1.553-.023 2.326-.105Z" fill="url(#a)"/><path d="M246.125 150.73c-1.421 5.07-2.709 9.778-5.211 14.92-2.283 4.742-11.371 14.31-11.939 14.31-20.813 0-35.443-.057-55.754-.043h-2.577c-26.73 0-129.814.043-150.731.043-.56 0-9.656-9.54-11.94-14.31-2.478-5.142-3.756-9.85-5.21-14.92-2.37-8.453-4.862-20.512.132-28.54 2.184-3.501 6.599-5.9 10.475-4.536 5.434 1.908 7.192 7.871 7.992 13.046 1.938 12.455 7.339 25.472 20.486 29.006 7.23 1.951 15.029 1.508 22.467 1.513.871 0 89.837.1 106.315-.21h.284c.772.09 1.549.142 2.326.153 3.843.124 10.651.062 11.337.062 7.439 0 15.232.438 22.462-1.513 13.152-3.549 18.567-16.566 20.486-29.021.801-5.175 2.558-11.142 7.993-13.045 3.875-1.364 8.291 1.035 10.47 4.536 4.994 8.028 2.521 20.096.137 28.549Z" fill="#181C25"/><path d="M170.915 161.018h-.271v-.109c0 .043.086.076.271.109Z" fill="url(#b)"/><path d="M124.489 143.297c0 4.908 5.307 18.603 49.69 18.603 44.383 0 49.684-13.709 49.684-18.603 0-4.894-22.243-8.872-49.684-8.872s-49.69 3.969-49.69 8.872Z" fill="#292F3D"/><path opacity=".3" d="M124.489 143.297c7.368-4.655 91.78-4.722 99.374 0 0-4.903-22.266-8.881-49.684-8.881s-49.69 3.978-49.69 8.881Z" fill="#3B4255"/><path opacity=".3" d="M124.574 143.297c0 4.909 5.311 18.603 49.689 18.603 44.379 0 49.69-13.708 49.69-18.603-5.823 18.618-94.158 18.618-99.379 0Z" fill="#000"/><path d="M25.162 143.297c0 4.908 5.306 18.603 49.685 18.603 44.378 0 49.69-13.709 49.69-18.603 0-4.894-22.244-8.872-49.69-8.872-27.446 0-49.685 3.969-49.685 8.872Z" fill="#292F3D"/><path opacity=".3" d="M25.162 143.297c7.368-4.655 91.78-4.722 99.375 0 0-4.903-22.244-8.881-49.69-8.881-27.446 0-49.685 3.978-49.685 8.881Z" fill="#3B4255"/><path opacity=".3" d="M25.247 143.297c0 4.909 5.311 18.603 49.69 18.603 44.378 0 49.684-13.708 49.684-18.603-5.818 18.618-94.153 18.618-99.374 0Z" fill="#000"/><path opacity=".4" d="M219.684 76.48h-83.152s18.477 7.784 42.109 7.784 41.043-7.784 41.043-7.784Z" fill="#555E78"/><path d="M19.979 185.26h209.02v-5.319H19.979v5.319Z" fill="#292F3D"/><path d="M18.17 117.458c.264 1.288 4.017 15.417 4.263 17.301.108 2.25.056 4.503-.156 6.745.028-1.054-.114 2.237 1.947 1.937 1.023-.153 23.025-4.542 30.975-5.7 7.95-1.159 16.042-1.05 16.824-1.184 1.564-.262 2.127-1.111 2.681-3.534.555-2.423-2.842-12.302-3.349-15.488-.507-3.186.696-5.295.35-6.864-.473-2.07-2.42-2.748-4.117-2.538-.947.124-10.93 2.099-18.704 3.057-7.666.955-27.303 2.839-28.11 2.939-1.63.2-2.87 2.046-2.605 3.329Z" fill="#181C25"/><path opacity=".25" d="M18.312 117.444c.265 1.283 4.017 15.417 4.264 17.296.11 2.251.058 4.507-.157 6.75.024-1.054-.109 2.232 1.947 1.931 1.029-.147 23.03-4.54 30.976-5.7 7.945-1.159 16.042-1.049 16.829-1.178 1.558-.262 2.122-1.111 2.68-3.539.252-1.102-.312-3.74-1.05-6.588-16.782 8.362-51.079 17.84-50.937-12.401-1.028.033-1.7.047-1.942.076-1.64.219-2.875 2.065-2.61 3.353Z" fill="#000"/><path opacity=".2" d="M71.691 110.671c-.473-2.07-2.42-2.748-4.117-2.538-.948.124-10.93 2.099-18.705 3.057-4.136.515-21.793 2.681-24.267 2.791 9.728 11.725 47.435-1.741 47.089-3.31Z" fill="#3B4255"/><path d="M121.519 75.616a16.152 16.152 0 0 1-15.057-1.655c-4.231-3.03-8.149-5.28-13.55-5.443-3.36-.1-6.5 1.312-9.698 2.118-2.81.711-4.956 2.981-7.988 3.401-3.98.548-8.054-1.908-9.859-5.538-1.805-3.63-1.422-8.133.601-11.638 1.464-2.571 2.814-4.48 1.166-7.342a11.79 11.79 0 0 1-1.052-1.874 5.193 5.193 0 0 1-.242-2.004c.147-3.701 2.933-6.473 4.785-9.54a6.538 6.538 0 0 0 1-2.28c.332-2.103-1.326-3.92-2.212-5.853-2.866-6.267 2.027-13.394 6.789-17.172 2.804-2.218 6.16-3.115 9.206-4.922 1.378-.82 2.634-1.842 4.031-2.638 2.435-1.384 5.088-1.431 7.79-1.059 7.698 1.083 16.453 6.721 18.234 14.83 1.213 5.495-.767 11.887 4.639 15.741 1.63 1.159 3.691 1.85 4.799 3.515 2.369 3.55-1.108 8.797 1.052 12.474a12.614 12.614 0 0 0 1.857 2.147 17.789 17.789 0 0 1 4.738 13.804 8.855 8.855 0 0 1-.971 3.516c-.82 1.468-2.213 2.503-3.577 3.482a32.888 32.888 0 0 1-6.43 3.873l-.051.057Z" fill="#181C25"/><path d="M128.501 55.085c-2.392-2.065-2.904-5.685-2.212-8.78.45-2.023 1.345-3.998 1.265-6.073a6.7 6.7 0 0 0-4.33-5.91c-1.242-.444-2.611-.477-3.791-1.073-1.795-.864-2.786-2.686-3.444-4.494-.715-1.965-.417-3.649-.426-5.724a78.216 78.216 0 0 0-.342-7.894c-.308-3.024-2.108-6.02-4.169-8.195-.293-.31-.602-.61-.924-.897C104.78 1.232 94.551-.872 88.207 3.04c-1.26.777-2.047 1.855-3.051 2.862a19.427 19.427 0 0 1-3.568 2.676 86.842 86.842 0 0 1-7.793 4.121c-1.678.84-3.388 1.742-4.62 3.163a9.264 9.264 0 0 0-2.08 6.33c.127 2.278.756 4.5 1.844 6.506.734 1.431 1.62 2.795 2.084 4.336.758 2.504-.692 4.86-2.53 6.463-1.393 1.222-2.99 2.333-3.752 4.026a5.146 5.146 0 0 0 .147 4.465c.682 1.264 1.871 2.2 2.506 3.491a4.745 4.745 0 0 1 .047 4.008c-.734 1.598-2.407 3.081-1.857 4.77" stroke="#292F3D" stroke-width="1.741" stroke-miterlimit="10"/><path d="M119.05 129.298a22.788 22.788 0 0 1-2.312 4.66 45.418 45.418 0 0 1-15.308 14.992c-4.795 2.776-9.822 2.652-14.725 1.574-3.35-.734-6.685-3.053-9.92-5.208a48.604 48.604 0 0 1-9.704-8.358c-2.44-2.757-4.628-6.201-5.003-12.712-.146-2.566.11-5.409.986-7.155 1.06-2.099 2.667-2.027 4.098-1.779 8.097 1.398 15.942 7.489 24.096 7.604 4.553.061 8.798-2.581 13.171-4.971 3.378-1.846 7.107-3.873 10.636-3.487 3.184.358 6.335 8.224 3.985 14.84Z" fill="url(#c)"/><path opacity=".2" d="M119.05 129.298a22.788 22.788 0 0 1-2.312 4.66 45.418 45.418 0 0 1-15.308 14.992c-4.795 2.776-9.822 2.652-14.725 1.574-3.35-.734-6.685-3.053-9.92-5.208a48.604 48.604 0 0 1-9.704-8.358c-2.44-2.757-4.628-6.201-5.003-12.712-.146-2.566.11-5.409.986-7.155 1.06-2.099 2.667-2.027 4.098-1.779 8.097 1.398 15.942 7.489 24.096 7.604 4.553.061 8.798-2.581 13.171-4.971 3.378-1.846 7.107-3.873 10.636-3.487 3.184.358 6.335 8.224 3.985 14.84Z" fill="url(#d)"/><path d="M68.167 114.019c-.2-.448-.398-.911-.607-1.383a68.518 68.518 0 0 1-4.77-15.445c-.35-1.909-.706-4.012-2.161-5.295-2.013-1.779-5.932-1.55-8.424-1.216-1.165.157-2.323.505-3.04 1.454-.424 1.467-1.24 4.327-1.138 7.06-.28 11.501 8.75 20.988 16.108 28.768 1.421 1.493 2.952 3.005 4.913 3.611 1.961.606 4.449 0 5.306-1.908.63-1.379.246-2.995-.25-4.426a29.05 29.05 0 0 0-3.616-6.851 25.174 25.174 0 0 1-2.321-4.369Z" fill="#FFC5AB"/><path d="M103.619 54.499c.057-.2.114-.4.166-.6.744-2.787.796-4.013-2.449-3.879l-22.742.954c.441 1.984.474 3.816 1.081 5.8 1.383 4.35 4.017 8.667 8.651 9.956 4.43 1.225 8.798-.597 11.503-4.175a24.645 24.645 0 0 0 3.79-8.056Z" fill="#F4F4F4"/><path d="M111.375 51.527a10.19 10.19 0 0 1-.801 5.896c-2.368 4.937-8.191 5.9-13.113 6.091a28.92 28.92 0 0 1-5.454-.29c-1.606-.24-3.04 0-4.662-.034a17.769 17.769 0 0 1-9.115-2.757 8.56 8.56 0 0 1-3.236-3.339c-.947-1.946-.659-4.25-.166-6.359.246-1.224.67-2.405 1.26-3.505.664-1.16 1.617-2.142 2.166-3.34 1.038-2.28.184-4.946 1.108-7.188.94-1.913 2.33-3.57 4.051-4.828 2.056-1.492 4.705-1.964 7.23-1.788 2.525.176 4.97.954 7.377 1.731 1.895.625 3.524.24 4.913 1.813 1.103 1.25.72 3.287 1.07 4.803 1.185 5.08 6.576 7.747 7.372 13.094Z" fill="#181C25"/><path d="M76.524 74.132c-3.213 5.553-6.832 10.876-10.295 16.276-1.928 3.01-3.885 6.076-4.923 9.507-4.766-.115-8.624-1.1-13.286-2.002.748-6.373 3.162-12.175 6.151-17.727 3.113-5.782 6.462-11.448 9.39-17.32 2.37-4.77 6.832-10.494 12.792-7.633 4.577 2.214 3.867 8.549 2.918 12.641a22.793 22.793 0 0 1-2.747 6.258Z" fill="#FFC5AB"/><path d="M64.883 82.394c-.308 2.838-.228 6.263 2.146 7.822 1.625 1.069 3.861.797 5.5-.252 1.64-1.05 2.767-2.733 3.639-4.479a25.813 25.813 0 0 0 1.18-19.586c-.56-1.65-2.767-8.08-5.127-7.055-1.132.477-2.207 3.816-2.695 4.914a49.331 49.331 0 0 0-2.037 5.442 69.462 69.462 0 0 0-2.606 13.194Z" fill="#FCB08E"/><path d="M112.554 114.019c.199-.448.398-.911.607-1.383a68.79 68.79 0 0 0 4.771-15.445c.351-1.909.706-4.012 2.16-5.295 2.013-1.779 5.932-1.55 8.424-1.216 1.165.157 2.267.486 2.982 1.435.369 1.294 1.263 4.227 1.196 7.08.28 11.5-8.75 20.987-16.108 28.767-1.421 1.493-2.951 3.005-4.913 3.611-1.961.606-4.453 0-5.311-1.908-.63-1.379-.241-2.995.256-4.426a29.07 29.07 0 0 1 3.615-6.851 25.564 25.564 0 0 0 2.321-4.369Z" fill="#FFC5AB"/><path d="M104.197 74.132c3.212 5.553 6.832 10.876 10.29 16.276 1.933 3.01 3.89 6.076 4.928 9.507 4.766-.115 8.602-.947 13.264-1.848-.754-6.373-3.14-12.33-6.129-17.881-3.113-5.782-6.463-11.448-9.391-17.32-2.369-4.77-6.832-10.494-12.792-7.633-4.576 2.214-3.866 8.549-2.918 12.641a22.794 22.794 0 0 0 2.748 6.258Z" fill="#FFC5AB"/><path d="M115.837 82.394c.308 2.838.228 6.263-2.146 7.822-1.625 1.069-3.861.797-5.501-.252-1.639-1.05-2.766-2.733-3.643-4.479a25.809 25.809 0 0 1-1.175-19.586c.559-1.65 2.767-8.08 5.126-7.055 1.132.477 2.208 3.816 2.696 4.914a50.467 50.467 0 0 1 2.037 5.442 69.42 69.42 0 0 1 2.606 13.194Z" fill="#FCB08E"/><path d="M114.19 119.333c-1.327-3.549-3.317-6.449-4.473-10.117-1.554-4.975-2.611-12.073-.829-17.224 1.895-5.467 4.226-9.784 4.363-15.876.123-5.213-.919-10.355-1.961-15.435s-1.493-6.492-6.386-7.26c-1.744-.272-3.469-.749-5.212-1.059a51.067 51.067 0 0 0-8.94-.768h-.237a51.02 51.02 0 0 0-8.94.787c-1.743.31-3.463.787-5.212 1.06-4.894.767-5.358 2.227-6.391 7.26-1.033 5.031-2.08 10.221-1.962 15.435.143 6.09 2.469 10.408 4.364 15.874 1.786 5.152.73 12.25-.83 17.225-1.146 3.668-3.14 6.568-4.467 10.117-.13.27-.173.573-.123.869a1.374 1.374 0 0 0 .791.762c6.5 3.425 13.792 4.451 20.922 4.98l1.834.129h.256l1.833-.129c7.13-.529 14.417-1.555 20.922-4.98a1.377 1.377 0 0 0 .791-.762 1.451 1.451 0 0 0-.113-.888Z" fill="#FB8133"/><g style="mix-blend-mode:soft-light"><path opacity=".5" d="M107.889 62.968c-2.227.166-4.46.194-6.69.084-8.007-.395-11.214-2.35-17.401-2.456a32.217 32.217 0 0 0-10.703 1.694v-3.388a29.34 29.34 0 0 1 10.703-1.693c6.386.222 9.613 2.573 17.183 2.71 2.31.041 4.62-.129 6.908-.508v3.556ZM107.889 69.03c-1.885-.02-4.397.067-7.175-.06-7.858-.353-11.097-1.881-17.523-1.998-3.401-.1-6.798.386-10.096 1.444v-3.81a27.293 27.293 0 0 1 10.084-1.46c6.549.23 9.813 2.212 17.341 2.32 2.839.044 5.41-.23 7.369-.4v3.965ZM107.889 74.222c-2.322-.15-4.994-.107-7.661-.2-7.708-.257-10.978-1.124-17.643-1.236a33.823 33.823 0 0 0-9.49.977v-3.676a30.324 30.324 0 0 1 9.465-1.005c6.712.205 10.013 1.517 17.499 1.58 2.713.026 5.438-.172 7.83-.23v3.79ZM107.889 79.404c-2.759-.258-5.591-.256-8.146-.318-7.558-.169-10.861-.452-17.765-.556-2.744-.041-5.825-.055-8.883.556V75.59c3.027-.666 6.092-.667 8.846-.596 6.874.18 10.212.892 17.656.914 2.589.012 5.468-.118 8.292-.08v3.577ZM107.889 86.067c-3.196-.407-6.188-.443-8.631-.484-7.409-.11-10.744.142-17.887.028-2.844-.045-5.722-.142-8.276.228v-3.874c2.521-.427 5.381-.358 8.228-.285 7.036.182 10.411.414 17.813.399 2.463 0 5.497-.083 8.753.057v3.931ZM107.889 91.207a61.432 61.432 0 0 0-9.117-.652c-7.259-.039-10.626.802-18.008.682-2.945-.048-5.62-.236-7.669-.148v-4.154c2.015-.143 4.671.001 7.609.074 7.198.179 10.611-.138 17.971-.193 2.338-.015 5.525-.041 9.214.208v4.183Z" fill="#F3F7F8"/><path d="M113.86 96.527a90.196 90.196 0 0 0-12.855-.877c-9.52.04-14.07 1.595-24.274 1.462a96.916 96.916 0 0 1-9.456-.585v-4.679c2.02.174 5.303.412 9.359.487 9.856.184 14.475-.773 24.273-.877 2.962-.031 7.436.004 12.953.39v4.68Z" fill="#F3F7F8" style="mix-blend-mode:soft-light"/></g><path d="M83.739 61.406c2.88 3.296 8.424 3.559 12.318 2.209 2.639-.916 4.506-3.015 4.562-5.891.062-3.22-2.743-5.51-3.454-8.51a20.433 20.433 0 0 1-.322-5.185c.052-2.022.066-4.045.161-6.063a21.14 21.14 0 0 0-5.685-.548c-1.748.072-3.492-.11-5.235 0a.612.612 0 0 0-.393.12.558.558 0 0 0-.128.376c-.232 2.728 0 5.49-.19 8.224-.166 2.514-.725 5.041-2.184 7.12a6.609 6.609 0 0 0 .55 8.148Z" fill="#FFC5AB"/><path d="M89.04 8.716a11.212 11.212 0 0 1 4.738-1.193 18.072 18.072 0 0 1 4.851.497 17.427 17.427 0 0 1 8.529 4.713 15.516 15.516 0 0 1 4.434 8.733c.155 1.644.214 3.296.175 4.947-.05 1.615.234 3.222.835 4.722a9.562 9.562 0 0 0 3.15 3.55c1.307.953 2.752 1.712 4.15 2.58a6.246 6.246 0 0 1 1.933 1.616c.454.738.675 1.596.635 2.462a9.058 9.058 0 0 1-.317 2.494 16.68 16.68 0 0 1-.9 2.314 4.66 4.66 0 0 0-.436 2.313c.092.8.32 1.577.673 2.3.691 1.474 1.544 2.885 2.245 4.374a13.698 13.698 0 0 1 1.369 4.736 11.705 11.705 0 0 1-.602 4.866c.497-1.567.659-3.222.474-4.856a13.408 13.408 0 0 0-1.426-4.641c-.72-1.47-1.582-2.862-2.307-4.35a7.451 7.451 0 0 1-.73-2.386c-.068-.85.08-1.703.432-2.48.338-.739.625-1.5.857-2.28.201-.779.298-1.58.289-2.385a3.938 3.938 0 0 0-.573-2.237 5.92 5.92 0 0 0-1.82-1.489c-1.378-.853-2.842-1.612-4.183-2.58a9.99 9.99 0 0 1-3.316-3.716 12.013 12.013 0 0 1-.853-4.908 42.837 42.837 0 0 0-.157-4.899 15.369 15.369 0 0 0-4.263-8.543 17.199 17.199 0 0 0-8.339-4.742 18.082 18.082 0 0 0-4.823-.615 11.196 11.196 0 0 0-4.724 1.083Z" fill="#292F3D"/><path d="M97.034 48.808a21.764 21.764 0 0 1-.242-4.803c.048-2.022.062-4.045.157-6.063a21.172 21.172 0 0 0-5.685-.548c-1.748.071-3.487-.11-5.236 0a.445.445 0 0 0-.378.108.446.446 0 0 0-.143.37c-.232 2.727 0 5.494-.185 8.227a20.521 20.521 0 0 1-.293 2.338c.275.238.55.476.838.686a8.907 8.907 0 0 0 7.638 1.398 11.47 11.47 0 0 0 3.529-1.713Z" fill="#FCB08E"/><path d="M104.392 27.128a24.637 24.637 0 0 0-1.175-7.303c-3.08-9.063-14.38-11.137-21.07-4.512-7.461 7.39-4.32 24.752 3.739 30.752a8.897 8.897 0 0 0 7.633 1.403c7.803-2.242 11.038-11.978 10.873-20.34Z" fill="#FFC5AB"/><path d="M94.413 30.817a.768.768 0 1 0 1.465.032c.006-.55-.302-1.007-.711-1.02-.408-.012-.742.437-.754.988ZM84.499 30.81c0 .551.308 1.007.71 1.013.403.006.742-.43.755-.981.012-.55-.308-1.007-.71-1.013-.403-.006-.742.43-.755.981Z" fill="#292F3D"/><path d="M104.377 19.276c-2.431-9.253-13.545-12.149-20.694-6.01-1.075.99-2 2.13-2.744 3.387-.691 1.06-1.653 1.86-2.26 3.02a10.522 10.522 0 0 0-1.146 3.859c-.124 1.307.299 2.451.332 3.71a4.61 4.61 0 0 1 1.506-3.5 14.394 14.394 0 0 1 2.597-1.58 4.3 4.3 0 0 0 2.079-2.14c2.843 3.748 7.254 4.897 11.598 5.986 3.639.905 7.637 3.219 7.723 7.503 0 .48.095.957.279 1.402a6.363 6.363 0 0 0 .426-1.803c.077-.697.281-1.393.413-2.094.28-1.438.459-2.893.536-4.355.156-2.48-.061-4.97-.645-7.385Z" fill="#FCB08E"/><path d="M106.448 35.157a4.948 4.948 0 0 0 1.582-2.218c.971-2.862.867-6.053.749-9.135a21.797 21.797 0 0 0-.602-5.094 13.022 13.022 0 0 0-2.615-4.732 15.366 15.366 0 0 0-12.944-5.51c-1.895.168-3.293 1.083-4.96 1.861-1.668.777-3.544 1.173-5.254 1.74-1.976.66-4.013 1.346-5.581 2.725a10.243 10.243 0 0 0-2.573 3.744 10.668 10.668 0 0 0-.583 5.366c.097 1.532.441 3.038 1.019 4.46.61 1.298 1.976 2.142 3.198 2.79-.185-.095 0-2.236-.033-2.565a17.452 17.452 0 0 1 .668-5.648c.564-1.77 1.69-2.862 3.155-3.93.6-.421 1.157-.9 1.663-1.432.246-.272 1.312-1.526 1.137-1.908a12.837 12.837 0 0 0 3.757 4.947 42.67 42.67 0 0 0 10.025 5.29l.772.305c.986.35 1.9.876 2.696 1.555 1.763 1.613 1.895 4.088 1.824 6.325-.023.244-.001.49.067.725.365 1.092 2.122.868 2.833.339Z" fill="#181C25"/><path d="m57.8 89.005-.564 1.34h66.826l-.673-1.502-65.589.162Z" fill="#B8D1CE"/><path d="M119.447 132.856H61.822l-4.126-43.192a1.316 1.316 0 0 1 .762-1.315c.164-.074.341-.114.521-.116h63.34a1.305 1.305 0 0 1 1.222.897c.057.172.078.354.062.534l-4.156 43.192Z" fill="#292F3D"/><path d="M119.903 134.077h-58.53L57.18 90.885a1.317 1.317 0 0 1 .776-1.32 1.3 1.3 0 0 1 .527-.111h64.31a1.305 1.305 0 0 1 1.126.646c.139.237.201.511.177.785l-4.193 43.192Z" fill="#555E78"/><path d="M119.87 134.078H61.373v2.618h58.497v-2.618Z" fill="#292F3D"/><path d="m99.966 29.307 2.76-.221M80.709 29.307l-2.754-.221M91.283 30.396a4.389 4.389 0 0 0 2.604 4.11 4.335 4.335 0 0 0 4.768-.85 4.403 4.403 0 0 0-.521-6.762 4.334 4.334 0 0 0-5.51.43 4.403 4.403 0 0 0-1.34 3.072ZM80.709 30.168a4.388 4.388 0 0 0 2.602 4.11 4.336 4.336 0 0 0 4.767-.847 4.404 4.404 0 0 0-.514-6.762 4.329 4.329 0 0 0-5.511.427 4.406 4.406 0 0 0-1.344 3.072Z" stroke="#292F3D" stroke-width=".479" stroke-miterlimit="10"/><path d="M91.78 28.086s-1.025-.633-2.843-.057" stroke="#292F3D" stroke-width=".479" stroke-miterlimit="10"/><path d="M94.7 111.758a4.089 4.089 0 0 1-2.504 3.78 4.034 4.034 0 0 1-4.427-.883 4.098 4.098 0 0 1-1.172-3.29 4.103 4.103 0 0 1 1.786-3.001 4.037 4.037 0 0 1 5.125.507 4.099 4.099 0 0 1 1.191 2.887Z" fill="#292F3D"/><path d="M83.726 153.2c2.677-.477 5.344-1.011 7.988-1.455 13.265-2.228 27.105-4.841 39.157-11.1 2.776-1.431 5.685-3.725 7.107-6.568 3.79-7.48-3.766-14.491-11.143-12.368-12.319 3.539-23.016 11.223-34.828 16.217a558.45 558.45 0 0 0-5.95 2.591c-1.715.753-3.435 1.512-5.164 2.251" fill="url(#e)"/><path d="M80.902 142.764a181.826 181.826 0 0 1-5.946 2.437c-1.99.768-13.81 3.401-11.186 7.876.511.877 1.653 1.106 2.658 1.235 5.78.729 11.574-.086 17.311-1.121" fill="#FFC5AB"/><path d="M70.677 154.608c-2.545.291-5.212.2-7.58.338-1.067.067-2.133.129-3.199.12a48.04 48.04 0 0 1-5.069-.406l-3.672-.425a3.139 3.139 0 0 1-2.076-.663 3.184 3.184 0 0 1-1.155-1.86 42.995 42.995 0 0 1-1.866-4.441c-.303-1.007-.63-1.994.042-2.928.351-.445.778-.825 1.26-1.122a8.98 8.98 0 0 1 1.895-1.03c2.227-.821 4.298.057 6.378.863a49.826 49.826 0 0 0 6.699 2.309c2.5.487 5.035.77 7.58.844 2.023.13 5.165-.028 6.827 1.341.677.563 1.687 1.846 1.673 2.761 0 1.16-1.422 2.2-2.302 2.705a13.935 13.935 0 0 1-5.435 1.594ZM82.57 196.722c1.35 2.189 3.074 4.24 4.43 6.201.615.882 1.226 1.765 1.894 2.599a47.389 47.389 0 0 0 3.459 3.754l2.606 2.639a3.133 3.133 0 0 0 3.975.987c2.885-.806 5.619-.873 5.685-4.57.043-2.342-.829-4.989-2.786-6.32-2.27-1.536-4.737-2.695-6.898-4.427a50.143 50.143 0 0 1-5.34-5.442c-1.354-1.517-3.179-4.102-5.282-4.56-.858-.191-2.478-.191-3.184.391-.89.73-.834 2.489-.682 3.496a14.27 14.27 0 0 0 2.122 5.252Z" fill="#FFC5AB"/><path d="M61.676 155.018c-2.156-.478-4.87-1.25-6.16-3.044a6.57 6.57 0 0 1-1.042-4.769c.2-1.646 1.63-2.805 3.179-3.378a12.674 12.674 0 0 0-10.783-1.951 6.335 6.335 0 0 0-1.17.434c-4.998 2.457-2.6 8.672.995 11.186a11.361 11.361 0 0 0 5.553 1.994c1.601.128 2.681.071 4.287.066 1.943 0 2.947-.348 5.14-.538ZM87.649 203.896c1.7 1.431 3.994 3.072 6.196 2.996a6.51 6.51 0 0 0 4.355-2.133c1.165-1.183 1.175-3.029.663-4.608a12.763 12.763 0 0 1 8.206 7.313c.17.382.3.779.388 1.187 1.185 5.472-5.145 7.433-9.333 6.154a11.355 11.355 0 0 1-4.994-3.153c-1.094-1.183-1.724-2.07-2.71-3.339-1.198-1.536-1.549-2.552-2.771-4.417Z" fill="#E6E6E6"/><path d="M84.19 176.005c1.018 3.907 2.047 7.847 3.236 11.687.013.078.04.154.076.224.559 1.594 1.236 3.134 1.772 4.732.348 1.016.64 2.051.87 3.1.108.495.189.995.243 1.498.05.232.064.47.043.706a1.08 1.08 0 0 1-.598.568 2.197 2.197 0 0 1-.767.157 7.839 7.839 0 0 1-3.047-.591c-.606-.22-1.208-.477-1.8-.715a10.828 10.828 0 0 1-1.668-.802 3.01 3.01 0 0 1-.573-.692 49.822 49.822 0 0 1-1.644-2.322 86.277 86.277 0 0 1-4.373-7.466c-1.36-2.547-2.643-5.08-4.022-7.593-6.49-11.859-13.038-24.409-15.635-37.808-.596-3.091-.61-6.787.711-9.688 3.478-7.632 13.626-6.01 16.549 1.131 4.875 11.925 5.524 25.142 8.945 37.573.578 2.075 1.127 4.184 1.682 6.301Z" fill="#FFC5AB"/><path d="M75.761 185.712c-1.284-2.413-2.525-4.846-3.819-7.211-6.495-11.859-13.038-24.409-15.634-37.808-.592-3.096-.606-6.787.716-9.688 3.477-7.632 13.625-6.01 16.548 1.131 4.875 11.925 5.525 25.143 8.945 37.573.573 2.075 1.123 4.184 1.678 6.301.473 1.823.947 3.654 1.444 5.476" fill="url(#f)"/><path d="M202.88 126.69h-52.627v9.841h52.627v-9.841Z" fill="url(#g)"/><path d="M155.181 126.69h-5.236v9.884h5.236v-9.884ZM199.639 131.632c0 .455-.135.901-.387 1.281a2.289 2.289 0 0 1-4.15-.832 2.31 2.31 0 0 1 .973-2.367 2.279 2.279 0 0 1 2.893.287c.43.433.671 1.02.671 1.631Z" fill="#FB8133"/><path d="M205.182 116.806h-52.627v9.841h52.627v-9.841Z" fill="url(#h)"/><path d="M157.798 116.806h-5.236v9.884h5.236v-9.884Z" fill="#2273E5"/><path d="M202.301 121.748a2.316 2.316 0 0 1-1.693 2.234 2.324 2.324 0 0 1-2.745-1.288 2.32 2.32 0 1 1 4.438-.946Z" fill="#2167E3"/><path d="M202.387 116.848h-47.334v-5.199l5.912-1.126-5.912-.701V98.86h38.096l11.143 1.918-.706 5.39-5.581.563 5.581 1.121-1.199 8.996Z" fill="#F3F7F8"/><path d="M159.671 104.198c2.426-.129 4.852-.191 7.277-.243 2.426-.053 4.857-.047 7.282-.076 2.426-.029 4.852.023 7.282.076l3.639.086c1.213.057 2.426.085 3.638.157-1.212.072-2.425.105-3.638.157l-3.639.091c-2.43.053-4.856.048-7.282.072-2.425.024-4.853 0-7.282-.072-2.43-.071-4.832-.114-7.277-.248ZM167.645 112.225c2.426-.128 4.851-.19 7.281-.243 2.431-.052 4.852-.048 7.278-.076a163.76 163.76 0 0 1 7.282.076l3.639.091c1.212.053 2.425.081 3.638.152-1.213.077-2.426.105-3.638.158l-3.639.091c-2.426.052-4.856.048-7.282.071-2.426.024-4.852.001-7.278-.071-2.425-.072-4.855-.115-7.281-.249ZM155.053 98.86h46.714l2.525 1.918-49.239-1.918Z" fill="#D1D1D3"/><path d="M163.603 119.373h1.74a1.45 1.45 0 0 1 .986.307 1.167 1.167 0 0 1 .355.835 1.162 1.162 0 0 1-.355.835 1.46 1.46 0 0 1-.986.307h-.9v1.551h-.84v-3.835Zm1.632 1.643c.439 0 .658-.165.658-.496 0-.334-.22-.501-.658-.501h-.792v.997h.792Zm3.77.706v1.486h-.84v-1.492l-1.584-2.343h.953l1.045 1.638 1.056-1.638h.959l-1.589 2.349Zm2.679-1.665h-1.202v-.684h3.254v.684h-1.201v3.151h-.851v-3.151Zm5.925-.684v3.835h-.824v-1.61h-1.778v1.61h-.824v-3.835h.824v1.551h1.778v-1.551h.824Zm2.533 3.884a2.026 2.026 0 0 1-.997-.237 1.66 1.66 0 0 1-.651-.69 2.286 2.286 0 0 1-.227-1.045 2.251 2.251 0 0 1 .227-1.039c.146-.286.372-.522.651-.679.306-.167.649-.251.997-.243a1.95 1.95 0 0 1 .991.243c.279.156.504.393.647.679.157.323.235.68.226 1.039.008.362-.069.72-.226 1.045a1.62 1.62 0 0 1-.647.69 1.98 1.98 0 0 1-.991.237Zm0-.657a.91.91 0 0 0 .754-.34c.201-.284.298-.628.275-.975a1.495 1.495 0 0 0-.275-.969.906.906 0 0 0-.754-.334.928.928 0 0 0-.76.334 1.52 1.52 0 0 0-.269.969c-.023.348.072.693.269.981a.945.945 0 0 0 .76.334Zm5.845-3.227v3.835h-.625l-1.912-2.445v2.445h-.787v-3.835h.62l1.912 2.44v-2.44h.792ZM161.199 133.594c.127.02.255.031.383.033a.428.428 0 0 0 .35-.119.677.677 0 0 0 .091-.415v-3.62h.841v3.61c.028.332-.062.664-.253.937a1.071 1.071 0 0 1-.862.302 3.502 3.502 0 0 1-.55-.049v-.679Zm4.999-1.136h-1.794l-.366.851h-.846l1.761-3.836h.679l1.762 3.836h-.83l-.366-.851Zm-.275-.641-.619-1.439-.62 1.439h1.239Zm5.077-2.344-1.724 3.836h-.673l-1.724-3.836h.873l1.196 2.785 1.207-2.785H171Zm2.489 2.985h-1.794l-.366.851h-.846l1.762-3.836h.679l1.761 3.836h-.829l-.367-.851Zm-.275-.641-.619-1.439-.62 1.439h1.239Zm1.433 1.821 1.412-4.396h.674l-1.417 4.396h-.669Zm4.069-.281a2.05 2.05 0 0 1-1.018-.242 1.688 1.688 0 0 1-.663-.69 2.225 2.225 0 0 1-.231-1.039c-.008-.357.071-.71.231-1.029a1.64 1.64 0 0 1 .663-.69c.313-.167.663-.25 1.018-.242.247-.001.493.039.727.118.213.064.408.174.571.324l-.264.603a1.857 1.857 0 0 0-.506-.28 1.422 1.422 0 0 0-.512-.092.977.977 0 0 0-.792.329 1.466 1.466 0 0 0-.275.959c-.023.345.074.688.275.969a.977.977 0 0 0 .792.329c.174.001.348-.028.512-.086.182-.07.352-.167.506-.286l.264.604c-.164.15-.359.262-.571.328-.235.077-.48.115-.727.113Zm4.448-1.33h-1.045v1.05h-.561v-1.05h-1.045v-.555h1.045v-1.051h.561v1.051h1.045v.555Zm3.23 0h-1.045v1.05h-.56v-1.05h-1.046v-.555h1.046v-1.051h.56v1.051h1.045v.555Z" fill="#fff"/><path d="M236.333 234.752c26.386 0 47.776-5.015 47.776-11.202 0-6.186-21.39-11.201-47.776-11.201-26.385 0-47.775 5.015-47.775 11.201 0 6.187 21.39 11.202 47.775 11.202Z" fill="#292F3D"/><path d="M236.333 230.798c20.964 0 37.958-3.392 37.958-7.577 0-4.185-16.994-7.578-37.958-7.578s-37.959 3.393-37.959 7.578c0 4.185 16.995 7.577 37.959 7.577Z" stroke="#3A4355" stroke-width="4.387" stroke-miterlimit="10"/><path d="M227.811 219.352c-4.737-.229-9.475.544-14.213 1.307-1.483.244-3.056 1.073-1.938 2.862.616.978 1.895 1.269 3.033 1.398 4.913.567 9.949-.058 14.895-.053" fill="url(#i)"/><path d="M262.813 212.707c.72 4.446-1.35 10.862-6.159 12.159-1.943.525-4.264.339-6.287.329l-7.32-.052-14.374-.105c-3.16-.024-6.519-.105-9.158-1.856-3.132-2.084-4.69-5.933-2.611-9.249 1.791-2.862 5.141-4.593 8.329-5.285 5.349-1.159 10.897.377 16.222-.586a15.514 15.514 0 0 0 2.559-.687c4.799-1.751 9.57-4.165 14.469-1.307a9.438 9.438 0 0 1 4.33 6.639Z" fill="url(#j)"/><path d="M223.106 203.144c-.8-.854-1.288-1.021-1.776.195a11.784 11.784 0 0 0-.914 4.437 13.09 13.09 0 0 0-5.482 2.637 11.474 11.474 0 0 0-4.165-1.77c-1.264-.286-1.421.215-1.165 1.36.33 1.407.745 2.793 1.241 4.15.289.859.555 1.722.848 2.576.203.867.589 1.68 1.133 2.385 1.421 1.75 4.183 2.771 6.343 3.057 2.445.325 4.738-.3 6.406-2.17a12.95 12.95 0 0 0 2.866-6.168 7.515 7.515 0 0 0-.317-3.816c-.474-1.355-1.459-2.342-2.303-3.477a37.705 37.705 0 0 0-2.715-3.396Z" fill="url(#k)"/><path d="M259.209 209.177c4.6 4.413 4.122 9.493 1.578 13.991-2.819 4.985-7.462 8.362-12.64 10.556-6.112 2.595-13.11 3.921-19.657 2.385-1.317-.31-2.758-.954-3.142-2.266-1.151-3.864 4.833-3.792 6.965-3.973 4.383-.377 9.026-.425 13.266-1.86 4.681-1.575 8.006-4.933 10.347-9.23" fill="url(#l)"/><path d="M262.544 216.285a9.518 9.518 0 0 0-2-5.762c-3.254-4.121-9.589-4.25-13.952-2.013-5.008 2.561-5.8 9.35-3.838 14.129.09.219-1.753.157-1.895.167-1.322.095-4.06-.158-4.591 1.474a2.516 2.516 0 0 0 .19 1.737c.268.536.72.957 1.274 1.186.463.126.943.176 1.421.149h10.286c2.682 0 4.709-.477 6.32-2.8.834-1.198 1.469-2.538 2.369-3.697" fill="url(#m)"/><path d="M222.609 217.807a1.159 1.159 0 0 1-.124 1.302 1.138 1.138 0 0 1-1.998-.543 1.144 1.144 0 0 1 .701-1.265 1.064 1.064 0 0 1 1.174.17c.103.095.187.209.247.336Z" fill="url(#n)"/><path d="M227.437 208.562c.175.296.393.549.596.835.11.148.204.309.28.477.073.167.132.339.175.515.081.332.142.668.185 1.006a10.078 10.078 0 0 1-.473 5.247 9.784 9.784 0 0 1-2.303 3.54 8.44 8.44 0 0 1-1.672 1.278 4.145 4.145 0 0 1-.986.396 2.14 2.14 0 0 1-1.043 0 3.105 3.105 0 0 0 1.768-.801c.505-.424.971-.891 1.392-1.398a11.811 11.811 0 0 0 1.962-3.367c.465-1.222.729-2.511.782-3.816v-.983a8.824 8.824 0 0 0-.038-1.002 3.067 3.067 0 0 0-.071-.477 2.565 2.565 0 0 0-.161-.476 5.994 5.994 0 0 1-.393-.974Z" fill="url(#o)"/><defs><linearGradient id="h" x1="10234.1" y1="5344.19" x2="15070.1" y2="5344.19" gradientUnits="userSpaceOnUse"><stop stop-color="#258EE8"/><stop offset="1" stop-color="#2AB5ED"/></linearGradient><linearGradient id="a" x1="5858.01" y1="9.284" x2="5904.41" y2="9.284" gradientUnits="userSpaceOnUse"><stop stop-color="#FF7A01"/><stop offset="1" stop-color="#FEB800"/></linearGradient><linearGradient id="c" x1="2000.41" y1="18961.9" x2="7839.23" y2="18961.9" gradientUnits="userSpaceOnUse"><stop stop-color="#258EE8"/><stop offset="1" stop-color="#2AB5ED"/></linearGradient><linearGradient id="d" x1="62.04" y1="151.235" x2="119.867" y2="151.235" gradientUnits="userSpaceOnUse"><stop stop-color="#258EE8"/><stop offset="1" stop-color="#2AB5ED"/></linearGradient><linearGradient id="e" x1="80.893" y1="153.2" x2="138.99" y2="153.2" gradientUnits="userSpaceOnUse"><stop stop-color="#258EE8"/><stop offset="1" stop-color="#2AB5ED"/></linearGradient><linearGradient id="f" x1="55.923" y1="185.712" x2="85.639" y2="185.712" gradientUnits="userSpaceOnUse"><stop stop-color="#258EE8"/><stop offset="1" stop-color="#2AB5ED"/></linearGradient><linearGradient id="g" x1="10343.2" y1="-4894.75" x2="15179.1" y2="-4894.75" gradientUnits="userSpaceOnUse"><stop stop-color="#FB8133"/><stop offset="1" stop-color="#FFBA08"/></linearGradient><linearGradient id="b" x1="619.602" y1="77.818" x2="619.679" y2="77.818" gradientUnits="userSpaceOnUse"><stop stop-color="#FF7A01"/><stop offset="1" stop-color="#FEB800"/></linearGradient><linearGradient id="i" x1="5918.29" y1="-2009.06" x2="6503.43" y2="-2009.06" gradientUnits="userSpaceOnUse"><stop stop-color="#FB8133"/><stop offset="1" stop-color="#FFBA08"/></linearGradient><linearGradient id="j" x1="14744.2" y1="-7461.65" x2="18600.5" y2="-7461.65" gradientUnits="userSpaceOnUse"><stop stop-color="#FB8133"/><stop offset="1" stop-color="#FFBA08"/></linearGradient><linearGradient id="k" x1="6077.56" y1="-7292.57" x2="6711.57" y2="-7292.57" gradientUnits="userSpaceOnUse"><stop stop-color="#FB8133"/><stop offset="1" stop-color="#FFBA08"/></linearGradient><linearGradient id="l" x1="12485.6" y1="-9696.2" x2="14939.8" y2="-9696.2" gradientUnits="userSpaceOnUse"><stop stop-color="#FB8133"/><stop offset="1" stop-color="#FFBA08"/></linearGradient><linearGradient id="m" x1="9455.59" y1="-7314.67" x2="10668.1" y2="-7314.67" gradientUnits="userSpaceOnUse"><stop stop-color="#FB8133"/><stop offset="1" stop-color="#FFBA08"/></linearGradient><linearGradient id="n" x1="5794.5" y1="-769.394" x2="5837.24" y2="-769.394" gradientUnits="userSpaceOnUse"><stop stop-color="#FF7A01"/><stop offset="1" stop-color="#FEB800"/></linearGradient><linearGradient id="o" x1="41166.3" y1="-4833.61" x2="42246.1" y2="-4833.61" gradientUnits="userSpaceOnUse"><stop stop-color="#FF7A01"/><stop offset="1" stop-color="#FEB800"/></linearGradient></defs></svg>