<svg width="709" height="617" fill="none" xmlns="http://www.w3.org/2000/svg"><g clip-path="url(#a)"><path d="M245.255 574.731c-17.878-7.026-37.47-5.01-56.46-5.304-18.989-.296-48.625-3.689-55.776-26.811-7.569-24.472 3.4-49.851 3.488-74.579.027-6.769-.628-13.618-2.756-19.975-9.963-29.75-43.291-36.954-54.97-66.6-8.718-22.144-4.22-48.591 7.25-69.176 9.98-17.885 24.571-31.94 40.021-43.96 14.063-10.928 24.819-28.625 30.333-46.594 10.301-33.569 3.985-70.268 15.523-102.991 10.341-29.337 30.145-54.172 54.869-67.296 43.154-22.9 94.15-2.524 124.926 36.65a92.763 92.763 0 0 0 64.363 35.381c46.892 4.21 95.738-23.743 139.182 7.813 22.14 16.082 37.79 44.595 42.666 74.68 2.74 16.937 2.432 35.801-3.533 51.799-5.869 15.743-15.994 28.588-24.69 42.19-14.445 22.603-22.361 52.814-8.844 78.272 5.908 11.13 14.447 20.235 22.544 29.564 20.725 23.885 28.395 59.041 21.264 90.886-8.098 36.142-33.777 59.874-67.221 64.414-24.751 3.36-52.146-1.03-74.581 13.318" stroke="#101218" stroke-width="5.879" stroke-miterlimit="10"/><path d="M101.678 290.2c-13.671 21.308-24.22 50.328-16.9 77.103 7.298 26.693 30.637 43.163 40.835 68.506 5.766 14.328 5.919 30.086 6.137 45.469.285 20.133-3.301 41.523 9.108 58.534 7.338 10.067 18.415 16.015 29.613 19.921 22.492 7.846 46.054 11.529 66.03 26.349 32.821 24.349 73.126 32.861 112.239 30.23a234.04 234.04 0 0 0 58.503-11.787c22.075-7.377 41.694-20.47 63.922-27.479 38.52-12.144 91.194-12.31 113.736-55.056 15.176-28.78 20.424-64.351 8.628-95.707-5.614-14.91-16.33-26.296-22.432-40.936-8.431-20.216-10.71-43.284-5.074-64.767.234-.885.483-1.764.748-2.638 5.885-20.088 17.731-37.358 22.634-57.807 10.114-42.212-12.24-86.847-41.624-113.98-12.205-11.274-25.851-20.658-40.712-26.006-40.98-14.753-86.516 2.318-127.624-11.953-31.545-10.95-57.437-39.406-89.568-47.64-24.69-6.324-51.374.426-72.351 16.957-20.977 16.53-36.196 42.4-43.133 70.891-6.431 26.397-6.226 55.393-17.629 79.373-9.756 20.516-27.834 31.585-42.515 46.469a98.559 98.559 0 0 0-12.571 15.954Z" fill="#101218"/></g><path d="M248.386 156.99H217.46v-15.963h18.518a.49.49 0 0 0 .455-.287.452.452 0 0 0 0-.369.488.488 0 0 0-.455-.288h-53.024a.488.488 0 0 0-.495.472.452.452 0 0 0 .149.338.492.492 0 0 0 .346.134h33.514v15.963h-21.104a.483.483 0 0 0-.44.291.487.487 0 0 0 0 .362.478.478 0 0 0 .44.29h33.515v16.226a.49.49 0 0 0 .495.49.492.492 0 0 0 .494-.49v-16.226h18.518a.478.478 0 0 0 .44-.29.471.471 0 0 0-.44-.653ZM453.963 16.906h-30.927V.944h18.518a.487.487 0 0 0 .494-.472.45.45 0 0 0-.149-.337.487.487 0 0 0-.345-.135H388.53a.49.49 0 0 0-.456.288.45.45 0 0 0 0 .368.49.49 0 0 0 .456.287h33.514v15.963H400.94a.477.477 0 0 0-.476.472.468.468 0 0 0 .14.334c.089.088.21.138.336.138h33.515v16.225a.486.486 0 0 0 .145.347.498.498 0 0 0 .807-.159.504.504 0 0 0 .037-.188V17.85h18.519a.477.477 0 0 0 .475-.472.467.467 0 0 0-.139-.334.477.477 0 0 0-.336-.138ZM403.023 460.807h-30.927v-15.963h18.519a.487.487 0 0 0 .494-.472.467.467 0 0 0-.149-.337.488.488 0 0 0-.345-.135h-53.024a.488.488 0 0 0-.495.472.452.452 0 0 0 .149.338.487.487 0 0 0 .346.134h33.514v15.963h-21.104a.483.483 0 0 0-.44.291.468.468 0 0 0 .103.515c.09.088.211.137.337.137h33.515v16.226a.49.49 0 0 0 .494.49.497.497 0 0 0 .457-.302.49.49 0 0 0 .038-.188V461.75h18.518a.482.482 0 0 0 .44-.29.471.471 0 0 0-.44-.653ZM132.228 403.425a.475.475 0 0 0 .157.321.518.518 0 0 0 .687 0 .475.475 0 0 0 .157-.321v-15.907h18.712a.504.504 0 0 0 .46-.28.439.439 0 0 0-.111-.513.505.505 0 0 0-.349-.132H98.363a.506.506 0 0 0-.46.281.438.438 0 0 0 .11.513.5.5 0 0 0 .35.131h33.865v15.907ZM686.193 393.419a.48.48 0 0 0 .158.321.514.514 0 0 0 .686 0 .48.48 0 0 0 .158-.321v-15.907h18.712a.504.504 0 0 0 .459-.28.427.427 0 0 0 0-.364.504.504 0 0 0-.459-.281h-53.579a.505.505 0 0 0-.46.281.439.439 0 0 0 .111.512.5.5 0 0 0 .349.132h33.865v15.907ZM705.976 140.386H680.32v-14.813h16.748a.423.423 0 0 0 .305-.127.43.43 0 0 0-.305-.734h-32.699v-15.945h16.749c.442 0 .644-.149.644-.377v-14.8h16.75a.431.431 0 1 0 0-.86h-27.974V78.178h16.748a.444.444 0 0 0 .413-.263.403.403 0 0 0 0-.335.445.445 0 0 0-.413-.263h-47.969a.432.432 0 0 0-.312.74.436.436 0 0 0 .312.12h30.324V92.73h-19.092a.43.43 0 0 0 0 .86h30.316v14.317h-47.709a.43.43 0 1 0 0 .86h30.317v15.945h-14.364a.45.45 0 0 0-.166.032.442.442 0 0 0-.234.233.448.448 0 0 0 0 .331.438.438 0 0 0 .4.265h30.316v14.813h-21.417a.43.43 0 1 0 0 .86h30.322v14.79a.449.449 0 0 0 .897 0v-14.79h16.749a.433.433 0 0 0 .43-.43.433.433 0 0 0-.43-.43Z" fill="#292F3D" fill-opacity=".5"/><path d="M306.194 100.282a17.868 17.868 0 1 0-17.747-17.867 17.808 17.808 0 0 0 17.747 17.867Z" fill="#3A4355"/><path d="M306.195 97.499a15.086 15.086 0 1 0-14.983-15.084 15.031 15.031 0 0 0 14.983 15.084Z" fill="#181C25"/><path d="M317.573 82.312v.16a.647.647 0 0 1-.394.596.64.64 0 0 1-.245.049h-10.606a.633.633 0 0 1-.511-.064l-.141-.078a.643.643 0 0 1-.333-.662.657.657 0 0 1 .089-.246l3.297-5.741a.638.638 0 0 1 .896-.239l.141.078a.637.637 0 0 1 .316.4.655.655 0 0 1-.073.507l-2.618 4.557h9.524a.633.633 0 0 1 .561.3.638.638 0 0 1 .097.383Z" fill="url(#b)"/><path d="M155.635 192.744h-43.372v52.524h43.372v-52.524Z" fill="#2A2F3C"/><path d="M159.543 188.294h-52.584v62.252h52.584v-62.252Z" stroke="#2A2F3C" stroke-width="1.517" stroke-miterlimit="10"/><path d="M125.277 227.929H115.8v11.722h9.477v-11.722Z" stroke="url(#c)" stroke-width="1.152" stroke-miterlimit="10"/><path d="M127.849 230.128a9.791 9.791 0 1 0-9.724-9.791 9.758 9.758 0 0 0 9.724 9.791Z" fill="url(#d)"/><path d="m147.025 233.688-4.147-8.901h8.302l-4.155 8.901Z" stroke="url(#e)" stroke-width="1.176" stroke-miterlimit="10"/><path d="m140.624 239.216-2.166-4.638h4.332l-2.166 4.638Z" stroke="url(#f)" stroke-width="1.176" stroke-miterlimit="10"/><path d="M150.667 199.865h-25.47v5.741h25.47v-5.741Z" fill="url(#g)"/><path d="M108.946 42.033v1.933H73.811v50.949h33.855v-50.95h1.28v105.932H37.37V42.033h71.576ZM73.811 147.952h33.855V96.847H73.849l-.038 51.105ZM72.505 43.966H38.688v50.949h33.817v-50.95Zm0 103.998V96.847H38.688v51.111l33.817.006Z" fill="#181C25"/><path d="M115.442 138.718v-97.13h1.729v97.13h-1.729Z" fill="#437EFD"/><path d="M131.717 37.523s-19.756 46.889 0 106.563c0 0-3.462 5.231-12.71 5.231a13.394 13.394 0 0 1-9.932-4.188s-7.284-6.044-7.284 6.166c0 0-7.04-2.01-7.04-7.209 0-5.201-8.262-91.872 6.349-106.564 0 0 1.543 4.002 4.621 4.002 3.078 0 3.866-4.002 3.866-4.002a3.916 3.916 0 0 0 2.566 3.778c.51.185 1.053.262 1.594.224a3.66 3.66 0 0 0 3.929-4.002s-.077 4.08 3.54 4.08c3.615 0 5.01-4.08 5.01-4.08s-.851 3.074.999 3.074c1.849 0 4.492-3.073 4.492-3.073ZM53.907 37.523s-19.762 46.889 0 106.563c0 0-3.468 5.231-12.71 5.231a13.423 13.423 0 0 1-9.939-4.188s-7.276-6.044-7.276 6.166c0 0-7.04-2.01-7.04-7.209 0-5.201-8.269-91.872 6.342-106.564 0 0 1.542 4.002 4.627 4.002s3.84-4.002 3.84-4.002a3.931 3.931 0 0 0 1.202 2.926 3.875 3.875 0 0 0 2.958 1.076 3.65 3.65 0 0 0 3.917-4.002s-.077 4.08 3.545 4.08c3.623 0 5.024-4.08 5.024-4.08s-.845 3.074.998 3.074c1.844 0 4.512-3.073 4.512-3.073Z" fill="#181C25"/><path d="m105.356 143.614-1.715-13.95c-.544-4.658-1.076-9.311-1.529-13.975l-.352-3.492-.302-3.5c-.236-2.332-.364-4.671-.563-7.004a150.773 150.773 0 0 1-.415-7.017c-.09-2.338-.18-4.684-.321-7.036-.365 4.692-.479 9.4-.339 14.105.141 4.725.446 9.421.915 14.086.493 4.677 1.082 9.342 1.843 13.982.762 4.639 1.658 9.24 2.778 13.801ZM27.028 143.614l-1.683-13.95c-.544-4.658-1.076-9.311-1.537-13.975l-.345-3.492-.307-3.5c-.23-2.332-.359-4.671-.557-7.004a160.31 160.31 0 0 1-.422-7.017c-.096-2.338-.173-4.684-.314-7.036-.366 4.692-.48 9.4-.34 14.105.142 4.725.447 9.421.916 14.086.493 4.677 1.082 9.342 1.843 13.982.762 4.639 1.658 9.24 2.746 13.801ZM34.861 121.707l.18-17.256c.07-5.748.121-11.489.236-17.223l.07-4.305.122-4.304c.039-2.874.192-5.735.263-8.608.21-5.735.524-11.47.806-17.224-1.043 5.664-1.76 11.392-2.24 17.14-.48 5.747-.742 11.501-.87 17.262-.128 5.76-.051 11.528.172 17.281.224 5.755.59 11.509 1.261 17.237ZM111.544 108.775a242.75 242.75 0 0 1-.69-8.532c-.179-2.841-.282-5.67-.282-8.498 0-2.83.141-5.651.384-8.474.305-2.82.786-5.617 1.44-8.376a34.033 34.033 0 0 0-2.503 8.241 56.706 56.706 0 0 0-.704 8.621c.022 2.88.221 5.754.596 8.609a53.24 53.24 0 0 0 1.759 8.409ZM108.076 50.004c.058-1.057.128-2.107.211-3.158.084-1.05.173-2.1.308-3.144.134-1.044.275-2.088.441-3.125.166-1.038.41-2.062.64-3.093a21.63 21.63 0 0 0-.915 3.041c-.23 1.031-.39 2.081-.531 3.132a34.338 34.338 0 0 0-.154 6.347ZM123.756 52.987l.448-3.866c.166-1.289.326-2.578.518-3.866.192-1.289.409-2.546.641-3.815.23-1.27.517-2.532.805-3.795a28.626 28.626 0 0 0-1.158 3.744 45.788 45.788 0 0 0-.743 3.827 46.634 46.634 0 0 0-.409 3.866c-.083 1.289-.141 2.578-.102 3.905Z" fill="#3A4355"/><path d="M8.346 34.526h129.637a1.47 1.47 0 0 1 1.465 1.476v.006a1.469 1.469 0 0 1-1.465 1.476H8.346a1.47 1.47 0 0 1-1.465-1.476v-.006a1.47 1.47 0 0 1 1.465-1.476Z" fill="url(#h)"/><path d="M143.608 38.36a2.352 2.352 0 1 1 2.336-2.352 2.345 2.345 0 0 1-2.336 2.352Z" fill="url(#i)"/><path d="M2.868 38.36a2.352 2.352 0 1 1 2.336-2.352 2.344 2.344 0 0 1-2.336 2.352Z" fill="url(#j)"/><path d="M182.778 258.932c2.374 0 4.678-.323 6.297-2.662 3.2-4.601 8.058-8.724 13.516-4.053 3.149 2.7.782 8.248 3.489 10.916 2.399 2.358 5.446 1.965 6.668 5.882 1.805 5.761-3.878 10.813-5.702 15.794-1.529 4.182 1.92 5.799 3.456 9.021 1.197 2.512.583 5.206-.716 7.603-2.292 4.233-7.374 7.641-6.196 13.126.985 4.574 1.92 8.653-2.112 12.119-2.752 2.378-7.853 4.543-7.462 8.944.14 1.559 1.209 2.887 1.504 4.421.46 2.429-1.101 4.794-2.912 6.443-4.134 3.795-7.757 7.371-10.88 12.146-1.318 2.042-6.611 6.643-4.48 9.433-3.84-5.071-7.904-9.981-11.399-15.309-2.873-4.382-7.206-10.794-4.255-16.193.915-1.675 2.624-2.926 3.091-4.788.845-3.35-2.432-6.443-3.648-9.317-1.92-4.51-.505-9.665 2.854-13.042 1.594-1.591 3.322-3.343 3.559-5.587.256-2.454-1.28-4.741-1.965-7.004a35.422 35.422 0 0 1-1.28-6.443 13.658 13.658 0 0 1 .128-4.594c.685-2.842 3.2-4.426 5.12-6.443 4.48-4.807 2.124-10.458 4.083-16.045 1.766-5.013 5.587-4.368 9.242-4.368Z" fill="url(#k)"/><path d="M180.641 366.274a253.398 253.398 0 0 1 2.005-48.312c1.994-15.158 4.61-30.385 8.575-44.763 1.3-4.757 2.783-9.399 4.45-13.927" stroke="#55C25C" stroke-width="1.917" stroke-miterlimit="10" stroke-linecap="round"/><path d="M205.213 280.538a63.749 63.749 0 0 0-15.747 11.401c-1.235 1.207-1.926 1.575-2.956 3.123M183.256 312.732a39.695 39.695 0 0 1 17.673-9.744M181.145 333.562c4.996-6.171 10.987-10.471 17.437-12.51M186.171 294.907a96.086 96.086 0 0 0-4.359-24.766M183.328 312.007a65.665 65.665 0 0 0-10.643-20.31M180.815 334.152a30.28 30.28 0 0 0-1.808-6.804 44.252 44.252 0 0 0-3.582-6.767 215.698 215.698 0 0 0-2.881-4.536" stroke="#55C25C" stroke-width="1.917" stroke-miterlimit="10" stroke-linecap="round"/><path d="M149.753 291.632c-1.721.316-3.436.42-4.934-1.057-2.95-2.892-7.039-5.205-10.361-1.056-1.92 2.397.569 6.089-1.031 8.376-1.414 2.05-3.679 2.192-4.025 5.201-.518 4.426 4.294 7.3 6.304 10.657 1.683 2.822-.595 4.459-1.28 7.037-.518 1.984.295 3.866 1.568 5.412 2.246 2.752 6.399 4.51 6.298 8.66-.084 3.454-.186 6.54 3.2 8.493 2.323 1.34 6.316 2.203 6.643 5.451.108 1.147-.481 2.255-.487 3.415 0 1.823 1.459 3.318 3.002 4.278a45.894 45.894 0 0 1 9.542 7.294c1.242 1.289 5.709 3.898 4.556 6.219 2.093-4.215 4.366-8.345 6.17-12.694 1.478-3.583 3.738-8.835.858-12.339-.896-1.09-2.304-1.76-2.9-3.042-1.069-2.313.877-5.026 1.364-7.268a8.883 8.883 0 0 0-3.84-9.06c-1.37-.934-2.867-1.933-3.341-3.563-.525-1.74.268-3.615.461-5.349.15-1.62.15-3.251 0-4.871a10.032 10.032 0 0 0-.704-3.279c-.889-1.972-2.951-2.764-4.595-3.963-3.911-2.867-2.983-7.294-5.172-11.07-1.971-3.402-4.64-2.365-7.296-1.882Z" fill="url(#l)"/><path d="M170.826 369.389a172.74 172.74 0 0 0-10.147-34.699c-4.238-10.514-8.965-20.867-14.584-30.272a109.789 109.789 0 0 0-5.913-8.895" stroke="#26A87C" stroke-width="1.376" stroke-miterlimit="10"/><path d="M137.161 313.799a45.162 45.162 0 0 1 14.162 3.897c1.011.339 1.966.828 2.831 1.451M159.269 331.053a29.439 29.439 0 0 0-15.344-2.144M164.608 345.652a26.392 26.392 0 0 0-15.67-4.226M153.845 318.846a71.028 71.028 0 0 1-1.052-19.306M159.081 330.547a55.312 55.312 0 0 1 4.602-17.785M164.963 345.997a23.386 23.386 0 0 1 .18-5.475c.355-2.02.877-4.008 1.561-5.942.453-1.385.924-2.758 1.415-4.12" stroke="#26A87C" stroke-width="1.376" stroke-miterlimit="10"/><path d="M190.099 369.019h-43.084l7.558 43.409h27.967l7.559-43.409Z" fill="#181C25"/><path d="M195.373 356.834h-53.638v12.185h53.638v-12.185Z" fill="#292F3D"/><path d="M148.013 374.779h41.081l1.005-5.76h-43.084l.998 5.76Z" fill="#3B4255"/><path d="M586.451 250.149h-2.297v78.082h2.297v-78.082Z" fill="#3B4254"/><path d="M604.518 322.239h-38.437v5.992h38.437v-5.992Z" fill="#2A2F3C"/><path d="M571.552 316.24h27.52a2.019 2.019 0 0 1 1.43.596c.38.383.593.901.592 1.44v3.956H569.53v-3.956c0-.539.213-1.057.592-1.44a2.014 2.014 0 0 1 1.43-.596Z" fill="#3B4254"/><path d="M610.067 269.763h-49.951l12.537-49.351h24.883l12.531 49.351Z" fill="#F24F60"/><path opacity=".2" d="M593.241 269.763h-15.877l3.135-49.351h9.607l3.135 49.351Z" fill="#fff"/><path d="M638.022 328.231h-83.979v6.94h83.979v-6.94ZM638.022 383.755h-83.979v6.94h83.979v-6.94Z" fill="#181C25"/><path d="M638.022 335.171h-83.979v21.766h83.979v-21.766Z" fill="#292F3D"/><path d="M561.146 335.171h-7.103v76.98h7.103v-76.98ZM638.022 335.171h-7.105v76.98h7.105v-76.98ZM627.993 338.115h-63.922v15.561h63.922v-15.561Z" fill="#3A4355"/><path opacity=".4" d="M618.861 301.878a4.968 4.968 0 0 0 .115-3.731 14.3 14.3 0 0 0-1.703-3.383 15.588 15.588 0 0 1-1.868-3.821 8.26 8.26 0 0 1 .09-4.568c.89-2.881 2.707-5.007 3.961-7.178a10.31 10.31 0 0 0 1.344-3.448 5.92 5.92 0 0 0-.448-3.757 5.447 5.447 0 0 1 1.607 3.822 9.719 9.719 0 0 1-.852 4.2c-1.081 2.617-2.713 4.737-3.347 7.037a6.146 6.146 0 0 0-.192 3.338c.32 1.21.764 2.385 1.324 3.505a12.233 12.233 0 0 1 1.217 4.04 4.75 4.75 0 0 1-1.248 3.944ZM624.192 299.216a2.951 2.951 0 0 0 .07-2.203 8.474 8.474 0 0 0-1.011-1.998 9.189 9.189 0 0 1-1.1-2.255 4.89 4.89 0 0 1 .057-2.7c.525-1.708 1.594-2.958 2.336-4.239a6.162 6.162 0 0 0 .793-2.037c.155-.75.063-1.53-.262-2.223.601.6.941 1.413.947 2.262a5.82 5.82 0 0 1-.499 2.481c-.64 1.546-1.607 2.796-1.984 4.156a3.7 3.7 0 0 0-.115 1.971c.185.714.442 1.407.768 2.068.376.75.618 1.559.717 2.391a2.806 2.806 0 0 1-.717 2.326Z" fill="#fff"/><path d="M629.663 309.79c-.377 0-.754.032-1.126.097v-5.329h-16.063v19.182a3.997 3.997 0 0 0 2.444 3.685c.481.2.997.304 1.518.304h8.14a3.933 3.933 0 0 0 2.724-1.093 3.991 3.991 0 0 0 1.225-2.683c.376.065.757.097 1.138.097a7.062 7.062 0 0 0 4.872-2.163 7.165 7.165 0 0 0 0-9.935 7.065 7.065 0 0 0-4.872-2.162Zm0 11.721a4.651 4.651 0 0 1-1.126-.142v-8.892a4.651 4.651 0 0 1 1.126-.142 4.557 4.557 0 0 1 3.223 1.344 4.61 4.61 0 0 1 0 6.488 4.528 4.528 0 0 1-3.223 1.344Z" fill="url(#m)"/><path opacity=".2" d="M614.873 318.927a.866.866 0 0 1-.609-.257.88.88 0 0 1-.255-.613v-11.276a.878.878 0 0 1 .533-.809.869.869 0 0 1 .947.189.883.883 0 0 1 .255.62v11.276a.88.88 0 0 1-.539.804.859.859 0 0 1-.332.066Z" fill="#fff"/><path opacity=".2" d="M624.831 304.552v19.078a4.099 4.099 0 0 1-1.192 2.897 4.05 4.05 0 0 1-2.877 1.196h3.711a4.056 4.056 0 0 0 2.874-1.199 4.106 4.106 0 0 0 1.19-2.894v-19.078h-3.706Z" fill="#258EE8"/><path d="M529.198 245.561v79.571c0 10.226-7.495 18.512-16.736 18.512H403.248v1.044h-34.221c-.762.122-1.532.182-2.304.18H254.578c-9.197 0-16.64-8.286-16.64-18.505v-79.577c0-10.22 7.449-18.506 16.64-18.506 0 0 32.448 4.002 56.786 4.002 24.339 0 55.359-4.002 55.359-4.002 8.16 0 14.951 6.527 16.365 15.142.954-9.221 8.032-16.373 16.639-16.373 0 0 32.641 4.002 57.101 4.002s55.679-4.002 55.679-4.002c9.196 0 16.691 8.286 16.691 18.512Z" fill="#292F3D"/><path opacity=".4" d="M366.276 228.279H254.52s24.819 10.517 56.575 10.517c31.757 0 55.181-10.517 55.181-10.517Z" fill="#555E78"/><path d="M530.113 412.397c2.119-.645 3.283-3.068 2.631-5.465l-8.839-36.805-11.954 3.647 12.959 35.549c.781 2.358 3.085 3.718 5.203 3.074ZM237.42 412.397c-2.118-.645-3.283-3.068-2.63-5.465l8.838-36.805 11.93 3.647-12.935 35.549c-.781 2.358-3.065 3.718-5.203 3.074Z" fill="#292F3D"/><path d="M449.782 341.105v.349a30.596 30.596 0 0 1-3.143-.207c1.05.017 2.099-.031 3.143-.142Z" fill="url(#n)"/><path d="M548.237 327.349c-1.92 6.849-3.66 13.209-7.039 20.155-3.085 6.405-15.36 19.33-16.128 19.33-28.115 0-47.878-.077-75.314-.057h-3.482c-36.108 0-175.357.057-203.613.057-.755 0-13.043-12.887-16.128-19.33-3.347-6.946-5.074-13.306-7.039-20.155-3.2-11.419-6.567-27.707.179-38.552 2.95-4.729 8.914-7.97 14.15-6.127 7.341 2.577 9.715 10.631 10.797 17.622 2.618 16.824 9.913 34.409 27.672 39.183 9.767 2.635 20.302 2.037 30.349 2.043 1.177 0 121.355.135 143.614-.284h.384c1.043.123 2.092.192 3.143.207 5.19.167 14.386.084 15.314.084 10.048 0 20.576.592 30.343-2.043 17.766-4.794 25.08-22.378 27.672-39.203 1.082-6.99 3.456-15.051 10.797-17.622 5.235-1.843 11.2 1.398 14.144 6.127 6.746 10.845 3.405 27.146.185 38.565Z" fill="#181C25"/><path d="M446.64 341.247h-.366v-.148c0 .058.115.103.366.148Z" fill="url(#o)"/><path d="M383.926 317.309c0 6.631 7.168 25.13 67.123 25.13 59.955 0 67.115-18.518 67.115-25.13 0-6.611-30.047-11.984-67.115-11.984-37.069 0-67.123 5.36-67.123 11.984Z" fill="#292F3D"/><path opacity=".3" d="M383.926 317.309c9.953-6.288 123.979-6.379 134.238 0 0-6.623-30.079-11.997-67.115-11.997-37.037 0-67.123 5.374-67.123 11.997Z" fill="#3B4255"/><path opacity=".3" d="M384.042 317.309c0 6.631 7.174 25.13 67.122 25.13s67.122-18.518 67.122-25.13c-7.865 25.15-127.192 25.15-134.244 0Z" fill="#000"/><path d="M249.752 317.309c0 6.631 7.168 25.13 67.116 25.13s67.123-18.518 67.123-25.13c0-6.611-30.048-11.984-67.123-11.984s-67.116 5.36-67.116 11.984Z" fill="#292F3D"/><path opacity=".3" d="M249.752 317.309c9.952-6.288 123.979-6.379 134.239 0 0-6.623-30.048-11.997-67.123-11.997s-67.116 5.374-67.116 11.997Z" fill="#3B4255"/><path opacity=".3" d="M249.868 317.309c0 6.631 7.174 25.13 67.122 25.13s67.116-18.518 67.116-25.13c-7.86 25.15-127.185 25.15-134.238 0Z" fill="#000"/><path opacity=".4" d="M512.52 227.049H400.195s24.96 10.516 56.882 10.516c31.924 0 55.443-10.516 55.443-10.516Z" fill="#555E78"/><path d="M242.75 373.993h282.352v-7.184H242.75v7.184Z" fill="#292F3D"/><path d="M240.306 282.405c.359 1.74 5.427 20.826 5.76 23.371a64.15 64.15 0 0 1-.211 9.111c.038-1.424-.154 3.022 2.63 2.616 1.382-.206 31.104-6.134 41.843-7.7 10.739-1.565 21.67-1.417 22.726-1.598 2.112-.354 2.874-1.501 3.622-4.775.749-3.273-3.839-16.618-4.524-20.921-.685-4.305.94-7.153.473-9.273-.64-2.796-3.27-3.711-5.562-3.428-1.28.168-14.764 2.836-25.267 4.13-10.354 1.289-36.882 3.834-37.97 3.97-2.202.27-3.878 2.764-3.52 4.497Z" fill="#181C25"/><path opacity=".25" d="M240.498 282.386c.359 1.733 5.427 20.825 5.76 23.364.149 3.04.079 6.088-.211 9.118.032-1.425-.147 3.015 2.63 2.609 1.389-.199 31.11-6.134 41.843-7.7 10.733-1.566 21.67-1.417 22.732-1.591 2.106-.355 2.868-1.502 3.623-4.781.339-1.489-.423-5.052-1.421-8.899-22.668 11.296-68.998 24.099-68.806-16.753-1.389.045-2.297.065-2.624.103-2.214.297-3.884 2.79-3.526 4.53Z" fill="#000"/><path opacity=".2" d="M312.606 273.236c-.64-2.796-3.27-3.711-5.562-3.428-1.28.168-14.764 2.836-25.267 4.13-5.586.696-29.439 3.621-32.78 3.77 13.14 15.838 64.076-2.352 63.609-4.472Z" fill="#3B4255"/><path d="M379.914 225.883a21.81 21.81 0 0 1-20.339-2.236c-5.715-4.092-11.008-7.133-18.304-7.352-4.537-.136-8.781 1.772-13.101 2.861-3.795.96-6.693 4.027-10.79 4.594-5.375.741-10.88-2.578-13.317-7.481-2.439-4.903-1.921-10.986.812-15.722 1.977-3.473 3.801-6.05 1.574-9.916a15.969 15.969 0 0 1-1.42-2.533 7.011 7.011 0 0 1-.327-2.706c.198-5 3.961-8.744 6.464-12.887a8.835 8.835 0 0 0 1.351-3.08c.447-2.841-1.792-5.297-2.989-7.906-3.872-8.467 2.738-18.094 9.17-23.197 3.789-2.996 8.321-4.208 12.436-6.649 1.862-1.109 3.558-2.488 5.446-3.564 3.289-1.869 6.873-1.933 10.522-1.43 10.4 1.463 22.227 9.079 24.632 20.033 1.639 7.422-1.036 16.057 6.266 21.263 2.202 1.566 4.986 2.5 6.483 4.749 3.2 4.794-1.497 11.882 1.421 16.85a17.075 17.075 0 0 0 2.509 2.899 24.05 24.05 0 0 1 6.4 18.648 11.963 11.963 0 0 1-1.312 4.749c-1.107 1.984-2.989 3.382-4.832 4.704a44.43 44.43 0 0 1-8.685 5.232l-.07.077Z" fill="#181C25"/><path d="M389.347 198.15c-3.232-2.79-3.922-7.681-2.988-11.862.608-2.733 1.817-5.401 1.708-8.203a9.046 9.046 0 0 0-5.849-7.984c-1.677-.599-3.526-.644-5.12-1.449-2.425-1.167-3.763-3.629-4.653-6.07-.966-2.655-.563-4.929-.576-7.733a105.73 105.73 0 0 0-.461-10.663c-.415-4.086-2.848-8.132-5.631-11.071a20.678 20.678 0 0 0-1.248-1.21c-7.226-6.502-21.043-9.344-29.612-4.06-1.703 1.05-2.766 2.506-4.122 3.866a26.225 26.225 0 0 1-4.819 3.615 117.765 117.765 0 0 1-10.528 5.567c-2.266 1.134-4.576 2.352-6.24 4.272a12.509 12.509 0 0 0-2.809 8.551 20.873 20.873 0 0 0 2.489 8.789c.992 1.933 2.189 3.776 2.816 5.857 1.024 3.383-.935 6.565-3.418 8.73-1.881 1.65-4.038 3.151-5.068 5.439a6.947 6.947 0 0 0 .198 6.031c.921 1.707 2.528 2.971 3.386 4.716a6.41 6.41 0 0 1 .063 5.414c-.991 2.158-3.251 4.162-2.508 6.443" stroke="#292F3D" stroke-width="2.352" stroke-miterlimit="10"/><path d="M376.579 298.398a30.743 30.743 0 0 1-3.122 6.295 61.35 61.35 0 0 1-20.679 20.252c-6.477 3.75-13.267 3.583-19.891 2.126-4.524-.992-9.03-4.124-13.401-7.036a65.622 65.622 0 0 1-13.107-11.289c-3.296-3.724-6.252-8.377-6.758-17.172-.198-3.467.147-7.307 1.331-9.665 1.433-2.835 3.603-2.739 5.536-2.403 10.937 1.887 21.535 10.116 32.55 10.271 6.15.083 11.884-3.486 17.791-6.714 4.563-2.495 9.601-5.233 14.368-4.711 4.301.483 8.557 11.109 5.382 20.046Z" fill="url(#p)"/><path opacity=".2" d="M376.579 298.398a30.743 30.743 0 0 1-3.122 6.295 61.35 61.35 0 0 1-20.679 20.252c-6.477 3.75-13.267 3.583-19.891 2.126-4.524-.992-9.03-4.124-13.401-7.036a65.622 65.622 0 0 1-13.107-11.289c-3.296-3.724-6.252-8.377-6.758-17.172-.198-3.467.147-7.307 1.331-9.665 1.433-2.835 3.603-2.739 5.536-2.403 10.937 1.887 21.535 10.116 32.55 10.271 6.15.083 11.884-3.486 17.791-6.714 4.563-2.495 9.601-5.233 14.368-4.711 4.301.483 8.557 11.109 5.382 20.046Z" fill="url(#q)"/><path d="M307.845 277.76c-.27-.606-.538-1.231-.82-1.869a92.579 92.579 0 0 1-6.445-20.864c-.473-2.578-.953-5.42-2.918-7.152-2.719-2.404-8.013-2.094-11.379-1.643-1.574.212-3.139.681-4.106 1.964-.573 1.982-1.675 5.845-1.538 9.537-.378 15.536 11.82 28.352 21.759 38.861 1.92 2.017 3.988 4.059 6.637 4.878 2.649.818 6.009 0 7.167-2.578.852-1.862.333-4.046-.338-5.979a39.214 39.214 0 0 0-4.884-9.254 34.03 34.03 0 0 1-3.135-5.901Z" fill="#FFC5AB"/><path d="M355.735 197.357c.076-.27.154-.541.224-.811 1.005-3.763 1.075-5.42-3.309-5.239l-30.72 1.288c.596 2.681.641 5.155 1.46 7.836 1.869 5.876 5.427 11.708 11.686 13.448 5.984 1.655 11.885-.806 15.539-5.639a33.307 33.307 0 0 0 5.12-10.883Z" fill="#F4F4F4"/><path d="M366.211 193.343a13.77 13.77 0 0 1-1.081 7.964c-3.2 6.669-11.065 7.971-17.715 8.228a39.051 39.051 0 0 1-7.367-.393c-2.169-.322-4.108 0-6.297-.044a24 24 0 0 1-12.313-3.725 11.57 11.57 0 0 1-4.372-4.51c-1.279-2.629-.889-5.742-.223-8.59a17.173 17.173 0 0 1 1.702-4.735c.896-1.567 2.183-2.894 2.925-4.511 1.402-3.08.249-6.682 1.497-9.711a17.81 17.81 0 0 1 5.473-6.521c2.777-2.016 6.354-2.654 9.765-2.416 3.411.239 6.714 1.289 9.965 2.339 2.56.844 4.761.323 6.637 2.449 1.491 1.688.972 4.44 1.446 6.488 1.6 6.863 8.883 10.465 9.958 17.688Z" fill="#181C25"/><path d="M319.134 223.878c-4.34 7.501-9.229 14.692-13.907 21.986-2.605 4.066-5.248 8.209-6.65 12.842-6.438-.154-11.65-1.485-17.947-2.703 1.01-8.609 4.271-16.447 8.309-23.947 4.205-7.81 8.73-15.465 12.685-23.397 3.2-6.443 9.228-14.175 17.279-10.309 6.183 2.99 5.223 11.546 3.942 17.075a30.778 30.778 0 0 1-3.711 8.453Z" fill="#FFC5AB"/><path d="M303.409 235.039c-.416 3.834-.307 8.46 2.899 10.567 2.195 1.444 5.216 1.076 7.431-.341 2.214-1.417 3.737-3.692 4.915-6.05a34.87 34.87 0 0 0 1.593-26.458c-.755-2.229-3.737-10.915-6.925-9.53-1.529.645-2.981 5.155-3.641 6.638a66.624 66.624 0 0 0-2.752 7.351 93.825 93.825 0 0 0-3.52 17.823Z" fill="#FCB08E"/><path d="M367.805 277.76c.269-.606.537-1.231.819-1.869a92.815 92.815 0 0 0 6.445-20.864c.474-2.578.953-5.42 2.918-7.152 2.72-2.404 8.013-2.094 11.38-1.643 1.573.212 3.062.656 4.028 1.939.498 1.747 1.705 5.709 1.616 9.562.377 15.536-11.821 28.352-21.759 38.861-1.921 2.017-3.987 4.059-6.637 4.878-2.65.818-6.016 0-7.174-2.578-.852-1.862-.327-4.046.345-5.979a39.247 39.247 0 0 1 4.883-9.254 34.491 34.491 0 0 0 3.136-5.901Z" fill="#FFC5AB"/><path d="M356.516 223.878c4.339 7.501 9.229 14.692 13.901 21.986 2.61 4.066 5.254 8.209 6.655 12.842 6.439-.154 11.621-1.278 17.918-2.496-1.018-8.608-4.241-16.654-8.279-24.154-4.205-7.81-8.73-15.465-12.685-23.397-3.2-6.443-9.229-14.175-17.28-10.309-6.182 2.99-5.222 11.546-3.942 17.075a30.811 30.811 0 0 0 3.712 8.453Z" fill="#FFC5AB"/><path d="M372.24 235.039c.416 3.834.308 8.46-2.899 10.567-2.195 1.444-5.216 1.076-7.431-.341-2.214-1.417-3.736-3.692-4.921-6.05a34.87 34.87 0 0 1-1.587-26.458c.755-2.229 3.738-10.915 6.925-9.53 1.529.645 2.982 5.155 3.641 6.638a68.015 68.015 0 0 1 2.752 7.351 93.825 93.825 0 0 1 3.52 17.823Z" fill="#FCB08E"/><path d="M370.013 284.937c-1.792-4.793-4.48-8.711-6.041-13.666-2.1-6.72-3.527-16.309-1.12-23.267 2.56-7.385 5.708-13.216 5.893-21.445.167-7.042-1.24-13.988-2.649-20.85-1.408-6.863-2.016-8.77-8.626-9.808-2.356-.367-4.686-1.012-7.041-1.43a68.947 68.947 0 0 0-12.076-1.038h-.32a68.975 68.975 0 0 0-12.077 1.063c-2.355.42-4.678 1.064-7.04 1.431-6.611 1.037-7.238 3.009-8.634 9.807-1.395 6.798-2.808 13.808-2.649 20.851.193 8.228 3.334 14.06 5.894 21.444 2.413 6.959.986 16.547-1.12 23.268-1.549 4.954-4.243 8.872-6.035 13.666a1.952 1.952 0 0 0-.167 1.173c.099.236.245.449.429.627.183.177.401.315.64.404 8.781 4.626 18.63 6.012 28.263 6.727l2.476.174h.346l2.477-.174c9.631-.715 19.474-2.101 28.261-6.727a1.86 1.86 0 0 0 1.069-1.031 1.951 1.951 0 0 0-.153-1.199Z" fill="#FB8133"/><g style="mix-blend-mode:soft-light"><path opacity=".5" d="M361.5 208.797a72.851 72.851 0 0 1-9.036.114c-10.817-.534-15.149-3.174-23.506-3.318a43.518 43.518 0 0 0-14.458 2.288v-4.576a39.65 39.65 0 0 1 14.458-2.288c8.626.3 12.985 3.476 23.211 3.661a51.322 51.322 0 0 0 9.331-.686v4.805ZM361.5 216.987c-2.546-.028-5.939.089-9.692-.083-10.614-.476-14.989-2.54-23.67-2.699a40.641 40.641 0 0 0-13.638 1.952v-5.148c4.437-1.515 9.029-2.18 13.622-1.972 8.846.312 13.255 2.989 23.424 3.134 3.835.059 7.308-.31 9.954-.539v5.355ZM361.5 224c-3.136-.202-6.745-.146-10.348-.272-10.412-.345-14.83-1.518-23.834-1.668a45.716 45.716 0 0 0-12.818 1.319v-4.966a40.977 40.977 0 0 1 12.786-1.357c9.065.276 13.525 2.049 23.637 2.133 3.666.037 7.347-.231 10.577-.31V224ZM361.5 231c-3.727-.349-7.552-.346-11.003-.429-10.21-.229-14.672-.611-23.998-.752-3.707-.056-7.868-.074-11.999.752v-4.724c4.089-.9 8.229-.902 11.95-.806 9.285.242 13.794 1.206 23.85 1.235 3.496.017 7.386-.159 11.2-.107V231ZM361.5 240c-4.317-.55-8.359-.599-11.659-.654-10.008-.148-14.513.192-24.162.038-3.842-.061-7.729-.193-11.179.308v-5.234c3.405-.576 7.269-.483 11.114-.384 9.505.246 14.064.558 24.063.538 3.327 0 7.425-.112 11.823.077V240ZM361.5 246.944a83.063 83.063 0 0 0-12.315-.882c-9.805-.052-14.354 1.084-24.325.922-3.979-.064-7.592-.319-10.36-.2v-5.612c2.721-.193 6.309.002 10.278.1 9.724.242 14.334-.186 24.276-.26 3.158-.02 7.464-.056 12.446.28v5.652Z" fill="#F3F7F8"/><path d="M369.568 254.13a121.705 121.705 0 0 0-17.366-1.185c-12.858.054-19.006 2.155-32.79 1.975a131.185 131.185 0 0 1-12.773-.79v-6.321c2.728.235 7.163.556 12.642.658 13.314.249 19.553-1.044 32.789-1.185 4.001-.042 10.045.006 17.498.527v6.321Z" fill="#F3F7F8" style="mix-blend-mode:soft-light"/></g><path d="M328.881 206.687c3.891 4.453 11.379 4.808 16.639 2.984 3.565-1.237 6.087-4.073 6.163-7.958.084-4.349-3.705-7.442-4.665-11.495a27.555 27.555 0 0 1-.435-7.004c.07-2.732.089-5.464.217-8.19a28.547 28.547 0 0 0-7.68-.74c-2.361.096-4.716-.149-7.071 0a.816.816 0 0 0-.531.161.746.746 0 0 0-.173.508c-.314 3.686 0 7.417-.257 11.109-.224 3.396-.979 6.811-2.95 9.62a8.93 8.93 0 0 0 .743 11.005Z" fill="#FFC5AB"/><path d="M336.042 135.512a15.152 15.152 0 0 1 6.401-1.611 24.42 24.42 0 0 1 6.553.671 23.54 23.54 0 0 1 11.52 6.366 20.966 20.966 0 0 1 5.99 11.798c.209 2.221.288 4.452.237 6.682a15.838 15.838 0 0 0 1.127 6.379 12.914 12.914 0 0 0 4.255 4.794c1.766 1.288 3.718 2.313 5.607 3.486a8.44 8.44 0 0 1 2.61 2.184c.614.997.913 2.155.858 3.325a12.25 12.25 0 0 1-.428 3.37 22.709 22.709 0 0 1-1.216 3.125 6.306 6.306 0 0 0-.589 3.125 9.588 9.588 0 0 0 .909 3.106c.934 1.992 2.086 3.898 3.033 5.908a18.513 18.513 0 0 1 1.85 6.399 15.812 15.812 0 0 1-.813 6.573c.67-2.118.889-4.352.64-6.56a18.148 18.148 0 0 0-1.927-6.27c-.972-1.985-2.137-3.866-3.116-5.876a10.041 10.041 0 0 1-.986-3.222 6.804 6.804 0 0 1 .583-3.35 23.64 23.64 0 0 0 1.158-3.08c.271-1.052.402-2.135.39-3.222a5.311 5.311 0 0 0-.774-3.022 7.979 7.979 0 0 0-2.458-2.011c-1.862-1.152-3.839-2.178-5.651-3.486a13.475 13.475 0 0 1-4.479-5.019 16.237 16.237 0 0 1-1.153-6.63 58.01 58.01 0 0 0-.211-6.618 20.766 20.766 0 0 0-5.76-11.54 23.228 23.228 0 0 0-11.264-6.405 24.401 24.401 0 0 0-6.514-.831 15.122 15.122 0 0 0-6.382 1.462Z" fill="#292F3D"/><path d="M346.839 189.67a29.42 29.42 0 0 1-.327-6.488c.065-2.732.084-5.465.212-8.19a28.588 28.588 0 0 0-7.68-.741c-2.361.096-4.71-.148-7.072 0a.6.6 0 0 0-.511.145.598.598 0 0 0-.193.5c-.313 3.685 0 7.422-.249 11.115a27.702 27.702 0 0 1-.397 3.157c.371.322.742.644 1.133.928a12.028 12.028 0 0 0 10.317 1.887 15.488 15.488 0 0 0 4.767-2.313Z" fill="#FCB08E"/><path d="M356.778 160.384a33.28 33.28 0 0 0-1.587-9.865c-4.16-12.242-19.424-15.045-28.461-6.095-10.079 9.981-5.837 33.435 5.05 41.541a12.025 12.025 0 0 0 10.31 1.895c10.541-3.028 14.912-16.18 14.688-27.476Z" fill="#FFC5AB"/><path d="M343.299 165.367a1.043 1.043 0 0 0 .495 1.247c.144.076.303.118.466.122a1.05 1.05 0 0 0 .845-.405 1.043 1.043 0 0 0 .174-.921c.008-.744-.409-1.36-.961-1.377-.551-.017-1.001.59-1.019 1.334ZM329.907 165.358c0 .744.416 1.36.959 1.368.544.008 1.003-.581 1.02-1.325.016-.744-.416-1.36-.96-1.368-.544-.008-1.002.581-1.019 1.325Z" fill="#292F3D"/><path d="M356.759 149.778c-3.284-12.5-18.297-16.412-27.955-8.119a20.224 20.224 0 0 0-3.706 4.575c-.934 1.431-2.233 2.513-3.052 4.079a14.217 14.217 0 0 0-1.549 5.213c-.167 1.765.403 3.312.448 5.013a6.222 6.222 0 0 1 2.035-4.729 19.432 19.432 0 0 1 3.507-2.133 5.808 5.808 0 0 0 2.809-2.893c3.841 5.064 9.799 6.617 15.668 8.087 4.915 1.223 10.316 4.349 10.432 10.135 0 .65.128 1.294.377 1.894.31-.779.504-1.6.576-2.436.103-.94.378-1.881.557-2.828.379-1.942.62-3.908.724-5.883a33.48 33.48 0 0 0-.871-9.975Z" fill="#FCB08E"/><path d="M359.556 171.229a6.681 6.681 0 0 0 2.137-2.996c1.312-3.866 1.172-8.177 1.012-12.34a29.43 29.43 0 0 0-.813-6.881 17.599 17.599 0 0 0-3.533-6.392 20.771 20.771 0 0 0-17.485-7.442c-2.559.225-4.448 1.462-6.7 2.513-2.253 1.05-4.787 1.584-7.098 2.351-2.669.89-5.42 1.818-7.539 3.68a13.832 13.832 0 0 0-3.475 5.058 14.42 14.42 0 0 0-.787 7.249c.13 2.069.595 4.104 1.376 6.024.825 1.753 2.669 2.893 4.32 3.77-.249-.129 0-3.022-.045-3.467a23.584 23.584 0 0 1 .903-7.629c.761-2.39 2.284-3.866 4.261-5.309a15.003 15.003 0 0 0 2.247-1.933c.333-.368 1.773-2.062 1.536-2.578a17.35 17.35 0 0 0 5.075 6.682 57.612 57.612 0 0 0 13.542 7.146l1.043.412a11.564 11.564 0 0 1 3.642 2.101c2.381 2.178 2.56 5.522 2.464 8.544-.031.329-.001.661.09.979.493 1.476 2.867 1.173 3.827.458Z" fill="#181C25"/><path d="m293.842 243.969-.762 1.812h90.271l-.909-2.031-88.6.219Z" fill="#B8D1CE"/><path d="M377.117 303.205h-77.842l-5.574-58.346a1.78 1.78 0 0 1 .446-1.349 1.756 1.756 0 0 1 1.288-.584h85.56a1.767 1.767 0 0 1 1.735 1.933l-5.613 58.346Z" fill="#292F3D"/><path d="M377.732 304.855h-79.066l-5.663-58.347a1.776 1.776 0 0 1 1.76-1.933h86.873a1.758 1.758 0 0 1 1.521.874c.188.32.271.69.238 1.059l-5.663 58.347Z" fill="#555E78"/><path d="M377.686 304.855h-79.019v3.537h79.019v-3.537Z" fill="#292F3D"/><path d="m350.8 163.327 3.729-.298M324.787 163.327l-3.721-.298M339.071 164.799a5.925 5.925 0 0 0 3.518 5.552 5.853 5.853 0 0 0 6.44-1.149 5.933 5.933 0 0 0 1.426-2.166 5.938 5.938 0 0 0-2.13-6.968 5.853 5.853 0 0 0-7.443.581 5.95 5.95 0 0 0-1.811 4.15ZM324.787 164.49a5.925 5.925 0 0 0 3.515 5.552 5.85 5.85 0 0 0 6.44-1.144 5.953 5.953 0 0 0-.695-9.134 5.85 5.85 0 0 0-7.445.577 5.95 5.95 0 0 0-1.815 4.149Z" stroke="#292F3D" stroke-width=".647" stroke-miterlimit="10"/><path d="M339.742 161.678s-1.384-.855-3.839-.078" stroke="#292F3D" stroke-width=".647" stroke-miterlimit="10"/><path d="M343.684 274.705a5.522 5.522 0 0 1-3.382 5.107 5.463 5.463 0 0 1-5.979-1.194 5.55 5.55 0 0 1-1.583-4.444 5.542 5.542 0 0 1 2.412-4.054 5.458 5.458 0 0 1 6.923.684 5.54 5.54 0 0 1 1.609 3.901Z" fill="#292F3D"/><path d="M328.862 330.686c3.616-.644 7.219-1.366 10.79-1.965 17.92-3.009 36.614-6.54 52.895-14.994 3.75-1.933 7.68-5.033 9.6-8.872 5.121-10.105-5.087-19.576-15.052-16.709-16.64 4.781-31.091 15.162-47.046 21.908a733.886 733.886 0 0 0-8.038 3.499c-2.317 1.018-4.64 2.043-6.976 3.041" fill="url(#r)"/><path d="M325.048 316.588a245.06 245.06 0 0 1-8.032 3.293c-2.688 1.037-18.656 4.594-15.11 10.638.69 1.185 2.233 1.495 3.59 1.668 7.807.986 15.635-.115 23.385-1.513" fill="#FFC5AB"/><path d="M311.237 332.588c-3.438.392-7.041.27-10.24.457-1.441.09-2.881.174-4.321.161a64.57 64.57 0 0 1-6.847-.548l-4.961-.574a4.245 4.245 0 0 1-2.804-.895 4.301 4.301 0 0 1-1.56-2.513 58.155 58.155 0 0 1-2.522-5.999c-.409-1.36-.851-2.693.058-3.956a6.481 6.481 0 0 1 1.703-1.514 12.039 12.039 0 0 1 2.559-1.392c3.008-1.109 5.806.077 8.615 1.166a67.232 67.232 0 0 0 9.049 3.118 63.146 63.146 0 0 0 10.24 1.141c2.733.175 6.976-.038 9.222 1.811.915.76 2.279 2.493 2.26 3.73 0 1.567-1.921 2.971-3.11 3.654a18.844 18.844 0 0 1-7.341 2.153ZM327.3 389.477c1.824 2.957 4.153 5.728 5.985 8.377.831 1.191 1.657 2.384 2.559 3.511a64.573 64.573 0 0 0 4.672 5.071l3.52 3.564a4.232 4.232 0 0 0 5.37 1.333c3.897-1.088 7.59-1.178 7.679-6.172.058-3.164-1.12-6.741-3.763-8.538-3.066-2.075-6.399-3.64-9.318-5.98a67.67 67.67 0 0 1-7.213-7.352c-1.83-2.049-4.294-5.541-7.136-6.16-1.158-.257-3.346-.257-4.301.529-1.202.986-1.126 3.363-.921 4.723a19.285 19.285 0 0 0 2.867 7.094Z" fill="#FFC5AB"/><path d="M299.077 333.141c-2.913-.644-6.58-1.688-8.321-4.111a8.88 8.88 0 0 1-1.408-6.443c.269-2.223 2.202-3.789 4.295-4.562a17.12 17.12 0 0 0-14.566-2.636 8.556 8.556 0 0 0-1.581.587c-6.752 3.318-3.513 11.714 1.344 15.11a15.359 15.359 0 0 0 7.501 2.693c2.163.174 3.622.097 5.792.09 2.624 0 3.98-.47 6.944-.728ZM334.161 399.168c2.297 1.933 5.395 4.15 8.371 4.047a8.79 8.79 0 0 0 5.881-2.881c1.575-1.598 1.588-4.091.896-6.224a17.234 17.234 0 0 1 11.085 9.878c.23.515.406 1.053.525 1.604 1.6 7.391-6.951 10.04-12.608 8.312a15.332 15.332 0 0 1-6.745-4.259c-1.479-1.598-2.33-2.796-3.661-4.511-1.619-2.074-2.093-3.446-3.744-5.966Z" fill="#E6E6E6"/><path d="M329.489 361.493c1.376 5.277 2.765 10.599 4.371 15.787.019.105.053.207.103.303.755 2.152 1.67 4.233 2.393 6.391a38.047 38.047 0 0 1 1.177 4.188c.145.669.254 1.344.327 2.023.067.314.087.635.058.955a1.45 1.45 0 0 1-.807.766c-.33.132-.681.204-1.037.212a10.598 10.598 0 0 1-4.115-.798c-.819-.297-1.632-.644-2.431-.966a14.505 14.505 0 0 1-2.254-1.084 4.043 4.043 0 0 1-.774-.934 67.382 67.382 0 0 1-2.221-3.137 116.444 116.444 0 0 1-5.907-10.084c-1.837-3.441-3.57-6.863-5.433-10.258-8.768-16.019-17.613-32.972-21.12-51.072-.806-4.176-.825-9.169.96-13.086 4.698-10.31 18.406-8.12 22.355 1.527 6.585 16.109 7.462 33.963 12.083 50.755.781 2.803 1.523 5.651 2.272 8.512Z" fill="#FFC5AB"/><path d="M318.104 374.605c-1.735-3.26-3.411-6.546-5.159-9.742-8.774-16.019-17.612-32.971-21.119-51.071-.8-4.183-.819-9.169.966-13.087 4.698-10.31 18.406-8.119 22.355 1.527 6.585 16.109 7.462 33.964 12.083 50.755.774 2.803 1.517 5.651 2.266 8.512.64 2.462 1.28 4.936 1.951 7.397" fill="url(#s)"/><path d="M489.819 294.875h-71.09v13.293h71.09v-13.293Z" fill="url(#t)"/><path d="M425.385 294.875h-7.072v13.352h7.072v-13.352ZM485.442 301.551c0 .616-.182 1.218-.522 1.731a3.092 3.092 0 0 1-5.607-1.123 3.125 3.125 0 0 1 1.315-3.199 3.08 3.08 0 0 1 3.907.388 3.12 3.12 0 0 1 .907 2.203Z" fill="#FB8133"/><path d="M492.93 281.524h-71.09v13.293h71.09v-13.293Z" fill="url(#u)"/><path d="M428.922 281.524h-7.072v13.351h7.072v-13.351Z" fill="#2273E5"/><path d="M489.038 288.199a3.135 3.135 0 0 1-5.994 1.278 3.13 3.13 0 0 1 3.317-4.377 3.137 3.137 0 0 1 2.677 3.099Z" fill="#2167E3"/><path d="M489.154 281.58h-63.941v-7.023l7.986-1.52-7.986-.948v-14.807h51.461l15.053 2.59-.954 7.281-7.539.761 7.539 1.514-1.619 12.152Z" fill="#F3F7F8"/><path d="M431.452 264.493c3.277-.175 6.554-.259 9.83-.33 3.277-.071 6.56-.063 9.837-.102 3.276-.039 6.554.031 9.837.102l4.915.117c1.638.077 3.277.115 4.915.213-1.638.096-3.277.141-4.915.212l-4.915.122c-3.283.071-6.561.065-9.837.097-3.277.033-6.556 0-9.837-.097-3.283-.096-6.527-.154-9.83-.334ZM442.224 275.336c3.276-.174 6.553-.257 9.835-.328 3.284-.071 6.554-.065 9.831-.103 3.277-.039 6.556-.005 9.837.103l4.915.123c1.639.071 3.277.109 4.915.205-1.638.104-3.276.142-4.915.213l-4.915.123c-3.277.071-6.56.064-9.837.096-3.277.033-6.553.001-9.831-.096-3.276-.097-6.559-.155-9.835-.336ZM425.213 257.282h63.103l3.411 2.59-66.514-2.59Z" fill="#D1D1D3"/><path d="M436.762 284.991h2.351c.48-.03.954.118 1.331.415a1.57 1.57 0 0 1 .481 1.128 1.57 1.57 0 0 1-.481 1.128 1.967 1.967 0 0 1-1.331.414h-1.216v2.096h-1.135v-5.181Zm2.205 2.22c.592 0 .888-.224.888-.67 0-.451-.296-.677-.888-.677h-1.07v1.347h1.07Zm5.092.953v2.008h-1.135v-2.015l-2.139-3.166h1.288l1.411 2.212 1.427-2.212h1.295l-2.147 3.173Zm3.619-2.249h-1.623v-.924h4.395v.924h-1.622v4.257h-1.15v-4.257Zm8.004-.924v5.181h-1.114v-2.176h-2.401v2.176h-1.114v-5.181h1.114v2.096h2.401v-2.096h1.114Zm3.422 5.247a2.724 2.724 0 0 1-1.347-.32 2.234 2.234 0 0 1-.88-.932 3.093 3.093 0 0 1-.306-1.412 3.035 3.035 0 0 1 .306-1.404 2.21 2.21 0 0 1 .88-.917 2.683 2.683 0 0 1 1.347-.327c.467-.012.929.101 1.339.327.376.211.68.531.873.917.213.437.317.919.306 1.404.011.488-.094.972-.306 1.412-.192.39-.496.715-.873.932a2.684 2.684 0 0 1-1.339.32Zm0-.888a1.229 1.229 0 0 0 1.018-.458c.271-.384.403-.849.372-1.318.031-.466-.1-.929-.372-1.309a1.235 1.235 0 0 0-1.018-.452 1.243 1.243 0 0 0-1.026.452 2.047 2.047 0 0 0-.364 1.309c-.031.47.097.937.364 1.325a1.251 1.251 0 0 0 1.026.451Zm7.895-4.359v5.181h-.844l-2.583-3.303v3.303h-1.063v-5.181h.837l2.584 3.297v-3.297h1.069ZM433.517 304.202c.171.027.343.041.516.044a.566.566 0 0 0 .473-.16.923.923 0 0 0 .124-.56v-4.891h1.135v4.876c.038.449-.083.897-.342 1.266a1.443 1.443 0 0 1-1.164.408 4.849 4.849 0 0 1-.742-.066v-.917Zm6.752-1.535h-2.423l-.495 1.15h-1.143l2.38-5.182h.917l2.379 5.182h-1.12l-.495-1.15Zm-.371-.866-.837-1.943-.837 1.943h1.674Zm6.858-3.166-2.328 5.182h-.91l-2.329-5.182h1.179l1.616 3.763 1.63-3.763h1.142Zm3.362 4.032h-2.423l-.495 1.15h-1.142l2.379-5.182h.917l2.38 5.182h-1.121l-.495-1.15Zm-.371-.866-.837-1.943-.837 1.943h1.674Zm1.936 2.46 1.907-5.938h.91l-1.914 5.938h-.903Zm5.496-.379a2.794 2.794 0 0 1-1.376-.327 2.282 2.282 0 0 1-.895-.932 3.023 3.023 0 0 1-.313-1.404c-.01-.482.097-.959.313-1.39.2-.393.511-.717.895-.932a2.794 2.794 0 0 1 1.376-.327c.334-.002.666.052.982.16.287.085.551.235.772.437l-.357.815a2.531 2.531 0 0 0-.684-.379 1.919 1.919 0 0 0-.691-.123 1.311 1.311 0 0 0-1.07.443 1.975 1.975 0 0 0-.371 1.296c-.032.466.099.929.371 1.31.133.15.298.269.483.346.186.076.386.11.587.098a2.06 2.06 0 0 0 .691-.117c.245-.095.476-.225.684-.386l.357.815a2.04 2.04 0 0 1-.772.444 3.12 3.12 0 0 1-.982.153Zm6.008-1.797h-1.412v1.419h-.757v-1.419h-1.411v-.75h1.411v-1.419h.757v1.419h1.412v.75Zm4.363 0h-1.411v1.419h-.757v-1.419h-1.412v-.75h1.412v-1.419h.757v1.419h1.411v.75Z" fill="#fff"/><path d="M440.23 170.541h135.671a4.053 4.053 0 0 0 2.866-1.198 4.053 4.053 0 0 0 1.179-2.873V75.526a4.055 4.055 0 0 0-4.045-4.072H440.23a4.056 4.056 0 0 0-4.044 4.072v90.944a4.058 4.058 0 0 0 2.492 3.757 4.037 4.037 0 0 0 1.552.314Z" fill="#3B4255"/><path d="M556.926 96.757h13.741a1.485 1.485 0 0 0 0-2.97h-13.741a1.486 1.486 0 0 0 0 2.97ZM537.137 96.757h13.741a1.486 1.486 0 0 0 0-2.97h-13.741a1.484 1.484 0 0 0-1.045 2.533c.277.278.652.436 1.045.438Z" fill="#292F3D"/><path d="M546.871 102.949h17.242a1.487 1.487 0 0 0 1.478-1.485 1.486 1.486 0 0 0-1.478-1.486h-17.242a1.487 1.487 0 0 0-1.045 2.534c.277.278.653.435 1.045.437Z" fill="url(#v)"/><path d="M512.088 102.949h28.083a1.486 1.486 0 0 0 0-2.97h-28.083a1.487 1.487 0 0 0-1.478 1.485 1.486 1.486 0 0 0 1.478 1.485Z" fill="url(#w)"/><path d="M531.051 109.141h33.063a1.483 1.483 0 0 0 1.477-1.485 1.484 1.484 0 0 0-1.477-1.485h-33.063a1.483 1.483 0 0 0-1.477 1.485 1.482 1.482 0 0 0 1.477 1.485ZM505.906 109.141h19.487a1.483 1.483 0 0 0 1.479-1.485 1.485 1.485 0 0 0-1.479-1.485h-19.487a1.487 1.487 0 0 0-1.479 1.485 1.481 1.481 0 0 0 1.479 1.485ZM553.515 114.689h17.242a1.483 1.483 0 0 0 1.477-1.485 1.484 1.484 0 0 0-1.477-1.485h-17.242a1.484 1.484 0 0 0-1.046 2.532c.277.279.653.436 1.046.438ZM518.731 114.689h28.083a1.483 1.483 0 0 0 1.477-1.485 1.484 1.484 0 0 0-1.477-1.485h-28.083a1.485 1.485 0 0 0 0 2.97ZM515.646 120.882h55.11a1.488 1.488 0 0 0 1.478-1.486 1.484 1.484 0 0 0-1.478-1.485h-55.11a1.483 1.483 0 0 0-1.478 1.485 1.485 1.485 0 0 0 1.478 1.486ZM556.926 133.814h13.741a1.483 1.483 0 0 0 1.477-1.485 1.484 1.484 0 0 0-1.477-1.486h-13.741a1.488 1.488 0 0 0-1.478 1.486 1.484 1.484 0 0 0 1.478 1.485Z" fill="#292F3D"/><path d="M536.331 133.814h13.74a1.487 1.487 0 0 0 0-2.971h-13.74a1.487 1.487 0 0 0-1.046 2.534c.277.278.653.435 1.046.437Z" fill="url(#x)"/><path d="M531.051 139.806h33.062a1.484 1.484 0 0 0 1.479-1.485 1.485 1.485 0 0 0-1.479-1.485h-33.062a1.487 1.487 0 0 0-1.478 1.485 1.484 1.484 0 0 0 1.478 1.485ZM505.906 139.806h19.487a1.484 1.484 0 0 0 1.478-1.485 1.484 1.484 0 0 0-1.478-1.485h-19.487a1.487 1.487 0 0 0-1.478 1.485 1.484 1.484 0 0 0 1.478 1.485Z" fill="#292F3D"/><path d="m565.71 145.946-6.036 10.523a.9.9 0 0 0 .326 1.224.893.893 0 0 0 .987-.065.885.885 0 0 0 .228-.263l6.036-10.524a.9.9 0 0 0-.326-1.224.893.893 0 0 0-.676-.089.882.882 0 0 0-.539.418Z" fill="url(#y)"/><path d="m559.057 148.995-3.321 3.318a.71.71 0 0 1-1.006-.999l3.322-3.324a.713.713 0 0 1 1.005 0 .703.703 0 0 1 0 1.005Z" fill="url(#z)"/><path d="m559.057 154.646-3.321-3.319a.717.717 0 0 0-1.006 0 .714.714 0 0 0 0 1.005l3.322 3.319a.712.712 0 0 0 1.213-.503.707.707 0 0 0-.208-.502Z" fill="url(#A)"/><path d="m567.716 148.995 3.321 3.318a.71.71 0 0 0 1.005-.999l-3.322-3.324a.71.71 0 1 0-1.004 1.005Z" fill="url(#B)"/><path d="m567.716 154.646 3.321-3.319a.717.717 0 0 1 1.005 0 .714.714 0 0 1 0 1.005l-3.322 3.319a.71.71 0 0 1-1.004-1.005Z" fill="url(#C)"/><path d="M579.946 162.855h-143.76v10.019h143.76v-10.019Z" fill="url(#D)"/><path d="M571.838 167.861H452.902a.566.566 0 0 0-.533.359.596.596 0 0 0-.043.221v.006a.578.578 0 0 0 .576.581h118.936a.581.581 0 0 0 .576-.581v-.006a.58.58 0 0 0-.576-.58Z" fill="#fff"/><path d="M498.041 167.861h-45.356a.354.354 0 0 0-.332.223.361.361 0 0 0-.027.138v.445a.356.356 0 0 0 .105.254.342.342 0 0 0 .116.079c.044.018.09.027.138.028h45.356a.372.372 0 0 0 .254-.107.355.355 0 0 0 .104-.254v-.445a.361.361 0 0 0-.358-.361ZM445.011 170.89a2.447 2.447 0 0 0 2.267-1.497 2.439 2.439 0 0 0-1.769-3.339 2.441 2.441 0 0 0-2.924 2.393 2.446 2.446 0 0 0 .707 1.724c.225.227.493.407.788.53.295.124.611.188.931.189Z" fill="#F26A3E"/><path d="M498.399 170.29a1.838 1.838 0 0 0 1.711-1.129 1.837 1.837 0 0 0-1.334-2.52 1.846 1.846 0 0 0-1.896.781 1.843 1.843 0 0 0 1.519 2.868Z" fill="#F26A3E"/><path d="m446.348 168.447-2.06-1.198v2.391l2.06-1.193Z" fill="#fff"/><path d="M438.124 71.453h139.775a4.043 4.043 0 0 1 2.829 1.274 4.092 4.092 0 0 1 1.106 2.915v95.363a4.093 4.093 0 0 1-1.106 2.915 4.05 4.05 0 0 1-2.829 1.274H438.124a4.036 4.036 0 0 1-2.826-1.276 4.096 4.096 0 0 1-1.109-2.913V75.642a4.099 4.099 0 0 1 1.109-2.913 4.043 4.043 0 0 1 2.826-1.276Zm-2.048 97.233a4.1 4.1 0 0 0 1.105 2.912 4.044 4.044 0 0 0 2.825 1.276h136.03a4.048 4.048 0 0 0 2.829-1.274 4.092 4.092 0 0 0 1.107-2.914V77.974a4.1 4.1 0 0 0-1.104-2.918 4.05 4.05 0 0 0-2.832-1.276h-136.03a4.04 4.04 0 0 0-2.825 1.276 4.1 4.1 0 0 0-1.105 2.912v90.718Z" fill="#292F3D"/><path d="M556.478 50.828v33.906c-.013.182.01.365.067.538a1.381 1.381 0 0 0 1.213.95h44.428c.357-.04.684-.217.911-.494.229-.28.34-.635.311-.994V50.828a1.389 1.389 0 0 0-.32-1.003 1.373 1.373 0 0 0-.928-.486h-44.428a1.377 1.377 0 0 0-.929.486c-.235.28-.352.639-.325 1.003Z" fill="url(#E)"/><path d="M579.946 75.281a7.496 7.496 0 0 0 5.368-12.775 7.494 7.494 0 0 0-12.811 5.281 7.461 7.461 0 0 0 2.17 5.289 7.463 7.463 0 0 0 5.273 2.205Z" fill="#fff"/><path d="M582.64 68.574a.905.905 0 0 0 .452-.787.912.912 0 0 0-.452-.786l-3.599-2.092a.907.907 0 0 0-1.245.331.91.91 0 0 0-.122.456v4.188a.91.91 0 0 0 1.368.786l3.598-2.096Z" fill="#FB8133"/><path d="M474.277 91.125v4.253a25.43 25.43 0 0 1 2.144 1.65c.343.488.562 1.051.641 1.642 0 0-3.316 5.562-5.524 5.562-2.207 0-5.401-1.07-8.14-4.402-2.74-3.33-2.17-3.157-2.17-3.157l2.342-1.63.327-2.842s4.397 3.783 10.38-1.076Z" fill="#FFC5AB"/><path d="m478.943 96.892-4.211-1.192-5.228 4.13-5.959-4.76-4.211 1.023 4.128 7.584 5.676 2.668 3.731-.109 3.297-3.029 2.227-3.866.55-2.449Z" fill="#F2F2F2"/><path d="M480.588 77.169c-.908-.644 2.668-4.227 2.797-6.295.204-3.332-1.51-5.497-1.19-5.471.108-.135-.065-4.182-3.118-4.672-2.758-.438-.793-3.33-5.567-3.737-4.775-.406-3.546-2.854-8.083 0-4.269 2.694-2.509 1.676-4.851 2.578-2.714 1.07-1.773-1.392-4.359.341a5.698 5.698 0 0 0-2.784 5.207c.157 2.01.494 4.003 1.005 5.953.576 2.513 2.112 2.069 1.856 4.408a2.972 2.972 0 0 0 1.594 2.912l3.2 1.553H475.5l5.088-2.777Z" fill="#292F3D"/><path d="M478.943 96.892s-2.912 9.208-8.32 9.208c-5.407 0-11.264-10.007-11.264-10.007s-6.63.4-8.089 3.222c-1.459 2.822-10.663 34.957-4.96 63.513h41.913s2.118-28.556 0-53.107c0-.019 0-13.898-9.28-12.829Z" fill="#FAFAFA"/><path d="m478.943 96.892-4.211-1.192-5.229 4.131 2.272 3.582 7.168-6.52Z" fill="#E0E0E0"/><path d="m459.334 96.093 4.211-1.024 5.959 4.761-2.535 3.583-7.635-7.32Z" fill="#E0E0E0"/><path d="M474.277 91.743c0 .903-2.789 2.656-5.036 2.759-2.246.103-4.838-.258-5.44-1.38l.121-1.03 9.409-.767.748-.2h.198v.618Z" fill="#FCB08E"/><path d="M477.817 76.144v-6.836a1.044 1.044 0 0 0-.882-1.036 1.036 1.036 0 0 0-.488.044 25.17 25.17 0 0 1-7.373 1.559 36.839 36.839 0 0 1-7.923-1.25 1.037 1.037 0 0 0-1.172.559 1.06 1.06 0 0 0-.108.452v10.117s-.524-1.734-1.92-1.734c-1.395 0-2.182 1.734-2.182 1.734v3.473s.128 2.667 2.054 2.667c1.927 0 1.92-1.134 1.92-1.134s1.92 8.938 8.281 8.938c6.362 0 9.793-6.676 9.793-9.08 0 0 4.044.87 4.044-3.866V77.75a2.193 2.193 0 0 0-.281-.902 1.922 1.922 0 0 0-1.773-.902c-1.99 0-1.99 1.469-1.99 1.469v-1.27Z" fill="#FFC5AB"/><path d="M476.657 68.257c0-.07-3.839 2.275-7.583 2.578-3.744.303-6.892-1.218-7.68-.78-.998.574-1.594 3.989-1.561 3.937v-4.4a1.051 1.051 0 0 1 .396-.819 1.034 1.034 0 0 1 .884-.193c5.574 1.211 9.964 1.398 15.544-.323Z" fill="#FCB08E"/><path d="M537.739 109.128c.435.857-.499 1.444-.678 1.663-.179.219-5.255 3.145-5.255 3.145s2.816 3.866 2.605 4.555c-.211.69-2.131 1.798-3.879 2.061a3.762 3.762 0 0 1-3.66-1.146c-.736-.864-1.536-3.222-.813-4.678.723-1.456 11.207-6.534 11.68-5.6Z" fill="#FFC5AB"/><path d="M533.098 113.085a.71.71 0 0 1 .717.644.964.964 0 0 1-.325.974s1.081-.2 1.183.554a1.654 1.654 0 0 1-.352 1.256s.826.116.755.773c-.07.658-.429 1.038-1.497 1.605a2.305 2.305 0 0 1-2.598-.078c-.73-.489-.046-1.289-.046-1.289s-.94-.354-.896-.786c.046-.432.717-.953.717-.953a.846.846 0 0 1-.831-.426c-.692-.986 2.111-2.21 3.173-2.274Z" fill="#FFC5AB"/><path d="M526.001 116.145c0-.115-.556-2.409 1.075-3.801 1.632-1.392 2.24-1.037 2.657-.754.723.497 2.386 3.318 1.708 3.769-.679.452-2.138-1.088-2.509-1.933-.23 1.051.192 2.165-.64 3.164-.832.999-2.01.715-2.291-.445Z" fill="#FCB08E"/><path d="m529.176 121.848-4.243-6.405s-12.55 5.729-17.28 9.743a1.038 1.038 0 0 1-1.224.096 1.033 1.033 0 0 1-.312-.302c-3.2-4.788-16.64-25.194-22.118-26.805-.403.238 4.48.296 5.063 26.605 0 0 4.377 10.658 13.964 13.705a5.987 5.987 0 0 0 3.251.097c2.509-.605 7.456-2.145 11.251-5.393-.019 0 9.792-7.075 11.648-11.341Z" fill="url(#F)"/><path d="M474.277 61.537s-3.552 3.866-6.605 3.467c-3.052-.4-3.717-2.108-6.495-1.72-2.777.386-3.245 2.383-3.245 2.383M478.348 62.87s-3.38 4.705-6.228 4.917a15.343 15.343 0 0 1-5.568-.747s-1.823-.535-2.745.064" stroke="#3A4355" stroke-width=".952" stroke-miterlimit="10"/><path d="m445.395 149.188 20.697 1.836 7.52-30.246-24.979-3.35-3.238 31.76Z" fill="#FFFFFE"/><path d="m473.849 124.161-4.345 30.284a1.04 1.04 0 0 1-1.185.884l-20.563-3.158a1.046 1.046 0 0 1-.877-1.134l2.894-29.801c.014-.138.055-.272.122-.394a1.037 1.037 0 0 1 1.036-.541l22.016 2.694c.135.017.266.061.385.128a1.05 1.05 0 0 1 .517 1.038Z" fill="url(#G)"/><path d="M456.947 147.596s5.298 1.934 7.487 2.068c2.189.136 5.498-.464 6.4-4.136.903-3.673-1.92-4.266-1.92-4.266l-4.083-.47s-1.338-.199-.832-.87c0 0 3.462-.509 4.48-1.398 1.018-.89.601-1.379.601-1.379a1.914 1.914 0 0 0-2.054-.645c-1.279.38-4.064.98-6.054 2.494-1.99 1.514-3.072 2.423-4.019 2.294l-.006 6.308Z" fill="#FFC5AB"/><path d="m473.336 124.071.27-2.506a1.058 1.058 0 0 0-.214-.756 1.033 1.033 0 0 0-.676-.391l-23.27-3.222a1.036 1.036 0 0 0-1.178.934l-2.905 29.943a1.034 1.034 0 0 0 .691 1.096l1.222.438" stroke="url(#H)" stroke-width="1.905" stroke-miterlimit="10"/><path d="m445.932 122.395-2.713 10.059c-.237 1.037-.64 2.023-.934 3.035-.116.361-.058.799.607 1.134l14.081 4.137v7.088s-21.338.27-26.374-7.088c0 0-3.2-3.473-.929-7.733 0 .162 15.597-32.648 22.189-34.498.358 0-4.346 10.599-5.901 23.841" fill="url(#I)"/><path d="M535.01 440.849c35.642 0 64.536-6.775 64.536-15.132s-28.894-15.131-64.536-15.131c-35.643 0-64.537 6.774-64.537 15.131s28.894 15.132 64.537 15.132Z" fill="#292F3D"/><path d="M535.01 435.509c28.318 0 51.275-4.583 51.275-10.236 0-5.654-22.957-10.236-51.275-10.236-28.319 0-51.276 4.582-51.276 10.236 0 5.653 22.957 10.236 51.276 10.236Z" stroke="#3A4355" stroke-width="5.926" stroke-miterlimit="10"/><path d="M523.497 420.047c-6.399-.31-12.799.734-19.199 1.765-2.003.329-4.128 1.449-2.617 3.866.831 1.321 2.559 1.714 4.096 1.888 6.636.767 13.439-.078 20.121-.071" fill="url(#J)"/><path d="M570.78 411.071c.973 6.005-1.824 14.672-8.32 16.424-2.624.709-5.76.457-8.492.445l-9.889-.071-19.417-.142c-4.269-.032-8.806-.141-12.371-2.506-4.23-2.816-6.335-8.016-3.526-12.494 2.419-3.867 6.944-6.206 11.251-7.14 7.225-1.565 14.72.51 21.913-.792 1.177-.21 2.333-.52 3.457-.928 6.482-2.365 12.927-5.625 19.545-1.765a12.75 12.75 0 0 1 5.849 8.969Z" fill="url(#K)"/><path d="M517.143 398.152c-1.082-1.154-1.741-1.379-2.4.264a15.918 15.918 0 0 0-1.235 5.992 17.698 17.698 0 0 0-7.405 3.563 15.468 15.468 0 0 0-5.626-2.39c-1.708-.387-1.92.29-1.574 1.836a48.6 48.6 0 0 0 1.677 5.606c.39 1.16.749 2.326 1.145 3.48a8.426 8.426 0 0 0 1.53 3.222c1.92 2.364 5.651 3.743 8.569 4.129 3.303.439 6.4-.405 8.653-2.931a17.49 17.49 0 0 0 3.872-8.332 10.145 10.145 0 0 0-.429-5.155c-.64-1.83-1.971-3.163-3.11-4.697a51.018 51.018 0 0 0-3.667-4.587Z" fill="url(#L)"/><path d="M565.91 406.302c6.215 5.961 5.568 12.823 2.131 18.9-3.807 6.733-10.079 11.295-17.074 14.259-8.256 3.505-17.709 5.297-26.554 3.222-1.779-.419-3.724-1.289-4.243-3.061-1.555-5.219 6.528-5.123 9.408-5.368 5.92-.508 12.192-.573 17.92-2.512 6.323-2.127 10.816-6.663 13.977-12.468" fill="url(#M)"/><path d="M570.416 415.903a12.861 12.861 0 0 0-2.702-7.783c-4.396-5.567-12.953-5.742-18.847-2.719-6.765 3.459-7.834 12.629-5.184 19.085.122.296-2.368.213-2.56.225-1.785.129-5.485-.213-6.202 1.991a3.398 3.398 0 0 0 .258 2.347 3.362 3.362 0 0 0 1.72 1.603c.625.17 1.273.238 1.92.2h13.895c3.622 0 6.361-.644 8.537-3.782 1.127-1.617 1.983-3.428 3.2-4.994" fill="url(#N)"/><path d="M516.47 417.959a1.558 1.558 0 0 1-.72 2.178 1.543 1.543 0 0 1-2.146-1.153c-.04-.232-.028-.47.038-.696a1.545 1.545 0 0 1 .909-1.012 1.437 1.437 0 0 1 1.103-.06 1.433 1.433 0 0 1 .816.743Z" fill="url(#O)"/><path d="M522.992 405.472c.237.399.532.74.806 1.127.149.2.276.417.378.645.099.224.179.457.237.696.109.447.192.901.249 1.358a13.595 13.595 0 0 1-.639 7.088 13.186 13.186 0 0 1-3.111 4.781 11.364 11.364 0 0 1-2.259 1.728 5.645 5.645 0 0 1-1.331.535 2.916 2.916 0 0 1-1.408 0 4.202 4.202 0 0 0 2.387-1.083 14.91 14.91 0 0 0 1.881-1.888 15.933 15.933 0 0 0 2.65-4.549 16.34 16.34 0 0 0 1.056-5.155v-1.327a11.77 11.77 0 0 0-.051-1.354 4.004 4.004 0 0 0-.096-.644 3.486 3.486 0 0 0-.217-.644 8.214 8.214 0 0 1-.532-1.314Z" fill="url(#P)"/><defs><linearGradient id="w" x1="11699.7" y1="-1756.51" x2="10454.4" y2="-1756.51" gradientUnits="userSpaceOnUse"><stop stop-color="#FB8133"/><stop offset="1" stop-color="#FFBA08"/></linearGradient><linearGradient id="b" x1="91773.3" y1="-5165.24" x2="95470.9" y2="-5165.24" gradientUnits="userSpaceOnUse"><stop stop-color="#008FEF"/><stop offset="1" stop-color="#01B7F4"/></linearGradient><linearGradient id="d" x1="-3381.77" y1="-11690.8" x2="-2889.47" y2="-11690.8" gradientUnits="userSpaceOnUse"><stop stop-color="#FB8133"/><stop offset="1" stop-color="#FFBA08"/></linearGradient><linearGradient id="e" x1="-823.828" y1="-4988.72" x2="-734.754" y2="-4988.72" gradientUnits="userSpaceOnUse"><stop stop-color="#FB8133"/><stop offset="1" stop-color="#FFBA08"/></linearGradient><linearGradient id="f" x1="-182.071" y1="-2364.81" x2="-157.818" y2="-2364.81" gradientUnits="userSpaceOnUse"><stop stop-color="#FB8133"/><stop offset="1" stop-color="#FFBA08"/></linearGradient><linearGradient id="g" x1="-4325.33" y1="-3244.71" x2="-3486.82" y2="-3244.71" gradientUnits="userSpaceOnUse"><stop stop-color="#FB8133"/><stop offset="1" stop-color="#FFBA08"/></linearGradient><linearGradient id="h" x1="-12683100" y1="-1931.05" x2="-17388600" y2="-1931.05" gradientUnits="userSpaceOnUse"><stop stop-color="#008FEF"/><stop offset="1" stop-color="#01B7F4"/></linearGradient><linearGradient id="i" x1="-15742.2" y1="-3427" x2="-15949.3" y2="-3427" gradientUnits="userSpaceOnUse"><stop stop-color="#008FEF"/><stop offset="1" stop-color="#01B7F4"/></linearGradient><linearGradient id="j" x1="-22985.8" y1="-3427" x2="-23192.8" y2="-3427" gradientUnits="userSpaceOnUse"><stop stop-color="#008FEF"/><stop offset="1" stop-color="#01B7F4"/></linearGradient><linearGradient id="k" x1="-7165.79" y1="-59049.7" x2="-3545" y2="-59049.7" gradientUnits="userSpaceOnUse"><stop stop-color="#6CCE4B"/><stop offset="1" stop-color="#83DB3B"/></linearGradient><linearGradient id="l" x1="-8348.57" y1="-39275.2" x2="-5395" y2="-39275.2" gradientUnits="userSpaceOnUse"><stop stop-color="#26A87C"/><stop offset="1" stop-color="#55C25C"/></linearGradient><linearGradient id="m" x1="612.474" y1="316.144" x2="636.536" y2="316.144" gradientUnits="userSpaceOnUse"><stop stop-color="#258EE8"/><stop offset="1" stop-color="#2AB5ED"/></linearGradient><linearGradient id="n" x1="8128.97" y1="136.279" x2="8191.64" y2="136.279" gradientUnits="userSpaceOnUse"><stop stop-color="#FF7A01"/><stop offset="1" stop-color="#FEB800"/></linearGradient><linearGradient id="o" x1="1052.74" y1="228.858" x2="1052.85" y2="228.858" gradientUnits="userSpaceOnUse"><stop stop-color="#FF7A01"/><stop offset="1" stop-color="#FEB800"/></linearGradient><linearGradient id="p" x1="2917.98" y1="25738.2" x2="10805.3" y2="25738.2" gradientUnits="userSpaceOnUse"><stop stop-color="#258EE8"/><stop offset="1" stop-color="#2AB5ED"/></linearGradient><linearGradient id="q" x1="299.568" y1="328.032" x2="377.683" y2="328.032" gradientUnits="userSpaceOnUse"><stop stop-color="#258EE8"/><stop offset="1" stop-color="#2AB5ED"/></linearGradient><linearGradient id="r" x1="325.035" y1="330.686" x2="403.514" y2="330.686" gradientUnits="userSpaceOnUse"><stop stop-color="#258EE8"/><stop offset="1" stop-color="#2AB5ED"/></linearGradient><linearGradient id="s" x1="291.306" y1="374.605" x2="331.447" y2="374.605" gradientUnits="userSpaceOnUse"><stop stop-color="#258EE8"/><stop offset="1" stop-color="#2AB5ED"/></linearGradient><linearGradient id="t" x1="14187.7" y1="-6488.25" x2="20720.3" y2="-6488.25" gradientUnits="userSpaceOnUse"><stop stop-color="#FB8133"/><stop offset="1" stop-color="#FFBA08"/></linearGradient><linearGradient id="u" x1="14040.4" y1="7342.85" x2="20572.9" y2="7342.85" gradientUnits="userSpaceOnUse"><stop stop-color="#258EE8"/><stop offset="1" stop-color="#2AB5ED"/></linearGradient><linearGradient id="v" x1="8603.93" y1="-1756.51" x2="8076.6" y2="-1756.51" gradientUnits="userSpaceOnUse"><stop stop-color="#FB8133"/><stop offset="1" stop-color="#FFBA08"/></linearGradient><linearGradient id="c" x1="-1386.72" y1="-6640.23" x2="-1260.01" y2="-6640.23" gradientUnits="userSpaceOnUse"><stop stop-color="#FF7A01"/><stop offset="1" stop-color="#FEB800"/></linearGradient><linearGradient id="x" x1="6969.98" y1="-1668.86" x2="6609.55" y2="-1668.86" gradientUnits="userSpaceOnUse"><stop stop-color="#FB8133"/><stop offset="1" stop-color="#FFBA08"/></linearGradient><linearGradient id="y" x1="3888.23" y1="-8125.97" x2="4015.89" y2="-8265.32" gradientUnits="userSpaceOnUse"><stop stop-color="#FB8133"/><stop offset="1" stop-color="#FFBA08"/></linearGradient><linearGradient id="z" x1="2712.21" y1="-2872.48" x2="2741.26" y2="-2872.48" gradientUnits="userSpaceOnUse"><stop stop-color="#FB8133"/><stop offset="1" stop-color="#FFBA08"/></linearGradient><linearGradient id="A" x1="2712.75" y1="-2853.75" x2="2741.82" y2="-2853.75" gradientUnits="userSpaceOnUse"><stop stop-color="#FB8133"/><stop offset="1" stop-color="#FFBA08"/></linearGradient><linearGradient id="B" x1="2804.74" y1="-2872.48" x2="2833.79" y2="-2872.48" gradientUnits="userSpaceOnUse"><stop stop-color="#FB8133"/><stop offset="1" stop-color="#FFBA08"/></linearGradient><linearGradient id="C" x1="2805.29" y1="-2853.75" x2="2834.36" y2="-2853.75" gradientUnits="userSpaceOnUse"><stop stop-color="#FB8133"/><stop offset="1" stop-color="#FFBA08"/></linearGradient><linearGradient id="D" x1="31078.1" y1="-6404.75" x2="57792.2" y2="-6404.75" gradientUnits="userSpaceOnUse"><stop stop-color="#FB8133"/><stop offset="1" stop-color="#FFBA08"/></linearGradient><linearGradient id="E" x1="18153.3" y1="-29509.4" x2="21001.2" y2="-29509.4" gradientUnits="userSpaceOnUse"><stop stop-color="#FB8133"/><stop offset="1" stop-color="#FFBA08"/></linearGradient><linearGradient id="F" x1="483.975" y1="118.468" x2="529.176" y2="118.468" gradientUnits="userSpaceOnUse"><stop stop-color="#D93764"/><stop offset="1" stop-color="#F24F60"/></linearGradient><linearGradient id="G" x1="-2213140" y1="-24909.8" x2="-2252810" y2="-24909.8" gradientUnits="userSpaceOnUse"><stop stop-color="#FF7A01"/><stop offset="1" stop-color="#FEB800"/></linearGradient><linearGradient id="H" x1="-2429500" y1="-23187.6" x2="-2476730" y2="-23187.6" gradientUnits="userSpaceOnUse"><stop stop-color="#FF7A01"/><stop offset="1" stop-color="#FEB800"/></linearGradient><linearGradient id="I" x1="6070.12" y1="36814.2" x2="7092" y2="36814.2" gradientUnits="userSpaceOnUse"><stop stop-color="#D93764"/><stop offset="1" stop-color="#F24F60"/></linearGradient><linearGradient id="J" x1="8210.39" y1="-2590.17" x2="9000.82" y2="-2590.17" gradientUnits="userSpaceOnUse"><stop stop-color="#FB8133"/><stop offset="1" stop-color="#FFBA08"/></linearGradient><linearGradient id="K" x1="20132.8" y1="-9955.71" x2="25341.9" y2="-9955.71" gradientUnits="userSpaceOnUse"><stop stop-color="#FB8133"/><stop offset="1" stop-color="#FFBA08"/></linearGradient><linearGradient id="L" x1="8425.54" y1="-9727.32" x2="9281.99" y2="-9727.32" gradientUnits="userSpaceOnUse"><stop stop-color="#FB8133"/><stop offset="1" stop-color="#FFBA08"/></linearGradient><linearGradient id="M" x1="17081.7" y1="-12974.2" x2="20396.9" y2="-12974.2" gradientUnits="userSpaceOnUse"><stop stop-color="#FB8133"/><stop offset="1" stop-color="#FFBA08"/></linearGradient><linearGradient id="N" x1="12988.7" y1="-9757.17" x2="14626.6" y2="-9757.17" gradientUnits="userSpaceOnUse"><stop stop-color="#FB8133"/><stop offset="1" stop-color="#FFBA08"/></linearGradient><linearGradient id="O" x1="8043.17" y1="-915.586" x2="8100.91" y2="-915.586" gradientUnits="userSpaceOnUse"><stop stop-color="#FF7A01"/><stop offset="1" stop-color="#FEB800"/></linearGradient><linearGradient id="P" x1="55824.6" y1="-6405.67" x2="57283.2" y2="-6405.67" gradientUnits="userSpaceOnUse"><stop stop-color="#FF7A01"/><stop offset="1" stop-color="#FEB800"/></linearGradient><clipPath id="a"><path fill="#fff" transform="translate(74.212 41.843)" d="M0 0h533.044v574.928H0z"/></clipPath></defs></svg>