<svg width="159" height="117" fill="none" xmlns="http://www.w3.org/2000/svg"><path d="M0 10C0 4.477 4.477 0 10 0h149v47c0 38.66-31.34 70-70 70H0V10Z" fill="#15171F"/><path d="M72.072 29.637a82.06 82.06 0 0 1-1.509.162c-3.352.334-5.939 1.164-7.103 2.307-.636.614-.991 1.271-1.25 2.263-.194.755-.215 1.196-.215 4.171v3.32h12.933v1.606l-9.668.032c-9.01.032-9.721.054-10.379.237-2.737.776-4.72 2.64-5.648 5.303-.592 1.703-1.11 4.656-1.217 6.887-.14 3.19.679 7.642 1.853 10.056.518 1.045.733 1.347 1.434 2.058.496.496 1.088.97 1.487 1.175 1.186.615 1.66.69 4.689.744l2.77.054.053-3.59c.044-3.287.065-3.664.28-4.386.928-3.158 3.428-5.443 6.586-6.014.625-.108 2.425-.14 7.976-.151 5.992 0 7.275-.032 7.857-.162 2.252-.539 4.214-2.51 4.807-4.85.248-.959.237-14.572 0-15.51-.27-1.045-.895-2.09-1.725-2.93-2.058-2.06-4.537-2.717-10.616-2.792-1.692-.022-3.212-.011-3.395.01Zm-3.438 4.129c.808.366 1.444 1.358 1.444 2.274 0 1.304-1.164 2.479-2.447 2.479-.517 0-1.239-.302-1.638-.68-1.002-.948-1.024-2.597-.054-3.567.69-.69 1.822-.905 2.695-.506Z" fill="url(#a)"/><path d="M89.586 46.904c0 3.071-.022 3.524-.216 4.29a8.47 8.47 0 0 1-4.311 5.42c-1.638.852-1.078.798-9.808.874-8.59.075-8.224.043-9.7.765-.96.474-2.296 1.821-2.824 2.845-.744 1.444-.733 1.272-.733 9.226 0 7.836-.01 7.696.647 8.924.41.766 1.692 2.037 2.619 2.576 2.77 1.65 7.48 2.609 11.209 2.296 4.925-.41 9.021-2.091 10.508-4.311.906-1.358.927-1.488.97-5.055l.033-3.147H74.928V69.99h9.894c5.766 0 10.185-.043 10.605-.108 2.49-.366 3.977-1.94 5.292-5.658.572-1.585.798-2.447 1.046-3.891.312-1.778.312-4.387 0-6.477-.949-6.51-2.706-9.55-5.917-10.229-.507-.108-1.52-.15-3.482-.15h-2.78v3.427Zm-6.38 28.216c1.271.528 1.874 2.027 1.303 3.277-.442.97-1.164 1.444-2.198 1.444-1.466 0-2.5-1.11-2.404-2.587.108-1.68 1.79-2.77 3.298-2.134Z" fill="url(#b)"/><defs><linearGradient id="a" x1="48" y1="70.012" x2="87.99" y2="70.012" gradientUnits="userSpaceOnUse"><stop stop-color="#258EE8"/><stop offset="1" stop-color="#2AB5ED"/></linearGradient><linearGradient id="b" x1="61.994" y1="84.179" x2="101.999" y2="84.179" gradientUnits="userSpaceOnUse"><stop stop-color="#258EE8"/><stop offset="1" stop-color="#2AB5ED"/></linearGradient></defs></svg>