<svg width="159" height="117" fill="none" xmlns="http://www.w3.org/2000/svg"><path d="M0 10C0 4.477 4.477 0 10 0h149v47c0 38.66-31.34 70-70 70H0V10Z" fill="#15171F"/><path fill-rule="evenodd" clip-rule="evenodd" d="M48.164 69.305V44.79c0-1.026.509-1.334.509-1.334l.014.008c.697-1.36 23.498-12.932 23.498-12.932 2.996-1.693 5.765 0 5.765 0C98.645 40.764 101.272 43.06 101.5 43.57l.02-.01c.902.51.175 27.306.17 27.489h.001c.396.718-23.965 12.976-23.965 12.976-2.713 1.59-5.313 0-5.313 0s-20.518-11.13-22.383-12.053c-1.865-.923-1.865-2.667-1.865-2.667Zm27.3-28.567c-10.372-.439-15.583 7.42-16.072 8.196l.02.01c-5.03 9.283-.17 16.207-.17 16.207 7.461 10.001 17.861 9.642 24.248 6.821 4.841-2.127 6.972-5.838 7.344-6.548L82.78 61.25c-1.59 2.384-4.456 4.004-7.769 4.004-4.974 0-9.043-3.693-9.043-8.206 0-1.412.382-2.724 1.092-3.888l-.02-.01c1.583-2.411 4.465-4.052 7.8-4.052 3.47 0 6.5 1.797 8.016 4.417l8.028-4.282c-.25-.43-4.82-8.046-15.42-8.495Zm15.882 15.438h2.204v2.103h-2.204v2.103h-2.374v-2.103H86.71v-2.103h2.26v-2h2.374v2Zm7.686 0h2.205v2.103h-2.205v2.103H96.66v-2.103h-2.261v-2.103h2.26v-2h2.374v2Z" fill="url(#a)"/><defs><linearGradient id="a" x1="96.398" y1="29.779" x2="50.662" y2="29.779" gradientUnits="userSpaceOnUse"><stop stop-color="#F24F60"/><stop offset="1" stop-color="#A5066C"/></linearGradient></defs></svg>