<svg width="63" height="27" fill="none" xmlns="http://www.w3.org/2000/svg"><rect width="62.948" height="26.705" rx="1.908" fill="url(#a)"/><path d="M30.519 17.722V9.116h1.575v7.276h4.053v1.33h-5.628Zm6.709 0v-6.165h1.526v6.165h-1.526Zm-.086-7.324v-1.49h1.697v1.49h-1.697Zm5.076 7.324-2.662-6.165h1.624l1.929 4.822h-.379l1.978-4.822h1.526l-2.673 6.165h-1.343Zm7.693.122c-.692 0-1.286-.126-1.782-.378a2.765 2.765 0 0 1-1.136-1.11c-.26-.481-.39-1.05-.39-1.71 0-.643.126-1.205.378-1.685s.602-.854 1.05-1.123c.456-.268.985-.403 1.587-.403.594 0 1.09.126 1.49.379.398.252.7.606.903 1.062.211.456.317.989.317 1.6v.402h-4.492v-.806h3.406l-.208.171c0-.57-.122-1.005-.366-1.306-.236-.301-.582-.452-1.038-.452-.342 0-.63.082-.867.244a1.54 1.54 0 0 0-.524.696c-.123.301-.184.668-.184 1.099v.159c0 .667.163 1.168.489 1.501.333.326.801.488 1.404.488.35 0 .675-.044.976-.134a2.86 2.86 0 0 0 .88-.464l.45 1.026c-.292.236-.642.419-1.049.55-.407.13-.838.195-1.294.195ZM10.923 7.85a.692.692 0 0 0-.223-.161.659.659 0 0 0-.756.151 8.366 8.366 0 0 0-1.714 2.71 8.756 8.756 0 0 0-.6 3.2 8.754 8.754 0 0 0 .646 3.314 8.339 8.339 0 0 0 1.838 2.768c.132.13.306.2.486.195a.674.674 0 0 0 .477-.22c.301-.32.264-.828-.026-1.123a6.826 6.826 0 0 1-1.473-2.25 7.161 7.161 0 0 1-.517-2.685c0-1.867.706-3.56 1.853-4.791.276-.299.305-.794.01-1.108Z" fill="#fff"/><path d="M12.603 9.632a.663.663 0 0 0-.477-.218.66.66 0 0 0-.484.202 5.827 5.827 0 0 0-1.205 1.893 6.1 6.1 0 0 0-.422 2.24c0 1.711.696 3.25 1.805 4.312.131.123.301.188.476.18a.663.663 0 0 0 .462-.217c.313-.332.254-.853-.04-1.147a4.296 4.296 0 0 1-.942-1.424 4.507 4.507 0 0 1-.33-1.704c0-1.163.435-2.218 1.144-2.993.273-.297.317-.802.013-1.124ZM17.917 9.632a.663.663 0 0 1 .477-.218.66.66 0 0 1 .484.202 5.83 5.83 0 0 1 1.205 1.893c.28.71.423 1.471.422 2.24 0 1.711-.696 3.25-1.805 4.313a.657.657 0 0 1-.476.18.662.662 0 0 1-.462-.218c-.313-.332-.255-.853.04-1.147.402-.401.723-.886.942-1.424a4.509 4.509 0 0 0 .33-1.704 4.424 4.424 0 0 0-1.144-2.993c-.273-.297-.318-.802-.013-1.124Z" fill="#fff"/><path d="M19.596 7.85a.691.691 0 0 1 .224-.161.659.659 0 0 1 .756.151 8.366 8.366 0 0 1 1.714 2.71c.397 1.014.6 2.101.6 3.2a8.756 8.756 0 0 1-.646 3.314 8.341 8.341 0 0 1-1.838 2.768.67.67 0 0 1-.486.195.674.674 0 0 1-.477-.22c-.302-.32-.264-.828.026-1.123a6.826 6.826 0 0 0 1.473-2.25 7.16 7.16 0 0 0 .517-2.685c0-1.867-.707-3.56-1.853-4.791-.277-.299-.305-.794-.01-1.108ZM15.26 12.232c-.38 0-.744.16-1.012.445-.268.284-.419.67-.419 1.072 0 .403.15.788.42 1.073a1.39 1.39 0 0 0 1.01.444c.38 0 .744-.16 1.012-.444.269-.284.42-.67.42-1.073 0-.402-.151-.788-.42-1.072a1.39 1.39 0 0 0-1.011-.445Z" fill="#fff"/><defs><linearGradient id="a" x1="0" y1="13.352" x2="62.948" y2="13.352" gradientUnits="userSpaceOnUse"><stop stop-color="#FF6E3F"/><stop offset="1" stop-color="#FF5634"/></linearGradient></defs></svg>