<svg width="34" height="23" fill="none" xmlns="http://www.w3.org/2000/svg"><path d="M33.15 18.401c0 .576 0 1.037-.03 1.432-.03.393-.087.663-.17.862-.128.308-.38.608-1.294.852-.956.255-2.46.396-4.853.467-2.375.07-5.547.07-9.803.07-4.256 0-7.428 0-9.803-.07-2.393-.07-3.897-.212-4.853-.467-.914-.244-1.166-.544-1.294-.852-.083-.2-.14-.47-.17-.862-.03-.395-.03-.856-.03-1.432 0-8.92 7.23-16.15 16.15-16.15 8.92 0 16.15 7.23 16.15 16.15Z" stroke="#fff" stroke-width="1.7"/><path fill="#08090C" d="m25.802 0 5.065 4.537-4.537 5.065-5.065-4.537z"/><path d="M14.483 16.382a2.995 2.995 0 0 0 4.24 0L27.2 3.665l-12.717 8.478a2.997 2.997 0 0 0 0 4.24Z" fill="url(#a)"/><defs><linearGradient id="a" x1="13.604" y1="10.463" x2="27.2" y2="10.463" gradientUnits="userSpaceOnUse"><stop stop-color="#FB8530"/><stop offset="1" stop-color="#FEB50B"/></linearGradient></defs></svg>