<svg width="60" height="60" fill="none" xmlns="http://www.w3.org/2000/svg"><path d="M23.652 59.275a1.633 1.633 0 0 1-2.303 0c-.432-.434-5.712-5.76-10.883-12.921-2.588-3.583-5.144-7.62-7.052-11.728C1.504 30.516.25 26.348.25 22.5.25 10.23 10.23.25 22.5.25s22.25 9.98 22.25 22.25c0 .729-.044 1.494-.173 2.257-.145.88-.996 1.472-1.873 1.332a1.623 1.623 0 0 1-1.331-1.871v-.001A10.6 10.6 0 0 0 41.5 22.5c0-10.477-8.523-19-19-19s-19 8.523-19 19c0 6.038 3.608 13.124 7.739 19.268 4.138 6.156 8.835 11.416 11.078 13.813l.183.195.183-.195c.65-.696 1.507-1.635 2.49-2.762.6-.674 1.625-.74 2.296-.157.677.592.747 1.62.157 2.295-1.167 1.34-2.16 2.42-2.863 3.165a72.966 72.966 0 0 1-1.038 1.079l-.056.056-.014.014-.003.004Z" fill="#fff" stroke="#fff" stroke-width=".5"/><path d="M11.5 22.5c0-6.064 4.936-11 11-11s11 4.936 11 11-4.936 11-11 11-11-4.936-11-11Zm3.25 0c0 4.274 3.476 7.75 7.75 7.75s7.75-3.476 7.75-7.75-3.476-7.75-7.75-7.75-7.75 3.476-7.75 7.75Z" fill="#fff" stroke="#fff" stroke-width=".5"/><path d="M43.026 59.21c-8.924 0-16.184-7.26-16.184-16.184 0-8.924 7.26-16.184 16.184-16.184 8.924 0 16.184 7.26 16.184 16.184 0 8.924-7.26 16.184-16.184 16.184Zm0-29.878c-7.552 0-13.694 6.145-13.694 13.694 0 7.55 6.142 13.695 13.694 13.695 7.552 0 13.694-6.145 13.694-13.695 0-7.55-6.142-13.694-13.694-13.694Z" fill="url(#a)"/><path d="M40.986 48.501c-.33 0-.65-.129-.885-.356l-5-4.874a1.198 1.198 0 0 1 0-1.723 1.274 1.274 0 0 1 1.768 0l4.054 3.953 7.869-8.768a1.27 1.27 0 0 1 1.765-.115c.52.444.572 1.212.117 1.718l-8.748 9.748a1.272 1.272 0 0 1-.9.417h-.04Z" fill="#fff"/><defs><linearGradient id="a" x1="26.842" y1="59.211" x2="59.21" y2="59.211" gradientUnits="userSpaceOnUse"><stop stop-color="#FB8133"/><stop offset="1" stop-color="#FFBA08"/></linearGradient></defs></svg>