<svg width="30" height="33" fill="none" xmlns="http://www.w3.org/2000/svg"><path d="M15.065 0C6.942 0 .363 6.446.363 14.59A14.768 14.768 0 0 0 8.46 27.774v2.625c0 1.3 1.056 2.357 2.355 2.357h8.505c1.3 0 2.355-1.056 2.355-2.357v-2.625a14.768 14.768 0 0 0 8.098-13.184C29.766 6.446 23.187 0 15.064 0ZM20.4 26.961v3.316c0 .78-.642 1.423-1.421 1.423h-7.936c-.78 0-1.422-.642-1.422-1.423v-3.324C4.798 24.905 1.42 20.198 1.42 14.712c0-7.364 6.092-13.33 13.605-13.33 7.513 0 13.605 5.966 13.605 13.33 0 5.494-3.387 10.209-8.228 12.249Z" fill="#fff"/><path d="M23.154 12.604s2.834-.325 3.695 2.008c.861 2.333-.796 3.666-.796 3.666s.065-1.235-1.405-2.203l.61-.943s.162-.748-.35-.292l-.642.74s.228-1.586-1.112-2.976Zm2.266-.292s-1.373-.52-2.802-.13c0 0-.861-.553-1.722-.488 0 0-.285-1.747-1.657-2.138 0 0 .13-1.268-.285-1.138 0 0 .309-.382.788-.52.488-.138 1.137-.024 1.795.407 1.308.861.512 2.446.512 2.446l.146.228s.683.195.683-1.91c-.009 0 2.729-.228 2.542 3.243ZM18.662 9.28s-.764-.39-1.868.163c0 0-.268 0-.544-.147 0 0-1.657-2.284-.878-.309 0 0-1.527-.065-2.038.602l-.593-.7s-.366-.414.178-1.113c0 0 .829-1.04 1.868-1.203a4.552 4.552 0 0 1 1.925.13s1.584.488 1.95 2.577Zm-6.58 1.926.545-.926s.065-.602-.276-.96c-.341-.357-.69-.666-.69-.666s-.894-.748-2.25 0c0 0-.545.423-.83.927 0 0-.015.357.269.488 0 0 .544.853-.447.39-.99-.472-1.161-.39-1.161-.39s-1.56-.212-2.055 1.666c-.496 1.877 1.835 2.674 2.469 2.593.008.008-.114-4.34 4.427-3.122Z" fill="#fff"/><path d="M19.872 18.164s2.883.748 3.76-2.463c0 0 .561-3.26-3.15-3.39 0 0-.683-3.616-3.843-2.137 0 0-1.421-1.471-3.314.114 0 0 3.444-.764 3.534 3.227l.479.366s1.405-2.553 2.916.3c0 0 1.129-.113 1.608.374.48.488-.382.618-.414.423-.033-.195-.666-.44-.959-.277 0 0 .017 2.09-.528 2.756-.536.658-.09.707-.09.707Z" fill="#fff"/><path d="M23.95 16.636s-.61 1.943-2.916 2.138c0 0-.666.926-2.088 1.487 0 0-.365 2.187 1.958 1.992 0 0 1.957-.44 1.04-2.366l.349-.357s.495.374.43 1.138c0 0 0 .357.682.113.683-.243 1.316-.585 1.714-1.203.398-.617.593-2.04-.6-2.95.007.008-.472-.496-.57.008Zm-5.962-1.422v1.048s-.358.902-.504 0c-.146-.902-.43-1.552-.43-1.552s-1.008-2.081-2.965-.813c-1.958 1.268-1.316 3.796-1.316 3.796s.69 1.284 1.982.544c0 0 .26-.105-.025-.642-.284-.536-.21-.804-.21-.804s-.098-.927.6-.122c0 0 .26 1.65 1.982 1.991 1.722.341 2.697-2.43 2.721-2.918.025-.488.017-1.569-.877-2.268 0 0-.99-.211-1.105.683-.121.91.147 1.057.147 1.057Z" fill="#fff"/><path d="M20.23 18.806s-.61 0-1.17-.292c0 0-2.128 1.65-3.517 0 0 0-1.267.975-1.982.707 0 0 .731 5.007 4.93 2.308l-.154-1.113s-.503.601-2.225.21c0 0-.934-.267.13-.414.008.009 1.981.326 3.988-1.406Zm-7.173 1.618s-1.12.09-1.453-.13c-.333-.22-.642.13-.642.13s-.837.43-1.292.601c-.454.17.601.927.601.927s1.552 1.097 3.063-.147c0 0 .625-.268.235-.658s-.512-.723-.512-.723Zm-.065-1.618v.854s-.17.317-.503.17c-.333-.146-.122.065-1.389-.487 0 0-1.673 1.853-3.152.528-1.478-1.325-.625-2.52-.641-2.422-.025.097.382-.976 1.031-1.22 0 0 1.349 1.504 3.29.952 0 0 .487-.147.487.414-.008.561.634 1.162.877 1.211Z" fill="#fff"/><path d="M16.25 12.873s-.87-3.747-3.761-.976c0 0-.179.269-.87-.17-.69-.44-2.241.146-2.241.146s-1.747.975-.983 3.26c0 0 .772 1.893 3.216 1.527 0 0 .017-.065.463 0 0 0-.089-.414.147-1.137 0 0 .39-.488 0-.683 0 0-.366-1.049-1.657-.805 0 0-.886-.179.024-.585.91-.415 2.177.886 2.177.886s1.6-2.024 3.062-1.366c.008 0 .292.342.422-.097Zm-8.61 2.121s.43.537.235.878c0 0-.91.512-1.194 1.48 0 0-.642.414-.885.755-.236.342-.788-.512-.788-.512s-1.365-2.056.333-3.698l2.299 1.097Zm-1.227 3.292s-.049 1.69 2.315 2.853c0 0-1.478.707-2.315-.244-.837-.943-.406-2.47 0-2.609Zm8.269 4.284s.22.406.853.268v8.998h-.853V22.57Z" fill="#fff"/></svg>