<svg width="345" height="432" fill="none" xmlns="http://www.w3.org/2000/svg"><path d="M242.235 268.463c-43.432 57.724-90.586 104.063-131.7 132.324-20.56 14.132-39.584 23.728-55.86 27.978-16.284 4.252-29.73 3.135-39.24-4.02-9.51-7.155-14.308-19.766-14.733-36.589-.426-16.817 3.523-37.756 11.406-61.426 15.764-47.334 47.226-105.481 90.657-163.205 43.432-57.724 90.586-104.063 131.7-132.324 20.559-14.133 39.585-23.728 55.861-27.978 16.283-4.252 29.729-3.135 39.239 4.02 9.51 7.155 14.308 19.766 14.734 36.59.425 16.816-3.523 37.755-11.406 61.425-15.765 47.334-47.226 105.48-90.658 163.205Z" stroke="url(#a)" stroke-opacity=".8"/><defs><linearGradient id="a" x1="113" y1="182" x2="242.634" y2="268.763" gradientUnits="userSpaceOnUse"><stop stop-color="#FB8530" stop-opacity="0"/><stop offset=".878" stop-color="#FB8530"/><stop offset="1" stop-color="#FEB50B"/></linearGradient></defs></svg>