<svg width="1506" height="88" fill="none" xmlns="http://www.w3.org/2000/svg"><path d="m755.233 71.625 13.398-19.848h52.102l-11.909 19.848h-53.591ZM906.081 66.167l8.323-11.91h32.366l-7.398 11.91h-33.291ZM1124.41 88h-119.58l3.97-43.667h111.64L1124.41 88ZM1284.19 4.14l5.96 25.803h73.93l-9.42-25.803h-70.47ZM1506 35.402h-96.76L1393.36.667h93.78L1506 35.402ZM29.276 50.288 0 70.136h58.057l26.299-19.848h-55.08ZM172.185 42.349h-59.049l25.307-20.345 58.057 1.985-24.315 18.36ZM187.072 56.242l-9.428 9.429h23.321l9.428-9.429h-23.321ZM501.173 66.167h-23.322l7.939-8.932 21.834.496-6.451 8.436ZM354.791 65.67h-26.795l6.947-8.435h28.284l-8.436 8.436Z" fill="#573779" fill-opacity=".5"/></svg>