<svg width="1506" height="89" fill="none" xmlns="http://www.w3.org/2000/svg"><path d="m755.233 17.705 13.398 19.848h52.102l-11.909-19.848h-53.591ZM906.081 23.163l8.323 11.909h32.366l-7.398-11.91h-33.291ZM1124.41 1.33h-119.58l3.97 43.666h111.64l3.97-43.666ZM1411.22.337l-16.87 46.644h-125.04L1281.22.337h130ZM1284.19 85.19l5.96-25.804h73.93l-9.42 25.803h-70.47ZM1506 53.928h-96.76l-15.88 34.735h93.78L1506 53.928ZM29.276 39.041 0 19.194h58.057l26.299 19.848h-55.08ZM172.185 46.981h-59.049l25.307 20.345L196.5 65.34l-24.315-18.36ZM187.072 33.087l-9.428-9.428h23.321l9.428 9.428h-23.321ZM501.173 23.163h-23.322l7.939 8.932 21.834-.497-6.451-8.435ZM354.791 23.66h-26.795l6.947 8.435h28.284l-8.436-8.436Z" fill="#6B4986" fill-opacity=".5"/></svg>