<svg width="28" height="30" viewBox="0 0 28 30" fill="none" xmlns="http://www.w3.org/2000/svg">
<path d="M12.4108 0.316004C13.1573 -0.105986 14.1277 -0.105986 14.8742 0.316004C18.6161 2.39843 22.3673 4.47169 26.1091 6.55411C26.809 6.94858 27.2848 7.71917 27.2755 8.51728V21.0394C27.2848 21.8742 26.7623 22.6631 26.0158 23.0392C22.2833 25.1125 18.5507 27.1766 14.8182 29.2498C14.0531 29.681 13.0639 29.6443 12.3268 29.1856C11.207 28.5435 10.0873 27.9105 8.96751 27.2775C8.73422 27.1399 8.48228 27.039 8.32365 26.8188C8.46362 26.6261 8.72489 26.6078 8.93018 26.5252C9.39675 26.3785 9.82599 26.1491 10.2552 25.9198C10.3672 25.8464 10.4978 25.8739 10.6005 25.9381C11.5616 26.4794 12.5041 27.0298 13.4652 27.571C13.6705 27.6903 13.8758 27.5343 14.0531 27.4334C17.7203 25.3969 21.3875 23.3695 25.0453 21.3329C25.1853 21.2687 25.26 21.1311 25.2413 20.9843V8.59067C25.26 8.42555 25.1573 8.26959 25.008 8.20538C21.2942 6.13212 17.5803 4.07722 13.8571 2.01314C13.7265 1.9214 13.5492 1.9214 13.4185 2.01314C9.69535 4.07722 5.98149 6.1413 2.2583 8.1962C2.109 8.26042 2.00636 8.41637 2.02502 8.5815V20.9752C2.01569 21.1219 2.09034 21.2595 2.23031 21.3238C3.21943 21.8742 4.21788 22.4246 5.20699 22.975C5.76687 23.2686 6.45739 23.4429 7.07325 23.2227C7.61447 23.0301 7.99705 22.4888 7.98772 21.92C7.99705 17.8102 7.98772 13.7096 7.98772 9.59978C7.97839 9.4163 8.14635 9.26952 8.33298 9.28787C8.80887 9.28787 9.28477 9.2787 9.76067 9.28787C9.95663 9.28787 10.0966 9.48052 10.0686 9.66399C10.0686 13.7922 10.0779 17.9295 10.0686 22.0576C10.0686 23.1585 9.61137 24.3602 8.57559 24.8923C7.2972 25.5437 5.72021 25.406 4.46049 24.7822C3.36873 24.2502 2.32362 23.6172 1.25052 23.0392C0.504019 22.6631 -0.00920148 21.865 0.000129817 21.0394V8.51728C-0.00920148 7.70082 0.485357 6.92106 1.2132 6.53577L12.4108 0.316004Z" fill="url(#paint0_linear_2292_4512)"/>
<path d="M15.6688 9.11008C17.2924 9.00917 19.0374 9.04587 20.5024 9.8348C21.6408 10.4403 22.266 11.7062 22.2846 12.9447C22.2566 13.1098 22.0794 13.2015 21.9114 13.1924C21.4355 13.1924 20.9689 13.2015 20.493 13.1924C20.2971 13.2015 20.1758 13.0181 20.1478 12.8438C20.0078 12.2475 19.6812 11.6604 19.112 11.376C18.2442 10.9448 17.2271 10.9723 16.2846 10.9815C15.5941 11.0182 14.8476 11.0732 14.2598 11.4769C13.8119 11.7796 13.6719 12.3943 13.8305 12.8896C13.9798 13.2474 14.3997 13.3575 14.7357 13.4676C16.6952 13.9721 18.7761 13.9263 20.6983 14.5868C21.4915 14.862 22.2753 15.3849 22.5459 16.2013C22.9005 17.3022 22.7419 18.614 21.9487 19.4947C21.3049 20.2194 20.3624 20.6139 19.4293 20.834C18.1789 21.1092 16.8912 21.1184 15.6221 20.99C14.4277 20.8524 13.196 20.5496 12.2722 19.7515C11.4884 19.0819 11.1058 18.0361 11.1431 17.027C11.1524 16.8527 11.3204 16.7334 11.4884 16.7517C11.9643 16.7517 12.4402 16.7426 12.9161 16.7517C13.1027 16.7426 13.2426 16.8985 13.252 17.0728C13.336 17.6416 13.5599 18.2287 14.0545 18.5681C15.0249 19.1828 16.238 19.1369 17.3391 19.1552C18.2535 19.1186 19.2893 19.1002 20.0358 18.5039C20.4277 18.1645 20.549 17.5957 20.4371 17.1095C20.3251 16.6967 19.8865 16.5041 19.5039 16.3756C17.563 15.7702 15.4635 15.9903 13.5506 15.3115C12.7761 15.0454 12.0203 14.5317 11.7217 13.7428C11.3017 12.6328 11.4977 11.2567 12.3748 10.4036C13.252 9.55042 14.493 9.22017 15.6688 9.11008Z" fill="url(#paint1_linear_2292_4512)"/>
<defs>
<linearGradient id="paint0_linear_2292_4512" x1="13.6378" y1="-0.000488281" x2="13.6378" y2="29.5525" gradientUnits="userSpaceOnUse">
<stop stop-color="#34A866"/>
<stop offset="1" stop-color="#087D4C"/>
</linearGradient>
<linearGradient id="paint1_linear_2292_4512" x1="16.9328" y1="9.0697" x2="16.9328" y2="21.0698" gradientUnits="userSpaceOnUse">
<stop stop-color="#34A866"/>
<stop offset="1" stop-color="#087D4C"/>
</linearGradient>
</defs>
</svg>
