<svg width="76" height="27" fill="none" xmlns="http://www.w3.org/2000/svg"><rect width="76" height="27" rx="1.908" fill="url(#a)"/><path d="M25.671 13.69c0-.903.163-1.684.489-2.343.333-.66.81-1.168 1.428-1.526.619-.367 1.355-.55 2.21-.55.846 0 1.579.183 2.197.55a3.597 3.597 0 0 1 1.428 1.526c.342.659.513 1.436.513 2.331 0 .904-.17 1.69-.513 2.357a3.675 3.675 0 0 1-1.428 1.538c-.618.366-1.35.55-2.197.55-.855 0-1.591-.184-2.21-.55a3.7 3.7 0 0 1-1.416-1.538c-.334-.668-.5-1.45-.5-2.344Zm1.649 0c0 .644.09 1.197.268 1.66.187.465.464.819.83 1.063.375.244.835.366 1.38.366.797 0 1.412-.272 1.843-.818.431-.545.647-1.302.647-2.27 0-.652-.097-1.205-.293-1.66-.187-.465-.468-.815-.842-1.05-.366-.245-.818-.367-1.355-.367-.822 0-1.44.269-1.856.806-.415.537-.622 1.294-.622 2.27ZM35.44 18v-4.627a12.316 12.316 0 0 0-.098-1.538h1.477l.122 1.22h-.147c.196-.43.485-.76.867-.988.383-.236.826-.354 1.33-.354.725 0 1.27.203 1.637.61.366.407.549 1.042.549 1.905V18h-1.526v-3.699c0-.496-.098-.85-.293-1.062-.187-.22-.472-.33-.855-.33-.472 0-.846.147-1.123.44-.276.293-.415.683-.415 1.172V18H35.44Zm7.355 0V9.015h1.526V18h-1.526Zm3.183 0v-6.165h1.526V18h-1.526Zm-.085-7.325v-1.49h1.697v1.49h-1.697ZM49.16 18v-4.627a12.316 12.316 0 0 0-.097-1.538h1.477l.122 1.22h-.147c.196-.43.485-.76.867-.988.383-.236.826-.354 1.33-.354.725 0 1.27.203 1.637.61.366.407.55 1.042.55 1.905V18h-1.527v-3.699c0-.496-.098-.85-.293-1.062-.187-.22-.472-.33-.855-.33-.471 0-.846.147-1.123.44-.276.293-.415.683-.415 1.172V18h-1.526Zm10.335.122c-.692 0-1.286-.126-1.782-.378a2.765 2.765 0 0 1-1.136-1.111c-.26-.48-.39-1.05-.39-1.71 0-.642.126-1.204.378-1.684s.602-.855 1.05-1.123c.456-.269.985-.403 1.587-.403.594 0 1.09.126 1.49.378.398.253.7.607.903 1.062.211.456.317.99.317 1.6v.402h-4.492v-.805h3.406l-.208.17c0-.569-.122-1.004-.366-1.306-.236-.3-.582-.451-1.038-.451-.342 0-.63.081-.867.244a1.539 1.539 0 0 0-.525.696c-.122.3-.183.667-.183 1.099v.158c0 .668.163 1.168.489 1.502.333.325.801.488 1.404.488.35 0 .675-.045.976-.134a2.86 2.86 0 0 0 .88-.464l.45 1.025c-.292.236-.642.42-1.049.55-.407.13-.838.195-1.294.195Z" fill="#fff"/><path d="m17.282 14.241-6.964 4.021a.279.279 0 0 1-.418-.241V9.979c0-.214.232-.348.418-.241l6.964 4.02a.279.279 0 0 1 0 .483Z" stroke="#fff" stroke-width="1.3"/><defs><linearGradient id="a" x1="0" y1="13.5" x2="76" y2="13.5" gradientUnits="userSpaceOnUse"><stop stop-color="#FF6E3F"/><stop offset="1" stop-color="#FF5634"/></linearGradient></defs></svg>