<svg width="322" height="1535" fill="none" xmlns="http://www.w3.org/2000/svg"><path d="M278 .5v233c0 32-5.3 97.5-72.5 97.5h-152c-17 0-32.5 13.8-32.5 33v152.5c0 9.5 9.071 27.286 28 30.5h219.5c14.5 0 31.5 6.5 33 28.5V616" stroke="#08090C" stroke-width="40"/><path d="M278 .5v233c0 32-5.3 97.5-72.5 97.5h-152c-17 0-32.5 13.8-32.5 33v152.5c0 9.5 9.071 27.286 28 30.5h219.5c14.5 0 31.5 6.5 33 28.5V616" stroke="#969696" stroke-dasharray="6 6"/><path d="M301.499 614.5V733c0 13.017-12.522 25.533-21.037 26.534-40.071 0-142.419.5-158.281.5H52.557c-17.03 0-32.557 13.818-32.557 33.043V919.5c0 17.5 12 31.039 28.05 31.039h210.373C280 950.539 297.5 960 302 982.5v19.5" stroke="#08090C" stroke-width="40"/><path d="M301.499 614.5V733c0 13.017-12.522 25.533-21.037 26.534-40.071 0-142.419.5-158.281.5H52.557c-17.03 0-32.557 13.818-32.557 33.043V919.5c0 17.5 12 31.039 28.05 31.039h210.373C280 950.539 297.5 960 302 982.5v19.5" stroke="#969696" stroke-dasharray="6 6"/><path d="M301.499 1000v118.5c0 13.02-12.522 25.53-21.037 26.53-40.071 0-142.419.5-158.281.5H52.557c-17.03 0-32.557 13.82-32.557 33.05V1309c0 15.5 12.5 30 28.05 31.04h210.373c6.511 0 43.577 1.96 43.577 32.46v8.5" stroke="#08090C" stroke-width="40"/><path d="M301.499 1000v118.5c0 13.02-12.522 25.53-21.037 26.53-40.071 0-142.419.5-158.281.5H52.557c-17.03 0-32.557 13.82-32.557 33.05V1309c0 15.5 12.5 30 28.05 31.04h210.373c6.511 0 43.577 1.96 43.577 32.46v8.5" stroke="#969696" stroke-dasharray="6 6"/><circle cx="278" cy="223" r="5" fill="url(#a)"/><circle cx="301" cy="640" r="5" fill="url(#b)"/><circle cx="302" cy="1043" r="5" fill="url(#c)"/><circle cx="21" cy="436" r="5" fill="url(#d)"/><circle cx="20" cy="848" r="5" fill="url(#e)"/><circle cx="20" cy="1237" r="5" fill="url(#f)"/><path d="M302 1381v154" stroke="#08090C" stroke-width="40"/><path d="M302 1381v154" stroke="#969696" stroke-dasharray="6 6"/><circle cx="302" cy="1439" r="5" fill="url(#g)"/><defs><linearGradient id="a" x1="273" y1="228" x2="283" y2="228" gradientUnits="userSpaceOnUse"><stop stop-color="#FB8133"/><stop offset="1" stop-color="#FFBA08"/></linearGradient><linearGradient id="b" x1="296" y1="645" x2="306" y2="645" gradientUnits="userSpaceOnUse"><stop stop-color="#FB8133"/><stop offset="1" stop-color="#FFBA08"/></linearGradient><linearGradient id="c" x1="297" y1="1048" x2="307" y2="1048" gradientUnits="userSpaceOnUse"><stop stop-color="#FB8133"/><stop offset="1" stop-color="#FFBA08"/></linearGradient><linearGradient id="d" x1="16" y1="441" x2="26" y2="441" gradientUnits="userSpaceOnUse"><stop stop-color="#FB8133"/><stop offset="1" stop-color="#FFBA08"/></linearGradient><linearGradient id="e" x1="15" y1="853" x2="25" y2="853" gradientUnits="userSpaceOnUse"><stop stop-color="#FB8133"/><stop offset="1" stop-color="#FFBA08"/></linearGradient><linearGradient id="f" x1="15" y1="1242" x2="25" y2="1242" gradientUnits="userSpaceOnUse"><stop stop-color="#FB8133"/><stop offset="1" stop-color="#FFBA08"/></linearGradient><linearGradient id="g" x1="297" y1="1444" x2="307" y2="1444" gradientUnits="userSpaceOnUse"><stop stop-color="#FB8133"/><stop offset="1" stop-color="#FFBA08"/></linearGradient></defs></svg>