<svg width="902" height="1611" fill="none" xmlns="http://www.w3.org/2000/svg"><path d="M169.101 1611h-57.625v-133.99c.089-75.42 29.971-147.73 83.093-201.06 53.121-53.34 125.144-83.34 200.269-83.42h238.445c84.617 0 90.743-45.89 90.743-121.53 0-96.914-43.643-109.337-81.645-109.337H166.523a163.725 163.725 0 0 1-63.554-11.905 164.238 164.238 0 0 1-54.057-35.6 164.977 164.977 0 0 1-36.192-53.783A165.512 165.512 0 0 1 0 796.737c0-21.849 4.324-43.48 12.72-63.637a164.977 164.977 0 0 1 36.192-53.783 164.256 164.256 0 0 1 54.057-35.601 163.724 163.724 0 0 1 63.554-11.904h309.839a50.462 50.462 0 0 0 35.659-14.867 50.861 50.861 0 0 0 14.808-35.8v-22.258c.048-44.142 17.536-86.462 48.626-117.676 31.09-31.213 73.243-48.77 117.211-48.818h38.033c90.652 0 112.792-24.633 112.792-125.449V0h57.625v266.944c0 67.992-10.767 109.342-36.061 138.298-27.296 31.119-68.573 45.004-134.356 45.004h-38.033c-28.692.024-56.202 11.478-76.491 31.847s-31.698 47.988-31.722 76.794v22.258c-.032 28.771-11.43 56.355-31.694 76.699-20.265 20.344-47.739 31.788-76.397 31.82H166.523a106.309 106.309 0 0 0-41.368 7.626 106.632 106.632 0 0 0-35.216 23.089A107.104 107.104 0 0 0 66.35 755.34a107.452 107.452 0 0 0-8.293 41.397c0 14.215 2.82 28.288 8.293 41.398a107.115 107.115 0 0 0 23.588 34.961 106.629 106.629 0 0 0 35.216 23.088 106.272 106.272 0 0 0 41.368 7.626h475.858c52.014 0 139.27 21.71 139.27 167.19 0 32.46 0 76.89-18.925 113.43-22.656 43.78-66.208 65.95-129.443 65.95H394.838c-59.847.07-117.222 23.97-159.54 66.46-42.319 42.48-66.125 100.08-66.197 160.17V1611Z" fill="#08090C"/><path d="M140.288 1599.5v-122.74c0-67.77 26.819-132.77 74.556-180.7 47.737-47.93 112.483-74.85 179.993-74.85h238.445c117.615 0 119.556-84.16 119.556-150.45 0-66.26-19.532-138.267-110.457-138.267H166.523a135.022 135.022 0 0 1-51.846-10.353 135.444 135.444 0 0 1-43.952-29.485 136.052 136.052 0 0 1-29.368-44.126 136.482 136.482 0 0 1-10.313-52.05c.064-36.029 14.367-70.559 39.768-96.009 25.401-25.45 59.824-39.74 95.711-39.732h309.838c21.026 0 41.191-8.386 56.059-23.312 14.868-14.927 23.221-35.172 23.221-56.281v-22.258a138.009 138.009 0 0 1 10.422-52.65 137.576 137.576 0 0 1 29.703-44.634 136.946 136.946 0 0 1 44.458-29.82 136.523 136.523 0 0 1 52.442-10.464h38.032c111.701 0 141.605-42.202 141.605-154.375V18.269" stroke="#E5E5E5" stroke-miterlimit="10" stroke-dasharray="5.99 5.99"/><circle cx="871.5" cy="166.5" r="8.5" fill="url(#a)"/><circle cx="662.5" cy="427.5" r="8.5" fill="url(#b)"/><circle cx="32.5" cy="800.5" r="8.5" fill="url(#c)"/><circle cx="547.5" cy="618.5" r="8.5" fill="url(#d)"/><circle cx="752.5" cy="1078.5" r="8.5" fill="url(#e)"/><circle cx="257.5" cy="1262.5" r="8.5" fill="url(#f)"/><circle cx="143.5" cy="1450.5" r="8.5" fill="url(#g)"/><defs><linearGradient id="a" x1="863" y1="175" x2="880" y2="175" gradientUnits="userSpaceOnUse"><stop stop-color="#FB8133"/><stop offset="1" stop-color="#FFBA08"/></linearGradient><linearGradient id="b" x1="654" y1="436" x2="671" y2="436" gradientUnits="userSpaceOnUse"><stop stop-color="#FB8133"/><stop offset="1" stop-color="#FFBA08"/></linearGradient><linearGradient id="c" x1="24" y1="809" x2="41" y2="809" gradientUnits="userSpaceOnUse"><stop stop-color="#FB8133"/><stop offset="1" stop-color="#FFBA08"/></linearGradient><linearGradient id="d" x1="539" y1="627" x2="556" y2="627" gradientUnits="userSpaceOnUse"><stop stop-color="#FB8133"/><stop offset="1" stop-color="#FFBA08"/></linearGradient><linearGradient id="e" x1="744" y1="1087" x2="761" y2="1087" gradientUnits="userSpaceOnUse"><stop stop-color="#FB8133"/><stop offset="1" stop-color="#FFBA08"/></linearGradient><linearGradient id="f" x1="249" y1="1271" x2="266" y2="1271" gradientUnits="userSpaceOnUse"><stop stop-color="#FB8133"/><stop offset="1" stop-color="#FFBA08"/></linearGradient><linearGradient id="g" x1="135" y1="1459" x2="152" y2="1459" gradientUnits="userSpaceOnUse"><stop stop-color="#FB8133"/><stop offset="1" stop-color="#FFBA08"/></linearGradient></defs></svg>