<svg width="107" height="106" fill="none" xmlns="http://www.w3.org/2000/svg"><circle cx="53.669" cy="52.894" r="52.894" fill="#15171E"/><path d="M54.027 74.417c-11.64 0-21.164-9.524-21.164-21.165 0-11.64 9.524-21.164 21.164-21.164 11.64 0 21.165 9.524 21.165 21.164 0 11.64-9.524 21.165-21.165 21.165Zm0-40.213A18.969 18.969 0 0 0 34.98 53.252 18.969 18.969 0 0 0 54.027 72.3a18.969 18.969 0 0 0 19.048-19.048 18.969 18.969 0 0 0-19.048-19.048Z" fill="#fff"/><path d="M54.027 38.437c-.635 0-1.058-.423-1.058-1.058v-8.466c0-.635.423-1.058 1.058-1.058s1.058.423 1.058 1.058v8.466c0 .635-.423 1.058-1.058 1.058ZM78.366 54.31H69.9c-.635 0-1.058-.423-1.058-1.058 0-.634.423-1.058 1.058-1.058h8.466c.635 0 1.058.424 1.058 1.058 0 .635-.424 1.059-1.058 1.059ZM54.027 78.65c-.635 0-1.058-.423-1.058-1.058v-8.466c0-.635.423-1.058 1.058-1.058s1.058.423 1.058 1.058v8.466c0 .635-.423 1.058-1.058 1.058ZM38.153 54.31h-8.465c-.635 0-1.059-.423-1.059-1.058s.424-1.058 1.059-1.058h8.465c.635 0 1.059.423 1.059 1.058s-.424 1.059-1.059 1.059Z" fill="#fff"/><path d="M54.027 51.136a4.245 4.245 0 0 1-4.233-4.233 4.245 4.245 0 0 1 4.233-4.233 4.245 4.245 0 0 1 4.233 4.233 4.245 4.245 0 0 1-4.233 4.233Zm0-6.35c-1.27 0-2.116.847-2.116 2.117s.846 2.117 2.116 2.117 2.117-.847 2.117-2.117-.847-2.116-2.117-2.116Z" fill="url(#a)"/><path d="M61.434 61.718c-.634 0-1.058-.423-1.058-1.058v-2.116c0-1.694-1.481-3.175-3.174-3.175h-6.35c-1.693 0-3.174 1.481-3.174 3.175v2.116c0 .635-.424 1.058-1.059 1.058s-1.058-.423-1.058-1.058v-2.116c0-2.963 2.328-5.292 5.291-5.292h6.35c2.962 0 5.29 2.328 5.29 5.292v2.116c0 .635-.423 1.058-1.058 1.058Z" fill="url(#b)"/><defs><linearGradient id="a" x1="49.794" y1="51.136" x2="58.26" y2="51.136" gradientUnits="userSpaceOnUse"><stop stop-color="#FB8133"/><stop offset="1" stop-color="#FFBA08"/></linearGradient><linearGradient id="b" x1="45.561" y1="61.718" x2="62.493" y2="61.718" gradientUnits="userSpaceOnUse"><stop stop-color="#FB8133"/><stop offset="1" stop-color="#FFBA08"/></linearGradient></defs></svg>