<svg width="1324" height="700" fill="none" xmlns="http://www.w3.org/2000/svg"><path d="M-80 27.05h700.123s44.665-1.579 77.047 13.143c27.489 12.497 27.357 60.464 27.357 60.464v73.608s-6.586 83.453 21.775 115.185c33.696 37.702 112.22 31.021 112.22 31.021h356.758s34.19-.854 56.39 13.67c28.73 18.79 24.16 39.322 24.78 69.927 1.78 88.611-1.33 191.339-1.33 191.339s4.67 48.942-10.61 63.093c-17.12 15.861-48.45 14.86-85.98 14.196-137.35-2.431-453.581-4.398-702.568-3.553-52.215.177-114.146 0-210.759 0-96.613 0-91.864-134.19-91.864-134.19V393.935" stroke="#1C1E25" stroke-width="52.587" stroke-linecap="round" stroke-linejoin="round"/><path d="M-80 27.05h700.123s44.665-1.579 77.047 13.143c27.489 12.497 27.357 60.464 27.357 60.464v73.608s-6.586 83.453 21.775 115.185c33.696 37.702 112.22 31.021 112.22 31.021h356.758s34.19-.854 56.39 13.67c28.73 18.79 24.16 39.322 24.78 69.927 1.78 88.611-1.33 191.339-1.33 191.339s4.67 48.942-10.61 63.093c-17.12 15.861-48.45 14.86-85.98 14.196-137.35-2.431-453.581-4.398-702.568-3.553-52.215.177-114.146 0-210.759 0-96.613 0-91.864-134.19-91.864-134.19V398" stroke="#fff" stroke-linecap="round" stroke-linejoin="round" stroke-dasharray="5.99 5.99"/><circle cx="193.5" cy="27.5" r="8.5" fill="url(#a)"/><circle cx="723.5" cy="145.5" r="8.5" fill="url(#b)"/><circle cx="1296.5" cy="494.5" r="8.5" fill="url(#c)"/><circle cx="193.5" cy="397.5" r="8.5" fill="url(#d)"/><defs><linearGradient id="a" x1="185" y1="36" x2="202" y2="36" gradientUnits="userSpaceOnUse"><stop stop-color="#FB8133"/><stop offset="1" stop-color="#FFBA08"/></linearGradient><linearGradient id="b" x1="715" y1="154" x2="732" y2="154" gradientUnits="userSpaceOnUse"><stop stop-color="#FB8133"/><stop offset="1" stop-color="#FFBA08"/></linearGradient><linearGradient id="c" x1="1288" y1="503" x2="1305" y2="503" gradientUnits="userSpaceOnUse"><stop stop-color="#FB8133"/><stop offset="1" stop-color="#FFBA08"/></linearGradient><linearGradient id="d" x1="185" y1="406" x2="202" y2="406" gradientUnits="userSpaceOnUse"><stop stop-color="#FB8133"/><stop offset="1" stop-color="#FFBA08"/></linearGradient></defs></svg>