<svg width="50" height="50" fill="none" xmlns="http://www.w3.org/2000/svg"><path d="M21.968.02c-.158.02-.777.09-1.377.148-3.06.305-5.42 1.062-6.482 2.105-.58.56-.905 1.16-1.141 2.065-.177.689-.197 1.092-.197 3.807v3.03h11.803v1.465l-8.823.03c-8.222.029-8.871.049-9.471.216-2.499.708-4.308 2.41-5.154 4.839C.585 19.279.113 21.974.014 24.01c-.128 2.911.62 6.973 1.692 9.177.472.954.669 1.23 1.308 1.878.453.453.994.886 1.357 1.072 1.082.561 1.515.63 4.279.68l2.528.048.049-3.275c.04-3 .059-3.344.256-4.003.846-2.882 3.127-4.967 6.01-5.489.57-.098 2.212-.127 7.278-.137 5.468 0 6.639-.03 7.17-.148 2.056-.492 3.846-2.291 4.387-4.426.226-.875.216-13.298 0-14.154-.246-.954-.817-1.908-1.574-2.675C32.875.68 30.614.08 25.066.011c-1.544-.02-2.931-.01-3.098.01ZM18.83 3.789c.738.334 1.318 1.239 1.318 2.075 0 1.19-1.062 2.262-2.233 2.262-.472 0-1.13-.275-1.495-.62-.915-.865-.934-2.37-.049-3.255.63-.63 1.662-.826 2.459-.462Z" fill="#fff"/><path d="M37.951 15.777c0 2.804-.02 3.217-.197 3.915a7.73 7.73 0 0 1-3.934 4.947c-1.495.777-.984.728-8.95.797-7.84.069-7.505.04-8.853.698-.875.433-2.095 1.663-2.577 2.597-.678 1.318-.668 1.16-.668 8.42 0 7.15-.01 7.022.59 8.143.373.699 1.544 1.86 2.39 2.351 2.527 1.505 6.826 2.38 10.229 2.095 4.495-.373 8.232-1.908 9.59-3.934.826-1.24.846-1.357.885-4.613l.03-2.872H24.574v-1.475h9.03c5.262 0 9.294-.04 9.678-.099 2.272-.334 3.63-1.77 4.83-5.163.52-1.446.727-2.233.953-3.551.286-1.623.286-4.003 0-5.912-.865-5.94-2.468-8.714-5.4-9.334-.462-.098-1.386-.137-3.176-.137H37.95v3.127Zm-5.823 25.75c1.16.482 1.712 1.85 1.19 2.99-.403.886-1.062 1.318-2.006 1.318-1.338 0-2.282-1.013-2.194-2.36.099-1.535 1.633-2.528 3.01-1.948Z" fill="#fff"/></svg>