<svg width="93" height="93" fill="none" xmlns="http://www.w3.org/2000/svg"><rect width="93" height="93" rx="5" fill="url(#a)"/><path d="M43.828 21.624c-.157.02-.777.088-1.377.147-3.059.305-5.42 1.062-6.482 2.105-.58.56-.905 1.16-1.14 2.066-.178.688-.197 1.091-.197 3.806v3.03h11.802v1.465l-8.822.03c-8.223.029-8.872.048-9.472.216-2.498.708-4.308 2.41-5.154 4.839-.54 1.554-1.013 4.249-1.111 6.285-.128 2.911.62 6.974 1.691 9.177.472.954.67 1.23 1.309 1.878.452.453.993.886 1.357 1.072 1.082.561 1.515.63 4.278.68l2.528.048.05-3.275c.039-3 .058-3.344.255-4.003.846-2.882 3.128-4.967 6.01-5.488.57-.099 2.213-.128 7.278-.138 5.469 0 6.64-.03 7.17-.148 2.056-.492 3.846-2.291 4.387-4.426.226-.875.216-13.298 0-14.154-.246-.953-.816-1.908-1.574-2.675-1.878-1.878-4.14-2.478-9.688-2.547-1.544-.02-2.93-.01-3.098.01ZM40.69 25.39c.738.334 1.318 1.239 1.318 2.075 0 1.19-1.062 2.262-2.232 2.262-.473 0-1.132-.275-1.495-.62-.915-.865-.935-2.37-.05-3.255.63-.63 1.663-.826 2.46-.462Z" fill="#fff"/><path d="M59.811 37.38c0 2.804-.02 3.217-.196 3.915a7.729 7.729 0 0 1-3.935 4.947c-1.495.778-.983.728-8.95.797-7.84.069-7.505.04-8.852.698-.876.433-2.095 1.663-2.577 2.597-.679 1.318-.67 1.16-.67 8.42 0 7.15-.009 7.022.591 8.143.374.699 1.544 1.86 2.39 2.351 2.528 1.505 6.826 2.38 10.23 2.095 4.494-.374 8.232-1.908 9.59-3.934.825-1.24.845-1.357.884-4.613l.03-2.872H46.435v-1.475h9.029c5.262 0 9.295-.04 9.678-.099 2.272-.334 3.63-1.77 4.83-5.163.521-1.446.728-2.233.954-3.551.285-1.623.285-4.003 0-5.912-.866-5.94-2.469-8.714-5.4-9.334-.462-.098-1.387-.137-3.177-.137h-2.538v3.127ZM53.99 63.13c1.16.482 1.711 1.85 1.19 2.99-.404.886-1.063 1.319-2.007 1.319-1.337 0-2.282-1.014-2.193-2.361.098-1.535 1.633-2.528 3.01-1.948Z" fill="#fff"/><defs><linearGradient id="a" x1="-25.907" y1="93" x2="46.5" y2="93" gradientUnits="userSpaceOnUse"><stop stop-color="#8008DB"/><stop offset="1" stop-color="#430CD7"/></linearGradient></defs></svg>