<svg width="33" height="30" viewBox="0 0 33 30" fill="none" xmlns="http://www.w3.org/2000/svg">
<path d="M27.0107 9.51768L25.9537 9.16536C25.9537 8.93049 26.0712 8.69561 26.0712 8.46074C26.8932 4.58529 26.306 1.41447 24.5445 0.357533C22.7829 -0.581969 19.9644 0.357533 17.1459 2.82372C16.911 3.0586 16.5587 3.29348 16.3238 3.52835C16.089 3.41091 15.9715 3.17604 15.7367 3.0586C12.9181 0.47497 9.98221 -0.581969 8.22064 0.474971C6.45907 1.41447 5.98932 4.46785 6.69395 8.10842C6.81139 8.46074 6.81139 8.81305 6.92883 9.16536C6.45907 9.2828 6.10676 9.40024 5.75445 9.51768C2.23132 10.6921 0 12.6885 0 14.5675C0 16.5639 2.34875 18.6778 5.98932 19.8522C6.2242 19.9696 6.57651 20.0871 6.92883 20.0871C6.81139 20.4394 6.69395 20.9091 6.69395 21.2614C5.98932 24.902 6.57651 27.7205 8.22064 28.7775C9.98221 29.8344 12.9181 28.7775 15.8541 26.1938C16.089 25.959 16.3238 25.7241 16.5587 25.6066C16.7936 25.8415 17.1459 26.1938 17.4982 26.4287C20.3167 28.8949 23.0178 29.8344 24.7794 28.7775C26.5409 27.7205 27.1281 24.6671 26.4235 20.9091C26.4235 20.6743 26.306 20.3219 26.1886 19.9696C26.4235 19.8522 26.6584 19.8522 26.7758 19.7348C30.5338 18.4429 33 16.4465 33 14.4501C32.8826 12.6885 30.5338 10.8095 27.0107 9.51768ZM18.2028 3.9981C20.669 1.88422 22.9004 1.06216 23.9573 1.64935C25.0142 2.23654 25.484 4.82017 24.7794 8.22586C24.7794 8.46074 24.6619 8.69561 24.6619 8.93049C23.2527 8.57817 21.726 8.3433 20.3167 8.22586C19.4947 7.05148 18.5552 5.87711 17.4982 4.70273L18.2028 3.9981ZM9.74733 16.3291C10.0996 16.9163 10.3345 17.5034 10.6868 18.0906C11.0391 18.6778 11.3915 19.265 11.7438 19.7348C10.6868 19.6173 9.74733 19.4999 8.69039 19.265C8.92527 18.3255 9.27758 17.386 9.74733 16.3291ZM9.74733 13.0408C9.27758 12.1013 9.0427 11.1618 8.69039 10.2223C9.62989 9.98743 10.6868 9.86999 11.6263 9.75255C11.274 10.3397 10.9217 10.8095 10.5694 11.3967C10.3345 11.8664 9.98221 12.4536 9.74733 13.0408ZM10.452 14.6849C10.9217 13.7454 11.3915 12.9234 11.8612 11.9839C12.331 11.1618 12.9181 10.2223 13.5053 9.40024C14.4448 9.2828 15.5018 9.2828 16.5587 9.2828C17.6157 9.2828 18.5552 9.2828 19.6121 9.40024C20.1993 10.2223 20.669 11.0444 21.1388 11.9839C21.6085 12.8059 22.0783 13.7454 22.548 14.6849C22.0783 15.6244 21.6085 16.4465 21.1388 17.386C20.669 18.2081 20.0819 19.1476 19.6121 19.9696C18.6726 20.0871 17.6157 20.0871 16.5587 20.0871C15.5018 20.0871 14.5623 20.0871 13.6228 19.9696C13.0356 19.1476 12.5658 18.3255 11.9786 17.386C11.3915 16.4465 10.9217 15.6244 10.452 14.6849ZM22.1957 18.0906C22.548 17.5034 22.9004 16.9163 23.1352 16.3291C23.605 17.2686 23.9573 18.2081 24.1922 19.265C23.1352 19.4999 22.1957 19.6173 21.1388 19.7348C21.6085 19.1476 21.9609 18.5604 22.1957 18.0906ZM23.1352 13.0408C22.7829 12.4536 22.548 11.8664 22.1957 11.2792C21.8434 10.6921 21.4911 10.2223 21.2562 9.63511C22.3132 9.75255 23.2527 9.98743 24.3096 10.1049C23.9573 11.1618 23.605 12.1013 23.1352 13.0408ZM16.4413 5.64223C17.1459 6.34686 17.7331 7.16892 18.3203 7.99098C17.0285 7.87355 15.7367 7.87355 14.4448 7.99098C15.1495 7.16892 15.8541 6.34686 16.4413 5.64223ZM8.92527 1.64935C9.98221 1.06216 12.4484 1.88422 15.032 4.23298L15.5018 4.70273C14.4448 5.75967 13.5053 6.93405 12.6833 8.22586C11.1566 8.3433 9.74733 8.57817 8.33808 8.93049C8.22064 8.57817 8.22064 8.22586 8.1032 7.87355C7.39858 4.70273 7.86833 2.23654 8.92527 1.64935ZM7.28114 18.9127C7.04626 18.7953 6.69395 18.7953 6.45907 18.6778C4.81495 18.0906 3.52313 17.386 2.58363 16.6814C1.76157 15.9768 1.40925 15.2721 1.40925 14.6849C1.40925 13.5106 3.17082 11.9839 6.2242 10.9269C6.57651 10.8095 6.92883 10.6921 7.39858 10.5746C7.75089 11.9839 8.22064 13.3931 8.92527 14.6849C8.22064 16.0942 7.75089 17.5034 7.28114 18.9127ZM14.9146 25.3718C13.6228 26.5461 12.331 27.2508 11.274 27.7205C10.2171 28.0728 9.51246 28.0728 8.92527 27.838C7.86833 27.2508 7.39858 24.902 7.98576 21.8486C8.1032 21.3789 8.22064 21.0266 8.22064 20.5568C9.62989 20.9091 11.1566 21.144 12.6833 21.144C13.5053 22.3184 14.4448 23.4928 15.5018 24.6671C15.2669 24.902 15.1495 25.1369 14.9146 25.3718ZM16.4413 23.7276C15.7367 23.023 15.1495 22.2009 14.4448 21.3789H18.3203C17.8505 22.2009 17.1459 23.023 16.4413 23.7276ZM25.0142 25.7241C24.7794 26.781 24.427 27.4856 23.9573 27.7205C22.9004 28.3077 20.669 27.4856 18.3203 25.4892C18.0854 25.2543 17.7331 25.0195 17.4982 24.7846C18.4377 23.7276 19.3772 22.5533 20.1993 21.2614C21.726 21.144 23.1352 20.9091 24.6619 20.5568C24.7794 20.7917 24.7794 21.144 24.8968 21.3789C25.2491 23.023 25.2491 24.5497 25.0142 25.7241ZM26.1886 18.6778C25.9537 18.6778 25.8363 18.7953 25.6014 18.7953C25.1317 17.386 24.5445 15.9767 23.9573 14.5675C24.5445 13.2757 25.1317 11.8664 25.6014 10.4572C25.9537 10.5746 26.306 10.6921 26.5409 10.8095C29.5943 11.8664 31.4733 13.3931 31.4733 14.5675C31.4733 15.9767 29.4769 17.6209 26.1886 18.6778Z" fill="url(#paint0_linear_2292_4539)"/>
<path d="M16.4401 17.6208C17.0273 17.6208 17.6145 17.5034 18.0842 17.1511C18.554 16.7988 18.9063 16.329 19.1412 15.8593C19.376 15.2721 19.376 14.6849 19.2586 14.0977C19.1412 13.5105 18.9063 13.0408 18.4365 12.571C18.0842 12.1013 17.497 11.8664 16.9099 11.749C16.3227 11.6315 15.7355 11.749 15.1483 11.8664C14.5611 12.1013 14.0913 12.4536 13.8565 12.9233C13.5042 13.3931 13.3867 13.9803 13.3867 14.5675C13.3867 14.9198 13.5042 15.3895 13.6216 15.7418C13.739 16.0942 13.9739 16.4465 14.2088 16.6813C14.4437 16.9162 14.796 17.1511 15.1483 17.2685C15.618 17.5034 16.0878 17.6208 16.4401 17.6208Z" fill="url(#paint1_linear_2292_4539)"/>
<defs>
<linearGradient id="paint0_linear_2292_4539" x1="0" y1="29.2063" x2="33" y2="29.2063" gradientUnits="userSpaceOnUse">
<stop stop-color="#258EE8"/>
<stop offset="1" stop-color="#2AB5ED"/>
</linearGradient>
<linearGradient id="paint1_linear_2292_4539" x1="13.3867" y1="17.6208" x2="19.3357" y2="17.6208" gradientUnits="userSpaceOnUse">
<stop stop-color="#258EE8"/>
<stop offset="1" stop-color="#2AB5ED"/>
</linearGradient>
</defs>
</svg>
