<svg width="173" height="173" fill="none" xmlns="http://www.w3.org/2000/svg"><rect x="1.5" y="1.5" width="170" height="170" rx="85" fill="url(#a)" stroke="#fff" stroke-width="3"/><path d="M134.737 86.51c0-6.391-8.003-12.448-20.274-16.204 2.832-12.506 1.573-22.456-3.972-25.642-1.278-.747-2.773-1.101-4.405-1.101v4.385c.905 0 1.632.177 2.242.511 2.674 1.534 3.834 7.374 2.93 14.886-.217 1.849-.571 3.795-1.003 5.781-3.854-.943-8.063-1.67-12.487-2.143-2.655-3.638-5.408-6.941-8.18-9.832 6.41-5.958 12.427-9.223 16.518-9.223v-4.385c-5.408 0-12.487 3.854-19.645 10.54-7.158-6.646-14.237-10.461-19.645-10.461v4.385c4.07 0 10.108 3.245 16.518 9.164a92.876 92.876 0 0 0-8.121 9.812c-4.444.472-8.652 1.2-12.506 2.163a59.326 59.326 0 0 1-1.023-5.703c-.924-7.511.216-13.352 2.87-14.905.59-.354 1.358-.511 2.262-.511V43.64c-1.651 0-3.146.355-4.444 1.102-5.526 3.185-6.764 13.116-3.913 25.583-12.231 3.776-20.195 9.813-20.195 16.184 0 6.39 8.003 12.447 20.274 16.203-2.832 12.507-1.573 22.457 3.972 25.643 1.278.747 2.773 1.101 4.424 1.101 5.408 0 12.487-3.854 19.645-10.54 7.158 6.646 14.237 10.461 19.645 10.461 1.651 0 3.146-.354 4.444-1.101 5.525-3.186 6.764-13.116 3.913-25.583 12.192-3.756 20.156-9.813 20.156-16.184Zm-25.603-13.116c-.728 2.536-1.632 5.152-2.655 7.767a93.05 93.05 0 0 0-2.576-4.72 106.359 106.359 0 0 0-2.831-4.6c2.792.412 5.486.923 8.062 1.553Zm-9.006 20.942c-1.534 2.655-3.107 5.172-4.74 7.512-2.93.256-5.899.393-8.888.393-2.969 0-5.938-.137-8.849-.373a108.466 108.466 0 0 1-4.758-7.473 102.441 102.441 0 0 1-4.09-7.826c1.219-2.635 2.595-5.27 4.07-7.846 1.534-2.655 3.107-5.172 4.739-7.512 2.93-.256 5.9-.393 8.888-.393 2.97 0 5.939.137 8.85.373a108.397 108.397 0 0 1 4.758 7.473 102.314 102.314 0 0 1 4.09 7.826 110.06 110.06 0 0 1-4.07 7.846Zm6.351-2.556a84.163 84.163 0 0 1 2.714 7.826 88.13 88.13 0 0 1-8.102 1.573 108.342 108.342 0 0 0 2.832-4.66c.904-1.573 1.75-3.166 2.556-4.74Zm-19.94 20.982a81.061 81.061 0 0 1-5.466-6.293c1.77.079 3.579.138 5.408.138 1.848 0 3.677-.04 5.466-.138a76.74 76.74 0 0 1-5.407 6.293Zm-14.63-11.583a88.8 88.8 0 0 1-8.062-1.553c.728-2.537 1.632-5.152 2.655-7.767a93.052 93.052 0 0 0 2.576 4.719 129.799 129.799 0 0 0 2.831 4.601Zm14.532-40.921a81.071 81.071 0 0 1 5.467 6.292c-1.77-.078-3.579-.137-5.408-.137-1.848 0-3.677.04-5.466.138a76.77 76.77 0 0 1 5.407-6.293ZM71.89 71.84a108.706 108.706 0 0 0-5.388 9.38 84.247 84.247 0 0 1-2.714-7.826c2.576-.61 5.29-1.14 8.102-1.554ZM54.093 96.46c-6.96-2.97-11.464-6.863-11.464-9.95 0-3.088 4.503-7 11.465-9.95 1.69-.728 3.54-1.377 5.447-1.986 1.12 3.854 2.595 7.865 4.424 11.975-1.81 4.09-3.264 8.082-4.366 11.917a59.729 59.729 0 0 1-5.505-2.006Zm10.58 28.1c-2.675-1.533-3.835-7.374-2.93-14.886.216-1.848.57-3.795 1.003-5.781 3.854.944 8.062 1.672 12.487 2.144 2.654 3.637 5.407 6.941 8.18 9.832-6.41 5.958-12.428 9.222-16.518 9.222-.885-.019-1.632-.196-2.222-.531Zm46.644-14.984c.924 7.512-.217 13.352-2.871 14.906-.59.354-1.357.511-2.262.511-4.07 0-10.107-3.245-16.518-9.164a92.8 92.8 0 0 0 8.122-9.812c4.444-.472 8.652-1.2 12.506-2.163.452 1.986.806 3.893 1.023 5.722Zm7.571-13.116c-1.692.728-3.54 1.377-5.448 1.986-1.12-3.854-2.595-7.866-4.424-11.975 1.809-4.09 3.264-8.083 4.365-11.917a62.292 62.292 0 0 1 5.526 2.006c6.961 2.969 11.464 6.862 11.464 9.95-.019 3.087-4.522 7-11.483 9.95Z" fill="#fff"/><path d="M86.5 95.487a8.987 8.987 0 1 0 0-17.974 8.987 8.987 0 0 0 0 17.974Z" fill="#fff"/><defs><linearGradient id="a" x1="0" y1="173" x2="173" y2="173" gradientUnits="userSpaceOnUse"><stop stop-color="#D93764"/><stop offset="1" stop-color="#F24F60"/></linearGradient></defs></svg>