<svg width="34" height="34" fill="none" xmlns="http://www.w3.org/2000/svg"><path d="M17.5 18 1.5 2v31H32l-2-2" stroke="#fff" stroke-width="1.5"/><path d="M8 18.5V26h7" stroke="#fff" stroke-width="1.5"/><path fill-rule="evenodd" clip-rule="evenodd" d="M22.96 7.412a1.25 1.25 0 0 1 2.08 0l1 1.5c.137.206.21.447.21.694V22.25h-4.5V9.606c0-.247.073-.488.21-.694l1-1.5ZM21.75 23.75v2.75c0 .69.56 1.25 1.25 1.25h2c.69 0 1.25-.56 1.25-1.25v-2.75h-4.5Zm4.538-17.17c-1.088-1.633-3.488-1.633-4.576 0l-1 1.5a2.75 2.75 0 0 0-.462 1.526V26.5A2.75 2.75 0 0 0 23 29.25h2a2.75 2.75 0 0 0 2.75-2.75V9.606a2.75 2.75 0 0 0-.462-1.526l-1-1.5Z" fill="url(#a)"/><defs><linearGradient id="a" x1="20.25" y1="17.303" x2="27.75" y2="17.303" gradientUnits="userSpaceOnUse"><stop stop-color="#FB8530"/><stop offset="1" stop-color="#FEB50B"/></linearGradient></defs></svg>