<svg width="31" height="29" fill="none" xmlns="http://www.w3.org/2000/svg"><path d="M17.5 5H3.499A1.999 1.999 0 0 0 1.5 7v18.5a2 2 0 0 0 2 2H26a2 2 0 0 0 2-2v-12" stroke="#fff" stroke-width="1.5"/><path d="m4.5 18 3 3 5.5-8 5 8 6.5-8" stroke="url(#a)" stroke-width="1.5"/><path d="m18.191 10.06.015-.023.014-.024L23.472.961V.96a.425.425 0 0 1 .734 0l5.252 9.053.013.024.016.022a.425.425 0 0 1-.366.665H18.557a.426.426 0 0 1-.366-.665Z" stroke="#fff" stroke-width="1.5"/><defs><linearGradient id="a" x1="4.5" y1="17" x2="24.5" y2="17" gradientUnits="userSpaceOnUse"><stop stop-color="#FB8530"/><stop offset="1" stop-color="#FEB50B"/></linearGradient></defs></svg>