<svg width="37" height="27" fill="none" xmlns="http://www.w3.org/2000/svg"><path d="m15.913 13.73-7.917-2.768-5.019-1.754c-2.636-.922-2.636-2.43 0-3.353l12.936-4.522c1.268-.444 3.344-.444 4.612 0L33.46 5.855c2.637.922 2.637 2.43 0 3.351L20.525 13.73c-1.268.445-3.344.445-4.612.001Z" stroke="#fff" stroke-width="1.5"/><path d="M8.125 11.688v6.324c0 .62.405 1.17 1.01 1.376l8.568 2.903c.334.112.698.112 1.032 0l8.569-2.903a1.462 1.462 0 0 0 1.009-1.377v-6.323" stroke="#fff" stroke-width="1.5"/><path d="m17.625 8.125 8.31 4.074V22.1" stroke="url(#a)" stroke-width="1.287" stroke-linecap="round"/><path d="M27.124 25.938H24.75v-2.252c0-.723.531-1.31 1.188-1.31.655 0 1.187.585 1.187 1.31v2.252h-.001Z" stroke="url(#b)" stroke-width="1.287" stroke-linecap="round"/><path d="M24.328 23.524a1.609 1.609 0 0 1 3.218 0v2.414h-3.218v-2.414Z" fill="url(#c)"/><defs><linearGradient id="a" x1="17.625" y1="15.113" x2="25.934" y2="15.113" gradientUnits="userSpaceOnUse"><stop stop-color="#FB8530"/><stop offset="1" stop-color="#FEB50B"/></linearGradient><linearGradient id="b" x1="24.75" y1="24.156" x2="27.125" y2="24.156" gradientUnits="userSpaceOnUse"><stop stop-color="#FB8530"/><stop offset="1" stop-color="#FEB50B"/></linearGradient><linearGradient id="c" x1="24.328" y1="23.927" x2="27.546" y2="23.927" gradientUnits="userSpaceOnUse"><stop stop-color="#FB8530"/><stop offset="1" stop-color="#FEB50B"/></linearGradient></defs></svg>