<svg width="1252" height="871" fill="none" xmlns="http://www.w3.org/2000/svg"><path d="M10 25v171c0 22.091 17.909 40 40 40h261.143c22.092 0 40-17.909 40-40V65c0-22.091 17.909-40 40-40h34.197c22.092 0 40 17.909 40 40v131c0 22.091 17.909 40 40 40h315.8c22.092 0 40-17.909 40-40V55c0-22.091 17.909-40 40-40h299.92c22.09 0 40 17.909 40 40v218.5c0 22.091-17.91 40-40 40H1026.5c-22.09 0-40 17.909-40 40V480c0 22.091-17.909 40-40 40h-318c-22.091 0-40-17.909-40-40V378c0-22.091-17.909-40-40-40H496c-22.091 0-40 17.909-40 40v102c0 22.091-17.909 40-40 40H50c-22.091 0-40 17.909-40 40v150.5c0 22.091 17.909 40 40 40h233c22.091 0 40 17.909 40 40v70" stroke="url(#a)" stroke-width="20" stroke-linecap="round"/><path d="M10 25v171c0 22.091 17.909 40 40 40h261.143c22.092 0 40-17.909 40-40V65c0-22.091 17.909-40 40-40h34.197c22.092 0 40 17.909 40 40v131c0 22.091 17.909 40 40 40h315.8c22.092 0 40-17.909 40-40V55c0-22.091 17.909-40 40-40h299.92c22.09 0 40 17.909 40 40v218.5c0 22.091-17.91 40-40 40H1026.5c-22.09 0-40 17.909-40 40V480c0 22.091-17.909 40-40 40h-318c-22.091 0-40-17.909-40-40V378c0-22.091-17.909-40-40-40H496c-22.091 0-40 17.909-40 40v102c0 22.091-17.909 40-40 40H50c-22.091 0-40 17.909-40 40v150.5c0 22.091 17.909 40 40 40h235.5c22.091 0 40 17.909 40 40v69" stroke="#F2F2F2" stroke-width=".5" stroke-dasharray="5.99 5.99"/><path d="M1083.29 29.14h3.1l6.96-12.402h8s4.65 0 4.65-2.168c0-2.17-4.65-2.17-4.65-2.17h-8L1086.39 0h-3.1l3.86 12.4h-5.56l-3.49-3.102h-3.1l2.48 5.27-2.48 5.272h3.1l3.49-3.102h5.56l-3.86 12.402ZM172.292 250.14h3.1l6.957-12.402h8.001s4.65 0 4.65-2.168c0-2.17-4.65-2.17-4.65-2.17h-8.001l-6.957-12.4h-3.1l3.857 12.4h-5.56l-3.489-3.102H164l2.482 5.27L164 240.84h3.1l3.489-3.102h5.56l-3.857 12.402ZM1113.71 300h-3.1l-6.96 12.402h-8s-4.65 0-4.65 2.168c0 2.17 4.65 2.17 4.65 2.17h8l6.96 12.4h3.1l-3.86-12.4h5.56l3.49 3.102h3.1l-2.48-5.27 2.48-5.272h-3.1l-3.49 3.102h-5.56l3.86-12.402Z" fill="#fff"/><defs><linearGradient id="a" x1="34.786" y1="15" x2="1321.43" y2="163.314" gradientUnits="userSpaceOnUse"><stop stop-color="#1C1E25"/><stop offset="1" stop-color="#1F222C"/></linearGradient></defs></svg>