<svg width="29" height="29" fill="none" xmlns="http://www.w3.org/2000/svg"><path d="M14.315 1H1.74a.74.74 0 0 0-.74.74v25.52c0 .409.331.74.74.74h25.52a.74.74 0 0 0 .74-.74V14.685" stroke="#fff" stroke-width="1.5"/><path d="M24.16 1.141 9.936 15.366a.2.2 0 0 0-.059.142v3.415c0 .11.09.2.2.2h3.416a.2.2 0 0 0 .141-.058L27.86 4.84a.2.2 0 0 0 0-.283l-3.416-3.416a.2.2 0 0 0-.283 0Z" stroke="url(#a)" stroke-width="1.5"/><defs><linearGradient id="a" x1="9.877" y1="10.062" x2="28" y2="10.062" gradientUnits="userSpaceOnUse"><stop stop-color="#FB8530"/><stop offset="1" stop-color="#FEB50B"/></linearGradient></defs></svg>