<svg width="18" height="17" fill="none" xmlns="http://www.w3.org/2000/svg"><path d="m17.418 5.986-5.396-.775L9.61.374a.686.686 0 0 0-1.22 0L5.978 5.211l-5.396.775a.67.67 0 0 0-.376 1.148l3.904 3.764-.923 5.316a.665.665 0 0 0 .27.658.683.683 0 0 0 .717.05L9 14.412l4.826 2.51c.132.07.285.093.432.068a.672.672 0 0 0 .555-.776l-.923-5.316 3.904-3.764a.671.671 0 0 0-.376-1.148Z" fill="url(#a)"/><defs><linearGradient id="a" x1="0" y1="17" x2="18" y2="17" gradientUnits="userSpaceOnUse"><stop stop-color="#FA8733"/><stop offset="1" stop-color="#F7C332"/></linearGradient></defs></svg>