<svg width="18" height="17" fill="none" xmlns="http://www.w3.org/2000/svg"><path d="m11.575 5.434.117.234.259.037 5.395.776a.171.171 0 0 1 .152.191v.006a.169.169 0 0 1-.051.096l-3.904 3.764-.19.184.045.262.922 5.315a.173.173 0 0 1-.146.198.182.182 0 0 1-.115-.017l-.002-.001-4.826-2.51-.231-.12-.23.12-4.827 2.51a.184.184 0 0 1-.194-.013.172.172 0 0 1-.06-.075.165.165 0 0 1-.009-.09v-.002l.922-5.315.046-.261-.191-.185L.553 6.774a.17.17 0 0 1-.004-.24.181.181 0 0 1 .103-.053h.001l5.396-.776.26-.037.116-.234L8.836.6V.599a.186.186 0 0 1 .246-.08h.001a.173.173 0 0 1 .08.078l2.412 4.837Z" stroke="#999"/></svg>