<svg width="50" height="48" fill="none" xmlns="http://www.w3.org/2000/svg"><path d="M25 47.917a1.042 1.042 0 0 1-1.041-1.042v-12.5a1.042 1.042 0 0 1 2.083 0v12.5c0 .575-.467 1.042-1.042 1.042Z" fill="#fff"/><path d="M34.375 47.917a1.04 1.04 0 0 1-.577-.175l-9.375-6.25a1.04 1.04 0 1 1 1.154-1.734l9.375 6.25a1.04 1.04 0 0 1-.577 1.909Z" fill="#fff"/><path d="M15.625 47.916a1.041 1.041 0 0 1-.58-1.908l9.376-6.25a1.04 1.04 0 1 1 1.154 1.733l-9.375 6.25a1.018 1.018 0 0 1-.575.175ZM45.833 8.333H4.167A4.17 4.17 0 0 1 0 4.167 4.17 4.17 0 0 1 4.167 0h41.666A4.17 4.17 0 0 1 50 4.167a4.17 4.17 0 0 1-4.167 4.166ZM4.167 2.083a2.087 2.087 0 0 0-2.084 2.084c0 1.148.936 2.083 2.084 2.083h41.666a2.087 2.087 0 0 0 2.084-2.083 2.087 2.087 0 0 0-2.084-2.084H4.167Z" fill="#fff"/><path d="M42.708 35.416H7.292a3.129 3.129 0 0 1-3.125-3.125v-25c0-.575.466-1.041 1.041-1.041h39.583c.576 0 1.042.466 1.042 1.041v25a3.129 3.129 0 0 1-3.125 3.125ZM6.25 8.333v23.958c0 .575.466 1.042 1.042 1.042h35.416c.575 0 1.042-.467 1.042-1.042V8.333H6.25Z" fill="#fff"/><path d="M13.542 29.167a1.042 1.042 0 0 1-.738-1.777l8.333-8.334a1.042 1.042 0 0 1 1.315-.131l5.456 3.637 7.736-9.67a1.044 1.044 0 0 1 1.464-.163c.448.36.521 1.015.163 1.465L28.937 24.61a1.04 1.04 0 0 1-1.391.217l-5.54-3.692-7.729 7.73c-.202.2-.469.302-.735.302Z" fill="url(#a)"/><defs><linearGradient id="a" x1="12.499" y1="29.167" x2="37.498" y2="29.167" gradientUnits="userSpaceOnUse"><stop stop-color="#FB8133"/><stop offset="1" stop-color="#FFBA08"/></linearGradient></defs></svg>