<svg width="52" height="52" fill="none" xmlns="http://www.w3.org/2000/svg"><path d="M19.5 45.5A19.419 19.419 0 0 1 0 26C0 15.167 8.667 6.5 19.5 6.5c5.2 0 10.183 1.95 13.867 5.633 1.733 1.734 3.033 3.684 4.116 5.85.217.65 0 1.084-.433 1.517-.65.217-1.083 0-1.517-.433-.866-1.95-2.166-3.684-3.466-5.2-3.684-3.467-8.017-5.2-12.567-5.2-9.533 0-17.333 7.8-17.333 17.333 0 9.533 7.8 17.333 17.333 17.333.65 0 1.083.434 1.083 1.084 0 .65-.433 1.083-1.083 1.083Z" fill="#fff"/><path d="M18.417 37.917C12.133 37.267 7.583 32.283 7.583 26c0-6.5 5.417-11.917 11.917-11.917 3.25 0 6.067 1.3 8.45 3.467.65.65 1.3 1.517 1.95 2.6.217.433.217 1.083-.433 1.517-.433.216-1.083.216-1.517-.434-.433-.866-.866-1.516-1.517-2.166-1.95-1.734-4.333-2.817-6.933-2.817A9.71 9.71 0 0 0 9.75 26c0 4.983 3.684 9.317 8.884 9.75.433 0 .866.433.866 1.083 0 .65-.433 1.084-1.083 1.084Z" fill="#fff"/><path d="M19.5 27.083c-.217 0-.65 0-.867-.216a1.047 1.047 0 0 1 0-1.517l14.083-14.083a1.047 1.047 0 0 1 1.517 0 1.047 1.047 0 0 1 0 1.516L20.15 26.867c0 .216-.434.216-.65.216Z" fill="#fff"/><path d="M39 13h-5.417c-.65 0-1.083-.433-1.083-1.083V6.5c0-.217.217-.65.217-.867L38.133.217C38.567 0 39 0 39.433 0c.434.217.65.65.65 1.083v4.334h4.334c.433 0 .866.216 1.083.65 0 .433 0 .866-.217 1.3l-5.416 5.416c-.217 0-.65.217-.867.217Zm-4.333-2.167h3.9l3.25-3.25H39c-.65 0-1.083-.433-1.083-1.083V3.683l-3.25 3.25v3.9Z" fill="#fff"/><path d="M37.917 52c-7.8 0-14.084-6.283-14.084-14.083s6.284-14.084 14.084-14.084S52 30.117 52 37.917 45.717 52 37.917 52Zm0-26C31.417 26 26 31.417 26 37.917s5.417 11.916 11.917 11.916 11.916-5.416 11.916-11.916S44.418 26 37.918 26Z" fill="url(#a)"/><path d="M35.445 43.333c-.216 0-.304-.067-.562-.216l-4.333-4.334a1.047 1.047 0 0 1 0-1.516 1.047 1.047 0 0 1 1.517 0l3.466 3.466 6.717-7.8a1.047 1.047 0 0 1 1.517 0 1.047 1.047 0 0 1 0 1.517l-7.584 8.667c-.077.098-.304.216-.738.216Z" fill="url(#b)"/><defs><linearGradient id="a" x1="23.834" y1="52" x2="52" y2="52" gradientUnits="userSpaceOnUse"><stop stop-color="#FB8133"/><stop offset="1" stop-color="#FFBA08"/></linearGradient><linearGradient id="b" x1="30.225" y1="43.333" x2="44.092" y2="43.333" gradientUnits="userSpaceOnUse"><stop stop-color="#FB8133"/><stop offset="1" stop-color="#FFBA08"/></linearGradient></defs></svg>