<svg width="50" height="50" fill="none" xmlns="http://www.w3.org/2000/svg"><path d="M48.958 20.833c-.208 0-.416 0-.625-.208l-5.208-3.542c-.417-.208-1.042-.416-1.667-.416H28.125c-1.667 0-3.125-1.459-3.125-3.125V3.125C25 1.458 26.458 0 28.125 0h18.75C48.542 0 50 1.458 50 3.125v16.667c0 .416-.208.833-.625.833 0 .208-.208.208-.417.208ZM28.125 2.083c-.625 0-1.042.417-1.042 1.042v10.417c0 .625.417 1.041 1.042 1.041h13.333c1.042 0 2.084.209 2.917.834l3.542 2.5V3.125c0-.625-.417-1.042-1.042-1.042h-18.75Z" fill="url(#a)"/><path d="M1.042 25c-.209 0-.417 0-.417-.208-.417 0-.625-.417-.625-.834V7.292c0-1.667 1.458-3.125 3.125-3.125h16.667c.625 0 1.041.416 1.041 1.041s-.416 1.042-1.041 1.042H3.125c-.625 0-1.042.417-1.042 1.042v14.791l3.542-2.291c.833-.625 1.875-1.042 2.917-1.042h17.5c.625 0 1.041.417 1.041 1.042s-.416 1.041-1.041 1.041h-17.5c-.625 0-1.25.209-1.667.625L1.667 25h-.625ZM11.459 37.5c-3.542 0-6.25-2.708-6.25-6.25S7.917 25 11.459 25c3.541 0 6.25 2.708 6.25 6.25S15 37.5 11.459 37.5Zm0-10.417a4.179 4.179 0 0 0-4.167 4.167 4.179 4.179 0 0 0 4.167 4.167 4.179 4.179 0 0 0 4.166-4.167 4.179 4.179 0 0 0-4.166-4.167ZM21.875 50c-.625 0-1.042-.417-1.042-1.042v-4.166c0-1.667-1.458-3.125-3.125-3.125h-12.5c-1.666 0-3.125 1.458-3.125 3.125v4.166c0 .625-.416 1.042-1.041 1.042S0 49.583 0 48.958v-4.166c0-2.917 2.292-5.209 5.208-5.209h12.5c2.917 0 5.209 2.292 5.209 5.209v4.166c0 .625-.417 1.042-1.042 1.042ZM38.541 37.5c-3.541 0-6.25-2.708-6.25-6.25S35 25 38.541 25c3.542 0 6.25 2.708 6.25 6.25s-2.708 6.25-6.25 6.25Zm0-10.417a4.179 4.179 0 0 0-4.166 4.167 4.179 4.179 0 0 0 4.166 4.167 4.179 4.179 0 0 0 4.167-4.167 4.179 4.179 0 0 0-4.166-4.167ZM48.959 50c-.626 0-1.042-.417-1.042-1.042v-4.166c0-1.667-1.459-3.125-3.125-3.125h-12.5c-1.667 0-3.125 1.458-3.125 3.125v4.166c0 .625-.417 1.042-1.042 1.042s-1.041-.417-1.041-1.042v-4.166c0-2.917 2.291-5.209 5.208-5.209h12.5c2.916 0 5.208 2.292 5.208 5.209v4.166C50 49.583 49.584 50 48.96 50Z" fill="#fff"/><defs><linearGradient id="a" x1="25" y1="20.833" x2="50" y2="20.833" gradientUnits="userSpaceOnUse"><stop stop-color="#FB8133"/><stop offset="1" stop-color="#FFBA08"/></linearGradient></defs></svg>