<svg width="50" height="50" fill="none" xmlns="http://www.w3.org/2000/svg"><path d="M36.458 44.792a1.042 1.042 0 0 1-1.041-1.042v-2.083a1.042 1.042 0 0 1 2.083 0v2.083c0 .575-.467 1.042-1.042 1.042Z" fill="url(#a)"/><path d="M36.458 32.292a1.042 1.042 0 0 1-1.041-1.042v-2.083a1.042 1.042 0 0 1 2.083 0v2.083c0 .575-.467 1.042-1.042 1.042Z" fill="url(#b)"/><path d="M36.979 42.708h-3.646a1.042 1.042 0 0 1 0-2.083h3.646a1.563 1.563 0 0 0 0-3.125h-1.042a3.65 3.65 0 0 1-3.645-3.646 3.65 3.65 0 0 1 3.645-3.646h3.646a1.042 1.042 0 0 1 0 2.084h-3.646a1.563 1.563 0 0 0 0 3.125h1.042a3.65 3.65 0 0 1 3.646 3.646 3.65 3.65 0 0 1-3.646 3.645Z" fill="url(#c)"/><path d="M36.458 50c-7.466 0-13.541-6.075-13.541-13.542 0-7.466 6.074-13.541 13.541-13.541C43.925 22.917 50 28.992 50 36.458 50 43.925 43.925 50 36.458 50Zm0-25C30.14 25 25 30.14 25 36.458c0 6.32 5.14 11.459 11.458 11.459 6.319 0 11.459-5.14 11.459-11.459C47.916 30.14 42.776 25 36.457 25Z" fill="url(#d)"/><path d="M17.708 43.75h-12.5A5.216 5.216 0 0 1 0 38.542V5.208A5.216 5.216 0 0 1 5.208 0h22.917a5.216 5.216 0 0 1 5.208 5.208v12.5a1.042 1.042 0 0 1-2.083 0v-12.5a3.129 3.129 0 0 0-3.125-3.125H5.208a3.129 3.129 0 0 0-3.125 3.125v33.334a3.129 3.129 0 0 0 3.125 3.125h12.5a1.042 1.042 0 0 1 0 2.083Z" fill="#fff"/><path d="M8.112 25c-.285 0-.57-.106-.787-.316a1.065 1.065 0 0 1 0-1.532l5.556-5.418a1.126 1.126 0 0 1 1.282-.203l3.73 1.818 7.21-7.032a1.132 1.132 0 0 1 1.572 0c.433.422.433 1.11 0 1.532l-7.778 7.584c-.34.332-.858.41-1.282.204l-3.73-1.818-4.989 4.865c-.215.21-.5.316-.784.316Z" fill="#fff"/><defs><linearGradient id="a" x1="35.416" y1="44.792" x2="37.5" y2="44.792" gradientUnits="userSpaceOnUse"><stop stop-color="#FB8133"/><stop offset="1" stop-color="#FFBA08"/></linearGradient><linearGradient id="b" x1="35.416" y1="32.292" x2="37.5" y2="32.292" gradientUnits="userSpaceOnUse"><stop stop-color="#FB8133"/><stop offset="1" stop-color="#FFBA08"/></linearGradient><linearGradient id="c" x1="32.291" y1="42.708" x2="40.625" y2="42.708" gradientUnits="userSpaceOnUse"><stop stop-color="#FB8133"/><stop offset="1" stop-color="#FFBA08"/></linearGradient><linearGradient id="d" x1="22.916" y1="50" x2="50" y2="50" gradientUnits="userSpaceOnUse"><stop stop-color="#FB8133"/><stop offset="1" stop-color="#FFBA08"/></linearGradient></defs></svg>