<svg width="29" height="31" fill="none" xmlns="http://www.w3.org/2000/svg"><path d="M15.91 17.909h1.817v1.818H15.91V17.91Zm3.636 0h1.818v1.818h-1.818V17.91Zm-3.637 3.636h1.818v1.818H15.91v-1.818Zm3.637 0h1.818v1.818h-1.818v-1.818Zm3.636-3.636H25v1.818h-1.818V17.91Zm0 3.636H25v1.818h-1.818v-1.818Zm-7.273-7.273h1.818v1.819H15.91v-1.819Zm3.637 0h1.818v1.819h-1.818v-1.819Zm3.636 0H25v1.819h-1.818v-1.819Zm-7.273-3.636h1.818v1.818H15.91v-1.818Zm3.637 0h1.818v1.818h-1.818v-1.818Zm3.636 0H25v1.818h-1.818v-1.818Zm0-3.636H25v1.818h-1.818V7Z" fill="#fff"/><path d="M12 14.5V30M1.5 30h16a.5.5 0 0 0 .5-.5v-3a.5.5 0 0 1 .5-.5h4a.5.5 0 0 1 .5.5v3a.5.5 0 0 0 .5.5H28a.5.5 0 0 0 .5-.5V1.32a.5.5 0 0 0-.729-.444l-15.5 7.984a.5.5 0 0 0-.271.445v5.36a.5.5 0 0 1-.31.462L1.31 19.373a.5.5 0 0 0-.31.463V29.5a.5.5 0 0 0 .5.5Z" stroke="#fff"/></svg>