<svg width="60" height="60" fill="none" xmlns="http://www.w3.org/2000/svg"><path d="M30 55C16.25 55 5 43.75 5 30S16.25 5 30 5s25 11.25 25 25-11.25 25-25 25Zm0-47.5C17.5 7.5 7.5 17.5 7.5 30s10 22.5 22.5 22.5 22.5-10 22.5-22.5S42.5 7.5 30 7.5Z" fill="#fff"/><path d="M30 12.5c-.75 0-1.25-.5-1.25-1.25v-10C28.75.5 29.25 0 30 0s1.25.5 1.25 1.25v10c0 .75-.5 1.25-1.25 1.25ZM58.75 31.25h-10c-.75 0-1.25-.5-1.25-1.25s.5-1.25 1.25-1.25h10c.75 0 1.25.5 1.25 1.25s-.5 1.25-1.25 1.25ZM30 60c-.75 0-1.25-.5-1.25-1.25v-10c0-.75.5-1.25 1.25-1.25s1.25.5 1.25 1.25v10c0 .75-.5 1.25-1.25 1.25ZM11.25 31.25h-10C.5 31.25 0 30.75 0 30s.5-1.25 1.25-1.25h10c.75 0 1.25.5 1.25 1.25s-.5 1.25-1.25 1.25Z" fill="#fff"/><path d="M30 27.5c-2.75 0-5-2.25-5-5s2.25-5 5-5 5 2.25 5 5-2.25 5-5 5Zm0-7.5c-1.5 0-2.5 1-2.5 2.5s1 2.5 2.5 2.5 2.5-1 2.5-2.5-1-2.5-2.5-2.5Z" fill="url(#a)"/><path d="M38.75 40c-.75 0-1.25-.5-1.25-1.25v-2.5c0-2-1.75-3.75-3.75-3.75h-7.5c-2 0-3.75 1.75-3.75 3.75v2.5c0 .75-.5 1.25-1.25 1.25S20 39.5 20 38.75v-2.5c0-3.5 2.75-6.25 6.25-6.25h7.5c3.5 0 6.25 2.75 6.25 6.25v2.5c0 .75-.5 1.25-1.25 1.25Z" fill="url(#b)"/><defs><linearGradient id="a" x1="25" y1="27.5" x2="35" y2="27.5" gradientUnits="userSpaceOnUse"><stop stop-color="#FB8133"/><stop offset="1" stop-color="#FFBA08"/></linearGradient><linearGradient id="b" x1="20" y1="40" x2="40" y2="40" gradientUnits="userSpaceOnUse"><stop stop-color="#FB8133"/><stop offset="1" stop-color="#FFBA08"/></linearGradient></defs></svg>