<svg width="214" height="20" fill="none" xmlns="http://www.w3.org/2000/svg"><path d="M4.666 9.932c1.699 0 3.398-.11 5.089-.17l2.066-.118 9.118-.567c3.605-.232 7.238-.471 10.896-.716l15.572-1.084 3.566-.21 9.07-.566 9.07-.497c1.188-.07 2.392-.16 3.557-.21l14.47-.566 8.903-.348c1.157 0 2.321-.11 3.486-.13l13.984-.238 13.808-.259h3.646l9.014-.05 13.999-.109h14.957c-7.2.12-14.401.245-21.601.378l-8.991.239c-1.292 0-2.592 0-3.892.07l-13.051.437-15.085.507c-.845 0-1.691.09-2.528.14l-8.041.467-16.297.935c-.798 0-1.596.109-2.393.179l-7.978.686-14.247 1.233c-1.308.11-2.616.269-3.924.408l-9.126.994-11.607 1.184-16.137 1.76-3.877.418c-2.314.249-4.619.617-6.924.935a.37.37 0 0 0-.192.02.438.438 0 0 0-.168.115.575.575 0 0 0-.115.193.687.687 0 0 0 0 .468c.027.074.066.14.115.192a.438.438 0 0 0 .168.116c.062.024.127.03.192.02l2.528.139a2.399 2.399 0 0 0-.167.875c.002.548.177 1.073.488 1.46.31.387.732.606 1.171.609 6.597-.517 13.194-1.074 19.8-1.462l17.198-.995 19.01-1.124 5.99-.358c.574 0 1.149-.08 1.723-.1l30.632-.994 16.369-.537c1.978-.06 3.949-.119 5.919-.159l31.326-.607 13.425-.268c3.821-.08 7.642-.11 11.463-.288l9.469-.448c1.596-.07 3.191-.12 4.723-.239l10.729-.905c-.2.434-.255.949-.152 1.432.103.47.35.87.686 1.114.171.128.361.211.559.244.197.032.398.014.59-.055a53.143 53.143 0 0 0 2.337-1.193h-.048l.168-.09.199-.11h-.072l1.237-.646 1.3-.686c.463-.258.917-.567 1.364-.865.246-.186.449-.45.589-.763.14-.314.212-.668.209-1.027a2.422 2.422 0 0 0-.338-1.249c-.219-.359-.526-.619-.875-.74-.406-.09-.797-.16-1.204-.22h-.271c-.272 0-.551 0-.798.07-.606 0-1.213.17-1.819.22l-1.492.139-3.988.358-1.037.09a1.78 1.78 0 0 0 .271-.618c.063-.179.098-.371.104-.566l.048-.428a1.898 1.898 0 0 0-.08-.527l.104-.06c.248-.182.457-.438.606-.746a2.66 2.66 0 0 0 .207-1.014 2.596 2.596 0 0 0-.231-1.054l-.263-.418a1.627 1.627 0 0 0-.742-.537 3.599 3.599 0 0 0-1.596-.309c-.438 0-.893 0-1.332.05h-24.761c-8.184 0-16.361.06-24.545.16l-18.411.357c-2.744 0-5.48.08-8.224.16l-18.443.487-5.257.14c-1.021 0-2.034.089-3.056.138l-18.227.856-5.584.268c-1.037.05-2.082.13-3.12.2L51.572 4.56c-3.12.21-6.23.448-9.35.687L26.229 6.5c-4.62.358-9.238.676-13.857.994l-2.193.16-3.55.238c-1.053.06-2.106.09-3.19.06a.889.889 0 0 0-.265-.429.616.616 0 0 0-.414-.158c-.678.07-1.356.16-2.034.249a.713.713 0 0 0-.433.205 1.02 1.02 0 0 0-.27.471c-.048.237-.018.489.082.7.1.21.263.363.453.424l.886.258c.294.076.593.123.893.14.774.09 1.556.109 2.33.119Zm186.663-3.193h2.976c.086.278.222.526.398.726-.383.04-.765.07-1.148.09l-2.17.1-9.485.427c-1.444.07-2.888.17-4.331.199l-6.773.13-15.475.308-30.042.596c-7.179.14-14.359.418-21.538.657l-32.355 1.064c-2.162.08-4.332.249-6.493.378l-18.396 1.104-18.052 1.074-1.675.1 4.866-.478 17-1.621 5.934-.567 3.063-.239 17.678-1.303c1.148-.09 2.297-.198 3.454-.258l5.017-.269 18.228-.885 3.988-.189h1.061l2.816-.07 18.26-.467c2.8-.07 5.584-.149 8.408-.179 9.054-.09 18.1-.209 27.122-.258 9.229-.08 18.451-.16 27.672-.17h-.008Z" fill="url(#a)"/><defs><linearGradient id="a" x1="0" y1="19.271" x2="214" y2="19.271" gradientUnits="userSpaceOnUse"><stop stop-color="#D93764"/><stop offset="1" stop-color="#F24F60"/></linearGradient></defs></svg>