<svg width="214" height="23" fill="none" xmlns="http://www.w3.org/2000/svg"><path d="M4.666 9.386c1.699 0 3.398-.109 5.089-.168l2.066-.12 9.118-.566c3.605-.231 7.238-.47 10.896-.715l15.572-1.082 3.566-.208 9.07-.566 9.07-.497c1.188-.07 2.392-.159 3.557-.208l14.47-.566 8.903-.348c1.157 0 2.321-.11 3.486-.13l13.984-.237 13.808-.259h3.646l9.014-.05 13.999-.108h14.957c-7.2.119-14.401.245-21.601.377l-8.991.238c-1.292 0-2.592 0-3.892.07l-13.051.437-15.085.506c-.845 0-1.691.09-2.528.14l-8.041.466-16.297.933c-.798 0-1.596.11-2.393.179l-7.978.685L54.833 8.82c-1.308.11-2.616.268-3.924.407l-9.126.993-11.607 1.182L14.04 13.16l-3.877.417c-2.314.248-4.619.615-6.924.933a.37.37 0 0 0-.192.02.438.438 0 0 0-.168.115.574.574 0 0 0-.115.192.685.685 0 0 0 0 .468.573.573 0 0 0 .115.192.438.438 0 0 0 .168.116.37.37 0 0 0 .192.02l2.528.138c-.108.272-.166.57-.167.874.002.547.177 1.07.488 1.457.31.387.732.606 1.171.608 6.597-.516 13.194-1.072 19.8-1.46l17.198-.992 19.01-1.122 5.99-.358c.574 0 1.149-.08 1.723-.1l30.632-.992 16.369-.536c1.978-.06 3.949-.12 5.919-.16l31.326-.605 13.425-.268c3.821-.08 7.642-.11 11.463-.288l9.469-.447c1.596-.07 3.191-.119 4.723-.238l10.729-.904c-.2.434-.255.947-.152 1.43.103.468.35.867.686 1.112.171.128.361.211.559.243.197.033.398.014.59-.054a53.25 53.25 0 0 0 2.337-1.192h-.048l.168-.089.199-.11h-.072l1.237-.645 1.3-.685c.463-.258.917-.566 1.364-.864.246-.186.449-.448.589-.762.14-.313.212-.667.209-1.025a2.415 2.415 0 0 0-.338-1.247c-.219-.358-.526-.618-.875-.739a16.93 16.93 0 0 0-1.204-.218h-.271c-.272 0-.551 0-.798.07-.606 0-1.213.168-1.819.218l-1.492.139-3.988.357-1.037.09c.125-.179.218-.389.271-.616.063-.18.098-.371.104-.566l.048-.427a1.892 1.892 0 0 0-.08-.527l.104-.06a2 2 0 0 0 .606-.744c.133-.312.204-.66.207-1.013a2.589 2.589 0 0 0-.231-1.052l-.263-.417a1.627 1.627 0 0 0-.742-.536 3.604 3.604 0 0 0-1.596-.308c-.438 0-.893 0-1.332.05h-24.761c-8.184 0-16.361.059-24.545.158L131.557.57c-2.744 0-5.48.08-8.224.159l-18.443.486-5.257.14c-1.021 0-2.034.089-3.056.138l-18.227.854-5.584.268c-1.037.05-2.082.13-3.12.199L51.572 4.024c-3.12.209-6.23.447-9.35.685L26.229 5.961c-4.62.357-9.238.675-13.857.993l-2.193.158-3.55.239c-1.053.06-2.106.09-3.19.06a.887.887 0 0 0-.265-.429.617.617 0 0 0-.414-.158 71.01 71.01 0 0 0-2.034.249.714.714 0 0 0-.433.205c-.125.12-.219.284-.27.47-.048.237-.018.488.082.699.1.21.263.362.453.423l.886.258c.294.076.593.122.893.14.774.089 1.556.108 2.33.118ZM191.329 6.2h2.976c.086.277.222.525.398.725-.383.04-.765.07-1.148.09l-2.17.098-9.485.427c-1.444.07-2.888.17-4.331.199l-6.773.13-15.475.307-30.042.596c-7.179.139-14.359.417-21.538.655L71.386 10.49c-2.162.079-4.332.248-6.493.377l-18.396 1.102-18.052 1.072-1.675.1 4.866-.477 17-1.618 5.934-.566 3.063-.239 17.678-1.3c1.148-.09 2.297-.2 3.454-.259l5.017-.268 18.228-.884 3.988-.188h1.061l2.816-.07 18.26-.466c2.8-.07 5.584-.15 8.408-.18 9.054-.089 18.1-.208 27.122-.257 9.229-.08 18.451-.16 27.672-.17h-.008Z" fill="url(#a)"/><defs><linearGradient id="a" x1="0" y1="18.71" x2="214" y2="18.71" gradientUnits="userSpaceOnUse"><stop stop-color="#258EE8"/><stop offset="1" stop-color="#2AB5ED"/></linearGradient></defs></svg>