<svg width="34" height="28" fill="none" xmlns="http://www.w3.org/2000/svg"><path d="M8.457 18.33c-2.614 0-4.612-1.997-4.612-4.609s1.998-4.609 4.612-4.609c2.613 0 4.612 1.997 4.612 4.61 0 2.61-1.999 4.608-4.612 4.608Zm0-7.681a3.083 3.083 0 0 0-3.075 3.072 3.083 3.083 0 0 0 3.075 3.073 3.083 3.083 0 0 0 3.074-3.073 3.083 3.083 0 0 0-3.074-3.072ZM16.142 27.546c-.461 0-.769-.307-.769-.768v-3.072c0-1.23-1.076-2.305-2.306-2.305H3.843c-1.23 0-2.306 1.076-2.306 2.305v3.072c0 .461-.307.768-.768.768-.462 0-.769-.307-.769-.768v-3.072c0-2.15 1.691-3.84 3.843-3.84h9.224a3.805 3.805 0 0 1 3.844 3.84v3.072c0 .461-.308.768-.77.768Z" fill="#fff"/><path d="M25.508 0c-3.205-.044-6.28 2.192-7.2 5.27-.706 2.212-.293 4.745 1.089 6.614l-3.423-.662-.29 1.498 6.155 1.192 1.192-6.106-1.499-.292-.723 3.705c-1.765-2.106-1.74-5.441.056-7.523 1.748-2.184 5.078-2.811 7.515-1.45 2.33 1.203 3.624 4.053 2.988 6.6-.57 2.657-3.148 4.672-5.86 4.618-.706-.05-1.06.97-.476 1.368.51.318 1.156.094 1.715.057 3.157-.48 5.82-3.173 6.227-6.347.47-3.028-1.162-6.22-3.877-7.635A7.532 7.532 0 0 0 25.508 0Z" fill="url(#a)"/><defs><linearGradient id="a" x1="15.684" y1="7.5" x2="33.055" y2="7.5" gradientUnits="userSpaceOnUse"><stop stop-color="#FB8530"/><stop offset="1" stop-color="#FEB50B"/></linearGradient></defs></svg>